<?xml version="1.0" encoding="utf-8" standalone="no"?>
<!DOCTYPE svg PUBLIC "-//W3C//DTD SVG 1.1//EN"
  "http://www.w3.org/Graphics/SVG/1.1/DTD/svg11.dtd">
<!-- Created with matplotlib (https://matplotlib.org/) -->
<svg height="447.954375pt" version="1.1" viewBox="0 0 562.728125 447.954375" width="562.728125pt" xmlns="http://www.w3.org/2000/svg" xmlns:xlink="http://www.w3.org/1999/xlink">
 <defs>
  <style type="text/css">
*{stroke-linecap:butt;stroke-linejoin:round;}
  </style>
 </defs>
 <g id="figure_1">
  <g id="patch_1">
   <path d="M 0 447.954375 
L 562.728125 447.954375 
L 562.728125 0 
L 0 0 
z
" style="fill:#ffffff;"/>
  </g>
  <g id="axes_1">
   <g id="patch_2">
    <path d="M 53.328125 410.398125 
L 555.528125 410.398125 
L 555.528125 22.318125 
L 53.328125 22.318125 
z
" style="fill:#ffffff;"/>
   </g>
   <g id="matplotlib.axis_1">
    <g id="xtick_1">
     <g id="line2d_1">
      <defs>
       <path d="M 0 0 
L 0 3.5 
" id="mb6e781a50e" style="stroke:#000000;stroke-width:0.8;"/>
      </defs>
      <g>
       <use style="stroke:#000000;stroke-width:0.8;" x="76.155398" xlink:href="#mb6e781a50e" y="410.398125"/>
      </g>
     </g>
     <g id="text_1">
      <!-- 0 -->
      <defs>
       <path d="M 31.78125 66.40625 
Q 24.171875 66.40625 20.328125 58.90625 
Q 16.5 51.421875 16.5 36.375 
Q 16.5 21.390625 20.328125 13.890625 
Q 24.171875 6.390625 31.78125 6.390625 
Q 39.453125 6.390625 43.28125 13.890625 
Q 47.125 21.390625 47.125 36.375 
Q 47.125 51.421875 43.28125 58.90625 
Q 39.453125 66.40625 31.78125 66.40625 
z
M 31.78125 74.21875 
Q 44.046875 74.21875 50.515625 64.515625 
Q 56.984375 54.828125 56.984375 36.375 
Q 56.984375 17.96875 50.515625 8.265625 
Q 44.046875 -1.421875 31.78125 -1.421875 
Q 19.53125 -1.421875 13.0625 8.265625 
Q 6.59375 17.96875 6.59375 36.375 
Q 6.59375 54.828125 13.0625 64.515625 
Q 19.53125 74.21875 31.78125 74.21875 
z
" id="DejaVuSans-48"/>
      </defs>
      <g transform="translate(72.974148 424.996562)scale(0.1 -0.1)">
       <use xlink:href="#DejaVuSans-48"/>
      </g>
     </g>
    </g>
    <g id="xtick_2">
     <g id="line2d_2">
      <g>
       <use style="stroke:#000000;stroke-width:0.8;" x="168.386803" xlink:href="#mb6e781a50e" y="410.398125"/>
      </g>
     </g>
     <g id="text_2">
      <!-- 20 -->
      <defs>
       <path d="M 19.1875 8.296875 
L 53.609375 8.296875 
L 53.609375 0 
L 7.328125 0 
L 7.328125 8.296875 
Q 12.9375 14.109375 22.625 23.890625 
Q 32.328125 33.6875 34.8125 36.53125 
Q 39.546875 41.84375 41.421875 45.53125 
Q 43.3125 49.21875 43.3125 52.78125 
Q 43.3125 58.59375 39.234375 62.25 
Q 35.15625 65.921875 28.609375 65.921875 
Q 23.96875 65.921875 18.8125 64.3125 
Q 13.671875 62.703125 7.8125 59.421875 
L 7.8125 69.390625 
Q 13.765625 71.78125 18.9375 73 
Q 24.125 74.21875 28.421875 74.21875 
Q 39.75 74.21875 46.484375 68.546875 
Q 53.21875 62.890625 53.21875 53.421875 
Q 53.21875 48.921875 51.53125 44.890625 
Q 49.859375 40.875 45.40625 35.40625 
Q 44.1875 33.984375 37.640625 27.21875 
Q 31.109375 20.453125 19.1875 8.296875 
z
" id="DejaVuSans-50"/>
      </defs>
      <g transform="translate(162.024303 424.996562)scale(0.1 -0.1)">
       <use xlink:href="#DejaVuSans-50"/>
       <use x="63.623047" xlink:href="#DejaVuSans-48"/>
      </g>
     </g>
    </g>
    <g id="xtick_3">
     <g id="line2d_3">
      <g>
       <use style="stroke:#000000;stroke-width:0.8;" x="260.618208" xlink:href="#mb6e781a50e" y="410.398125"/>
      </g>
     </g>
     <g id="text_3">
      <!-- 40 -->
      <defs>
       <path d="M 37.796875 64.3125 
L 12.890625 25.390625 
L 37.796875 25.390625 
z
M 35.203125 72.90625 
L 47.609375 72.90625 
L 47.609375 25.390625 
L 58.015625 25.390625 
L 58.015625 17.1875 
L 47.609375 17.1875 
L 47.609375 0 
L 37.796875 0 
L 37.796875 17.1875 
L 4.890625 17.1875 
L 4.890625 26.703125 
z
" id="DejaVuSans-52"/>
      </defs>
      <g transform="translate(254.255708 424.996562)scale(0.1 -0.1)">
       <use xlink:href="#DejaVuSans-52"/>
       <use x="63.623047" xlink:href="#DejaVuSans-48"/>
      </g>
     </g>
    </g>
    <g id="xtick_4">
     <g id="line2d_4">
      <g>
       <use style="stroke:#000000;stroke-width:0.8;" x="352.849613" xlink:href="#mb6e781a50e" y="410.398125"/>
      </g>
     </g>
     <g id="text_4">
      <!-- 60 -->
      <defs>
       <path d="M 33.015625 40.375 
Q 26.375 40.375 22.484375 35.828125 
Q 18.609375 31.296875 18.609375 23.390625 
Q 18.609375 15.53125 22.484375 10.953125 
Q 26.375 6.390625 33.015625 6.390625 
Q 39.65625 6.390625 43.53125 10.953125 
Q 47.40625 15.53125 47.40625 23.390625 
Q 47.40625 31.296875 43.53125 35.828125 
Q 39.65625 40.375 33.015625 40.375 
z
M 52.59375 71.296875 
L 52.59375 62.3125 
Q 48.875 64.0625 45.09375 64.984375 
Q 41.3125 65.921875 37.59375 65.921875 
Q 27.828125 65.921875 22.671875 59.328125 
Q 17.53125 52.734375 16.796875 39.40625 
Q 19.671875 43.65625 24.015625 45.921875 
Q 28.375 48.1875 33.59375 48.1875 
Q 44.578125 48.1875 50.953125 41.515625 
Q 57.328125 34.859375 57.328125 23.390625 
Q 57.328125 12.15625 50.6875 5.359375 
Q 44.046875 -1.421875 33.015625 -1.421875 
Q 20.359375 -1.421875 13.671875 8.265625 
Q 6.984375 17.96875 6.984375 36.375 
Q 6.984375 53.65625 15.1875 63.9375 
Q 23.390625 74.21875 37.203125 74.21875 
Q 40.921875 74.21875 44.703125 73.484375 
Q 48.484375 72.75 52.59375 71.296875 
z
" id="DejaVuSans-54"/>
      </defs>
      <g transform="translate(346.487113 424.996562)scale(0.1 -0.1)">
       <use xlink:href="#DejaVuSans-54"/>
       <use x="63.623047" xlink:href="#DejaVuSans-48"/>
      </g>
     </g>
    </g>
    <g id="xtick_5">
     <g id="line2d_5">
      <g>
       <use style="stroke:#000000;stroke-width:0.8;" x="445.081018" xlink:href="#mb6e781a50e" y="410.398125"/>
      </g>
     </g>
     <g id="text_5">
      <!-- 80 -->
      <defs>
       <path d="M 31.78125 34.625 
Q 24.75 34.625 20.71875 30.859375 
Q 16.703125 27.09375 16.703125 20.515625 
Q 16.703125 13.921875 20.71875 10.15625 
Q 24.75 6.390625 31.78125 6.390625 
Q 38.8125 6.390625 42.859375 10.171875 
Q 46.921875 13.96875 46.921875 20.515625 
Q 46.921875 27.09375 42.890625 30.859375 
Q 38.875 34.625 31.78125 34.625 
z
M 21.921875 38.8125 
Q 15.578125 40.375 12.03125 44.71875 
Q 8.5 49.078125 8.5 55.328125 
Q 8.5 64.0625 14.71875 69.140625 
Q 20.953125 74.21875 31.78125 74.21875 
Q 42.671875 74.21875 48.875 69.140625 
Q 55.078125 64.0625 55.078125 55.328125 
Q 55.078125 49.078125 51.53125 44.71875 
Q 48 40.375 41.703125 38.8125 
Q 48.828125 37.15625 52.796875 32.3125 
Q 56.78125 27.484375 56.78125 20.515625 
Q 56.78125 9.90625 50.3125 4.234375 
Q 43.84375 -1.421875 31.78125 -1.421875 
Q 19.734375 -1.421875 13.25 4.234375 
Q 6.78125 9.90625 6.78125 20.515625 
Q 6.78125 27.484375 10.78125 32.3125 
Q 14.796875 37.15625 21.921875 38.8125 
z
M 18.3125 54.390625 
Q 18.3125 48.734375 21.84375 45.5625 
Q 25.390625 42.390625 31.78125 42.390625 
Q 38.140625 42.390625 41.71875 45.5625 
Q 45.3125 48.734375 45.3125 54.390625 
Q 45.3125 60.0625 41.71875 63.234375 
Q 38.140625 66.40625 31.78125 66.40625 
Q 25.390625 66.40625 21.84375 63.234375 
Q 18.3125 60.0625 18.3125 54.390625 
z
" id="DejaVuSans-56"/>
      </defs>
      <g transform="translate(438.718518 424.996562)scale(0.1 -0.1)">
       <use xlink:href="#DejaVuSans-56"/>
       <use x="63.623047" xlink:href="#DejaVuSans-48"/>
      </g>
     </g>
    </g>
    <g id="xtick_6">
     <g id="line2d_6">
      <g>
       <use style="stroke:#000000;stroke-width:0.8;" x="537.312423" xlink:href="#mb6e781a50e" y="410.398125"/>
      </g>
     </g>
     <g id="text_6">
      <!-- 100 -->
      <defs>
       <path d="M 12.40625 8.296875 
L 28.515625 8.296875 
L 28.515625 63.921875 
L 10.984375 60.40625 
L 10.984375 69.390625 
L 28.421875 72.90625 
L 38.28125 72.90625 
L 38.28125 8.296875 
L 54.390625 8.296875 
L 54.390625 0 
L 12.40625 0 
z
" id="DejaVuSans-49"/>
      </defs>
      <g transform="translate(527.768673 424.996562)scale(0.1 -0.1)">
       <use xlink:href="#DejaVuSans-49"/>
       <use x="63.623047" xlink:href="#DejaVuSans-48"/>
       <use x="127.246094" xlink:href="#DejaVuSans-48"/>
      </g>
     </g>
    </g>
    <g id="text_7">
     <!-- x -->
     <defs>
      <path d="M 54.890625 54.6875 
L 35.109375 28.078125 
L 55.90625 0 
L 45.3125 0 
L 29.390625 21.484375 
L 13.484375 0 
L 2.875 0 
L 24.125 28.609375 
L 4.6875 54.6875 
L 15.28125 54.6875 
L 29.78125 35.203125 
L 44.28125 54.6875 
z
" id="DejaVuSans-120"/>
     </defs>
     <g transform="translate(301.46875 438.674687)scale(0.1 -0.1)">
      <use xlink:href="#DejaVuSans-120"/>
     </g>
    </g>
   </g>
   <g id="matplotlib.axis_2">
    <g id="ytick_1">
     <g id="line2d_7">
      <defs>
       <path d="M 0 0 
L -3.5 0 
" id="meb6ef84c24" style="stroke:#000000;stroke-width:0.8;"/>
      </defs>
      <g>
       <use style="stroke:#000000;stroke-width:0.8;" x="53.328125" xlink:href="#meb6ef84c24" y="392.758125"/>
      </g>
     </g>
     <g id="text_8">
      <!-- 0 -->
      <g transform="translate(39.965625 396.557344)scale(0.1 -0.1)">
       <use xlink:href="#DejaVuSans-48"/>
      </g>
     </g>
    </g>
    <g id="ytick_2">
     <g id="line2d_8">
      <g>
       <use style="stroke:#000000;stroke-width:0.8;" x="53.328125" xlink:href="#meb6ef84c24" y="322.198125"/>
      </g>
     </g>
     <g id="text_9">
      <!-- 1000 -->
      <g transform="translate(20.878125 325.997344)scale(0.1 -0.1)">
       <use xlink:href="#DejaVuSans-49"/>
       <use x="63.623047" xlink:href="#DejaVuSans-48"/>
       <use x="127.246094" xlink:href="#DejaVuSans-48"/>
       <use x="190.869141" xlink:href="#DejaVuSans-48"/>
      </g>
     </g>
    </g>
    <g id="ytick_3">
     <g id="line2d_9">
      <g>
       <use style="stroke:#000000;stroke-width:0.8;" x="53.328125" xlink:href="#meb6ef84c24" y="251.638125"/>
      </g>
     </g>
     <g id="text_10">
      <!-- 2000 -->
      <g transform="translate(20.878125 255.437344)scale(0.1 -0.1)">
       <use xlink:href="#DejaVuSans-50"/>
       <use x="63.623047" xlink:href="#DejaVuSans-48"/>
       <use x="127.246094" xlink:href="#DejaVuSans-48"/>
       <use x="190.869141" xlink:href="#DejaVuSans-48"/>
      </g>
     </g>
    </g>
    <g id="ytick_4">
     <g id="line2d_10">
      <g>
       <use style="stroke:#000000;stroke-width:0.8;" x="53.328125" xlink:href="#meb6ef84c24" y="181.078125"/>
      </g>
     </g>
     <g id="text_11">
      <!-- 3000 -->
      <defs>
       <path d="M 40.578125 39.3125 
Q 47.65625 37.796875 51.625 33 
Q 55.609375 28.21875 55.609375 21.1875 
Q 55.609375 10.40625 48.1875 4.484375 
Q 40.765625 -1.421875 27.09375 -1.421875 
Q 22.515625 -1.421875 17.65625 -0.515625 
Q 12.796875 0.390625 7.625 2.203125 
L 7.625 11.71875 
Q 11.71875 9.328125 16.59375 8.109375 
Q 21.484375 6.890625 26.8125 6.890625 
Q 36.078125 6.890625 40.9375 10.546875 
Q 45.796875 14.203125 45.796875 21.1875 
Q 45.796875 27.640625 41.28125 31.265625 
Q 36.765625 34.90625 28.71875 34.90625 
L 20.21875 34.90625 
L 20.21875 43.015625 
L 29.109375 43.015625 
Q 36.375 43.015625 40.234375 45.921875 
Q 44.09375 48.828125 44.09375 54.296875 
Q 44.09375 59.90625 40.109375 62.90625 
Q 36.140625 65.921875 28.71875 65.921875 
Q 24.65625 65.921875 20.015625 65.03125 
Q 15.375 64.15625 9.8125 62.3125 
L 9.8125 71.09375 
Q 15.4375 72.65625 20.34375 73.4375 
Q 25.25 74.21875 29.59375 74.21875 
Q 40.828125 74.21875 47.359375 69.109375 
Q 53.90625 64.015625 53.90625 55.328125 
Q 53.90625 49.265625 50.4375 45.09375 
Q 46.96875 40.921875 40.578125 39.3125 
z
" id="DejaVuSans-51"/>
      </defs>
      <g transform="translate(20.878125 184.877344)scale(0.1 -0.1)">
       <use xlink:href="#DejaVuSans-51"/>
       <use x="63.623047" xlink:href="#DejaVuSans-48"/>
       <use x="127.246094" xlink:href="#DejaVuSans-48"/>
       <use x="190.869141" xlink:href="#DejaVuSans-48"/>
      </g>
     </g>
    </g>
    <g id="ytick_5">
     <g id="line2d_11">
      <g>
       <use style="stroke:#000000;stroke-width:0.8;" x="53.328125" xlink:href="#meb6ef84c24" y="110.518125"/>
      </g>
     </g>
     <g id="text_12">
      <!-- 4000 -->
      <g transform="translate(20.878125 114.317344)scale(0.1 -0.1)">
       <use xlink:href="#DejaVuSans-52"/>
       <use x="63.623047" xlink:href="#DejaVuSans-48"/>
       <use x="127.246094" xlink:href="#DejaVuSans-48"/>
       <use x="190.869141" xlink:href="#DejaVuSans-48"/>
      </g>
     </g>
    </g>
    <g id="ytick_6">
     <g id="line2d_12">
      <g>
       <use style="stroke:#000000;stroke-width:0.8;" x="53.328125" xlink:href="#meb6ef84c24" y="39.958125"/>
      </g>
     </g>
     <g id="text_13">
      <!-- 5000 -->
      <defs>
       <path d="M 10.796875 72.90625 
L 49.515625 72.90625 
L 49.515625 64.59375 
L 19.828125 64.59375 
L 19.828125 46.734375 
Q 21.96875 47.46875 24.109375 47.828125 
Q 26.265625 48.1875 28.421875 48.1875 
Q 40.625 48.1875 47.75 41.5 
Q 54.890625 34.8125 54.890625 23.390625 
Q 54.890625 11.625 47.5625 5.09375 
Q 40.234375 -1.421875 26.90625 -1.421875 
Q 22.3125 -1.421875 17.546875 -0.640625 
Q 12.796875 0.140625 7.71875 1.703125 
L 7.71875 11.625 
Q 12.109375 9.234375 16.796875 8.0625 
Q 21.484375 6.890625 26.703125 6.890625 
Q 35.15625 6.890625 40.078125 11.328125 
Q 45.015625 15.765625 45.015625 23.390625 
Q 45.015625 31 40.078125 35.4375 
Q 35.15625 39.890625 26.703125 39.890625 
Q 22.75 39.890625 18.8125 39.015625 
Q 14.890625 38.140625 10.796875 36.28125 
z
" id="DejaVuSans-53"/>
      </defs>
      <g transform="translate(20.878125 43.757344)scale(0.1 -0.1)">
       <use xlink:href="#DejaVuSans-53"/>
       <use x="63.623047" xlink:href="#DejaVuSans-48"/>
       <use x="127.246094" xlink:href="#DejaVuSans-48"/>
       <use x="190.869141" xlink:href="#DejaVuSans-48"/>
      </g>
     </g>
    </g>
    <g id="text_14">
     <!-- y -->
     <defs>
      <path d="M 32.171875 -5.078125 
Q 28.375 -14.84375 24.75 -17.8125 
Q 21.140625 -20.796875 15.09375 -20.796875 
L 7.90625 -20.796875 
L 7.90625 -13.28125 
L 13.1875 -13.28125 
Q 16.890625 -13.28125 18.9375 -11.515625 
Q 21 -9.765625 23.484375 -3.21875 
L 25.09375 0.875 
L 2.984375 54.6875 
L 12.5 54.6875 
L 29.59375 11.921875 
L 46.6875 54.6875 
L 56.203125 54.6875 
z
" id="DejaVuSans-121"/>
     </defs>
     <g transform="translate(14.798438 219.3175)rotate(-90)scale(0.1 -0.1)">
      <use xlink:href="#DejaVuSans-121"/>
     </g>
    </g>
   </g>
   <g id="line2d_13">
    <path clip-path="url(#pe66caf98cc)" d="M 76.155398 392.758125 
L 80.766968 392.758125 
L 85.378538 392.758125 
L 89.990108 392.758125 
L 94.601679 392.758125 
L 99.213249 392.758125 
L 103.824819 392.758125 
L 108.436389 392.758125 
L 113.04796 392.758125 
L 117.65953 392.758125 
L 122.2711 392.758125 
L 126.88267 392.758125 
L 131.494241 392.758125 
L 136.105811 392.758125 
L 140.717381 392.758125 
L 145.328951 392.758125 
L 149.940522 392.758125 
L 154.552092 392.758125 
L 159.163662 392.758125 
L 163.775232 392.758125 
L 168.386803 392.758125 
L 172.998373 392.758125 
L 177.609943 392.758125 
L 182.221513 392.758125 
L 186.833084 392.758125 
L 191.444654 392.758125 
L 196.056224 392.758125 
L 200.667794 392.758125 
L 205.279365 392.758125 
L 209.890935 392.758125 
L 214.502505 392.758125 
L 219.114075 392.758125 
L 223.725646 392.758125 
L 228.337216 392.758125 
L 232.948786 392.758125 
L 237.560356 392.758125 
L 242.171927 392.758125 
L 246.783497 392.758125 
L 251.395067 392.758125 
L 256.006637 392.758125 
L 260.618208 392.758125 
L 265.229778 392.758125 
L 269.841348 392.758125 
L 274.452918 392.758125 
L 279.064489 392.758125 
L 283.676059 392.758125 
L 288.287629 392.758125 
L 292.899199 392.758125 
L 297.51077 392.758125 
L 302.12234 392.758125 
L 306.73391 39.958125 
L 311.34548 392.758125 
L 315.957051 392.758125 
L 320.568621 392.758125 
L 325.180191 392.758125 
L 329.791761 392.758125 
L 334.403332 392.758125 
L 339.014902 392.758125 
L 343.626472 392.758125 
L 348.238042 392.758125 
L 352.849613 392.758125 
L 357.461183 392.758125 
L 362.072753 392.758125 
L 366.684323 392.758125 
L 371.295894 392.758125 
L 375.907464 392.758125 
L 380.519034 392.758125 
L 385.130604 392.758125 
L 389.742175 392.758125 
L 394.353745 392.758125 
L 398.965315 392.758125 
L 403.576885 392.758125 
L 408.188456 392.758125 
L 412.800026 392.758125 
L 417.411596 392.758125 
L 422.023166 392.758125 
L 426.634737 392.758125 
L 431.246307 392.758125 
L 435.857877 392.758125 
L 440.469447 392.758125 
L 445.081018 392.758125 
L 449.692588 392.758125 
L 454.304158 392.758125 
L 458.915728 392.758125 
L 463.527299 392.758125 
L 468.138869 392.758125 
L 472.750439 392.758125 
L 477.362009 392.758125 
L 481.97358 392.758125 
L 486.58515 392.758125 
L 491.19672 392.758125 
L 495.80829 392.758125 
L 500.419861 392.758125 
L 505.031431 392.758125 
L 509.643001 392.758125 
L 514.254571 392.758125 
L 518.866142 392.758125 
L 523.477712 392.758125 
L 528.089282 392.758125 
L 532.700852 392.758125 
" style="fill:none;stroke:#1f77b4;stroke-linecap:square;stroke-width:2;"/>
   </g>
   <g id="line2d_14">
    <path clip-path="url(#pe66caf98cc)" d="M 76.155398 392.758125 
L 80.766968 392.758125 
L 85.378538 392.758125 
L 89.990108 392.758125 
L 94.601679 392.758125 
L 99.213249 392.758125 
L 103.824819 392.758125 
L 108.436389 392.758125 
L 113.04796 392.758125 
L 117.65953 392.758125 
L 122.2711 392.758125 
L 126.88267 392.758125 
L 131.494241 392.758125 
L 136.105811 392.758125 
L 140.717381 392.758125 
L 145.328951 392.758125 
L 149.940522 392.758125 
L 154.552092 392.758125 
L 159.163662 392.758125 
L 163.775232 392.758125 
L 168.386803 392.758125 
L 172.998373 392.758125 
L 177.609943 392.758125 
L 182.221513 392.758125 
L 186.833084 392.758125 
L 191.444654 392.758125 
L 196.056224 392.758125 
L 200.667794 392.758125 
L 205.279365 392.758125 
L 209.890935 392.758125 
L 214.502505 392.758125 
L 219.114075 392.758125 
L 223.725646 392.758125 
L 228.337216 392.758125 
L 232.948786 392.758125 
L 237.560356 392.758125 
L 242.171927 392.758125 
L 246.783497 392.758125 
L 251.395067 392.758125 
L 256.006637 392.758125 
L 260.618208 392.687565 
L 265.229778 390.570765 
L 269.841348 387.677805 
L 274.452918 381.115725 
L 279.064489 377.305485 
L 283.676059 371.872365 
L 288.287629 366.015885 
L 292.899199 361.641165 
L 297.51077 356.913645 
L 302.12234 360.018285 
L 306.73391 363.122925 
L 311.34548 363.969645 
L 315.957051 368.697165 
L 320.568621 373.142445 
L 325.180191 375.188685 
L 329.791761 380.127885 
L 334.403332 383.514765 
L 339.014902 383.373645 
L 343.626472 388.242285 
L 348.238042 387.748365 
L 352.849613 389.441805 
L 357.461183 390.641325 
L 362.072753 391.558605 
L 366.684323 391.064685 
L 371.295894 391.911405 
L 375.907464 391.981965 
L 380.519034 392.546445 
L 385.130604 392.617005 
L 389.742175 392.687565 
L 394.353745 392.758125 
L 398.965315 392.687565 
L 403.576885 392.617005 
L 408.188456 392.758125 
L 412.800026 392.758125 
L 417.411596 392.758125 
L 422.023166 392.758125 
L 426.634737 392.758125 
L 431.246307 392.758125 
L 435.857877 392.758125 
L 440.469447 392.758125 
L 445.081018 392.758125 
L 449.692588 392.758125 
L 454.304158 392.758125 
L 458.915728 392.758125 
L 463.527299 392.758125 
L 468.138869 392.758125 
L 472.750439 392.758125 
L 477.362009 392.758125 
L 481.97358 392.758125 
L 486.58515 392.758125 
L 491.19672 392.758125 
L 495.80829 392.758125 
L 500.419861 392.758125 
L 505.031431 392.758125 
L 509.643001 392.758125 
L 514.254571 392.758125 
L 518.866142 392.758125 
L 523.477712 392.758125 
L 528.089282 392.758125 
L 532.700852 392.758125 
" style="fill:none;stroke:#ff7f0e;stroke-linecap:square;stroke-width:2;"/>
   </g>
   <g id="line2d_15">
    <path clip-path="url(#pe66caf98cc)" d="M 76.155398 392.758125 
L 80.766968 392.758125 
L 85.378538 392.758125 
L 89.990108 392.758125 
L 94.601679 392.758125 
L 99.213249 392.758125 
L 103.824819 392.758125 
L 108.436389 392.758125 
L 113.04796 392.758125 
L 117.65953 392.758125 
L 122.2711 392.758125 
L 126.88267 392.758125 
L 131.494241 392.758125 
L 136.105811 392.758125 
L 140.717381 392.758125 
L 145.328951 392.758125 
L 149.940522 392.758125 
L 154.552092 392.758125 
L 159.163662 392.758125 
L 163.775232 392.758125 
L 168.386803 392.758125 
L 172.998373 392.758125 
L 177.609943 392.758125 
L 182.221513 392.758125 
L 186.833084 392.758125 
L 191.444654 392.758125 
L 196.056224 392.758125 
L 200.667794 392.758125 
L 205.279365 392.758125 
L 209.890935 392.758125 
L 214.502505 392.758125 
L 219.114075 392.758125 
L 223.725646 392.758125 
L 228.337216 392.546445 
L 232.948786 392.546445 
L 237.560356 392.123085 
L 242.171927 391.840845 
L 246.783497 390.782445 
L 251.395067 390.006285 
L 256.006637 387.254445 
L 260.618208 385.913805 
L 265.229778 382.668045 
L 269.841348 380.480685 
L 274.452918 378.787245 
L 279.064489 377.093805 
L 283.676059 374.553645 
L 288.287629 371.166765 
L 292.899199 372.154605 
L 297.51077 370.108365 
L 302.12234 370.602285 
L 306.73391 369.332205 
L 311.34548 372.366285 
L 315.957051 372.366285 
L 320.568621 373.495245 
L 325.180191 376.670445 
L 329.791761 378.434445 
L 334.403332 379.845645 
L 339.014902 384.008685 
L 343.626472 384.925965 
L 348.238042 386.054925 
L 352.849613 386.478285 
L 357.461183 388.595085 
L 362.072753 388.947885 
L 366.684323 389.935725 
L 371.295894 390.500205 
L 375.907464 390.923565 
L 380.519034 391.346925 
L 385.130604 391.911405 
L 389.742175 392.193645 
L 394.353745 391.699725 
L 398.965315 392.264205 
L 403.576885 392.405325 
L 408.188456 392.475885 
L 412.800026 392.617005 
L 417.411596 392.687565 
L 422.023166 392.758125 
L 426.634737 392.758125 
L 431.246307 392.758125 
L 435.857877 392.758125 
L 440.469447 392.758125 
L 445.081018 392.758125 
L 449.692588 392.758125 
L 454.304158 392.758125 
L 458.915728 392.758125 
L 463.527299 392.758125 
L 468.138869 392.758125 
L 472.750439 392.758125 
L 477.362009 392.758125 
L 481.97358 392.758125 
L 486.58515 392.687565 
L 491.19672 392.758125 
L 495.80829 392.758125 
L 500.419861 392.758125 
L 505.031431 392.758125 
L 509.643001 392.758125 
L 514.254571 392.758125 
L 518.866142 392.758125 
L 523.477712 392.758125 
L 528.089282 392.758125 
L 532.700852 392.758125 
" style="fill:none;stroke:#2ca02c;stroke-linecap:square;stroke-width:2;"/>
   </g>
   <g id="line2d_16">
    <path clip-path="url(#pe66caf98cc)" d="M 76.155398 392.758125 
L 80.766968 392.758125 
L 85.378538 392.758125 
L 89.990108 392.758125 
L 94.601679 392.758125 
L 99.213249 392.758125 
L 103.824819 392.758125 
L 108.436389 392.758125 
L 113.04796 392.758125 
L 117.65953 392.758125 
L 122.2711 392.758125 
L 126.88267 392.758125 
L 131.494241 392.758125 
L 136.105811 392.758125 
L 140.717381 392.758125 
L 145.328951 392.758125 
L 149.940522 392.758125 
L 154.552092 392.758125 
L 159.163662 392.758125 
L 163.775232 392.758125 
L 168.386803 392.758125 
L 172.998373 392.758125 
L 177.609943 392.758125 
L 182.221513 392.758125 
L 186.833084 392.687565 
L 191.444654 392.758125 
L 196.056224 392.758125 
L 200.667794 392.758125 
L 205.279365 392.546445 
L 209.890935 392.758125 
L 214.502505 392.546445 
L 219.114075 392.264205 
L 223.725646 391.840845 
L 228.337216 391.699725 
L 232.948786 391.346925 
L 237.560356 390.923565 
L 242.171927 389.582925 
L 246.783497 387.889485 
L 251.395067 386.196045 
L 256.006637 386.196045 
L 260.618208 383.585325 
L 265.229778 380.762925 
L 269.841348 379.916205 
L 274.452918 380.762925 
L 279.064489 377.093805 
L 283.676059 377.728845 
L 288.287629 376.035405 
L 292.899199 372.648525 
L 297.51077 374.341965 
L 302.12234 374.271405 
L 306.73391 374.553645 
L 311.34548 374.200845 
L 315.957051 377.376045 
L 320.568621 376.317645 
L 325.180191 377.305485 
L 329.791761 380.269005 
L 334.403332 381.891885 
L 339.014902 381.609645 
L 343.626472 384.008685 
L 348.238042 385.349325 
L 352.849613 384.714285 
L 357.461183 386.901645 
L 362.072753 388.524525 
L 366.684323 388.595085 
L 371.295894 389.441805 
L 375.907464 389.865165 
L 380.519034 390.359085 
L 385.130604 390.570765 
L 389.742175 391.205805 
L 394.353745 391.488045 
L 398.965315 391.840845 
L 403.576885 391.699725 
L 408.188456 392.264205 
L 412.800026 392.264205 
L 417.411596 392.405325 
L 422.023166 392.475885 
L 426.634737 392.475885 
L 431.246307 392.617005 
L 435.857877 392.546445 
L 440.469447 392.687565 
L 445.081018 392.758125 
L 449.692588 392.758125 
L 454.304158 392.758125 
L 458.915728 392.758125 
L 463.527299 392.758125 
L 468.138869 392.758125 
L 472.750439 392.758125 
L 477.362009 392.758125 
L 481.97358 392.758125 
L 486.58515 392.758125 
L 491.19672 392.758125 
L 495.80829 392.758125 
L 500.419861 392.687565 
L 505.031431 392.758125 
L 509.643001 392.758125 
L 514.254571 392.758125 
L 518.866142 392.758125 
L 523.477712 392.758125 
L 528.089282 392.758125 
L 532.700852 392.758125 
" style="fill:none;stroke:#d62728;stroke-linecap:square;stroke-width:2;"/>
   </g>
   <g id="line2d_17">
    <path clip-path="url(#pe66caf98cc)" d="M 76.155398 392.758125 
L 80.766968 392.758125 
L 85.378538 392.758125 
L 89.990108 392.758125 
L 94.601679 392.758125 
L 99.213249 392.758125 
L 103.824819 392.758125 
L 108.436389 392.758125 
L 113.04796 392.758125 
L 117.65953 392.758125 
L 122.2711 392.758125 
L 126.88267 392.758125 
L 131.494241 392.758125 
L 136.105811 392.758125 
L 140.717381 392.758125 
L 145.328951 392.758125 
L 149.940522 392.758125 
L 154.552092 392.758125 
L 159.163662 392.758125 
L 163.775232 392.758125 
L 168.386803 392.758125 
L 172.998373 392.617005 
L 177.609943 392.758125 
L 182.221513 392.758125 
L 186.833084 392.758125 
L 191.444654 392.687565 
L 196.056224 392.546445 
L 200.667794 392.687565 
L 205.279365 392.405325 
L 209.890935 392.264205 
L 214.502505 391.699725 
L 219.114075 391.417485 
L 223.725646 391.276365 
L 228.337216 390.076845 
L 232.948786 388.595085 
L 237.560356 388.242285 
L 242.171927 389.441805 
L 246.783497 386.972205 
L 251.395067 385.490445 
L 256.006637 384.573165 
L 260.618208 384.643725 
L 265.229778 381.256845 
L 269.841348 381.539085 
L 274.452918 380.762925 
L 279.064489 377.799405 
L 283.676059 378.505005 
L 288.287629 375.964845 
L 292.899199 378.222765 
L 297.51077 375.329805 
L 302.12234 377.869965 
L 306.73391 377.446605 
L 311.34548 375.682605 
L 315.957051 378.787245 
L 320.568621 376.741005 
L 325.180191 381.045165 
L 329.791761 380.057325 
L 334.403332 379.916205 
L 339.014902 381.962445 
L 343.626472 383.726445 
L 348.238042 385.278765 
L 352.849613 385.772685 
L 357.461183 386.054925 
L 362.072753 387.183885 
L 366.684323 387.607245 
L 371.295894 388.453965 
L 375.907464 388.947885 
L 380.519034 389.935725 
L 385.130604 390.570765 
L 389.742175 390.288525 
L 394.353745 391.629165 
L 398.965315 391.488045 
L 403.576885 391.276365 
L 408.188456 391.699725 
L 412.800026 392.052525 
L 417.411596 391.840845 
L 422.023166 392.193645 
L 426.634737 392.405325 
L 431.246307 392.405325 
L 435.857877 392.617005 
L 440.469447 392.405325 
L 445.081018 392.405325 
L 449.692588 392.687565 
L 454.304158 392.617005 
L 458.915728 392.687565 
L 463.527299 392.758125 
L 468.138869 392.758125 
L 472.750439 392.758125 
L 477.362009 392.758125 
L 481.97358 392.758125 
L 486.58515 392.758125 
L 491.19672 392.758125 
L 495.80829 392.758125 
L 500.419861 392.758125 
L 505.031431 392.687565 
L 509.643001 392.758125 
L 514.254571 392.758125 
L 518.866142 392.758125 
L 523.477712 392.758125 
L 528.089282 392.758125 
L 532.700852 392.758125 
" style="fill:none;stroke:#9467bd;stroke-linecap:square;stroke-width:2;"/>
   </g>
   <g id="line2d_18">
    <path clip-path="url(#pe66caf98cc)" d="M 76.155398 392.758125 
L 80.766968 392.758125 
L 85.378538 392.758125 
L 89.990108 392.758125 
L 94.601679 392.758125 
L 99.213249 392.758125 
L 103.824819 392.758125 
L 108.436389 392.758125 
L 113.04796 392.758125 
L 117.65953 392.758125 
L 122.2711 392.758125 
L 126.88267 392.758125 
L 131.494241 392.758125 
L 136.105811 392.758125 
L 140.717381 392.758125 
L 145.328951 392.758125 
L 149.940522 392.758125 
L 154.552092 392.758125 
L 159.163662 392.758125 
L 163.775232 392.758125 
L 168.386803 392.758125 
L 172.998373 392.687565 
L 177.609943 392.687565 
L 182.221513 392.758125 
L 186.833084 392.475885 
L 191.444654 392.617005 
L 196.056224 392.264205 
L 200.667794 391.911405 
L 205.279365 391.417485 
L 209.890935 391.205805 
L 214.502505 390.853005 
L 219.114075 389.935725 
L 223.725646 390.006285 
L 228.337216 389.441805 
L 232.948786 389.300685 
L 237.560356 388.877325 
L 242.171927 387.183885 
L 246.783497 387.042765 
L 251.395067 384.220365 
L 256.006637 384.220365 
L 260.618208 383.161965 
L 265.229778 381.680205 
L 269.841348 379.704525 
L 274.452918 381.256845 
L 279.064489 379.351725 
L 283.676059 379.563405 
L 288.287629 378.505005 
L 292.899199 379.916205 
L 297.51077 378.505005 
L 302.12234 378.575565 
L 306.73391 376.952685 
L 311.34548 379.281165 
L 315.957051 378.787245 
L 320.568621 380.057325 
L 325.180191 381.609645 
L 329.791761 381.397965 
L 334.403332 381.609645 
L 339.014902 382.526925 
L 343.626472 383.091405 
L 348.238042 385.631565 
L 352.849613 384.220365 
L 357.461183 386.619405 
L 362.072753 386.548845 
L 366.684323 388.101165 
L 371.295894 388.242285 
L 375.907464 387.818925 
L 380.519034 390.147405 
L 385.130604 390.076845 
L 389.742175 390.359085 
L 394.353745 390.500205 
L 398.965315 390.570765 
L 403.576885 391.488045 
L 408.188456 391.135245 
L 412.800026 391.346925 
L 417.411596 391.558605 
L 422.023166 391.981965 
L 426.634737 391.699725 
L 431.246307 392.334765 
L 435.857877 392.334765 
L 440.469447 392.193645 
L 445.081018 392.334765 
L 449.692588 392.405325 
L 454.304158 392.546445 
L 458.915728 392.617005 
L 463.527299 392.758125 
L 468.138869 392.546445 
L 472.750439 392.687565 
L 477.362009 392.687565 
L 481.97358 392.758125 
L 486.58515 392.758125 
L 491.19672 392.617005 
L 495.80829 392.758125 
L 500.419861 392.758125 
L 505.031431 392.758125 
L 509.643001 392.758125 
L 514.254571 392.758125 
L 518.866142 392.758125 
L 523.477712 392.758125 
L 528.089282 392.758125 
L 532.700852 392.758125 
" style="fill:none;stroke:#8c564b;stroke-linecap:square;stroke-width:2;"/>
   </g>
   <g id="line2d_19">
    <path clip-path="url(#pe66caf98cc)" d="M 76.155398 392.758125 
L 80.766968 392.758125 
L 85.378538 392.758125 
L 89.990108 392.758125 
L 94.601679 392.758125 
L 99.213249 392.758125 
L 103.824819 392.758125 
L 108.436389 392.758125 
L 113.04796 392.758125 
L 117.65953 392.758125 
L 122.2711 392.758125 
L 126.88267 392.758125 
L 131.494241 392.758125 
L 136.105811 392.758125 
L 140.717381 392.758125 
L 145.328951 392.758125 
L 149.940522 392.687565 
L 154.552092 392.758125 
L 159.163662 392.758125 
L 163.775232 392.758125 
L 168.386803 392.617005 
L 172.998373 392.687565 
L 177.609943 392.546445 
L 182.221513 392.405325 
L 186.833084 392.193645 
L 191.444654 392.546445 
L 196.056224 391.417485 
L 200.667794 391.205805 
L 205.279365 391.135245 
L 209.890935 390.923565 
L 214.502505 389.865165 
L 219.114075 389.794605 
L 223.725646 390.217965 
L 228.337216 388.524525 
L 232.948786 388.595085 
L 237.560356 387.395565 
L 242.171927 387.113325 
L 246.783497 385.067085 
L 251.395067 384.855405 
L 256.006637 384.502605 
L 260.618208 382.668045 
L 265.229778 382.597485 
L 269.841348 379.775085 
L 274.452918 381.750765 
L 279.064489 379.633965 
L 283.676059 380.127885 
L 288.287629 379.069485 
L 292.899199 381.115725 
L 297.51077 380.833485 
L 302.12234 380.269005 
L 306.73391 380.057325 
L 311.34548 378.928365 
L 315.957051 381.256845 
L 320.568621 380.410125 
L 325.180191 380.904045 
L 329.791761 381.256845 
L 334.403332 383.797005 
L 339.014902 382.668045 
L 343.626472 383.585325 
L 348.238042 385.349325 
L 352.849613 384.290925 
L 357.461183 387.113325 
L 362.072753 385.843245 
L 366.684323 387.466125 
L 371.295894 387.466125 
L 375.907464 388.736205 
L 380.519034 389.018445 
L 385.130604 389.159565 
L 389.742175 389.582925 
L 394.353745 390.147405 
L 398.965315 390.429645 
L 403.576885 391.135245 
L 408.188456 391.064685 
L 412.800026 391.205805 
L 417.411596 390.994125 
L 422.023166 391.840845 
L 426.634737 391.911405 
L 431.246307 392.123085 
L 435.857877 391.699725 
L 440.469447 392.123085 
L 445.081018 392.475885 
L 449.692588 392.193645 
L 454.304158 392.193645 
L 458.915728 392.546445 
L 463.527299 392.617005 
L 468.138869 392.617005 
L 472.750439 392.617005 
L 477.362009 392.758125 
L 481.97358 392.687565 
L 486.58515 392.758125 
L 491.19672 392.758125 
L 495.80829 392.758125 
L 500.419861 392.758125 
L 505.031431 392.758125 
L 509.643001 392.687565 
L 514.254571 392.758125 
L 518.866142 392.758125 
L 523.477712 392.758125 
L 528.089282 392.687565 
L 532.700852 392.758125 
" style="fill:none;stroke:#e377c2;stroke-linecap:square;stroke-width:2;"/>
   </g>
   <g id="line2d_20">
    <path clip-path="url(#pe66caf98cc)" d="M 76.155398 392.758125 
L 80.766968 392.758125 
L 85.378538 392.758125 
L 89.990108 392.758125 
L 94.601679 392.758125 
L 99.213249 392.758125 
L 103.824819 392.758125 
L 108.436389 392.758125 
L 113.04796 392.758125 
L 117.65953 392.758125 
L 122.2711 392.758125 
L 126.88267 392.758125 
L 131.494241 392.758125 
L 136.105811 392.687565 
L 140.717381 392.617005 
L 145.328951 392.758125 
L 149.940522 392.687565 
L 154.552092 392.758125 
L 159.163662 392.405325 
L 163.775232 392.617005 
L 168.386803 392.758125 
L 172.998373 392.193645 
L 177.609943 392.193645 
L 182.221513 392.193645 
L 186.833084 392.264205 
L 191.444654 391.488045 
L 196.056224 391.135245 
L 200.667794 390.500205 
L 205.279365 390.711885 
L 209.890935 390.288525 
L 214.502505 390.006285 
L 219.114075 389.089005 
L 223.725646 389.300685 
L 228.337216 388.171725 
L 232.948786 387.395565 
L 237.560356 387.325005 
L 242.171927 385.913805 
L 246.783497 386.196045 
L 251.395067 385.067085 
L 256.006637 383.797005 
L 260.618208 383.797005 
L 265.229778 382.315245 
L 269.841348 380.692365 
L 274.452918 383.091405 
L 279.064489 380.974605 
L 283.676059 381.821325 
L 288.287629 380.904045 
L 292.899199 380.269005 
L 297.51077 380.269005 
L 302.12234 380.692365 
L 306.73391 380.339565 
L 311.34548 380.198445 
L 315.957051 381.115725 
L 320.568621 382.174125 
L 325.180191 382.738605 
L 329.791761 382.385805 
L 334.403332 382.385805 
L 339.014902 384.855405 
L 343.626472 384.855405 
L 348.238042 384.008685 
L 352.849613 384.502605 
L 357.461183 386.619405 
L 362.072753 387.748365 
L 366.684323 387.042765 
L 371.295894 386.901645 
L 375.907464 387.960045 
L 380.519034 388.171725 
L 385.130604 389.512365 
L 389.742175 390.076845 
L 394.353745 389.582925 
L 398.965315 390.359085 
L 403.576885 390.429645 
L 408.188456 390.076845 
L 412.800026 391.205805 
L 417.411596 391.064685 
L 422.023166 391.064685 
L 426.634737 391.276365 
L 431.246307 391.276365 
L 435.857877 391.981965 
L 440.469447 391.911405 
L 445.081018 392.264205 
L 449.692588 392.264205 
L 454.304158 392.546445 
L 458.915728 392.334765 
L 463.527299 392.687565 
L 468.138869 392.617005 
L 472.750439 392.334765 
L 477.362009 392.546445 
L 481.97358 392.546445 
L 486.58515 392.687565 
L 491.19672 392.758125 
L 495.80829 392.687565 
L 500.419861 392.687565 
L 505.031431 392.758125 
L 509.643001 392.687565 
L 514.254571 392.758125 
L 518.866142 392.617005 
L 523.477712 392.687565 
L 528.089282 392.758125 
L 532.700852 392.758125 
" style="fill:none;stroke:#7f7f7f;stroke-linecap:square;stroke-width:2;"/>
   </g>
   <g id="line2d_21">
    <path clip-path="url(#pe66caf98cc)" d="M 76.155398 392.758125 
L 80.766968 392.758125 
L 85.378538 392.758125 
L 89.990108 392.758125 
L 94.601679 392.758125 
L 99.213249 392.687565 
L 103.824819 392.758125 
L 108.436389 392.758125 
L 113.04796 392.758125 
L 117.65953 392.758125 
L 122.2711 392.758125 
L 126.88267 392.758125 
L 131.494241 392.758125 
L 136.105811 392.687565 
L 140.717381 392.687565 
L 145.328951 392.546445 
L 149.940522 392.546445 
L 154.552092 392.546445 
L 159.163662 392.405325 
L 163.775232 392.334765 
L 168.386803 392.334765 
L 172.998373 392.193645 
L 177.609943 391.911405 
L 182.221513 391.488045 
L 186.833084 391.840845 
L 191.444654 390.853005 
L 196.056224 390.994125 
L 200.667794 390.288525 
L 205.279365 389.935725 
L 209.890935 389.653485 
L 214.502505 389.865165 
L 219.114075 388.171725 
L 223.725646 388.736205 
L 228.337216 388.524525 
L 232.948786 387.325005 
L 237.560356 386.478285 
L 242.171927 386.054925 
L 246.783497 385.631565 
L 251.395067 385.208205 
L 256.006637 384.220365 
L 260.618208 383.232525 
L 265.229778 384.361485 
L 269.841348 382.385805 
L 274.452918 382.738605 
L 279.064489 382.526925 
L 283.676059 381.962445 
L 288.287629 380.480685 
L 292.899199 381.680205 
L 297.51077 380.904045 
L 302.12234 381.327405 
L 306.73391 380.551245 
L 311.34548 381.468525 
L 315.957051 382.809165 
L 320.568621 383.585325 
L 325.180191 382.950285 
L 329.791761 382.385805 
L 334.403332 383.020845 
L 339.014902 384.573165 
L 343.626472 384.714285 
L 348.238042 385.278765 
L 352.849613 384.149805 
L 357.461183 385.772685 
L 362.072753 387.113325 
L 366.684323 387.395565 
L 371.295894 387.536685 
L 375.907464 387.042765 
L 380.519034 388.030605 
L 385.130604 389.371245 
L 389.742175 389.018445 
L 394.353745 389.724045 
L 398.965315 390.570765 
L 403.576885 390.288525 
L 408.188456 389.794605 
L 412.800026 390.711885 
L 417.411596 391.205805 
L 422.023166 390.641325 
L 426.634737 391.276365 
L 431.246307 391.417485 
L 435.857877 391.699725 
L 440.469447 391.911405 
L 445.081018 391.629165 
L 449.692588 392.052525 
L 454.304158 392.475885 
L 458.915728 392.264205 
L 463.527299 392.264205 
L 468.138869 392.334765 
L 472.750439 392.546445 
L 477.362009 392.546445 
L 481.97358 392.475885 
L 486.58515 392.617005 
L 491.19672 392.617005 
L 495.80829 392.758125 
L 500.419861 392.758125 
L 505.031431 392.758125 
L 509.643001 392.687565 
L 514.254571 392.546445 
L 518.866142 392.687565 
L 523.477712 392.687565 
L 528.089282 392.687565 
L 532.700852 392.758125 
" style="fill:none;stroke:#bcbd22;stroke-linecap:square;stroke-width:2;"/>
   </g>
   <g id="line2d_22">
    <path clip-path="url(#pe66caf98cc)" d="M 76.155398 392.758125 
L 80.766968 392.758125 
L 85.378538 392.758125 
L 89.990108 392.758125 
L 94.601679 392.758125 
L 99.213249 392.758125 
L 103.824819 392.687565 
L 108.436389 392.758125 
L 113.04796 392.758125 
L 117.65953 392.758125 
L 122.2711 392.617005 
L 126.88267 392.617005 
L 131.494241 392.687565 
L 136.105811 392.475885 
L 140.717381 392.687565 
L 145.328951 392.617005 
L 149.940522 392.264205 
L 154.552092 392.334765 
L 159.163662 392.334765 
L 163.775232 392.193645 
L 168.386803 392.264205 
L 172.998373 391.629165 
L 177.609943 391.276365 
L 182.221513 391.346925 
L 186.833084 391.064685 
L 191.444654 390.429645 
L 196.056224 390.782445 
L 200.667794 389.865165 
L 205.279365 389.865165 
L 209.890935 389.089005 
L 214.502505 389.089005 
L 219.114075 389.512365 
L 223.725646 388.947885 
L 228.337216 387.677805 
L 232.948786 387.113325 
L 237.560356 386.407725 
L 242.171927 384.996525 
L 246.783497 385.984365 
L 251.395067 384.855405 
L 256.006637 385.137645 
L 260.618208 383.938125 
L 265.229778 383.514765 
L 269.841348 384.149805 
L 274.452918 382.456365 
L 279.064489 380.339565 
L 283.676059 382.103565 
L 288.287629 383.091405 
L 292.899199 383.373645 
L 297.51077 382.738605 
L 302.12234 381.397965 
L 306.73391 381.891885 
L 311.34548 383.373645 
L 315.957051 382.738605 
L 320.568621 382.526925 
L 325.180191 384.008685 
L 329.791761 383.938125 
L 334.403332 383.161965 
L 339.014902 385.208205 
L 343.626472 384.079245 
L 348.238042 384.925965 
L 352.849613 385.208205 
L 357.461183 385.278765 
L 362.072753 386.901645 
L 366.684323 387.395565 
L 371.295894 387.818925 
L 375.907464 388.383405 
L 380.519034 386.901645 
L 385.130604 388.242285 
L 389.742175 388.242285 
L 394.353745 388.453965 
L 398.965315 390.147405 
L 403.576885 390.782445 
L 408.188456 390.429645 
L 412.800026 390.429645 
L 417.411596 390.641325 
L 422.023166 391.064685 
L 426.634737 390.782445 
L 431.246307 391.276365 
L 435.857877 391.699725 
L 440.469447 391.840845 
L 445.081018 391.911405 
L 449.692588 391.699725 
L 454.304158 391.981965 
L 458.915728 392.193645 
L 463.527299 392.264205 
L 468.138869 392.334765 
L 472.750439 392.123085 
L 477.362009 392.475885 
L 481.97358 392.475885 
L 486.58515 392.475885 
L 491.19672 392.617005 
L 495.80829 392.617005 
L 500.419861 392.546445 
L 505.031431 392.617005 
L 509.643001 392.687565 
L 514.254571 392.758125 
L 518.866142 392.758125 
L 523.477712 392.687565 
L 528.089282 392.687565 
L 532.700852 392.546445 
" style="fill:none;stroke:#17becf;stroke-linecap:square;stroke-width:2;"/>
   </g>
   <g id="line2d_23">
    <path clip-path="url(#pe66caf98cc)" d="M 76.155398 392.687565 
L 80.766968 392.758125 
L 85.378538 392.758125 
L 89.990108 392.758125 
L 94.601679 392.758125 
L 99.213249 392.758125 
L 103.824819 392.758125 
L 108.436389 392.758125 
L 113.04796 392.758125 
L 117.65953 392.617005 
L 122.2711 392.475885 
L 126.88267 392.546445 
L 131.494241 392.546445 
L 136.105811 392.687565 
L 140.717381 392.617005 
L 145.328951 392.475885 
L 149.940522 392.475885 
L 154.552092 392.334765 
L 159.163662 392.052525 
L 163.775232 391.911405 
L 168.386803 391.346925 
L 172.998373 391.770285 
L 177.609943 391.346925 
L 182.221513 391.135245 
L 186.833084 390.782445 
L 191.444654 390.006285 
L 196.056224 390.288525 
L 200.667794 389.441805 
L 205.279365 390.500205 
L 209.890935 389.653485 
L 214.502505 387.818925 
L 219.114075 388.524525 
L 223.725646 388.453965 
L 228.337216 387.536685 
L 232.948786 387.818925 
L 237.560356 386.478285 
L 242.171927 386.337165 
L 246.783497 385.278765 
L 251.395067 384.502605 
L 256.006637 383.797005 
L 260.618208 384.432045 
L 265.229778 384.149805 
L 269.841348 384.008685 
L 274.452918 383.867565 
L 279.064489 382.456365 
L 283.676059 382.174125 
L 288.287629 383.232525 
L 292.899199 383.655885 
L 297.51077 383.444205 
L 302.12234 381.045165 
L 306.73391 381.680205 
L 311.34548 381.821325 
L 315.957051 384.643725 
L 320.568621 384.573165 
L 325.180191 383.726445 
L 329.791761 383.655885 
L 334.403332 384.643725 
L 339.014902 386.337165 
L 343.626472 384.925965 
L 348.238042 385.067085 
L 352.849613 384.643725 
L 357.461183 385.561005 
L 362.072753 387.466125 
L 366.684323 387.395565 
L 371.295894 387.607245 
L 375.907464 386.901645 
L 380.519034 387.889485 
L 385.130604 387.254445 
L 389.742175 389.089005 
L 394.353745 389.512365 
L 398.965315 389.653485 
L 403.576885 389.371245 
L 408.188456 389.089005 
L 412.800026 390.359085 
L 417.411596 390.641325 
L 422.023166 390.711885 
L 426.634737 391.346925 
L 431.246307 391.135245 
L 435.857877 391.205805 
L 440.469447 391.276365 
L 445.081018 391.205805 
L 449.692588 392.123085 
L 454.304158 391.488045 
L 458.915728 392.405325 
L 463.527299 392.264205 
L 468.138869 392.264205 
L 472.750439 392.405325 
L 477.362009 392.264205 
L 481.97358 392.334765 
L 486.58515 392.405325 
L 491.19672 392.334765 
L 495.80829 392.617005 
L 500.419861 392.687565 
L 505.031431 392.617005 
L 509.643001 392.546445 
L 514.254571 392.758125 
L 518.866142 392.617005 
L 523.477712 392.687565 
L 528.089282 392.405325 
L 532.700852 392.617005 
" style="fill:none;stroke:#1f77b4;stroke-linecap:square;stroke-width:2;"/>
   </g>
   <g id="line2d_24">
    <path clip-path="url(#pe66caf98cc)" d="M 76.155398 392.758125 
L 80.766968 392.687565 
L 85.378538 392.758125 
L 89.990108 392.687565 
L 94.601679 392.758125 
L 99.213249 392.617005 
L 103.824819 392.758125 
L 108.436389 392.687565 
L 113.04796 392.687565 
L 117.65953 392.687565 
L 122.2711 392.617005 
L 126.88267 392.475885 
L 131.494241 392.617005 
L 136.105811 392.334765 
L 140.717381 392.264205 
L 145.328951 392.264205 
L 149.940522 392.405325 
L 154.552092 392.264205 
L 159.163662 391.840845 
L 163.775232 391.911405 
L 168.386803 391.558605 
L 172.998373 391.205805 
L 177.609943 390.429645 
L 182.221513 391.135245 
L 186.833084 390.641325 
L 191.444654 390.076845 
L 196.056224 390.359085 
L 200.667794 390.359085 
L 205.279365 389.653485 
L 209.890935 389.300685 
L 214.502505 389.230125 
L 219.114075 388.453965 
L 223.725646 387.536685 
L 228.337216 387.113325 
L 232.948786 387.395565 
L 237.560356 386.478285 
L 242.171927 386.619405 
L 246.783497 384.290925 
L 251.395067 384.573165 
L 256.006637 385.843245 
L 260.618208 383.373645 
L 265.229778 384.855405 
L 269.841348 382.879725 
L 274.452918 384.079245 
L 279.064489 382.668045 
L 283.676059 382.879725 
L 288.287629 383.938125 
L 292.899199 383.373645 
L 297.51077 384.290925 
L 302.12234 383.514765 
L 306.73391 383.514765 
L 311.34548 383.514765 
L 315.957051 384.643725 
L 320.568621 383.020845 
L 325.180191 383.938125 
L 329.791761 384.643725 
L 334.403332 384.784845 
L 339.014902 385.419885 
L 343.626472 384.432045 
L 348.238042 385.349325 
L 352.849613 384.996525 
L 357.461183 387.113325 
L 362.072753 386.548845 
L 366.684323 386.972205 
L 371.295894 386.831085 
L 375.907464 388.312845 
L 380.519034 387.818925 
L 385.130604 388.665645 
L 389.742175 387.960045 
L 394.353745 388.947885 
L 398.965315 389.230125 
L 403.576885 389.230125 
L 408.188456 390.217965 
L 412.800026 389.300685 
L 417.411596 390.570765 
L 422.023166 391.064685 
L 426.634737 390.288525 
L 431.246307 389.935725 
L 435.857877 391.205805 
L 440.469447 391.558605 
L 445.081018 391.205805 
L 449.692588 391.911405 
L 454.304158 391.911405 
L 458.915728 391.840845 
L 463.527299 392.193645 
L 468.138869 392.052525 
L 472.750439 392.264205 
L 477.362009 391.840845 
L 481.97358 392.052525 
L 486.58515 392.334765 
L 491.19672 392.264205 
L 495.80829 392.405325 
L 500.419861 392.617005 
L 505.031431 392.405325 
L 509.643001 392.758125 
L 514.254571 392.617005 
L 518.866142 392.405325 
L 523.477712 392.617005 
L 528.089282 392.617005 
L 532.700852 392.475885 
" style="fill:none;stroke:#ff7f0e;stroke-linecap:square;stroke-width:2;"/>
   </g>
   <g id="line2d_25">
    <path clip-path="url(#pe66caf98cc)" d="M 76.155398 392.758125 
L 80.766968 392.687565 
L 85.378538 392.687565 
L 89.990108 392.687565 
L 94.601679 392.617005 
L 99.213249 392.687565 
L 103.824819 392.687565 
L 108.436389 392.687565 
L 113.04796 392.475885 
L 117.65953 392.687565 
L 122.2711 392.758125 
L 126.88267 392.475885 
L 131.494241 392.475885 
L 136.105811 392.264205 
L 140.717381 392.193645 
L 145.328951 392.264205 
L 149.940522 392.334765 
L 154.552092 391.770285 
L 159.163662 391.770285 
L 163.775232 391.417485 
L 168.386803 391.558605 
L 172.998373 391.346925 
L 177.609943 390.923565 
L 182.221513 390.500205 
L 186.833084 389.935725 
L 191.444654 389.794605 
L 196.056224 390.217965 
L 200.667794 389.371245 
L 205.279365 389.371245 
L 209.890935 388.736205 
L 214.502505 388.947885 
L 219.114075 388.030605 
L 223.725646 388.171725 
L 228.337216 387.748365 
L 232.948786 386.901645 
L 237.560356 385.419885 
L 242.171927 385.561005 
L 246.783497 385.349325 
L 251.395067 385.490445 
L 256.006637 386.407725 
L 260.618208 384.855405 
L 265.229778 384.784845 
L 269.841348 383.938125 
L 274.452918 383.373645 
L 279.064489 384.855405 
L 283.676059 384.079245 
L 288.287629 383.020845 
L 292.899199 384.008685 
L 297.51077 384.290925 
L 302.12234 383.161965 
L 306.73391 384.573165 
L 311.34548 385.278765 
L 315.957051 384.220365 
L 320.568621 384.008685 
L 325.180191 384.432045 
L 329.791761 384.290925 
L 334.403332 382.950285 
L 339.014902 385.702125 
L 343.626472 385.843245 
L 348.238042 384.290925 
L 352.849613 386.407725 
L 357.461183 385.349325 
L 362.072753 386.266605 
L 366.684323 387.113325 
L 371.295894 387.042765 
L 375.907464 387.042765 
L 380.519034 388.030605 
L 385.130604 388.242285 
L 389.742175 389.159565 
L 394.353745 389.865165 
L 398.965315 388.736205 
L 403.576885 390.359085 
L 408.188456 389.371245 
L 412.800026 389.230125 
L 417.411596 390.500205 
L 422.023166 389.935725 
L 426.634737 390.570765 
L 431.246307 390.500205 
L 435.857877 391.346925 
L 440.469447 391.346925 
L 445.081018 391.346925 
L 449.692588 391.064685 
L 454.304158 391.417485 
L 458.915728 391.488045 
L 463.527299 391.770285 
L 468.138869 391.911405 
L 472.750439 391.840845 
L 477.362009 392.334765 
L 481.97358 392.617005 
L 486.58515 392.123085 
L 491.19672 392.405325 
L 495.80829 392.264205 
L 500.419861 392.334765 
L 505.031431 392.617005 
L 509.643001 392.546445 
L 514.254571 392.264205 
L 518.866142 392.405325 
L 523.477712 392.546445 
L 528.089282 392.617005 
L 532.700852 392.546445 
" style="fill:none;stroke:#2ca02c;stroke-linecap:square;stroke-width:2;"/>
   </g>
   <g id="line2d_26">
    <path clip-path="url(#pe66caf98cc)" d="M 76.155398 392.617005 
L 80.766968 392.758125 
L 85.378538 392.687565 
L 89.990108 392.687565 
L 94.601679 392.687565 
L 99.213249 392.687565 
L 103.824819 392.546445 
L 108.436389 392.758125 
L 113.04796 392.475885 
L 117.65953 392.617005 
L 122.2711 392.687565 
L 126.88267 392.264205 
L 131.494241 392.334765 
L 136.105811 392.334765 
L 140.717381 391.981965 
L 145.328951 391.911405 
L 149.940522 392.052525 
L 154.552092 391.629165 
L 159.163662 391.911405 
L 163.775232 391.629165 
L 168.386803 390.570765 
L 172.998373 390.641325 
L 177.609943 390.711885 
L 182.221513 390.217965 
L 186.833084 390.359085 
L 191.444654 390.288525 
L 196.056224 390.641325 
L 200.667794 389.371245 
L 205.279365 388.877325 
L 209.890935 388.806765 
L 214.502505 387.818925 
L 219.114075 387.889485 
L 223.725646 387.889485 
L 228.337216 388.453965 
L 232.948786 386.196045 
L 237.560356 386.196045 
L 242.171927 385.843245 
L 246.783497 386.760525 
L 251.395067 386.266605 
L 256.006637 385.349325 
L 260.618208 385.490445 
L 265.229778 383.938125 
L 269.841348 383.655885 
L 274.452918 383.938125 
L 279.064489 383.585325 
L 283.676059 383.373645 
L 288.287629 384.643725 
L 292.899199 383.726445 
L 297.51077 384.361485 
L 302.12234 384.855405 
L 306.73391 385.349325 
L 311.34548 384.784845 
L 315.957051 384.361485 
L 320.568621 384.996525 
L 325.180191 385.984365 
L 329.791761 384.714285 
L 334.403332 383.938125 
L 339.014902 384.855405 
L 343.626472 384.784845 
L 348.238042 386.125485 
L 352.849613 385.419885 
L 357.461183 385.490445 
L 362.072753 386.407725 
L 366.684323 387.677805 
L 371.295894 387.607245 
L 375.907464 386.831085 
L 380.519034 388.101165 
L 385.130604 388.030605 
L 389.742175 388.524525 
L 394.353745 388.595085 
L 398.965315 388.383405 
L 403.576885 389.159565 
L 408.188456 388.947885 
L 412.800026 390.500205 
L 417.411596 390.288525 
L 422.023166 390.288525 
L 426.634737 390.217965 
L 431.246307 390.359085 
L 435.857877 391.064685 
L 440.469447 391.135245 
L 445.081018 391.840845 
L 449.692588 391.558605 
L 454.304158 391.558605 
L 458.915728 391.629165 
L 463.527299 391.911405 
L 468.138869 392.193645 
L 472.750439 391.981965 
L 477.362009 392.264205 
L 481.97358 391.840845 
L 486.58515 391.770285 
L 491.19672 392.264205 
L 495.80829 392.193645 
L 500.419861 392.264205 
L 505.031431 392.193645 
L 509.643001 392.334765 
L 514.254571 391.911405 
L 518.866142 392.687565 
L 523.477712 392.687565 
L 528.089282 392.475885 
L 532.700852 392.546445 
" style="fill:none;stroke:#d62728;stroke-linecap:square;stroke-width:2;"/>
   </g>
   <g id="patch_3">
    <path d="M 53.328125 410.398125 
L 53.328125 22.318125 
" style="fill:none;stroke:#000000;stroke-linecap:square;stroke-linejoin:miter;stroke-width:0.8;"/>
   </g>
   <g id="patch_4">
    <path d="M 555.528125 410.398125 
L 555.528125 22.318125 
" style="fill:none;stroke:#000000;stroke-linecap:square;stroke-linejoin:miter;stroke-width:0.8;"/>
   </g>
   <g id="patch_5">
    <path d="M 53.328125 410.398125 
L 555.528125 410.398125 
" style="fill:none;stroke:#000000;stroke-linecap:square;stroke-linejoin:miter;stroke-width:0.8;"/>
   </g>
   <g id="patch_6">
    <path d="M 53.328125 22.318125 
L 555.528125 22.318125 
" style="fill:none;stroke:#000000;stroke-linecap:square;stroke-linejoin:miter;stroke-width:0.8;"/>
   </g>
   <g id="text_15">
    <!-- Random walk -->
    <defs>
     <path d="M 44.390625 34.1875 
Q 47.5625 33.109375 50.5625 29.59375 
Q 53.5625 26.078125 56.59375 19.921875 
L 66.609375 0 
L 56 0 
L 46.6875 18.703125 
Q 43.0625 26.03125 39.671875 28.421875 
Q 36.28125 30.8125 30.421875 30.8125 
L 19.671875 30.8125 
L 19.671875 0 
L 9.8125 0 
L 9.8125 72.90625 
L 32.078125 72.90625 
Q 44.578125 72.90625 50.734375 67.671875 
Q 56.890625 62.453125 56.890625 51.90625 
Q 56.890625 45.015625 53.6875 40.46875 
Q 50.484375 35.9375 44.390625 34.1875 
z
M 19.671875 64.796875 
L 19.671875 38.921875 
L 32.078125 38.921875 
Q 39.203125 38.921875 42.84375 42.21875 
Q 46.484375 45.515625 46.484375 51.90625 
Q 46.484375 58.296875 42.84375 61.546875 
Q 39.203125 64.796875 32.078125 64.796875 
z
" id="DejaVuSans-82"/>
     <path d="M 34.28125 27.484375 
Q 23.390625 27.484375 19.1875 25 
Q 14.984375 22.515625 14.984375 16.5 
Q 14.984375 11.71875 18.140625 8.90625 
Q 21.296875 6.109375 26.703125 6.109375 
Q 34.1875 6.109375 38.703125 11.40625 
Q 43.21875 16.703125 43.21875 25.484375 
L 43.21875 27.484375 
z
M 52.203125 31.203125 
L 52.203125 0 
L 43.21875 0 
L 43.21875 8.296875 
Q 40.140625 3.328125 35.546875 0.953125 
Q 30.953125 -1.421875 24.3125 -1.421875 
Q 15.921875 -1.421875 10.953125 3.296875 
Q 6 8.015625 6 15.921875 
Q 6 25.140625 12.171875 29.828125 
Q 18.359375 34.515625 30.609375 34.515625 
L 43.21875 34.515625 
L 43.21875 35.40625 
Q 43.21875 41.609375 39.140625 45 
Q 35.0625 48.390625 27.6875 48.390625 
Q 23 48.390625 18.546875 47.265625 
Q 14.109375 46.140625 10.015625 43.890625 
L 10.015625 52.203125 
Q 14.9375 54.109375 19.578125 55.046875 
Q 24.21875 56 28.609375 56 
Q 40.484375 56 46.34375 49.84375 
Q 52.203125 43.703125 52.203125 31.203125 
z
" id="DejaVuSans-97"/>
     <path d="M 54.890625 33.015625 
L 54.890625 0 
L 45.90625 0 
L 45.90625 32.71875 
Q 45.90625 40.484375 42.875 44.328125 
Q 39.84375 48.1875 33.796875 48.1875 
Q 26.515625 48.1875 22.3125 43.546875 
Q 18.109375 38.921875 18.109375 30.90625 
L 18.109375 0 
L 9.078125 0 
L 9.078125 54.6875 
L 18.109375 54.6875 
L 18.109375 46.1875 
Q 21.34375 51.125 25.703125 53.5625 
Q 30.078125 56 35.796875 56 
Q 45.21875 56 50.046875 50.171875 
Q 54.890625 44.34375 54.890625 33.015625 
z
" id="DejaVuSans-110"/>
     <path d="M 45.40625 46.390625 
L 45.40625 75.984375 
L 54.390625 75.984375 
L 54.390625 0 
L 45.40625 0 
L 45.40625 8.203125 
Q 42.578125 3.328125 38.25 0.953125 
Q 33.9375 -1.421875 27.875 -1.421875 
Q 17.96875 -1.421875 11.734375 6.484375 
Q 5.515625 14.40625 5.515625 27.296875 
Q 5.515625 40.1875 11.734375 48.09375 
Q 17.96875 56 27.875 56 
Q 33.9375 56 38.25 53.625 
Q 42.578125 51.265625 45.40625 46.390625 
z
M 14.796875 27.296875 
Q 14.796875 17.390625 18.875 11.75 
Q 22.953125 6.109375 30.078125 6.109375 
Q 37.203125 6.109375 41.296875 11.75 
Q 45.40625 17.390625 45.40625 27.296875 
Q 45.40625 37.203125 41.296875 42.84375 
Q 37.203125 48.484375 30.078125 48.484375 
Q 22.953125 48.484375 18.875 42.84375 
Q 14.796875 37.203125 14.796875 27.296875 
z
" id="DejaVuSans-100"/>
     <path d="M 30.609375 48.390625 
Q 23.390625 48.390625 19.1875 42.75 
Q 14.984375 37.109375 14.984375 27.296875 
Q 14.984375 17.484375 19.15625 11.84375 
Q 23.34375 6.203125 30.609375 6.203125 
Q 37.796875 6.203125 41.984375 11.859375 
Q 46.1875 17.53125 46.1875 27.296875 
Q 46.1875 37.015625 41.984375 42.703125 
Q 37.796875 48.390625 30.609375 48.390625 
z
M 30.609375 56 
Q 42.328125 56 49.015625 48.375 
Q 55.71875 40.765625 55.71875 27.296875 
Q 55.71875 13.875 49.015625 6.21875 
Q 42.328125 -1.421875 30.609375 -1.421875 
Q 18.84375 -1.421875 12.171875 6.21875 
Q 5.515625 13.875 5.515625 27.296875 
Q 5.515625 40.765625 12.171875 48.375 
Q 18.84375 56 30.609375 56 
z
" id="DejaVuSans-111"/>
     <path d="M 52 44.1875 
Q 55.375 50.25 60.0625 53.125 
Q 64.75 56 71.09375 56 
Q 79.640625 56 84.28125 50.015625 
Q 88.921875 44.046875 88.921875 33.015625 
L 88.921875 0 
L 79.890625 0 
L 79.890625 32.71875 
Q 79.890625 40.578125 77.09375 44.375 
Q 74.3125 48.1875 68.609375 48.1875 
Q 61.625 48.1875 57.5625 43.546875 
Q 53.515625 38.921875 53.515625 30.90625 
L 53.515625 0 
L 44.484375 0 
L 44.484375 32.71875 
Q 44.484375 40.625 41.703125 44.40625 
Q 38.921875 48.1875 33.109375 48.1875 
Q 26.21875 48.1875 22.15625 43.53125 
Q 18.109375 38.875 18.109375 30.90625 
L 18.109375 0 
L 9.078125 0 
L 9.078125 54.6875 
L 18.109375 54.6875 
L 18.109375 46.1875 
Q 21.1875 51.21875 25.484375 53.609375 
Q 29.78125 56 35.6875 56 
Q 41.65625 56 45.828125 52.96875 
Q 50 49.953125 52 44.1875 
z
" id="DejaVuSans-109"/>
     <path id="DejaVuSans-32"/>
     <path d="M 4.203125 54.6875 
L 13.1875 54.6875 
L 24.421875 12.015625 
L 35.59375 54.6875 
L 46.1875 54.6875 
L 57.421875 12.015625 
L 68.609375 54.6875 
L 77.59375 54.6875 
L 63.28125 0 
L 52.6875 0 
L 40.921875 44.828125 
L 29.109375 0 
L 18.5 0 
z
" id="DejaVuSans-119"/>
     <path d="M 9.421875 75.984375 
L 18.40625 75.984375 
L 18.40625 0 
L 9.421875 0 
z
" id="DejaVuSans-108"/>
     <path d="M 9.078125 75.984375 
L 18.109375 75.984375 
L 18.109375 31.109375 
L 44.921875 54.6875 
L 56.390625 54.6875 
L 27.390625 29.109375 
L 57.625 0 
L 45.90625 0 
L 18.109375 26.703125 
L 18.109375 0 
L 9.078125 0 
z
" id="DejaVuSans-107"/>
    </defs>
    <g transform="translate(263.825 16.318125)scale(0.12 -0.12)">
     <use xlink:href="#DejaVuSans-82"/>
     <use x="69.451172" xlink:href="#DejaVuSans-97"/>
     <use x="130.730469" xlink:href="#DejaVuSans-110"/>
     <use x="194.109375" xlink:href="#DejaVuSans-100"/>
     <use x="257.585938" xlink:href="#DejaVuSans-111"/>
     <use x="318.767578" xlink:href="#DejaVuSans-109"/>
     <use x="416.179688" xlink:href="#DejaVuSans-32"/>
     <use x="447.966797" xlink:href="#DejaVuSans-119"/>
     <use x="529.753906" xlink:href="#DejaVuSans-97"/>
     <use x="591.033203" xlink:href="#DejaVuSans-108"/>
     <use x="618.816406" xlink:href="#DejaVuSans-107"/>
    </g>
   </g>
  </g>
 </g>
 <defs>
  <clipPath id="pe66caf98cc">
   <rect height="388.08" width="502.2" x="53.328125" y="22.318125"/>
  </clipPath>
 </defs>
</svg>
