<?xml version="1.0" encoding="utf-8" standalone="no"?>
<!DOCTYPE svg PUBLIC "-//W3C//DTD SVG 1.1//EN"
  "http://www.w3.org/Graphics/SVG/1.1/DTD/svg11.dtd">
<!-- Created with matplotlib (https://matplotlib.org/) -->
<svg height="447.954375pt" version="1.1" viewBox="0 0 556.365625 447.954375" width="556.365625pt" xmlns="http://www.w3.org/2000/svg" xmlns:xlink="http://www.w3.org/1999/xlink">
 <defs>
  <style type="text/css">
*{stroke-linecap:butt;stroke-linejoin:round;}
  </style>
 </defs>
 <g id="figure_1">
  <g id="patch_1">
   <path d="M 0 447.954375 
L 556.365625 447.954375 
L 556.365625 0 
L 0 0 
z
" style="fill:#ffffff;"/>
  </g>
  <g id="axes_1">
   <g id="patch_2">
    <path d="M 46.965625 410.398125 
L 549.165625 410.398125 
L 549.165625 22.318125 
L 46.965625 22.318125 
z
" style="fill:#ffffff;"/>
   </g>
   <g id="matplotlib.axis_1">
    <g id="xtick_1">
     <g id="line2d_1">
      <defs>
       <path d="M 0 0 
L 0 3.5 
" id="mca4c963316" style="stroke:#000000;stroke-width:0.8;"/>
      </defs>
      <g>
       <use style="stroke:#000000;stroke-width:0.8;" x="69.792898" xlink:href="#mca4c963316" y="410.398125"/>
      </g>
     </g>
     <g id="text_1">
      <!-- 0 -->
      <defs>
       <path d="M 31.78125 66.40625 
Q 24.171875 66.40625 20.328125 58.90625 
Q 16.5 51.421875 16.5 36.375 
Q 16.5 21.390625 20.328125 13.890625 
Q 24.171875 6.390625 31.78125 6.390625 
Q 39.453125 6.390625 43.28125 13.890625 
Q 47.125 21.390625 47.125 36.375 
Q 47.125 51.421875 43.28125 58.90625 
Q 39.453125 66.40625 31.78125 66.40625 
z
M 31.78125 74.21875 
Q 44.046875 74.21875 50.515625 64.515625 
Q 56.984375 54.828125 56.984375 36.375 
Q 56.984375 17.96875 50.515625 8.265625 
Q 44.046875 -1.421875 31.78125 -1.421875 
Q 19.53125 -1.421875 13.0625 8.265625 
Q 6.59375 17.96875 6.59375 36.375 
Q 6.59375 54.828125 13.0625 64.515625 
Q 19.53125 74.21875 31.78125 74.21875 
z
" id="DejaVuSans-48"/>
      </defs>
      <g transform="translate(66.611648 424.996562)scale(0.1 -0.1)">
       <use xlink:href="#DejaVuSans-48"/>
      </g>
     </g>
    </g>
    <g id="xtick_2">
     <g id="line2d_2">
      <g>
       <use style="stroke:#000000;stroke-width:0.8;" x="161.284973" xlink:href="#mca4c963316" y="410.398125"/>
      </g>
     </g>
     <g id="text_2">
      <!-- 100 -->
      <defs>
       <path d="M 12.40625 8.296875 
L 28.515625 8.296875 
L 28.515625 63.921875 
L 10.984375 60.40625 
L 10.984375 69.390625 
L 28.421875 72.90625 
L 38.28125 72.90625 
L 38.28125 8.296875 
L 54.390625 8.296875 
L 54.390625 0 
L 12.40625 0 
z
" id="DejaVuSans-49"/>
      </defs>
      <g transform="translate(151.741223 424.996562)scale(0.1 -0.1)">
       <use xlink:href="#DejaVuSans-49"/>
       <use x="63.623047" xlink:href="#DejaVuSans-48"/>
       <use x="127.246094" xlink:href="#DejaVuSans-48"/>
      </g>
     </g>
    </g>
    <g id="xtick_3">
     <g id="line2d_3">
      <g>
       <use style="stroke:#000000;stroke-width:0.8;" x="252.777048" xlink:href="#mca4c963316" y="410.398125"/>
      </g>
     </g>
     <g id="text_3">
      <!-- 200 -->
      <defs>
       <path d="M 19.1875 8.296875 
L 53.609375 8.296875 
L 53.609375 0 
L 7.328125 0 
L 7.328125 8.296875 
Q 12.9375 14.109375 22.625 23.890625 
Q 32.328125 33.6875 34.8125 36.53125 
Q 39.546875 41.84375 41.421875 45.53125 
Q 43.3125 49.21875 43.3125 52.78125 
Q 43.3125 58.59375 39.234375 62.25 
Q 35.15625 65.921875 28.609375 65.921875 
Q 23.96875 65.921875 18.8125 64.3125 
Q 13.671875 62.703125 7.8125 59.421875 
L 7.8125 69.390625 
Q 13.765625 71.78125 18.9375 73 
Q 24.125 74.21875 28.421875 74.21875 
Q 39.75 74.21875 46.484375 68.546875 
Q 53.21875 62.890625 53.21875 53.421875 
Q 53.21875 48.921875 51.53125 44.890625 
Q 49.859375 40.875 45.40625 35.40625 
Q 44.1875 33.984375 37.640625 27.21875 
Q 31.109375 20.453125 19.1875 8.296875 
z
" id="DejaVuSans-50"/>
      </defs>
      <g transform="translate(243.233298 424.996562)scale(0.1 -0.1)">
       <use xlink:href="#DejaVuSans-50"/>
       <use x="63.623047" xlink:href="#DejaVuSans-48"/>
       <use x="127.246094" xlink:href="#DejaVuSans-48"/>
      </g>
     </g>
    </g>
    <g id="xtick_4">
     <g id="line2d_4">
      <g>
       <use style="stroke:#000000;stroke-width:0.8;" x="344.269123" xlink:href="#mca4c963316" y="410.398125"/>
      </g>
     </g>
     <g id="text_4">
      <!-- 300 -->
      <defs>
       <path d="M 40.578125 39.3125 
Q 47.65625 37.796875 51.625 33 
Q 55.609375 28.21875 55.609375 21.1875 
Q 55.609375 10.40625 48.1875 4.484375 
Q 40.765625 -1.421875 27.09375 -1.421875 
Q 22.515625 -1.421875 17.65625 -0.515625 
Q 12.796875 0.390625 7.625 2.203125 
L 7.625 11.71875 
Q 11.71875 9.328125 16.59375 8.109375 
Q 21.484375 6.890625 26.8125 6.890625 
Q 36.078125 6.890625 40.9375 10.546875 
Q 45.796875 14.203125 45.796875 21.1875 
Q 45.796875 27.640625 41.28125 31.265625 
Q 36.765625 34.90625 28.71875 34.90625 
L 20.21875 34.90625 
L 20.21875 43.015625 
L 29.109375 43.015625 
Q 36.375 43.015625 40.234375 45.921875 
Q 44.09375 48.828125 44.09375 54.296875 
Q 44.09375 59.90625 40.109375 62.90625 
Q 36.140625 65.921875 28.71875 65.921875 
Q 24.65625 65.921875 20.015625 65.03125 
Q 15.375 64.15625 9.8125 62.3125 
L 9.8125 71.09375 
Q 15.4375 72.65625 20.34375 73.4375 
Q 25.25 74.21875 29.59375 74.21875 
Q 40.828125 74.21875 47.359375 69.109375 
Q 53.90625 64.015625 53.90625 55.328125 
Q 53.90625 49.265625 50.4375 45.09375 
Q 46.96875 40.921875 40.578125 39.3125 
z
" id="DejaVuSans-51"/>
      </defs>
      <g transform="translate(334.725373 424.996562)scale(0.1 -0.1)">
       <use xlink:href="#DejaVuSans-51"/>
       <use x="63.623047" xlink:href="#DejaVuSans-48"/>
       <use x="127.246094" xlink:href="#DejaVuSans-48"/>
      </g>
     </g>
    </g>
    <g id="xtick_5">
     <g id="line2d_5">
      <g>
       <use style="stroke:#000000;stroke-width:0.8;" x="435.761198" xlink:href="#mca4c963316" y="410.398125"/>
      </g>
     </g>
     <g id="text_5">
      <!-- 400 -->
      <defs>
       <path d="M 37.796875 64.3125 
L 12.890625 25.390625 
L 37.796875 25.390625 
z
M 35.203125 72.90625 
L 47.609375 72.90625 
L 47.609375 25.390625 
L 58.015625 25.390625 
L 58.015625 17.1875 
L 47.609375 17.1875 
L 47.609375 0 
L 37.796875 0 
L 37.796875 17.1875 
L 4.890625 17.1875 
L 4.890625 26.703125 
z
" id="DejaVuSans-52"/>
      </defs>
      <g transform="translate(426.217448 424.996562)scale(0.1 -0.1)">
       <use xlink:href="#DejaVuSans-52"/>
       <use x="63.623047" xlink:href="#DejaVuSans-48"/>
       <use x="127.246094" xlink:href="#DejaVuSans-48"/>
      </g>
     </g>
    </g>
    <g id="xtick_6">
     <g id="line2d_6">
      <g>
       <use style="stroke:#000000;stroke-width:0.8;" x="527.253273" xlink:href="#mca4c963316" y="410.398125"/>
      </g>
     </g>
     <g id="text_6">
      <!-- 500 -->
      <defs>
       <path d="M 10.796875 72.90625 
L 49.515625 72.90625 
L 49.515625 64.59375 
L 19.828125 64.59375 
L 19.828125 46.734375 
Q 21.96875 47.46875 24.109375 47.828125 
Q 26.265625 48.1875 28.421875 48.1875 
Q 40.625 48.1875 47.75 41.5 
Q 54.890625 34.8125 54.890625 23.390625 
Q 54.890625 11.625 47.5625 5.09375 
Q 40.234375 -1.421875 26.90625 -1.421875 
Q 22.3125 -1.421875 17.546875 -0.640625 
Q 12.796875 0.140625 7.71875 1.703125 
L 7.71875 11.625 
Q 12.109375 9.234375 16.796875 8.0625 
Q 21.484375 6.890625 26.703125 6.890625 
Q 35.15625 6.890625 40.078125 11.328125 
Q 45.015625 15.765625 45.015625 23.390625 
Q 45.015625 31 40.078125 35.4375 
Q 35.15625 39.890625 26.703125 39.890625 
Q 22.75 39.890625 18.8125 39.015625 
Q 14.890625 38.140625 10.796875 36.28125 
z
" id="DejaVuSans-53"/>
      </defs>
      <g transform="translate(517.709523 424.996562)scale(0.1 -0.1)">
       <use xlink:href="#DejaVuSans-53"/>
       <use x="63.623047" xlink:href="#DejaVuSans-48"/>
       <use x="127.246094" xlink:href="#DejaVuSans-48"/>
      </g>
     </g>
    </g>
    <g id="text_7">
     <!-- t -->
     <defs>
      <path d="M 18.3125 70.21875 
L 18.3125 54.6875 
L 36.8125 54.6875 
L 36.8125 47.703125 
L 18.3125 47.703125 
L 18.3125 18.015625 
Q 18.3125 11.328125 20.140625 9.421875 
Q 21.96875 7.515625 27.59375 7.515625 
L 36.8125 7.515625 
L 36.8125 0 
L 27.59375 0 
Q 17.1875 0 13.234375 3.875 
Q 9.28125 7.765625 9.28125 18.015625 
L 9.28125 47.703125 
L 2.6875 47.703125 
L 2.6875 54.6875 
L 9.28125 54.6875 
L 9.28125 70.21875 
z
" id="DejaVuSans-116"/>
     </defs>
     <g transform="translate(296.105469 438.674687)scale(0.1 -0.1)">
      <use xlink:href="#DejaVuSans-116"/>
     </g>
    </g>
   </g>
   <g id="matplotlib.axis_2">
    <g id="ytick_1">
     <g id="line2d_7">
      <defs>
       <path d="M 0 0 
L -3.5 0 
" id="m306e264e8b" style="stroke:#000000;stroke-width:0.8;"/>
      </defs>
      <g>
       <use style="stroke:#000000;stroke-width:0.8;" x="46.965625" xlink:href="#m306e264e8b" y="392.758125"/>
      </g>
     </g>
     <g id="text_8">
      <!-- 0 -->
      <g transform="translate(33.603125 396.557344)scale(0.1 -0.1)">
       <use xlink:href="#DejaVuSans-48"/>
      </g>
     </g>
    </g>
    <g id="ytick_2">
     <g id="line2d_8">
      <g>
       <use style="stroke:#000000;stroke-width:0.8;" x="46.965625" xlink:href="#m306e264e8b" y="338.977637"/>
      </g>
     </g>
     <g id="text_9">
      <!-- 25 -->
      <g transform="translate(27.240625 342.776856)scale(0.1 -0.1)">
       <use xlink:href="#DejaVuSans-50"/>
       <use x="63.623047" xlink:href="#DejaVuSans-53"/>
      </g>
     </g>
    </g>
    <g id="ytick_3">
     <g id="line2d_9">
      <g>
       <use style="stroke:#000000;stroke-width:0.8;" x="46.965625" xlink:href="#m306e264e8b" y="285.197149"/>
      </g>
     </g>
     <g id="text_10">
      <!-- 50 -->
      <g transform="translate(27.240625 288.996368)scale(0.1 -0.1)">
       <use xlink:href="#DejaVuSans-53"/>
       <use x="63.623047" xlink:href="#DejaVuSans-48"/>
      </g>
     </g>
    </g>
    <g id="ytick_4">
     <g id="line2d_10">
      <g>
       <use style="stroke:#000000;stroke-width:0.8;" x="46.965625" xlink:href="#m306e264e8b" y="231.416662"/>
      </g>
     </g>
     <g id="text_11">
      <!-- 75 -->
      <defs>
       <path d="M 8.203125 72.90625 
L 55.078125 72.90625 
L 55.078125 68.703125 
L 28.609375 0 
L 18.3125 0 
L 43.21875 64.59375 
L 8.203125 64.59375 
z
" id="DejaVuSans-55"/>
      </defs>
      <g transform="translate(27.240625 235.21588)scale(0.1 -0.1)">
       <use xlink:href="#DejaVuSans-55"/>
       <use x="63.623047" xlink:href="#DejaVuSans-53"/>
      </g>
     </g>
    </g>
    <g id="ytick_5">
     <g id="line2d_11">
      <g>
       <use style="stroke:#000000;stroke-width:0.8;" x="46.965625" xlink:href="#m306e264e8b" y="177.636174"/>
      </g>
     </g>
     <g id="text_12">
      <!-- 100 -->
      <g transform="translate(20.878125 181.435393)scale(0.1 -0.1)">
       <use xlink:href="#DejaVuSans-49"/>
       <use x="63.623047" xlink:href="#DejaVuSans-48"/>
       <use x="127.246094" xlink:href="#DejaVuSans-48"/>
      </g>
     </g>
    </g>
    <g id="ytick_6">
     <g id="line2d_12">
      <g>
       <use style="stroke:#000000;stroke-width:0.8;" x="46.965625" xlink:href="#m306e264e8b" y="123.855686"/>
      </g>
     </g>
     <g id="text_13">
      <!-- 125 -->
      <g transform="translate(20.878125 127.654905)scale(0.1 -0.1)">
       <use xlink:href="#DejaVuSans-49"/>
       <use x="63.623047" xlink:href="#DejaVuSans-50"/>
       <use x="127.246094" xlink:href="#DejaVuSans-53"/>
      </g>
     </g>
    </g>
    <g id="ytick_7">
     <g id="line2d_13">
      <g>
       <use style="stroke:#000000;stroke-width:0.8;" x="46.965625" xlink:href="#m306e264e8b" y="70.075198"/>
      </g>
     </g>
     <g id="text_14">
      <!-- 150 -->
      <g transform="translate(20.878125 73.874417)scale(0.1 -0.1)">
       <use xlink:href="#DejaVuSans-49"/>
       <use x="63.623047" xlink:href="#DejaVuSans-53"/>
       <use x="127.246094" xlink:href="#DejaVuSans-48"/>
      </g>
     </g>
    </g>
    <g id="text_15">
     <!-- y -->
     <defs>
      <path d="M 32.171875 -5.078125 
Q 28.375 -14.84375 24.75 -17.8125 
Q 21.140625 -20.796875 15.09375 -20.796875 
L 7.90625 -20.796875 
L 7.90625 -13.28125 
L 13.1875 -13.28125 
Q 16.890625 -13.28125 18.9375 -11.515625 
Q 21 -9.765625 23.484375 -3.21875 
L 25.09375 0.875 
L 2.984375 54.6875 
L 12.5 54.6875 
L 29.59375 11.921875 
L 46.6875 54.6875 
L 56.203125 54.6875 
z
" id="DejaVuSans-121"/>
     </defs>
     <g transform="translate(14.798438 219.3175)rotate(-90)scale(0.1 -0.1)">
      <use xlink:href="#DejaVuSans-121"/>
     </g>
    </g>
   </g>
   <g id="line2d_14">
    <path clip-path="url(#pf14fbb36dd)" d="M 69.792898 392.758125 
L 106.389728 392.758125 
L 108.219569 388.455686 
L 109.13449 392.758125 
L 110.964332 392.758125 
L 111.879252 390.606905 
L 112.794173 392.758125 
L 113.709094 392.758125 
L 114.624015 390.606905 
L 115.538935 392.758125 
L 116.453856 390.606905 
L 117.368777 392.758125 
L 118.283698 392.758125 
L 119.198618 388.455686 
L 120.113539 392.758125 
L 121.02846 390.606905 
L 121.943381 392.758125 
L 122.858301 390.606905 
L 123.773222 392.758125 
L 124.688143 388.455686 
L 125.603064 388.455686 
L 126.517984 390.606905 
L 127.432905 388.455686 
L 128.347826 390.606905 
L 129.262747 382.002027 
L 130.177667 386.304466 
L 131.092588 392.758125 
L 132.007509 390.606905 
L 132.92243 386.304466 
L 133.83735 392.758125 
L 134.752271 386.304466 
L 135.667192 375.548369 
L 136.582113 384.153247 
L 137.497033 388.455686 
L 139.326875 388.455686 
L 140.241796 382.002027 
L 141.156716 386.304466 
L 142.071637 375.548369 
L 142.986558 379.850808 
L 143.901479 382.002027 
L 144.816399 375.548369 
L 145.73132 377.699588 
L 146.646241 382.002027 
L 147.561162 379.850808 
L 148.476082 379.850808 
L 149.391003 375.548369 
L 150.305924 382.002027 
L 151.220845 377.699588 
L 152.135765 377.699588 
L 153.050686 362.641052 
L 153.965607 375.548369 
L 154.880528 369.09471 
L 155.795448 349.733735 
L 156.710369 371.24593 
L 157.62529 354.036174 
L 158.540211 362.641052 
L 159.455131 358.338613 
L 160.370052 362.641052 
L 161.284973 349.733735 
L 162.199894 366.943491 
L 163.114814 360.489832 
L 164.029735 360.489832 
L 164.944656 362.641052 
L 165.859577 347.582515 
L 166.774497 362.641052 
L 167.689418 364.792271 
L 168.604339 354.036174 
L 169.51926 347.582515 
L 170.43418 356.187393 
L 171.349101 345.431296 
L 172.264022 351.884954 
L 173.178943 354.036174 
L 174.093863 360.489832 
L 175.008784 345.431296 
L 175.923705 347.582515 
L 176.838626 366.943491 
L 177.753546 332.523979 
L 178.668467 360.489832 
L 179.583388 356.187393 
L 180.498309 343.280076 
L 181.413229 360.489832 
L 182.32815 354.036174 
L 183.243071 338.977637 
L 184.157992 354.036174 
L 185.072912 349.733735 
L 185.987833 358.338613 
L 186.902754 349.733735 
L 187.817675 328.22154 
L 188.732595 326.07032 
L 189.647516 338.977637 
L 190.562437 332.523979 
L 191.477358 345.431296 
L 192.392278 336.826418 
L 193.307199 330.372759 
L 194.22212 345.431296 
L 195.137041 345.431296 
L 196.051961 347.582515 
L 196.966882 345.431296 
L 197.881803 345.431296 
L 198.796724 351.884954 
L 199.711644 336.826418 
L 200.626565 358.338613 
L 201.541486 330.372759 
L 202.456407 336.826418 
L 203.371327 334.675198 
L 204.286248 321.767881 
L 205.201169 332.523979 
L 206.11609 351.884954 
L 207.03101 338.977637 
L 207.945931 343.280076 
L 208.860852 334.675198 
L 209.775773 338.977637 
L 210.690693 347.582515 
L 211.605614 330.372759 
L 212.520535 336.826418 
L 213.435456 330.372759 
L 214.350376 334.675198 
L 215.265297 332.523979 
L 216.180218 336.826418 
L 217.095139 338.977637 
L 218.010059 336.826418 
L 218.92498 332.523979 
L 219.839901 321.767881 
L 220.754822 341.128857 
L 221.669742 345.431296 
L 222.584663 332.523979 
L 223.499584 336.826418 
L 224.414505 356.187393 
L 225.329425 330.372759 
L 226.244346 338.977637 
L 227.159267 326.07032 
L 228.074188 336.826418 
L 228.989108 317.465442 
L 229.904029 321.767881 
L 230.81895 313.163003 
L 231.733871 334.675198 
L 232.648791 304.558125 
L 233.563712 319.616662 
L 234.478633 336.826418 
L 235.393554 321.767881 
L 236.308474 330.372759 
L 237.223395 341.128857 
L 238.138316 313.163003 
L 239.053237 326.07032 
L 239.968157 319.616662 
L 240.883078 323.919101 
L 241.797999 319.616662 
L 242.71292 343.280076 
L 243.62784 323.919101 
L 244.542761 332.523979 
L 246.372603 306.709345 
L 247.287523 308.860564 
L 248.202444 317.465442 
L 249.117365 321.767881 
L 250.032286 317.465442 
L 250.947206 295.953247 
L 251.862127 298.104466 
L 252.777048 302.406905 
L 253.691969 315.314223 
L 255.52181 323.919101 
L 256.436731 334.675198 
L 257.351652 323.919101 
L 258.266572 321.767881 
L 259.181493 306.709345 
L 260.096414 341.128857 
L 261.011335 328.22154 
L 261.926255 330.372759 
L 262.841176 317.465442 
L 263.756097 323.919101 
L 264.671018 311.011784 
L 265.585938 308.860564 
L 266.500859 317.465442 
L 267.41578 323.919101 
L 268.330701 302.406905 
L 269.245621 336.826418 
L 270.160542 330.372759 
L 271.075463 332.523979 
L 271.990384 313.163003 
L 272.905304 302.406905 
L 273.820225 326.07032 
L 274.735146 313.163003 
L 275.650067 317.465442 
L 276.564987 315.314223 
L 277.479908 302.406905 
L 278.394829 291.650808 
L 279.30975 308.860564 
L 281.139591 317.465442 
L 282.054512 323.919101 
L 282.969433 323.919101 
L 283.884353 326.07032 
L 284.799274 311.011784 
L 285.714195 321.767881 
L 286.629116 328.22154 
L 287.544036 306.709345 
L 288.458957 302.406905 
L 289.373878 302.406905 
L 290.288799 311.011784 
L 291.203719 313.163003 
L 292.11864 304.558125 
L 293.033561 302.406905 
L 293.948482 315.314223 
L 294.863402 334.675198 
L 295.778323 291.650808 
L 296.693244 315.314223 
L 297.608165 295.953247 
L 298.523085 332.523979 
L 299.438006 304.558125 
L 300.352927 323.919101 
L 301.267848 317.465442 
L 302.182768 313.163003 
L 303.097689 323.919101 
L 304.927531 298.104466 
L 305.842451 304.558125 
L 306.757372 306.709345 
L 307.672293 326.07032 
L 308.587214 332.523979 
L 309.502134 332.523979 
L 310.417055 338.977637 
L 311.331976 319.616662 
L 312.246897 321.767881 
L 313.161817 300.255686 
L 314.076738 304.558125 
L 314.991659 287.348369 
L 315.90658 295.953247 
L 316.8215 317.465442 
L 317.736421 319.616662 
L 318.651342 313.163003 
L 319.566263 293.802027 
L 320.481183 317.465442 
L 321.396104 317.465442 
L 322.311025 311.011784 
L 323.225946 302.406905 
L 324.140866 332.523979 
L 325.055787 319.616662 
L 325.970708 315.314223 
L 326.885629 332.523979 
L 327.800549 328.22154 
L 328.71547 326.07032 
L 329.630391 313.163003 
L 330.545312 330.372759 
L 331.460232 326.07032 
L 332.375153 317.465442 
L 333.290074 319.616662 
L 334.204995 319.616662 
L 335.119915 283.04593 
L 336.034836 283.04593 
L 336.949757 295.953247 
L 337.864678 304.558125 
L 338.779598 315.314223 
L 339.694519 295.953247 
L 340.60944 295.953247 
L 341.524361 304.558125 
L 342.439281 311.011784 
L 343.354202 315.314223 
L 344.269123 293.802027 
L 345.184044 328.22154 
L 346.098964 302.406905 
L 347.013885 306.709345 
L 347.928806 304.558125 
L 348.843727 289.499588 
L 349.758647 278.743491 
L 350.673568 293.802027 
L 351.588489 298.104466 
L 352.50341 298.104466 
L 353.41833 274.441052 
L 355.248172 291.650808 
L 356.163093 261.533735 
L 357.078013 272.289832 
L 357.992934 308.860564 
L 358.907855 295.953247 
L 359.822776 293.802027 
L 360.737696 306.709345 
L 361.652617 293.802027 
L 362.567538 291.650808 
L 363.482459 293.802027 
L 364.397379 272.289832 
L 365.3123 302.406905 
L 366.227221 283.04593 
L 367.142142 287.348369 
L 368.057062 298.104466 
L 368.971983 295.953247 
L 370.801825 317.465442 
L 371.716745 323.919101 
L 372.631666 291.650808 
L 373.546587 291.650808 
L 374.461508 287.348369 
L 375.376428 293.802027 
L 376.291349 287.348369 
L 377.20627 304.558125 
L 378.121191 291.650808 
L 379.036111 298.104466 
L 379.951032 319.616662 
L 380.865953 315.314223 
L 381.780874 306.709345 
L 382.695794 287.348369 
L 383.610715 293.802027 
L 384.525636 293.802027 
L 385.440557 323.919101 
L 386.355477 302.406905 
L 387.270398 319.616662 
L 388.185319 321.767881 
L 389.10024 321.767881 
L 390.01516 323.919101 
L 390.930081 298.104466 
L 391.845002 306.709345 
L 392.759923 298.104466 
L 393.674843 295.953247 
L 394.589764 289.499588 
L 395.504685 304.558125 
L 396.419606 276.592271 
L 397.334526 304.558125 
L 398.249447 293.802027 
L 399.164368 295.953247 
L 400.079289 278.743491 
L 400.994209 304.558125 
L 401.90913 326.07032 
L 402.824051 321.767881 
L 403.738972 321.767881 
L 404.653892 319.616662 
L 405.568813 319.616662 
L 406.483734 295.953247 
L 407.398655 315.314223 
L 408.313575 326.07032 
L 409.228496 308.860564 
L 410.143417 300.255686 
L 411.058338 313.163003 
L 411.973258 311.011784 
L 412.888179 280.89471 
L 413.8031 293.802027 
L 414.718021 285.197149 
L 415.632941 300.255686 
L 416.547862 267.987393 
L 417.462783 300.255686 
L 418.377704 300.255686 
L 419.292624 293.802027 
L 420.207545 278.743491 
L 421.122466 278.743491 
L 422.037387 285.197149 
L 422.952307 293.802027 
L 423.867228 295.953247 
L 424.782149 300.255686 
L 425.69707 270.138613 
L 426.61199 291.650808 
L 427.526911 291.650808 
L 428.441832 283.04593 
L 429.356753 293.802027 
L 430.271673 295.953247 
L 431.186594 283.04593 
L 432.101515 280.89471 
L 433.016436 295.953247 
L 433.931356 291.650808 
L 434.846277 280.89471 
L 435.761198 304.558125 
L 436.676119 289.499588 
L 437.591039 283.04593 
L 438.50596 287.348369 
L 439.420881 267.987393 
L 440.335802 291.650808 
L 441.250722 287.348369 
L 442.165643 300.255686 
L 443.080564 306.709345 
L 443.995485 289.499588 
L 444.910405 291.650808 
L 445.825326 313.163003 
L 446.740247 304.558125 
L 447.655168 285.197149 
L 448.570088 313.163003 
L 449.485009 295.953247 
L 450.39993 302.406905 
L 451.314851 304.558125 
L 452.229771 319.616662 
L 453.144692 306.709345 
L 454.059613 300.255686 
L 454.974534 272.289832 
L 455.889454 308.860564 
L 456.804375 278.743491 
L 457.719296 319.616662 
L 458.634217 321.767881 
L 459.549137 283.04593 
L 460.464058 304.558125 
L 461.378979 298.104466 
L 462.2939 300.255686 
L 463.20882 300.255686 
L 464.123741 313.163003 
L 465.038662 313.163003 
L 465.953583 291.650808 
L 466.868503 295.953247 
L 468.698345 321.767881 
L 469.613266 306.709345 
L 470.528186 308.860564 
L 471.443107 278.743491 
L 472.358028 313.163003 
L 473.272949 293.802027 
L 474.187869 295.953247 
L 475.10279 319.616662 
L 476.017711 295.953247 
L 476.932632 293.802027 
L 477.847552 304.558125 
L 478.762473 302.406905 
L 479.677394 317.465442 
L 480.592315 285.197149 
L 481.507235 302.406905 
L 482.422156 276.592271 
L 483.337077 308.860564 
L 484.251998 300.255686 
L 485.166918 306.709345 
L 486.081839 321.767881 
L 486.99676 317.465442 
L 487.911681 283.04593 
L 488.826601 293.802027 
L 489.741522 285.197149 
L 490.656443 295.953247 
L 491.571364 298.104466 
L 492.486285 295.953247 
L 493.401205 300.255686 
L 494.316126 302.406905 
L 495.231047 300.255686 
L 496.145968 287.348369 
L 497.060888 313.163003 
L 497.975809 289.499588 
L 498.89073 302.406905 
L 499.805651 306.709345 
L 500.720571 295.953247 
L 501.635492 295.953247 
L 502.550413 302.406905 
L 503.465334 323.919101 
L 504.380254 295.953247 
L 505.295175 293.802027 
L 506.210096 295.953247 
L 507.125017 311.011784 
L 508.039937 306.709345 
L 508.954858 315.314223 
L 509.869779 287.348369 
L 510.7847 315.314223 
L 511.69962 304.558125 
L 512.614541 289.499588 
L 513.529462 300.255686 
L 514.444383 293.802027 
L 515.359303 291.650808 
L 516.274224 293.802027 
L 517.189145 300.255686 
L 518.104066 302.406905 
L 519.018986 287.348369 
L 519.933907 289.499588 
L 520.848828 315.314223 
L 521.763749 298.104466 
L 522.678669 289.499588 
L 523.59359 300.255686 
L 524.508511 276.592271 
L 525.423432 276.592271 
L 526.338352 293.802027 
L 526.338352 293.802027 
" style="fill:none;stroke:#0000ff;stroke-linecap:square;stroke-width:1.5;"/>
   </g>
   <g id="line2d_15">
    <path clip-path="url(#pf14fbb36dd)" d="M 69.792898 392.758125 
L 78.027184 392.758125 
L 78.942105 390.606905 
L 79.857026 345.431296 
L 82.601788 283.04593 
L 83.516709 265.836174 
L 84.43163 220.660564 
L 85.34655 207.753247 
L 86.261471 237.87032 
L 87.176392 181.938613 
L 88.091313 184.089832 
L 89.006233 164.728857 
L 89.921154 134.611784 
L 90.836075 156.123979 
L 91.750996 136.763003 
L 92.665916 121.704466 
L 93.580837 123.855686 
L 94.495758 113.099588 
L 95.410679 76.528857 
L 96.325599 136.763003 
L 97.24052 113.099588 
L 98.155441 95.889832 
L 99.070362 104.49471 
L 99.985282 123.855686 
L 100.900203 149.67032 
L 101.815124 121.704466 
L 102.730045 121.704466 
L 103.644965 100.192271 
L 104.559886 130.309345 
L 105.474807 123.855686 
L 106.389728 145.367881 
L 107.304649 78.680076 
L 109.13449 128.158125 
L 110.049411 106.64593 
L 110.964332 134.611784 
L 111.879252 149.67032 
L 112.794173 104.49471 
L 113.709094 95.889832 
L 114.624015 55.016662 
L 115.538935 100.192271 
L 116.453856 95.889832 
L 117.368777 52.865442 
L 118.283698 110.948369 
L 119.198618 119.553247 
L 120.113539 85.133735 
L 121.02846 113.099588 
L 121.943381 65.772759 
L 122.858301 57.167881 
L 123.773222 82.982515 
L 124.688143 85.133735 
L 125.603064 91.587393 
L 126.517984 113.099588 
L 128.347826 78.680076 
L 129.262747 39.958125 
L 130.177667 132.460564 
L 131.092588 145.367881 
L 132.007509 123.855686 
L 132.92243 72.226418 
L 133.83735 119.553247 
L 134.752271 39.958125 
L 135.667192 74.377637 
L 136.582113 126.006905 
L 137.497033 126.006905 
L 138.411954 104.49471 
L 139.326875 117.402027 
L 140.241796 108.797149 
L 141.156716 153.972759 
L 142.071637 115.250808 
L 142.986558 102.343491 
L 143.901479 164.728857 
L 144.816399 115.250808 
L 145.73132 145.367881 
L 146.646241 89.436174 
L 147.561162 102.343491 
L 149.391003 149.67032 
L 150.305924 119.553247 
L 151.220845 158.275198 
L 152.135765 123.855686 
L 153.050686 93.738613 
L 153.965607 128.158125 
L 154.880528 128.158125 
L 155.795448 80.831296 
L 156.710369 158.275198 
L 157.62529 115.250808 
L 158.540211 164.728857 
L 159.455131 141.065442 
L 160.370052 145.367881 
L 162.199894 132.460564 
L 163.114814 160.426418 
L 164.029735 138.914223 
L 164.944656 136.763003 
L 165.859577 113.099588 
L 166.774497 149.67032 
L 167.689418 136.763003 
L 168.604339 147.519101 
L 169.51926 95.889832 
L 170.43418 106.64593 
L 171.349101 164.728857 
L 172.264022 194.84593 
L 173.178943 160.426418 
L 174.093863 169.031296 
L 175.008784 171.182515 
L 175.923705 123.855686 
L 176.838626 143.216662 
L 177.753546 169.031296 
L 178.668467 179.787393 
L 179.583388 151.82154 
L 181.413229 196.997149 
L 182.32815 153.972759 
L 183.243071 141.065442 
L 184.157992 149.67032 
L 185.072912 141.065442 
L 185.987833 141.065442 
L 186.902754 205.602027 
L 187.817675 138.914223 
L 188.732595 171.182515 
L 189.647516 166.880076 
L 190.562437 171.182515 
L 191.477358 143.216662 
L 192.392278 153.972759 
L 193.307199 119.553247 
L 194.22212 171.182515 
L 195.137041 132.460564 
L 196.051961 128.158125 
L 196.966882 173.333735 
L 197.881803 190.543491 
L 198.796724 179.787393 
L 199.711644 162.577637 
L 200.626565 196.997149 
L 201.541486 181.938613 
L 202.456407 169.031296 
L 203.371327 205.602027 
L 204.286248 192.69471 
L 205.201169 173.333735 
L 206.11609 171.182515 
L 207.03101 192.69471 
L 207.945931 177.636174 
L 208.860852 156.123979 
L 209.775773 177.636174 
L 210.690693 160.426418 
L 211.605614 166.880076 
L 212.520535 171.182515 
L 213.435456 190.543491 
L 214.350376 117.402027 
L 215.265297 186.241052 
L 216.180218 173.333735 
L 217.095139 175.484954 
L 218.010059 175.484954 
L 218.92498 162.577637 
L 219.839901 162.577637 
L 220.754822 179.787393 
L 221.669742 173.333735 
L 222.584663 188.392271 
L 223.499584 190.543491 
L 224.414505 173.333735 
L 225.329425 224.963003 
L 226.244346 166.880076 
L 227.159267 201.299588 
L 228.074188 173.333735 
L 228.989108 222.811784 
L 229.904029 173.333735 
L 230.81895 190.543491 
L 231.733871 186.241052 
L 232.648791 179.787393 
L 233.563712 199.148369 
L 234.478633 199.148369 
L 235.393554 224.963003 
L 236.308474 203.450808 
L 237.223395 192.69471 
L 238.138316 190.543491 
L 239.053237 205.602027 
L 239.968157 194.84593 
L 240.883078 199.148369 
L 241.797999 188.392271 
L 242.71292 184.089832 
L 243.62784 218.509345 
L 244.542761 188.392271 
L 245.457682 192.69471 
L 246.372603 214.206905 
L 247.287523 205.602027 
L 248.202444 231.416662 
L 249.117365 188.392271 
L 250.032286 201.299588 
L 250.947206 224.963003 
L 251.862127 181.938613 
L 252.777048 240.02154 
L 253.691969 169.031296 
L 254.606889 141.065442 
L 255.52181 216.358125 
L 256.436731 177.636174 
L 257.351652 186.241052 
L 258.266572 218.509345 
L 259.181493 203.450808 
L 260.096414 190.543491 
L 261.011335 188.392271 
L 261.926255 194.84593 
L 262.841176 188.392271 
L 263.756097 173.333735 
L 264.671018 173.333735 
L 265.585938 186.241052 
L 266.500859 158.275198 
L 267.41578 192.69471 
L 268.330701 181.938613 
L 269.245621 205.602027 
L 270.160542 203.450808 
L 271.075463 164.728857 
L 271.990384 153.972759 
L 272.905304 231.416662 
L 273.820225 203.450808 
L 274.735146 212.055686 
L 275.650067 229.265442 
L 276.564987 214.206905 
L 277.479908 209.904466 
L 278.394829 212.055686 
L 279.30975 222.811784 
L 280.22467 199.148369 
L 281.139591 244.323979 
L 282.054512 201.299588 
L 282.969433 203.450808 
L 283.884353 203.450808 
L 284.799274 229.265442 
L 285.714195 224.963003 
L 286.629116 201.299588 
L 287.544036 216.358125 
L 288.458957 218.509345 
L 289.373878 203.450808 
L 290.288799 220.660564 
L 291.203719 207.753247 
L 292.11864 181.938613 
L 293.033561 203.450808 
L 293.948482 196.997149 
L 294.863402 179.787393 
L 295.778323 207.753247 
L 296.693244 203.450808 
L 297.608165 201.299588 
L 298.523085 218.509345 
L 299.438006 194.84593 
L 300.352927 188.392271 
L 301.267848 194.84593 
L 302.182768 184.089832 
L 303.097689 224.963003 
L 304.01261 196.997149 
L 304.927531 205.602027 
L 305.842451 212.055686 
L 306.757372 209.904466 
L 307.672293 201.299588 
L 308.587214 196.997149 
L 309.502134 220.660564 
L 310.417055 222.811784 
L 312.246897 171.182515 
L 313.161817 181.938613 
L 314.076738 196.997149 
L 314.991659 196.997149 
L 315.90658 209.904466 
L 317.736421 205.602027 
L 318.651342 194.84593 
L 319.566263 218.509345 
L 320.481183 233.567881 
L 321.396104 196.997149 
L 322.311025 220.660564 
L 323.225946 205.602027 
L 324.140866 224.963003 
L 325.055787 231.416662 
L 325.970708 233.567881 
L 326.885629 242.172759 
L 327.800549 216.358125 
L 328.71547 235.719101 
L 329.630391 240.02154 
L 330.545312 205.602027 
L 331.460232 212.055686 
L 332.375153 209.904466 
L 333.290074 231.416662 
L 335.119915 244.323979 
L 336.034836 267.987393 
L 336.949757 235.719101 
L 337.864678 222.811784 
L 338.779598 205.602027 
L 339.694519 205.602027 
L 340.60944 227.114223 
L 341.524361 212.055686 
L 342.439281 220.660564 
L 343.354202 162.577637 
L 344.269123 186.241052 
L 345.184044 248.626418 
L 346.098964 250.777637 
L 347.013885 246.475198 
L 347.928806 218.509345 
L 348.843727 227.114223 
L 349.758647 261.533735 
L 350.673568 203.450808 
L 351.588489 263.684954 
L 352.50341 261.533735 
L 353.41833 244.323979 
L 354.333251 205.602027 
L 355.248172 220.660564 
L 356.163093 216.358125 
L 357.078013 216.358125 
L 357.992934 214.206905 
L 358.907855 233.567881 
L 359.822776 244.323979 
L 360.737696 235.719101 
L 361.652617 252.928857 
L 362.567538 246.475198 
L 363.482459 261.533735 
L 364.397379 259.382515 
L 365.3123 235.719101 
L 366.227221 261.533735 
L 367.142142 222.811784 
L 368.057062 242.172759 
L 368.971983 233.567881 
L 369.886904 257.231296 
L 370.801825 252.928857 
L 371.716745 235.719101 
L 372.631666 244.323979 
L 373.546587 291.650808 
L 374.461508 267.987393 
L 375.376428 263.684954 
L 376.291349 280.89471 
L 377.20627 244.323979 
L 378.121191 248.626418 
L 379.036111 280.89471 
L 379.951032 244.323979 
L 380.865953 248.626418 
L 381.780874 233.567881 
L 382.695794 246.475198 
L 383.610715 252.928857 
L 384.525636 224.963003 
L 385.440557 259.382515 
L 386.355477 242.172759 
L 387.270398 233.567881 
L 388.185319 227.114223 
L 389.10024 237.87032 
L 390.01516 274.441052 
L 390.930081 257.231296 
L 391.845002 291.650808 
L 392.759923 235.719101 
L 393.674843 224.963003 
L 394.589764 270.138613 
L 395.504685 229.265442 
L 396.419606 242.172759 
L 397.334526 257.231296 
L 398.249447 229.265442 
L 399.164368 261.533735 
L 400.079289 263.684954 
L 400.994209 240.02154 
L 401.90913 190.543491 
L 402.824051 220.660564 
L 403.738972 244.323979 
L 404.653892 235.719101 
L 405.568813 242.172759 
L 406.483734 259.382515 
L 407.398655 222.811784 
L 408.313575 259.382515 
L 409.228496 205.602027 
L 410.143417 229.265442 
L 411.058338 201.299588 
L 411.973258 212.055686 
L 412.888179 259.382515 
L 414.718021 218.509345 
L 415.632941 242.172759 
L 416.547862 224.963003 
L 417.462783 235.719101 
L 418.377704 265.836174 
L 419.292624 231.416662 
L 420.207545 242.172759 
L 421.122466 218.509345 
L 422.037387 276.592271 
L 422.952307 231.416662 
L 423.867228 257.231296 
L 424.782149 244.323979 
L 425.69707 222.811784 
L 426.61199 237.87032 
L 427.526911 248.626418 
L 428.441832 248.626418 
L 429.356753 237.87032 
L 430.271673 244.323979 
L 431.186594 265.836174 
L 432.101515 246.475198 
L 433.016436 257.231296 
L 433.931356 263.684954 
L 434.846277 274.441052 
L 435.761198 207.753247 
L 436.676119 222.811784 
L 437.591039 244.323979 
L 438.50596 255.080076 
L 439.420881 278.743491 
L 440.335802 265.836174 
L 441.250722 248.626418 
L 442.165643 287.348369 
L 443.080564 276.592271 
L 443.995485 240.02154 
L 444.910405 283.04593 
L 445.825326 265.836174 
L 446.740247 293.802027 
L 448.570088 289.499588 
L 449.485009 240.02154 
L 450.39993 270.138613 
L 451.314851 274.441052 
L 452.229771 285.197149 
L 453.144692 280.89471 
L 454.059613 263.684954 
L 454.974534 240.02154 
L 455.889454 252.928857 
L 456.804375 287.348369 
L 457.719296 280.89471 
L 458.634217 263.684954 
L 459.549137 270.138613 
L 460.464058 237.87032 
L 461.378979 227.114223 
L 462.2939 240.02154 
L 463.20882 233.567881 
L 464.123741 240.02154 
L 465.038662 233.567881 
L 465.953583 265.836174 
L 466.868503 278.743491 
L 467.783424 248.626418 
L 468.698345 259.382515 
L 469.613266 304.558125 
L 470.528186 237.87032 
L 471.443107 248.626418 
L 472.358028 263.684954 
L 473.272949 291.650808 
L 474.187869 278.743491 
L 475.10279 242.172759 
L 476.017711 248.626418 
L 476.932632 270.138613 
L 477.847552 267.987393 
L 478.762473 261.533735 
L 479.677394 237.87032 
L 480.592315 272.289832 
L 481.507235 272.289832 
L 482.422156 278.743491 
L 483.337077 270.138613 
L 484.251998 255.080076 
L 485.166918 259.382515 
L 486.081839 283.04593 
L 486.99676 270.138613 
L 487.911681 265.836174 
L 488.826601 274.441052 
L 489.741522 272.289832 
L 490.656443 233.567881 
L 491.571364 272.289832 
L 492.486285 246.475198 
L 493.401205 240.02154 
L 494.316126 261.533735 
L 495.231047 255.080076 
L 496.145968 246.475198 
L 497.060888 274.441052 
L 497.975809 283.04593 
L 498.89073 270.138613 
L 499.805651 240.02154 
L 500.720571 270.138613 
L 501.635492 276.592271 
L 502.550413 265.836174 
L 503.465334 265.836174 
L 504.380254 244.323979 
L 505.295175 237.87032 
L 506.210096 274.441052 
L 507.125017 285.197149 
L 508.039937 261.533735 
L 508.954858 248.626418 
L 509.869779 263.684954 
L 510.7847 248.626418 
L 511.69962 267.987393 
L 512.614541 252.928857 
L 513.529462 265.836174 
L 514.444383 257.231296 
L 515.359303 255.080076 
L 516.274224 263.684954 
L 517.189145 252.928857 
L 518.104066 270.138613 
L 519.018986 246.475198 
L 520.848828 287.348369 
L 521.763749 246.475198 
L 522.678669 267.987393 
L 523.59359 257.231296 
L 524.508511 274.441052 
L 525.423432 287.348369 
L 526.338352 242.172759 
L 526.338352 242.172759 
" style="fill:none;stroke:#ff0000;stroke-linecap:square;stroke-width:1.5;"/>
   </g>
   <g id="line2d_16">
    <path clip-path="url(#pf14fbb36dd)" d="M 69.792898 392.758125 
L 70.707818 390.606905 
L 71.622739 384.153247 
L 72.53766 379.850808 
L 73.452581 364.792271 
L 74.367501 364.792271 
L 75.282422 332.523979 
L 76.197343 332.523979 
L 77.112264 311.011784 
L 78.027184 270.138613 
L 78.942105 291.650808 
L 80.771947 287.348369 
L 81.686867 287.348369 
L 82.601788 255.080076 
L 83.516709 259.382515 
L 84.43163 248.626418 
L 85.34655 196.997149 
L 86.261471 235.719101 
L 87.176392 216.358125 
L 88.091313 201.299588 
L 89.006233 220.660564 
L 89.921154 199.148369 
L 90.836075 220.660564 
L 91.750996 194.84593 
L 92.665916 224.963003 
L 93.580837 205.602027 
L 94.495758 181.938613 
L 95.410679 169.031296 
L 96.325599 196.997149 
L 97.24052 147.519101 
L 98.155441 186.241052 
L 99.070362 169.031296 
L 99.985282 201.299588 
L 100.900203 160.426418 
L 101.815124 181.938613 
L 102.730045 147.519101 
L 103.644965 166.880076 
L 104.559886 196.997149 
L 106.389728 179.787393 
L 107.304649 175.484954 
L 108.219569 173.333735 
L 109.13449 179.787393 
L 110.049411 153.972759 
L 110.964332 171.182515 
L 111.879252 177.636174 
L 112.794173 175.484954 
L 113.709094 156.123979 
L 114.624015 179.787393 
L 115.538935 132.460564 
L 116.453856 173.333735 
L 117.368777 160.426418 
L 118.283698 162.577637 
L 119.198618 162.577637 
L 120.113539 160.426418 
L 121.02846 179.787393 
L 121.943381 171.182515 
L 122.858301 166.880076 
L 123.773222 169.031296 
L 124.688143 134.611784 
L 125.603064 151.82154 
L 126.517984 153.972759 
L 127.432905 147.519101 
L 128.347826 196.997149 
L 129.262747 151.82154 
L 130.177667 169.031296 
L 131.092588 181.938613 
L 132.007509 192.69471 
L 132.92243 145.367881 
L 133.83735 141.065442 
L 134.752271 162.577637 
L 135.667192 147.519101 
L 136.582113 188.392271 
L 137.497033 179.787393 
L 138.411954 151.82154 
L 139.326875 207.753247 
L 140.241796 164.728857 
L 141.156716 190.543491 
L 142.071637 173.333735 
L 142.986558 130.309345 
L 143.901479 151.82154 
L 144.816399 141.065442 
L 145.73132 169.031296 
L 146.646241 177.636174 
L 147.561162 164.728857 
L 148.476082 160.426418 
L 149.391003 169.031296 
L 150.305924 160.426418 
L 151.220845 169.031296 
L 152.135765 162.577637 
L 153.050686 151.82154 
L 153.965607 188.392271 
L 154.880528 203.450808 
L 155.795448 175.484954 
L 156.710369 179.787393 
L 157.62529 169.031296 
L 158.540211 201.299588 
L 160.370052 143.216662 
L 161.284973 145.367881 
L 162.199894 173.333735 
L 163.114814 188.392271 
L 164.029735 164.728857 
L 164.944656 186.241052 
L 165.859577 164.728857 
L 166.774497 209.904466 
L 167.689418 203.450808 
L 168.604339 184.089832 
L 169.51926 158.275198 
L 170.43418 156.123979 
L 171.349101 212.055686 
L 172.264022 199.148369 
L 173.178943 205.602027 
L 174.093863 199.148369 
L 175.008784 179.787393 
L 175.923705 188.392271 
L 176.838626 201.299588 
L 177.753546 181.938613 
L 178.668467 149.67032 
L 179.583388 199.148369 
L 180.498309 164.728857 
L 181.413229 184.089832 
L 182.32815 196.997149 
L 183.243071 169.031296 
L 184.157992 169.031296 
L 185.072912 156.123979 
L 185.987833 188.392271 
L 186.902754 203.450808 
L 187.817675 205.602027 
L 188.732595 169.031296 
L 189.647516 158.275198 
L 190.562437 149.67032 
L 191.477358 203.450808 
L 192.392278 190.543491 
L 193.307199 186.241052 
L 194.22212 205.602027 
L 195.137041 192.69471 
L 196.051961 201.299588 
L 196.966882 184.089832 
L 197.881803 192.69471 
L 198.796724 218.509345 
L 199.711644 227.114223 
L 200.626565 196.997149 
L 201.541486 220.660564 
L 202.456407 186.241052 
L 203.371327 194.84593 
L 204.286248 190.543491 
L 205.201169 188.392271 
L 206.11609 194.84593 
L 207.03101 196.997149 
L 207.945931 130.309345 
L 208.860852 160.426418 
L 209.775773 203.450808 
L 211.605614 169.031296 
L 212.520535 158.275198 
L 213.435456 181.938613 
L 214.350376 175.484954 
L 215.265297 164.728857 
L 216.180218 190.543491 
L 217.095139 196.997149 
L 218.010059 169.031296 
L 218.92498 196.997149 
L 219.839901 177.636174 
L 220.754822 179.787393 
L 221.669742 218.509345 
L 222.584663 218.509345 
L 223.499584 229.265442 
L 224.414505 192.69471 
L 225.329425 244.323979 
L 226.244346 212.055686 
L 227.159267 209.904466 
L 228.074188 233.567881 
L 228.989108 199.148369 
L 229.904029 175.484954 
L 230.81895 212.055686 
L 231.733871 222.811784 
L 232.648791 171.182515 
L 233.563712 220.660564 
L 234.478633 192.69471 
L 235.393554 224.963003 
L 236.308474 194.84593 
L 237.223395 181.938613 
L 238.138316 177.636174 
L 239.053237 212.055686 
L 240.883078 212.055686 
L 241.797999 214.206905 
L 242.71292 179.787393 
L 243.62784 166.880076 
L 244.542761 169.031296 
L 245.457682 186.241052 
L 246.372603 184.089832 
L 247.287523 203.450808 
L 248.202444 209.904466 
L 249.117365 184.089832 
L 250.032286 153.972759 
L 250.947206 196.997149 
L 251.862127 196.997149 
L 252.777048 216.358125 
L 253.691969 231.416662 
L 254.606889 203.450808 
L 256.436731 181.938613 
L 257.351652 205.602027 
L 258.266572 205.602027 
L 259.181493 220.660564 
L 260.096414 229.265442 
L 261.011335 209.904466 
L 261.926255 222.811784 
L 262.841176 177.636174 
L 263.756097 242.172759 
L 264.671018 214.206905 
L 265.585938 203.450808 
L 266.500859 227.114223 
L 267.41578 224.963003 
L 268.330701 205.602027 
L 269.245621 227.114223 
L 270.160542 196.997149 
L 271.075463 214.206905 
L 271.990384 194.84593 
L 272.905304 181.938613 
L 273.820225 220.660564 
L 274.735146 201.299588 
L 275.650067 209.904466 
L 276.564987 214.206905 
L 277.479908 227.114223 
L 278.394829 203.450808 
L 279.30975 222.811784 
L 280.22467 192.69471 
L 281.139591 156.123979 
L 282.054512 190.543491 
L 282.969433 235.719101 
L 283.884353 222.811784 
L 284.799274 201.299588 
L 285.714195 205.602027 
L 286.629116 188.392271 
L 287.544036 233.567881 
L 288.458957 203.450808 
L 289.373878 220.660564 
L 290.288799 216.358125 
L 291.203719 207.753247 
L 292.11864 252.928857 
L 293.033561 194.84593 
L 293.948482 220.660564 
L 294.863402 233.567881 
L 295.778323 173.333735 
L 296.693244 222.811784 
L 297.608165 207.753247 
L 298.523085 216.358125 
L 299.438006 190.543491 
L 300.352927 242.172759 
L 301.267848 218.509345 
L 302.182768 229.265442 
L 303.097689 248.626418 
L 304.01261 207.753247 
L 304.927531 222.811784 
L 305.842451 209.904466 
L 306.757372 220.660564 
L 307.672293 220.660564 
L 308.587214 233.567881 
L 309.502134 203.450808 
L 310.417055 212.055686 
L 311.331976 212.055686 
L 312.246897 207.753247 
L 313.161817 218.509345 
L 314.076738 209.904466 
L 314.991659 203.450808 
L 315.90658 209.904466 
L 316.8215 227.114223 
L 317.736421 224.963003 
L 318.651342 212.055686 
L 319.566263 222.811784 
L 320.481183 201.299588 
L 321.396104 220.660564 
L 322.311025 229.265442 
L 323.225946 244.323979 
L 324.140866 237.87032 
L 325.055787 222.811784 
L 325.970708 233.567881 
L 326.885629 255.080076 
L 328.71547 233.567881 
L 329.630391 227.114223 
L 330.545312 214.206905 
L 331.460232 240.02154 
L 332.375153 224.963003 
L 333.290074 259.382515 
L 334.204995 235.719101 
L 335.119915 216.358125 
L 336.034836 235.719101 
L 336.949757 227.114223 
L 337.864678 192.69471 
L 338.779598 252.928857 
L 339.694519 203.450808 
L 340.60944 224.963003 
L 341.524361 274.441052 
L 342.439281 233.567881 
L 344.269123 242.172759 
L 345.184044 212.055686 
L 346.098964 246.475198 
L 347.013885 235.719101 
L 347.928806 244.323979 
L 348.843727 235.719101 
L 349.758647 203.450808 
L 350.673568 224.963003 
L 351.588489 252.928857 
L 352.50341 220.660564 
L 353.41833 214.206905 
L 354.333251 248.626418 
L 355.248172 218.509345 
L 356.163093 222.811784 
L 357.078013 235.719101 
L 357.992934 227.114223 
L 358.907855 267.987393 
L 359.822776 242.172759 
L 360.737696 240.02154 
L 361.652617 229.265442 
L 363.482459 255.080076 
L 364.397379 248.626418 
L 365.3123 237.87032 
L 366.227221 250.777637 
L 367.142142 237.87032 
L 368.057062 272.289832 
L 368.971983 240.02154 
L 369.886904 240.02154 
L 370.801825 250.777637 
L 371.716745 248.626418 
L 372.631666 274.441052 
L 373.546587 244.323979 
L 374.461508 222.811784 
L 375.376428 218.509345 
L 376.291349 252.928857 
L 377.20627 231.416662 
L 378.121191 214.206905 
L 379.036111 244.323979 
L 379.951032 242.172759 
L 380.865953 224.963003 
L 381.780874 233.567881 
L 382.695794 257.231296 
L 383.610715 242.172759 
L 384.525636 248.626418 
L 385.440557 227.114223 
L 386.355477 272.289832 
L 387.270398 252.928857 
L 388.185319 259.382515 
L 389.10024 246.475198 
L 390.01516 261.533735 
L 390.930081 261.533735 
L 391.845002 265.836174 
L 392.759923 250.777637 
L 393.674843 244.323979 
L 394.589764 261.533735 
L 395.504685 220.660564 
L 396.419606 214.206905 
L 397.334526 242.172759 
L 398.249447 244.323979 
L 399.164368 224.963003 
L 400.079289 267.987393 
L 400.994209 240.02154 
L 401.90913 257.231296 
L 402.824051 246.475198 
L 403.738972 276.592271 
L 404.653892 244.323979 
L 405.568813 248.626418 
L 407.398655 252.928857 
L 408.313575 250.777637 
L 409.228496 274.441052 
L 410.143417 257.231296 
L 411.058338 246.475198 
L 411.973258 229.265442 
L 412.888179 267.987393 
L 413.8031 214.206905 
L 414.718021 293.802027 
L 415.632941 233.567881 
L 416.547862 212.055686 
L 417.462783 227.114223 
L 418.377704 274.441052 
L 419.292624 240.02154 
L 420.207545 263.684954 
L 421.122466 263.684954 
L 422.037387 257.231296 
L 422.952307 231.416662 
L 423.867228 229.265442 
L 424.782149 242.172759 
L 425.69707 235.719101 
L 426.61199 237.87032 
L 427.526911 248.626418 
L 428.441832 248.626418 
L 429.356753 231.416662 
L 430.271673 250.777637 
L 431.186594 252.928857 
L 432.101515 244.323979 
L 433.016436 263.684954 
L 433.931356 265.836174 
L 434.846277 265.836174 
L 435.761198 261.533735 
L 437.591039 227.114223 
L 438.50596 265.836174 
L 439.420881 224.963003 
L 440.335802 263.684954 
L 441.250722 242.172759 
L 442.165643 265.836174 
L 443.080564 222.811784 
L 443.995485 265.836174 
L 444.910405 244.323979 
L 445.825326 233.567881 
L 446.740247 250.777637 
L 447.655168 233.567881 
L 449.485009 242.172759 
L 450.39993 278.743491 
L 451.314851 295.953247 
L 452.229771 259.382515 
L 453.144692 265.836174 
L 454.059613 283.04593 
L 454.974534 285.197149 
L 455.889454 267.987393 
L 456.804375 278.743491 
L 457.719296 265.836174 
L 458.634217 248.626418 
L 459.549137 265.836174 
L 460.464058 240.02154 
L 461.378979 276.592271 
L 462.2939 267.987393 
L 463.20882 231.416662 
L 464.123741 287.348369 
L 465.038662 240.02154 
L 465.953583 257.231296 
L 466.868503 242.172759 
L 467.783424 250.777637 
L 468.698345 287.348369 
L 469.613266 255.080076 
L 470.528186 259.382515 
L 471.443107 265.836174 
L 472.358028 248.626418 
L 473.272949 246.475198 
L 474.187869 267.987393 
L 475.10279 270.138613 
L 476.017711 244.323979 
L 476.932632 231.416662 
L 477.847552 246.475198 
L 478.762473 259.382515 
L 479.677394 257.231296 
L 480.592315 265.836174 
L 481.507235 255.080076 
L 482.422156 246.475198 
L 483.337077 263.684954 
L 484.251998 248.626418 
L 485.166918 265.836174 
L 486.081839 267.987393 
L 486.99676 244.323979 
L 487.911681 270.138613 
L 488.826601 252.928857 
L 489.741522 263.684954 
L 490.656443 231.416662 
L 491.571364 233.567881 
L 492.486285 237.87032 
L 493.401205 255.080076 
L 494.316126 257.231296 
L 495.231047 255.080076 
L 496.145968 255.080076 
L 497.060888 267.987393 
L 497.975809 274.441052 
L 498.89073 244.323979 
L 499.805651 257.231296 
L 500.720571 250.777637 
L 501.635492 250.777637 
L 502.550413 270.138613 
L 503.465334 285.197149 
L 504.380254 270.138613 
L 506.210096 278.743491 
L 507.125017 257.231296 
L 508.039937 263.684954 
L 508.954858 267.987393 
L 509.869779 257.231296 
L 510.7847 287.348369 
L 511.69962 263.684954 
L 512.614541 257.231296 
L 513.529462 270.138613 
L 514.444383 252.928857 
L 515.359303 244.323979 
L 516.274224 274.441052 
L 517.189145 252.928857 
L 518.104066 240.02154 
L 519.018986 255.080076 
L 519.933907 248.626418 
L 520.848828 261.533735 
L 521.763749 272.289832 
L 522.678669 276.592271 
L 523.59359 267.987393 
L 524.508511 287.348369 
L 525.423432 250.777637 
L 526.338352 255.080076 
L 526.338352 255.080076 
" style="fill:none;stroke:#008000;stroke-linecap:square;stroke-width:1.5;"/>
   </g>
   <g id="line2d_17">
    <path clip-path="url(#pf14fbb36dd)" d="M 69.792898 392.758125 
L 97.24052 392.758125 
L 98.155441 390.606905 
L 99.985282 390.606905 
L 101.815124 386.304466 
L 102.730045 390.606905 
L 103.644965 382.002027 
L 104.559886 390.606905 
L 105.474807 390.606905 
L 106.389728 382.002027 
L 107.304649 386.304466 
L 110.049411 386.304466 
L 110.964332 384.153247 
L 111.879252 384.153247 
L 112.794173 375.548369 
L 114.624015 384.153247 
L 115.538935 379.850808 
L 117.368777 379.850808 
L 118.283698 375.548369 
L 119.198618 377.699588 
L 120.113539 366.943491 
L 121.02846 369.09471 
L 122.858301 377.699588 
L 123.773222 375.548369 
L 124.688143 384.153247 
L 125.603064 377.699588 
L 126.517984 373.397149 
L 127.432905 375.548369 
L 128.347826 375.548369 
L 129.262747 384.153247 
L 131.092588 366.943491 
L 132.007509 388.455686 
L 132.92243 377.699588 
L 133.83735 377.699588 
L 134.752271 371.24593 
L 135.667192 373.397149 
L 137.497033 369.09471 
L 138.411954 377.699588 
L 139.326875 371.24593 
L 140.241796 373.397149 
L 141.156716 373.397149 
L 142.071637 371.24593 
L 142.986558 358.338613 
L 143.901479 369.09471 
L 144.816399 351.884954 
L 145.73132 362.641052 
L 146.646241 371.24593 
L 147.561162 373.397149 
L 148.476082 364.792271 
L 149.391003 369.09471 
L 150.305924 360.489832 
L 151.220845 369.09471 
L 152.135765 366.943491 
L 153.050686 360.489832 
L 153.965607 358.338613 
L 154.880528 360.489832 
L 155.795448 351.884954 
L 156.710369 366.943491 
L 157.62529 362.641052 
L 158.540211 347.582515 
L 159.455131 358.338613 
L 161.284973 345.431296 
L 162.199894 349.733735 
L 163.114814 351.884954 
L 164.029735 356.187393 
L 164.944656 347.582515 
L 165.859577 349.733735 
L 166.774497 366.943491 
L 167.689418 345.431296 
L 168.604339 349.733735 
L 169.51926 360.489832 
L 170.43418 345.431296 
L 171.349101 362.641052 
L 172.264022 366.943491 
L 173.178943 345.431296 
L 174.093863 358.338613 
L 175.008784 354.036174 
L 175.923705 351.884954 
L 176.838626 356.187393 
L 177.753546 343.280076 
L 178.668467 341.128857 
L 179.583388 349.733735 
L 180.498309 349.733735 
L 181.413229 351.884954 
L 182.32815 341.128857 
L 183.243071 360.489832 
L 184.157992 343.280076 
L 185.072912 360.489832 
L 185.987833 343.280076 
L 186.902754 351.884954 
L 187.817675 354.036174 
L 188.732595 364.792271 
L 189.647516 358.338613 
L 190.562437 358.338613 
L 191.477358 336.826418 
L 192.392278 356.187393 
L 193.307199 349.733735 
L 194.22212 354.036174 
L 195.137041 345.431296 
L 196.051961 358.338613 
L 196.966882 343.280076 
L 197.881803 358.338613 
L 198.796724 343.280076 
L 199.711644 343.280076 
L 200.626565 330.372759 
L 201.541486 347.582515 
L 203.371327 338.977637 
L 204.286248 351.884954 
L 205.201169 336.826418 
L 206.11609 332.523979 
L 207.03101 317.465442 
L 207.945931 336.826418 
L 208.860852 338.977637 
L 209.775773 334.675198 
L 210.690693 336.826418 
L 211.605614 354.036174 
L 212.520535 330.372759 
L 213.435456 336.826418 
L 214.350376 349.733735 
L 215.265297 328.22154 
L 216.180218 326.07032 
L 217.095139 356.187393 
L 218.010059 330.372759 
L 218.92498 341.128857 
L 219.839901 347.582515 
L 220.754822 341.128857 
L 222.584663 336.826418 
L 223.499584 330.372759 
L 224.414505 338.977637 
L 225.329425 334.675198 
L 226.244346 345.431296 
L 227.159267 338.977637 
L 228.074188 330.372759 
L 228.989108 328.22154 
L 229.904029 311.011784 
L 230.81895 313.163003 
L 231.733871 330.372759 
L 232.648791 343.280076 
L 233.563712 328.22154 
L 234.478633 341.128857 
L 235.393554 319.616662 
L 236.308474 336.826418 
L 237.223395 347.582515 
L 238.138316 336.826418 
L 239.053237 321.767881 
L 239.968157 319.616662 
L 240.883078 323.919101 
L 241.797999 306.709345 
L 242.71292 319.616662 
L 243.62784 343.280076 
L 244.542761 321.767881 
L 245.457682 330.372759 
L 246.372603 336.826418 
L 247.287523 328.22154 
L 248.202444 349.733735 
L 249.117365 330.372759 
L 250.032286 349.733735 
L 250.947206 343.280076 
L 251.862127 334.675198 
L 252.777048 323.919101 
L 253.691969 326.07032 
L 254.606889 347.582515 
L 255.52181 306.709345 
L 256.436731 330.372759 
L 257.351652 334.675198 
L 258.266572 321.767881 
L 259.181493 326.07032 
L 260.096414 321.767881 
L 261.011335 321.767881 
L 261.926255 336.826418 
L 262.841176 345.431296 
L 263.756097 315.314223 
L 264.671018 326.07032 
L 265.585938 323.919101 
L 266.500859 319.616662 
L 267.41578 308.860564 
L 268.330701 338.977637 
L 270.160542 330.372759 
L 271.075463 334.675198 
L 271.990384 319.616662 
L 272.905304 336.826418 
L 273.820225 334.675198 
L 274.735146 349.733735 
L 275.650067 343.280076 
L 276.564987 332.523979 
L 277.479908 347.582515 
L 278.394829 336.826418 
L 279.30975 338.977637 
L 280.22467 347.582515 
L 281.139591 343.280076 
L 282.054512 313.163003 
L 282.969433 319.616662 
L 283.884353 315.314223 
L 284.799274 321.767881 
L 285.714195 317.465442 
L 286.629116 291.650808 
L 287.544036 298.104466 
L 288.458957 313.163003 
L 289.373878 349.733735 
L 290.288799 338.977637 
L 291.203719 332.523979 
L 292.11864 321.767881 
L 293.033561 323.919101 
L 293.948482 321.767881 
L 294.863402 326.07032 
L 295.778323 326.07032 
L 296.693244 308.860564 
L 297.608165 317.465442 
L 298.523085 341.128857 
L 299.438006 334.675198 
L 300.352927 326.07032 
L 301.267848 311.011784 
L 302.182768 315.314223 
L 303.097689 315.314223 
L 304.01261 300.255686 
L 304.927531 319.616662 
L 305.842451 315.314223 
L 306.757372 323.919101 
L 307.672293 321.767881 
L 308.587214 328.22154 
L 309.502134 315.314223 
L 310.417055 328.22154 
L 311.331976 315.314223 
L 312.246897 345.431296 
L 313.161817 328.22154 
L 314.076738 315.314223 
L 314.991659 338.977637 
L 315.90658 323.919101 
L 316.8215 326.07032 
L 317.736421 315.314223 
L 318.651342 334.675198 
L 319.566263 313.163003 
L 320.481183 313.163003 
L 321.396104 306.709345 
L 322.311025 306.709345 
L 323.225946 317.465442 
L 324.140866 293.802027 
L 325.055787 298.104466 
L 325.970708 311.011784 
L 326.885629 319.616662 
L 327.800549 330.372759 
L 328.71547 308.860564 
L 329.630391 317.465442 
L 330.545312 313.163003 
L 331.460232 317.465442 
L 332.375153 300.255686 
L 333.290074 311.011784 
L 334.204995 308.860564 
L 335.119915 326.07032 
L 336.034836 336.826418 
L 336.949757 315.314223 
L 337.864678 306.709345 
L 338.779598 319.616662 
L 339.694519 308.860564 
L 341.524361 304.558125 
L 342.439281 272.289832 
L 343.354202 287.348369 
L 344.269123 308.860564 
L 345.184044 300.255686 
L 346.098964 306.709345 
L 347.013885 319.616662 
L 347.928806 315.314223 
L 348.843727 302.406905 
L 349.758647 302.406905 
L 350.673568 315.314223 
L 351.588489 308.860564 
L 352.50341 311.011784 
L 353.41833 300.255686 
L 354.333251 302.406905 
L 355.248172 287.348369 
L 357.078013 295.953247 
L 357.992934 319.616662 
L 358.907855 304.558125 
L 359.822776 315.314223 
L 360.737696 317.465442 
L 361.652617 330.372759 
L 362.567538 308.860564 
L 363.482459 330.372759 
L 364.397379 285.197149 
L 365.3123 291.650808 
L 366.227221 302.406905 
L 367.142142 295.953247 
L 368.057062 313.163003 
L 368.971983 341.128857 
L 369.886904 308.860564 
L 370.801825 302.406905 
L 371.716745 313.163003 
L 372.631666 319.616662 
L 373.546587 319.616662 
L 374.461508 311.011784 
L 375.376428 308.860564 
L 376.291349 319.616662 
L 377.20627 313.163003 
L 378.121191 334.675198 
L 379.036111 298.104466 
L 379.951032 319.616662 
L 380.865953 319.616662 
L 381.780874 285.197149 
L 382.695794 317.465442 
L 383.610715 293.802027 
L 384.525636 302.406905 
L 385.440557 336.826418 
L 386.355477 319.616662 
L 387.270398 321.767881 
L 388.185319 306.709345 
L 389.10024 289.499588 
L 390.01516 319.616662 
L 390.930081 319.616662 
L 391.845002 283.04593 
L 392.759923 315.314223 
L 393.674843 317.465442 
L 394.589764 293.802027 
L 395.504685 289.499588 
L 396.419606 302.406905 
L 397.334526 300.255686 
L 399.164368 330.372759 
L 400.079289 313.163003 
L 400.994209 308.860564 
L 401.90913 338.977637 
L 402.824051 306.709345 
L 403.738972 319.616662 
L 404.653892 278.743491 
L 405.568813 287.348369 
L 406.483734 289.499588 
L 407.398655 289.499588 
L 408.313575 263.684954 
L 409.228496 283.04593 
L 410.143417 289.499588 
L 411.058338 259.382515 
L 411.973258 293.802027 
L 412.888179 302.406905 
L 413.8031 295.953247 
L 414.718021 304.558125 
L 415.632941 293.802027 
L 417.462783 341.128857 
L 418.377704 302.406905 
L 419.292624 298.104466 
L 420.207545 295.953247 
L 421.122466 300.255686 
L 422.037387 289.499588 
L 422.952307 306.709345 
L 423.867228 313.163003 
L 424.782149 306.709345 
L 425.69707 293.802027 
L 426.61199 300.255686 
L 427.526911 317.465442 
L 428.441832 308.860564 
L 429.356753 304.558125 
L 430.271673 311.011784 
L 431.186594 304.558125 
L 432.101515 317.465442 
L 433.016436 308.860564 
L 433.931356 289.499588 
L 434.846277 313.163003 
L 435.761198 293.802027 
L 436.676119 295.953247 
L 437.591039 289.499588 
L 438.50596 293.802027 
L 439.420881 302.406905 
L 440.335802 291.650808 
L 441.250722 313.163003 
L 442.165643 283.04593 
L 443.080564 285.197149 
L 443.995485 278.743491 
L 444.910405 283.04593 
L 446.740247 304.558125 
L 447.655168 283.04593 
L 448.570088 293.802027 
L 449.485009 293.802027 
L 450.39993 304.558125 
L 451.314851 276.592271 
L 452.229771 285.197149 
L 453.144692 272.289832 
L 454.059613 278.743491 
L 454.974534 280.89471 
L 455.889454 304.558125 
L 456.804375 298.104466 
L 457.719296 285.197149 
L 458.634217 267.987393 
L 459.549137 298.104466 
L 460.464058 304.558125 
L 461.378979 274.441052 
L 462.2939 308.860564 
L 464.123741 300.255686 
L 465.038662 313.163003 
L 465.953583 293.802027 
L 467.783424 319.616662 
L 468.698345 280.89471 
L 469.613266 311.011784 
L 470.528186 289.499588 
L 471.443107 291.650808 
L 472.358028 300.255686 
L 473.272949 321.767881 
L 474.187869 300.255686 
L 475.10279 293.802027 
L 476.017711 321.767881 
L 476.932632 306.709345 
L 477.847552 300.255686 
L 478.762473 308.860564 
L 479.677394 298.104466 
L 480.592315 283.04593 
L 481.507235 276.592271 
L 482.422156 289.499588 
L 483.337077 289.499588 
L 484.251998 300.255686 
L 485.166918 283.04593 
L 486.081839 274.441052 
L 486.99676 295.953247 
L 487.911681 298.104466 
L 488.826601 293.802027 
L 489.741522 283.04593 
L 490.656443 304.558125 
L 491.571364 285.197149 
L 492.486285 287.348369 
L 493.401205 313.163003 
L 494.316126 287.348369 
L 495.231047 283.04593 
L 496.145968 280.89471 
L 497.060888 267.987393 
L 497.975809 278.743491 
L 498.89073 278.743491 
L 499.805651 267.987393 
L 500.720571 306.709345 
L 501.635492 272.289832 
L 502.550413 291.650808 
L 503.465334 280.89471 
L 504.380254 272.289832 
L 505.295175 287.348369 
L 506.210096 293.802027 
L 507.125017 306.709345 
L 508.039937 283.04593 
L 508.954858 313.163003 
L 509.869779 291.650808 
L 510.7847 308.860564 
L 511.69962 285.197149 
L 512.614541 293.802027 
L 513.529462 280.89471 
L 515.359303 298.104466 
L 517.189145 302.406905 
L 518.104066 274.441052 
L 519.018986 302.406905 
L 519.933907 293.802027 
L 520.848828 283.04593 
L 521.763749 295.953247 
L 522.678669 300.255686 
L 523.59359 317.465442 
L 524.508511 291.650808 
L 525.423432 308.860564 
L 526.338352 300.255686 
L 526.338352 300.255686 
" style="fill:none;stroke:#bf00bf;stroke-linecap:square;stroke-width:1.5;"/>
   </g>
   <g id="patch_3">
    <path d="M 46.965625 410.398125 
L 46.965625 22.318125 
" style="fill:none;stroke:#000000;stroke-linecap:square;stroke-linejoin:miter;stroke-width:0.8;"/>
   </g>
   <g id="patch_4">
    <path d="M 549.165625 410.398125 
L 549.165625 22.318125 
" style="fill:none;stroke:#000000;stroke-linecap:square;stroke-linejoin:miter;stroke-width:0.8;"/>
   </g>
   <g id="patch_5">
    <path d="M 46.965625 410.398125 
L 549.165625 410.398125 
" style="fill:none;stroke:#000000;stroke-linecap:square;stroke-linejoin:miter;stroke-width:0.8;"/>
   </g>
   <g id="patch_6">
    <path d="M 46.965625 22.318125 
L 549.165625 22.318125 
" style="fill:none;stroke:#000000;stroke-linecap:square;stroke-linejoin:miter;stroke-width:0.8;"/>
   </g>
   <g id="text_16">
    <!-- Evolution of y concentration at different points -->
    <defs>
     <path d="M 9.8125 72.90625 
L 55.90625 72.90625 
L 55.90625 64.59375 
L 19.671875 64.59375 
L 19.671875 43.015625 
L 54.390625 43.015625 
L 54.390625 34.71875 
L 19.671875 34.71875 
L 19.671875 8.296875 
L 56.78125 8.296875 
L 56.78125 0 
L 9.8125 0 
z
" id="DejaVuSans-69"/>
     <path d="M 2.984375 54.6875 
L 12.5 54.6875 
L 29.59375 8.796875 
L 46.6875 54.6875 
L 56.203125 54.6875 
L 35.6875 0 
L 23.484375 0 
z
" id="DejaVuSans-118"/>
     <path d="M 30.609375 48.390625 
Q 23.390625 48.390625 19.1875 42.75 
Q 14.984375 37.109375 14.984375 27.296875 
Q 14.984375 17.484375 19.15625 11.84375 
Q 23.34375 6.203125 30.609375 6.203125 
Q 37.796875 6.203125 41.984375 11.859375 
Q 46.1875 17.53125 46.1875 27.296875 
Q 46.1875 37.015625 41.984375 42.703125 
Q 37.796875 48.390625 30.609375 48.390625 
z
M 30.609375 56 
Q 42.328125 56 49.015625 48.375 
Q 55.71875 40.765625 55.71875 27.296875 
Q 55.71875 13.875 49.015625 6.21875 
Q 42.328125 -1.421875 30.609375 -1.421875 
Q 18.84375 -1.421875 12.171875 6.21875 
Q 5.515625 13.875 5.515625 27.296875 
Q 5.515625 40.765625 12.171875 48.375 
Q 18.84375 56 30.609375 56 
z
" id="DejaVuSans-111"/>
     <path d="M 9.421875 75.984375 
L 18.40625 75.984375 
L 18.40625 0 
L 9.421875 0 
z
" id="DejaVuSans-108"/>
     <path d="M 8.5 21.578125 
L 8.5 54.6875 
L 17.484375 54.6875 
L 17.484375 21.921875 
Q 17.484375 14.15625 20.5 10.265625 
Q 23.53125 6.390625 29.59375 6.390625 
Q 36.859375 6.390625 41.078125 11.03125 
Q 45.3125 15.671875 45.3125 23.6875 
L 45.3125 54.6875 
L 54.296875 54.6875 
L 54.296875 0 
L 45.3125 0 
L 45.3125 8.40625 
Q 42.046875 3.421875 37.71875 1 
Q 33.40625 -1.421875 27.6875 -1.421875 
Q 18.265625 -1.421875 13.375 4.4375 
Q 8.5 10.296875 8.5 21.578125 
z
M 31.109375 56 
z
" id="DejaVuSans-117"/>
     <path d="M 9.421875 54.6875 
L 18.40625 54.6875 
L 18.40625 0 
L 9.421875 0 
z
M 9.421875 75.984375 
L 18.40625 75.984375 
L 18.40625 64.59375 
L 9.421875 64.59375 
z
" id="DejaVuSans-105"/>
     <path d="M 54.890625 33.015625 
L 54.890625 0 
L 45.90625 0 
L 45.90625 32.71875 
Q 45.90625 40.484375 42.875 44.328125 
Q 39.84375 48.1875 33.796875 48.1875 
Q 26.515625 48.1875 22.3125 43.546875 
Q 18.109375 38.921875 18.109375 30.90625 
L 18.109375 0 
L 9.078125 0 
L 9.078125 54.6875 
L 18.109375 54.6875 
L 18.109375 46.1875 
Q 21.34375 51.125 25.703125 53.5625 
Q 30.078125 56 35.796875 56 
Q 45.21875 56 50.046875 50.171875 
Q 54.890625 44.34375 54.890625 33.015625 
z
" id="DejaVuSans-110"/>
     <path id="DejaVuSans-32"/>
     <path d="M 37.109375 75.984375 
L 37.109375 68.5 
L 28.515625 68.5 
Q 23.6875 68.5 21.796875 66.546875 
Q 19.921875 64.59375 19.921875 59.515625 
L 19.921875 54.6875 
L 34.71875 54.6875 
L 34.71875 47.703125 
L 19.921875 47.703125 
L 19.921875 0 
L 10.890625 0 
L 10.890625 47.703125 
L 2.296875 47.703125 
L 2.296875 54.6875 
L 10.890625 54.6875 
L 10.890625 58.5 
Q 10.890625 67.625 15.140625 71.796875 
Q 19.390625 75.984375 28.609375 75.984375 
z
" id="DejaVuSans-102"/>
     <path d="M 48.78125 52.59375 
L 48.78125 44.1875 
Q 44.96875 46.296875 41.140625 47.34375 
Q 37.3125 48.390625 33.40625 48.390625 
Q 24.65625 48.390625 19.8125 42.84375 
Q 14.984375 37.3125 14.984375 27.296875 
Q 14.984375 17.28125 19.8125 11.734375 
Q 24.65625 6.203125 33.40625 6.203125 
Q 37.3125 6.203125 41.140625 7.25 
Q 44.96875 8.296875 48.78125 10.40625 
L 48.78125 2.09375 
Q 45.015625 0.34375 40.984375 -0.53125 
Q 36.96875 -1.421875 32.421875 -1.421875 
Q 20.0625 -1.421875 12.78125 6.34375 
Q 5.515625 14.109375 5.515625 27.296875 
Q 5.515625 40.671875 12.859375 48.328125 
Q 20.21875 56 33.015625 56 
Q 37.15625 56 41.109375 55.140625 
Q 45.0625 54.296875 48.78125 52.59375 
z
" id="DejaVuSans-99"/>
     <path d="M 56.203125 29.59375 
L 56.203125 25.203125 
L 14.890625 25.203125 
Q 15.484375 15.921875 20.484375 11.0625 
Q 25.484375 6.203125 34.421875 6.203125 
Q 39.59375 6.203125 44.453125 7.46875 
Q 49.3125 8.734375 54.109375 11.28125 
L 54.109375 2.78125 
Q 49.265625 0.734375 44.1875 -0.34375 
Q 39.109375 -1.421875 33.890625 -1.421875 
Q 20.796875 -1.421875 13.15625 6.1875 
Q 5.515625 13.8125 5.515625 26.8125 
Q 5.515625 40.234375 12.765625 48.109375 
Q 20.015625 56 32.328125 56 
Q 43.359375 56 49.78125 48.890625 
Q 56.203125 41.796875 56.203125 29.59375 
z
M 47.21875 32.234375 
Q 47.125 39.59375 43.09375 43.984375 
Q 39.0625 48.390625 32.421875 48.390625 
Q 24.90625 48.390625 20.390625 44.140625 
Q 15.875 39.890625 15.1875 32.171875 
z
" id="DejaVuSans-101"/>
     <path d="M 41.109375 46.296875 
Q 39.59375 47.171875 37.8125 47.578125 
Q 36.03125 48 33.890625 48 
Q 26.265625 48 22.1875 43.046875 
Q 18.109375 38.09375 18.109375 28.8125 
L 18.109375 0 
L 9.078125 0 
L 9.078125 54.6875 
L 18.109375 54.6875 
L 18.109375 46.1875 
Q 20.953125 51.171875 25.484375 53.578125 
Q 30.03125 56 36.53125 56 
Q 37.453125 56 38.578125 55.875 
Q 39.703125 55.765625 41.0625 55.515625 
z
" id="DejaVuSans-114"/>
     <path d="M 34.28125 27.484375 
Q 23.390625 27.484375 19.1875 25 
Q 14.984375 22.515625 14.984375 16.5 
Q 14.984375 11.71875 18.140625 8.90625 
Q 21.296875 6.109375 26.703125 6.109375 
Q 34.1875 6.109375 38.703125 11.40625 
Q 43.21875 16.703125 43.21875 25.484375 
L 43.21875 27.484375 
z
M 52.203125 31.203125 
L 52.203125 0 
L 43.21875 0 
L 43.21875 8.296875 
Q 40.140625 3.328125 35.546875 0.953125 
Q 30.953125 -1.421875 24.3125 -1.421875 
Q 15.921875 -1.421875 10.953125 3.296875 
Q 6 8.015625 6 15.921875 
Q 6 25.140625 12.171875 29.828125 
Q 18.359375 34.515625 30.609375 34.515625 
L 43.21875 34.515625 
L 43.21875 35.40625 
Q 43.21875 41.609375 39.140625 45 
Q 35.0625 48.390625 27.6875 48.390625 
Q 23 48.390625 18.546875 47.265625 
Q 14.109375 46.140625 10.015625 43.890625 
L 10.015625 52.203125 
Q 14.9375 54.109375 19.578125 55.046875 
Q 24.21875 56 28.609375 56 
Q 40.484375 56 46.34375 49.84375 
Q 52.203125 43.703125 52.203125 31.203125 
z
" id="DejaVuSans-97"/>
     <path d="M 45.40625 46.390625 
L 45.40625 75.984375 
L 54.390625 75.984375 
L 54.390625 0 
L 45.40625 0 
L 45.40625 8.203125 
Q 42.578125 3.328125 38.25 0.953125 
Q 33.9375 -1.421875 27.875 -1.421875 
Q 17.96875 -1.421875 11.734375 6.484375 
Q 5.515625 14.40625 5.515625 27.296875 
Q 5.515625 40.1875 11.734375 48.09375 
Q 17.96875 56 27.875 56 
Q 33.9375 56 38.25 53.625 
Q 42.578125 51.265625 45.40625 46.390625 
z
M 14.796875 27.296875 
Q 14.796875 17.390625 18.875 11.75 
Q 22.953125 6.109375 30.078125 6.109375 
Q 37.203125 6.109375 41.296875 11.75 
Q 45.40625 17.390625 45.40625 27.296875 
Q 45.40625 37.203125 41.296875 42.84375 
Q 37.203125 48.484375 30.078125 48.484375 
Q 22.953125 48.484375 18.875 42.84375 
Q 14.796875 37.203125 14.796875 27.296875 
z
" id="DejaVuSans-100"/>
     <path d="M 18.109375 8.203125 
L 18.109375 -20.796875 
L 9.078125 -20.796875 
L 9.078125 54.6875 
L 18.109375 54.6875 
L 18.109375 46.390625 
Q 20.953125 51.265625 25.265625 53.625 
Q 29.59375 56 35.59375 56 
Q 45.5625 56 51.78125 48.09375 
Q 58.015625 40.1875 58.015625 27.296875 
Q 58.015625 14.40625 51.78125 6.484375 
Q 45.5625 -1.421875 35.59375 -1.421875 
Q 29.59375 -1.421875 25.265625 0.953125 
Q 20.953125 3.328125 18.109375 8.203125 
z
M 48.6875 27.296875 
Q 48.6875 37.203125 44.609375 42.84375 
Q 40.53125 48.484375 33.40625 48.484375 
Q 26.265625 48.484375 22.1875 42.84375 
Q 18.109375 37.203125 18.109375 27.296875 
Q 18.109375 17.390625 22.1875 11.75 
Q 26.265625 6.109375 33.40625 6.109375 
Q 40.53125 6.109375 44.609375 11.75 
Q 48.6875 17.390625 48.6875 27.296875 
z
" id="DejaVuSans-112"/>
     <path d="M 44.28125 53.078125 
L 44.28125 44.578125 
Q 40.484375 46.53125 36.375 47.5 
Q 32.28125 48.484375 27.875 48.484375 
Q 21.1875 48.484375 17.84375 46.4375 
Q 14.5 44.390625 14.5 40.28125 
Q 14.5 37.15625 16.890625 35.375 
Q 19.28125 33.59375 26.515625 31.984375 
L 29.59375 31.296875 
Q 39.15625 29.25 43.1875 25.515625 
Q 47.21875 21.78125 47.21875 15.09375 
Q 47.21875 7.46875 41.1875 3.015625 
Q 35.15625 -1.421875 24.609375 -1.421875 
Q 20.21875 -1.421875 15.453125 -0.5625 
Q 10.6875 0.296875 5.421875 2 
L 5.421875 11.28125 
Q 10.40625 8.6875 15.234375 7.390625 
Q 20.0625 6.109375 24.8125 6.109375 
Q 31.15625 6.109375 34.5625 8.28125 
Q 37.984375 10.453125 37.984375 14.40625 
Q 37.984375 18.0625 35.515625 20.015625 
Q 33.0625 21.96875 24.703125 23.78125 
L 21.578125 24.515625 
Q 13.234375 26.265625 9.515625 29.90625 
Q 5.8125 33.546875 5.8125 39.890625 
Q 5.8125 47.609375 11.28125 51.796875 
Q 16.75 56 26.8125 56 
Q 31.78125 56 36.171875 55.265625 
Q 40.578125 54.546875 44.28125 53.078125 
z
" id="DejaVuSans-115"/>
    </defs>
    <g transform="translate(157.599063 16.318125)scale(0.12 -0.12)">
     <use xlink:href="#DejaVuSans-69"/>
     <use x="63.183594" xlink:href="#DejaVuSans-118"/>
     <use x="122.363281" xlink:href="#DejaVuSans-111"/>
     <use x="183.544922" xlink:href="#DejaVuSans-108"/>
     <use x="211.328125" xlink:href="#DejaVuSans-117"/>
     <use x="274.707031" xlink:href="#DejaVuSans-116"/>
     <use x="313.916016" xlink:href="#DejaVuSans-105"/>
     <use x="341.699219" xlink:href="#DejaVuSans-111"/>
     <use x="402.880859" xlink:href="#DejaVuSans-110"/>
     <use x="466.259766" xlink:href="#DejaVuSans-32"/>
     <use x="498.046875" xlink:href="#DejaVuSans-111"/>
     <use x="559.228516" xlink:href="#DejaVuSans-102"/>
     <use x="594.433594" xlink:href="#DejaVuSans-32"/>
     <use x="626.220703" xlink:href="#DejaVuSans-121"/>
     <use x="685.400391" xlink:href="#DejaVuSans-32"/>
     <use x="717.1875" xlink:href="#DejaVuSans-99"/>
     <use x="772.167969" xlink:href="#DejaVuSans-111"/>
     <use x="833.349609" xlink:href="#DejaVuSans-110"/>
     <use x="896.728516" xlink:href="#DejaVuSans-99"/>
     <use x="951.708984" xlink:href="#DejaVuSans-101"/>
     <use x="1013.232422" xlink:href="#DejaVuSans-110"/>
     <use x="1076.611328" xlink:href="#DejaVuSans-116"/>
     <use x="1115.820312" xlink:href="#DejaVuSans-114"/>
     <use x="1156.933594" xlink:href="#DejaVuSans-97"/>
     <use x="1218.212891" xlink:href="#DejaVuSans-116"/>
     <use x="1257.421875" xlink:href="#DejaVuSans-105"/>
     <use x="1285.205078" xlink:href="#DejaVuSans-111"/>
     <use x="1346.386719" xlink:href="#DejaVuSans-110"/>
     <use x="1409.765625" xlink:href="#DejaVuSans-32"/>
     <use x="1441.552734" xlink:href="#DejaVuSans-97"/>
     <use x="1502.832031" xlink:href="#DejaVuSans-116"/>
     <use x="1542.041016" xlink:href="#DejaVuSans-32"/>
     <use x="1573.828125" xlink:href="#DejaVuSans-100"/>
     <use x="1637.304688" xlink:href="#DejaVuSans-105"/>
     <use x="1665.087891" xlink:href="#DejaVuSans-102"/>
     <use x="1700.292969" xlink:href="#DejaVuSans-102"/>
     <use x="1735.498047" xlink:href="#DejaVuSans-101"/>
     <use x="1797.021484" xlink:href="#DejaVuSans-114"/>
     <use x="1838.103516" xlink:href="#DejaVuSans-101"/>
     <use x="1899.626953" xlink:href="#DejaVuSans-110"/>
     <use x="1963.005859" xlink:href="#DejaVuSans-116"/>
     <use x="2002.214844" xlink:href="#DejaVuSans-32"/>
     <use x="2034.001953" xlink:href="#DejaVuSans-112"/>
     <use x="2097.478516" xlink:href="#DejaVuSans-111"/>
     <use x="2158.660156" xlink:href="#DejaVuSans-105"/>
     <use x="2186.443359" xlink:href="#DejaVuSans-110"/>
     <use x="2249.822266" xlink:href="#DejaVuSans-116"/>
     <use x="2289.03125" xlink:href="#DejaVuSans-115"/>
    </g>
   </g>
   <g id="legend_1">
    <g id="patch_7">
     <path d="M 483.71875 89.030625 
L 542.165625 89.030625 
Q 544.165625 89.030625 544.165625 87.030625 
L 544.165625 29.318125 
Q 544.165625 27.318125 542.165625 27.318125 
L 483.71875 27.318125 
Q 481.71875 27.318125 481.71875 29.318125 
L 481.71875 87.030625 
Q 481.71875 89.030625 483.71875 89.030625 
z
" style="fill:#ffffff;opacity:0.8;stroke:#cccccc;stroke-linejoin:miter;"/>
    </g>
    <g id="line2d_18">
     <path d="M 485.71875 35.416562 
L 505.71875 35.416562 
" style="fill:none;stroke:#0000ff;stroke-linecap:square;stroke-width:1.5;"/>
    </g>
    <g id="line2d_19"/>
    <g id="text_17">
     <!-- y[20] -->
     <defs>
      <path d="M 8.59375 75.984375 
L 29.296875 75.984375 
L 29.296875 69 
L 17.578125 69 
L 17.578125 -6.203125 
L 29.296875 -6.203125 
L 29.296875 -13.1875 
L 8.59375 -13.1875 
z
" id="DejaVuSans-91"/>
      <path d="M 30.421875 75.984375 
L 30.421875 -13.1875 
L 9.71875 -13.1875 
L 9.71875 -6.203125 
L 21.390625 -6.203125 
L 21.390625 69 
L 9.71875 69 
L 9.71875 75.984375 
z
" id="DejaVuSans-93"/>
     </defs>
     <g transform="translate(513.71875 38.916562)scale(0.1 -0.1)">
      <use xlink:href="#DejaVuSans-121"/>
      <use x="59.179688" xlink:href="#DejaVuSans-91"/>
      <use x="98.193359" xlink:href="#DejaVuSans-50"/>
      <use x="161.816406" xlink:href="#DejaVuSans-48"/>
      <use x="225.439453" xlink:href="#DejaVuSans-93"/>
     </g>
    </g>
    <g id="line2d_20">
     <path d="M 485.71875 50.094687 
L 505.71875 50.094687 
" style="fill:none;stroke:#ff0000;stroke-linecap:square;stroke-width:1.5;"/>
    </g>
    <g id="line2d_21"/>
    <g id="text_18">
     <!-- y[40] -->
     <g transform="translate(513.71875 53.594687)scale(0.1 -0.1)">
      <use xlink:href="#DejaVuSans-121"/>
      <use x="59.179688" xlink:href="#DejaVuSans-91"/>
      <use x="98.193359" xlink:href="#DejaVuSans-52"/>
      <use x="161.816406" xlink:href="#DejaVuSans-48"/>
      <use x="225.439453" xlink:href="#DejaVuSans-93"/>
     </g>
    </g>
    <g id="line2d_22">
     <path d="M 485.71875 64.772812 
L 505.71875 64.772812 
" style="fill:none;stroke:#008000;stroke-linecap:square;stroke-width:1.5;"/>
    </g>
    <g id="line2d_23"/>
    <g id="text_19">
     <!-- y[60] -->
     <defs>
      <path d="M 33.015625 40.375 
Q 26.375 40.375 22.484375 35.828125 
Q 18.609375 31.296875 18.609375 23.390625 
Q 18.609375 15.53125 22.484375 10.953125 
Q 26.375 6.390625 33.015625 6.390625 
Q 39.65625 6.390625 43.53125 10.953125 
Q 47.40625 15.53125 47.40625 23.390625 
Q 47.40625 31.296875 43.53125 35.828125 
Q 39.65625 40.375 33.015625 40.375 
z
M 52.59375 71.296875 
L 52.59375 62.3125 
Q 48.875 64.0625 45.09375 64.984375 
Q 41.3125 65.921875 37.59375 65.921875 
Q 27.828125 65.921875 22.671875 59.328125 
Q 17.53125 52.734375 16.796875 39.40625 
Q 19.671875 43.65625 24.015625 45.921875 
Q 28.375 48.1875 33.59375 48.1875 
Q 44.578125 48.1875 50.953125 41.515625 
Q 57.328125 34.859375 57.328125 23.390625 
Q 57.328125 12.15625 50.6875 5.359375 
Q 44.046875 -1.421875 33.015625 -1.421875 
Q 20.359375 -1.421875 13.671875 8.265625 
Q 6.984375 17.96875 6.984375 36.375 
Q 6.984375 53.65625 15.1875 63.9375 
Q 23.390625 74.21875 37.203125 74.21875 
Q 40.921875 74.21875 44.703125 73.484375 
Q 48.484375 72.75 52.59375 71.296875 
z
" id="DejaVuSans-54"/>
     </defs>
     <g transform="translate(513.71875 68.272812)scale(0.1 -0.1)">
      <use xlink:href="#DejaVuSans-121"/>
      <use x="59.179688" xlink:href="#DejaVuSans-91"/>
      <use x="98.193359" xlink:href="#DejaVuSans-54"/>
      <use x="161.816406" xlink:href="#DejaVuSans-48"/>
      <use x="225.439453" xlink:href="#DejaVuSans-93"/>
     </g>
    </g>
    <g id="line2d_24">
     <path d="M 485.71875 79.450937 
L 505.71875 79.450937 
" style="fill:none;stroke:#bf00bf;stroke-linecap:square;stroke-width:1.5;"/>
    </g>
    <g id="line2d_25"/>
    <g id="text_20">
     <!-- y[80] -->
     <defs>
      <path d="M 31.78125 34.625 
Q 24.75 34.625 20.71875 30.859375 
Q 16.703125 27.09375 16.703125 20.515625 
Q 16.703125 13.921875 20.71875 10.15625 
Q 24.75 6.390625 31.78125 6.390625 
Q 38.8125 6.390625 42.859375 10.171875 
Q 46.921875 13.96875 46.921875 20.515625 
Q 46.921875 27.09375 42.890625 30.859375 
Q 38.875 34.625 31.78125 34.625 
z
M 21.921875 38.8125 
Q 15.578125 40.375 12.03125 44.71875 
Q 8.5 49.078125 8.5 55.328125 
Q 8.5 64.0625 14.71875 69.140625 
Q 20.953125 74.21875 31.78125 74.21875 
Q 42.671875 74.21875 48.875 69.140625 
Q 55.078125 64.0625 55.078125 55.328125 
Q 55.078125 49.078125 51.53125 44.71875 
Q 48 40.375 41.703125 38.8125 
Q 48.828125 37.15625 52.796875 32.3125 
Q 56.78125 27.484375 56.78125 20.515625 
Q 56.78125 9.90625 50.3125 4.234375 
Q 43.84375 -1.421875 31.78125 -1.421875 
Q 19.734375 -1.421875 13.25 4.234375 
Q 6.78125 9.90625 6.78125 20.515625 
Q 6.78125 27.484375 10.78125 32.3125 
Q 14.796875 37.15625 21.921875 38.8125 
z
M 18.3125 54.390625 
Q 18.3125 48.734375 21.84375 45.5625 
Q 25.390625 42.390625 31.78125 42.390625 
Q 38.140625 42.390625 41.71875 45.5625 
Q 45.3125 48.734375 45.3125 54.390625 
Q 45.3125 60.0625 41.71875 63.234375 
Q 38.140625 66.40625 31.78125 66.40625 
Q 25.390625 66.40625 21.84375 63.234375 
Q 18.3125 60.0625 18.3125 54.390625 
z
" id="DejaVuSans-56"/>
     </defs>
     <g transform="translate(513.71875 82.950937)scale(0.1 -0.1)">
      <use xlink:href="#DejaVuSans-121"/>
      <use x="59.179688" xlink:href="#DejaVuSans-91"/>
      <use x="98.193359" xlink:href="#DejaVuSans-56"/>
      <use x="161.816406" xlink:href="#DejaVuSans-48"/>
      <use x="225.439453" xlink:href="#DejaVuSans-93"/>
     </g>
    </g>
   </g>
  </g>
 </g>
 <defs>
  <clipPath id="pf14fbb36dd">
   <rect height="388.08" width="502.2" x="46.965625" y="22.318125"/>
  </clipPath>
 </defs>
</svg>
