<?xml version="1.0" encoding="utf-8" standalone="no"?>
<!DOCTYPE svg PUBLIC "-//W3C//DTD SVG 1.1//EN"
  "http://www.w3.org/Graphics/SVG/1.1/DTD/svg11.dtd">
<!-- Created with matplotlib (https://matplotlib.org/) -->
<svg height="441.474531pt" version="1.1" viewBox="0 0 558.020312 441.474531" width="558.020312pt" xmlns="http://www.w3.org/2000/svg" xmlns:xlink="http://www.w3.org/1999/xlink">
 <defs>
  <style type="text/css">
*{stroke-linecap:butt;stroke-linejoin:round;}
  </style>
 </defs>
 <g id="figure_1">
  <g id="patch_1">
   <path d="M 0 441.474531 
L 558.020312 441.474531 
L 558.020312 0 
L 0 0 
z
" style="fill:#ffffff;"/>
  </g>
  <g id="axes_1">
   <g id="patch_2">
    <path d="M 48.620313 399.079219 
L 550.820312 399.079219 
L 550.820312 10.999219 
L 48.620313 10.999219 
z
" style="fill:#ffffff;"/>
   </g>
   <g id="matplotlib.axis_1">
    <g id="xtick_1">
     <g id="line2d_1">
      <defs>
       <path d="M 0 0 
L 0 3.5 
" id="m4ee843df49" style="stroke:#000000;stroke-width:0.8;"/>
      </defs>
      <g>
       <use style="stroke:#000000;stroke-width:0.8;" x="48.620313" xlink:href="#m4ee843df49" y="399.079219"/>
      </g>
     </g>
     <g id="text_1">
      <!-- 0 -->
      <defs>
       <path d="M 31.78125 66.40625 
Q 24.171875 66.40625 20.328125 58.90625 
Q 16.5 51.421875 16.5 36.375 
Q 16.5 21.390625 20.328125 13.890625 
Q 24.171875 6.390625 31.78125 6.390625 
Q 39.453125 6.390625 43.28125 13.890625 
Q 47.125 21.390625 47.125 36.375 
Q 47.125 51.421875 43.28125 58.90625 
Q 39.453125 66.40625 31.78125 66.40625 
z
M 31.78125 74.21875 
Q 44.046875 74.21875 50.515625 64.515625 
Q 56.984375 54.828125 56.984375 36.375 
Q 56.984375 17.96875 50.515625 8.265625 
Q 44.046875 -1.421875 31.78125 -1.421875 
Q 19.53125 -1.421875 13.0625 8.265625 
Q 6.59375 17.96875 6.59375 36.375 
Q 6.59375 54.828125 13.0625 64.515625 
Q 19.53125 74.21875 31.78125 74.21875 
z
" id="DejaVuSans-48"/>
      </defs>
      <g transform="translate(45.439063 413.677656)scale(0.1 -0.1)">
       <use xlink:href="#DejaVuSans-48"/>
      </g>
     </g>
    </g>
    <g id="xtick_2">
     <g id="line2d_2">
      <g>
       <use style="stroke:#000000;stroke-width:0.8;" x="149.972482" xlink:href="#m4ee843df49" y="399.079219"/>
      </g>
     </g>
     <g id="text_2">
      <!-- 20 -->
      <defs>
       <path d="M 19.1875 8.296875 
L 53.609375 8.296875 
L 53.609375 0 
L 7.328125 0 
L 7.328125 8.296875 
Q 12.9375 14.109375 22.625 23.890625 
Q 32.328125 33.6875 34.8125 36.53125 
Q 39.546875 41.84375 41.421875 45.53125 
Q 43.3125 49.21875 43.3125 52.78125 
Q 43.3125 58.59375 39.234375 62.25 
Q 35.15625 65.921875 28.609375 65.921875 
Q 23.96875 65.921875 18.8125 64.3125 
Q 13.671875 62.703125 7.8125 59.421875 
L 7.8125 69.390625 
Q 13.765625 71.78125 18.9375 73 
Q 24.125 74.21875 28.421875 74.21875 
Q 39.75 74.21875 46.484375 68.546875 
Q 53.21875 62.890625 53.21875 53.421875 
Q 53.21875 48.921875 51.53125 44.890625 
Q 49.859375 40.875 45.40625 35.40625 
Q 44.1875 33.984375 37.640625 27.21875 
Q 31.109375 20.453125 19.1875 8.296875 
z
" id="DejaVuSans-50"/>
      </defs>
      <g transform="translate(143.609982 413.677656)scale(0.1 -0.1)">
       <use xlink:href="#DejaVuSans-50"/>
       <use x="63.623047" xlink:href="#DejaVuSans-48"/>
      </g>
     </g>
    </g>
    <g id="xtick_3">
     <g id="line2d_3">
      <g>
       <use style="stroke:#000000;stroke-width:0.8;" x="251.324652" xlink:href="#m4ee843df49" y="399.079219"/>
      </g>
     </g>
     <g id="text_3">
      <!-- 40 -->
      <defs>
       <path d="M 37.796875 64.3125 
L 12.890625 25.390625 
L 37.796875 25.390625 
z
M 35.203125 72.90625 
L 47.609375 72.90625 
L 47.609375 25.390625 
L 58.015625 25.390625 
L 58.015625 17.1875 
L 47.609375 17.1875 
L 47.609375 0 
L 37.796875 0 
L 37.796875 17.1875 
L 4.890625 17.1875 
L 4.890625 26.703125 
z
" id="DejaVuSans-52"/>
      </defs>
      <g transform="translate(244.962152 413.677656)scale(0.1 -0.1)">
       <use xlink:href="#DejaVuSans-52"/>
       <use x="63.623047" xlink:href="#DejaVuSans-48"/>
      </g>
     </g>
    </g>
    <g id="xtick_4">
     <g id="line2d_4">
      <g>
       <use style="stroke:#000000;stroke-width:0.8;" x="352.676821" xlink:href="#m4ee843df49" y="399.079219"/>
      </g>
     </g>
     <g id="text_4">
      <!-- 60 -->
      <defs>
       <path d="M 33.015625 40.375 
Q 26.375 40.375 22.484375 35.828125 
Q 18.609375 31.296875 18.609375 23.390625 
Q 18.609375 15.53125 22.484375 10.953125 
Q 26.375 6.390625 33.015625 6.390625 
Q 39.65625 6.390625 43.53125 10.953125 
Q 47.40625 15.53125 47.40625 23.390625 
Q 47.40625 31.296875 43.53125 35.828125 
Q 39.65625 40.375 33.015625 40.375 
z
M 52.59375 71.296875 
L 52.59375 62.3125 
Q 48.875 64.0625 45.09375 64.984375 
Q 41.3125 65.921875 37.59375 65.921875 
Q 27.828125 65.921875 22.671875 59.328125 
Q 17.53125 52.734375 16.796875 39.40625 
Q 19.671875 43.65625 24.015625 45.921875 
Q 28.375 48.1875 33.59375 48.1875 
Q 44.578125 48.1875 50.953125 41.515625 
Q 57.328125 34.859375 57.328125 23.390625 
Q 57.328125 12.15625 50.6875 5.359375 
Q 44.046875 -1.421875 33.015625 -1.421875 
Q 20.359375 -1.421875 13.671875 8.265625 
Q 6.984375 17.96875 6.984375 36.375 
Q 6.984375 53.65625 15.1875 63.9375 
Q 23.390625 74.21875 37.203125 74.21875 
Q 40.921875 74.21875 44.703125 73.484375 
Q 48.484375 72.75 52.59375 71.296875 
z
" id="DejaVuSans-54"/>
      </defs>
      <g transform="translate(346.314321 413.677656)scale(0.1 -0.1)">
       <use xlink:href="#DejaVuSans-54"/>
       <use x="63.623047" xlink:href="#DejaVuSans-48"/>
      </g>
     </g>
    </g>
    <g id="xtick_5">
     <g id="line2d_5">
      <g>
       <use style="stroke:#000000;stroke-width:0.8;" x="454.028991" xlink:href="#m4ee843df49" y="399.079219"/>
      </g>
     </g>
     <g id="text_5">
      <!-- 80 -->
      <defs>
       <path d="M 31.78125 34.625 
Q 24.75 34.625 20.71875 30.859375 
Q 16.703125 27.09375 16.703125 20.515625 
Q 16.703125 13.921875 20.71875 10.15625 
Q 24.75 6.390625 31.78125 6.390625 
Q 38.8125 6.390625 42.859375 10.171875 
Q 46.921875 13.96875 46.921875 20.515625 
Q 46.921875 27.09375 42.890625 30.859375 
Q 38.875 34.625 31.78125 34.625 
z
M 21.921875 38.8125 
Q 15.578125 40.375 12.03125 44.71875 
Q 8.5 49.078125 8.5 55.328125 
Q 8.5 64.0625 14.71875 69.140625 
Q 20.953125 74.21875 31.78125 74.21875 
Q 42.671875 74.21875 48.875 69.140625 
Q 55.078125 64.0625 55.078125 55.328125 
Q 55.078125 49.078125 51.53125 44.71875 
Q 48 40.375 41.703125 38.8125 
Q 48.828125 37.15625 52.796875 32.3125 
Q 56.78125 27.484375 56.78125 20.515625 
Q 56.78125 9.90625 50.3125 4.234375 
Q 43.84375 -1.421875 31.78125 -1.421875 
Q 19.734375 -1.421875 13.25 4.234375 
Q 6.78125 9.90625 6.78125 20.515625 
Q 6.78125 27.484375 10.78125 32.3125 
Q 14.796875 37.15625 21.921875 38.8125 
z
M 18.3125 54.390625 
Q 18.3125 48.734375 21.84375 45.5625 
Q 25.390625 42.390625 31.78125 42.390625 
Q 38.140625 42.390625 41.71875 45.5625 
Q 45.3125 48.734375 45.3125 54.390625 
Q 45.3125 60.0625 41.71875 63.234375 
Q 38.140625 66.40625 31.78125 66.40625 
Q 25.390625 66.40625 21.84375 63.234375 
Q 18.3125 60.0625 18.3125 54.390625 
z
" id="DejaVuSans-56"/>
      </defs>
      <g transform="translate(447.666491 413.677656)scale(0.1 -0.1)">
       <use xlink:href="#DejaVuSans-56"/>
       <use x="63.623047" xlink:href="#DejaVuSans-48"/>
      </g>
     </g>
    </g>
    <g id="text_6">
     <!-- x(in mm) -->
     <defs>
      <path d="M 54.890625 54.6875 
L 35.109375 28.078125 
L 55.90625 0 
L 45.3125 0 
L 29.390625 21.484375 
L 13.484375 0 
L 2.875 0 
L 24.125 28.609375 
L 4.6875 54.6875 
L 15.28125 54.6875 
L 29.78125 35.203125 
L 44.28125 54.6875 
z
" id="DejaVuSans-120"/>
      <path d="M 31 75.875 
Q 24.46875 64.65625 21.28125 53.65625 
Q 18.109375 42.671875 18.109375 31.390625 
Q 18.109375 20.125 21.3125 9.0625 
Q 24.515625 -2 31 -13.1875 
L 23.1875 -13.1875 
Q 15.875 -1.703125 12.234375 9.375 
Q 8.59375 20.453125 8.59375 31.390625 
Q 8.59375 42.28125 12.203125 53.3125 
Q 15.828125 64.359375 23.1875 75.875 
z
" id="DejaVuSans-40"/>
      <path d="M 9.421875 54.6875 
L 18.40625 54.6875 
L 18.40625 0 
L 9.421875 0 
z
M 9.421875 75.984375 
L 18.40625 75.984375 
L 18.40625 64.59375 
L 9.421875 64.59375 
z
" id="DejaVuSans-105"/>
      <path d="M 54.890625 33.015625 
L 54.890625 0 
L 45.90625 0 
L 45.90625 32.71875 
Q 45.90625 40.484375 42.875 44.328125 
Q 39.84375 48.1875 33.796875 48.1875 
Q 26.515625 48.1875 22.3125 43.546875 
Q 18.109375 38.921875 18.109375 30.90625 
L 18.109375 0 
L 9.078125 0 
L 9.078125 54.6875 
L 18.109375 54.6875 
L 18.109375 46.1875 
Q 21.34375 51.125 25.703125 53.5625 
Q 30.078125 56 35.796875 56 
Q 45.21875 56 50.046875 50.171875 
Q 54.890625 44.34375 54.890625 33.015625 
z
" id="DejaVuSans-110"/>
      <path id="DejaVuSans-32"/>
      <path d="M 52 44.1875 
Q 55.375 50.25 60.0625 53.125 
Q 64.75 56 71.09375 56 
Q 79.640625 56 84.28125 50.015625 
Q 88.921875 44.046875 88.921875 33.015625 
L 88.921875 0 
L 79.890625 0 
L 79.890625 32.71875 
Q 79.890625 40.578125 77.09375 44.375 
Q 74.3125 48.1875 68.609375 48.1875 
Q 61.625 48.1875 57.5625 43.546875 
Q 53.515625 38.921875 53.515625 30.90625 
L 53.515625 0 
L 44.484375 0 
L 44.484375 32.71875 
Q 44.484375 40.625 41.703125 44.40625 
Q 38.921875 48.1875 33.109375 48.1875 
Q 26.21875 48.1875 22.15625 43.53125 
Q 18.109375 38.875 18.109375 30.90625 
L 18.109375 0 
L 9.078125 0 
L 9.078125 54.6875 
L 18.109375 54.6875 
L 18.109375 46.1875 
Q 21.1875 51.21875 25.484375 53.609375 
Q 29.78125 56 35.6875 56 
Q 41.65625 56 45.828125 52.96875 
Q 50 49.953125 52 44.1875 
z
" id="DejaVuSans-109"/>
      <path d="M 8.015625 75.875 
L 15.828125 75.875 
Q 23.140625 64.359375 26.78125 53.3125 
Q 30.421875 42.28125 30.421875 31.390625 
Q 30.421875 20.453125 26.78125 9.375 
Q 23.140625 -1.703125 15.828125 -13.1875 
L 8.015625 -13.1875 
Q 14.5 -2 17.703125 9.0625 
Q 20.90625 20.125 20.90625 31.390625 
Q 20.90625 42.671875 17.703125 53.65625 
Q 14.5 64.65625 8.015625 75.875 
z
" id="DejaVuSans-41"/>
     </defs>
     <g transform="translate(265.597656 431.155)scale(0.15 -0.15)">
      <use xlink:href="#DejaVuSans-120"/>
      <use x="59.179688" xlink:href="#DejaVuSans-40"/>
      <use x="98.193359" xlink:href="#DejaVuSans-105"/>
      <use x="125.976562" xlink:href="#DejaVuSans-110"/>
      <use x="189.355469" xlink:href="#DejaVuSans-32"/>
      <use x="221.142578" xlink:href="#DejaVuSans-109"/>
      <use x="318.554688" xlink:href="#DejaVuSans-109"/>
      <use x="415.966797" xlink:href="#DejaVuSans-41"/>
     </g>
    </g>
   </g>
   <g id="matplotlib.axis_2">
    <g id="ytick_1">
     <g id="line2d_6">
      <defs>
       <path d="M 0 0 
L -3.5 0 
" id="m6a4a749007" style="stroke:#000000;stroke-width:0.8;"/>
      </defs>
      <g>
       <use style="stroke:#000000;stroke-width:0.8;" x="48.620313" xlink:href="#m6a4a749007" y="399.079219"/>
      </g>
     </g>
     <g id="text_7">
      <!-- 0.0 -->
      <defs>
       <path d="M 10.6875 12.40625 
L 21 12.40625 
L 21 0 
L 10.6875 0 
z
" id="DejaVuSans-46"/>
      </defs>
      <g transform="translate(25.717188 402.878437)scale(0.1 -0.1)">
       <use xlink:href="#DejaVuSans-48"/>
       <use x="63.623047" xlink:href="#DejaVuSans-46"/>
       <use x="95.410156" xlink:href="#DejaVuSans-48"/>
      </g>
     </g>
    </g>
    <g id="ytick_2">
     <g id="line2d_7">
      <g>
       <use style="stroke:#000000;stroke-width:0.8;" x="48.620313" xlink:href="#m6a4a749007" y="321.463219"/>
      </g>
     </g>
     <g id="text_8">
      <!-- 0.2 -->
      <g transform="translate(25.717188 325.262437)scale(0.1 -0.1)">
       <use xlink:href="#DejaVuSans-48"/>
       <use x="63.623047" xlink:href="#DejaVuSans-46"/>
       <use x="95.410156" xlink:href="#DejaVuSans-50"/>
      </g>
     </g>
    </g>
    <g id="ytick_3">
     <g id="line2d_8">
      <g>
       <use style="stroke:#000000;stroke-width:0.8;" x="48.620313" xlink:href="#m6a4a749007" y="243.847219"/>
      </g>
     </g>
     <g id="text_9">
      <!-- 0.4 -->
      <g transform="translate(25.717188 247.646437)scale(0.1 -0.1)">
       <use xlink:href="#DejaVuSans-48"/>
       <use x="63.623047" xlink:href="#DejaVuSans-46"/>
       <use x="95.410156" xlink:href="#DejaVuSans-52"/>
      </g>
     </g>
    </g>
    <g id="ytick_4">
     <g id="line2d_9">
      <g>
       <use style="stroke:#000000;stroke-width:0.8;" x="48.620313" xlink:href="#m6a4a749007" y="166.231219"/>
      </g>
     </g>
     <g id="text_10">
      <!-- 0.6 -->
      <g transform="translate(25.717188 170.030438)scale(0.1 -0.1)">
       <use xlink:href="#DejaVuSans-48"/>
       <use x="63.623047" xlink:href="#DejaVuSans-46"/>
       <use x="95.410156" xlink:href="#DejaVuSans-54"/>
      </g>
     </g>
    </g>
    <g id="ytick_5">
     <g id="line2d_10">
      <g>
       <use style="stroke:#000000;stroke-width:0.8;" x="48.620313" xlink:href="#m6a4a749007" y="88.615219"/>
      </g>
     </g>
     <g id="text_11">
      <!-- 0.8 -->
      <g transform="translate(25.717188 92.414438)scale(0.1 -0.1)">
       <use xlink:href="#DejaVuSans-48"/>
       <use x="63.623047" xlink:href="#DejaVuSans-46"/>
       <use x="95.410156" xlink:href="#DejaVuSans-56"/>
      </g>
     </g>
    </g>
    <g id="ytick_6">
     <g id="line2d_11">
      <g>
       <use style="stroke:#000000;stroke-width:0.8;" x="48.620313" xlink:href="#m6a4a749007" y="10.999219"/>
      </g>
     </g>
     <g id="text_12">
      <!-- 1.0 -->
      <defs>
       <path d="M 12.40625 8.296875 
L 28.515625 8.296875 
L 28.515625 63.921875 
L 10.984375 60.40625 
L 10.984375 69.390625 
L 28.421875 72.90625 
L 38.28125 72.90625 
L 38.28125 8.296875 
L 54.390625 8.296875 
L 54.390625 0 
L 12.40625 0 
z
" id="DejaVuSans-49"/>
      </defs>
      <g transform="translate(25.717188 14.798438)scale(0.1 -0.1)">
       <use xlink:href="#DejaVuSans-49"/>
       <use x="63.623047" xlink:href="#DejaVuSans-46"/>
       <use x="95.410156" xlink:href="#DejaVuSans-48"/>
      </g>
     </g>
    </g>
    <g id="text_13">
     <!-- concentration -->
     <defs>
      <path d="M 48.78125 52.59375 
L 48.78125 44.1875 
Q 44.96875 46.296875 41.140625 47.34375 
Q 37.3125 48.390625 33.40625 48.390625 
Q 24.65625 48.390625 19.8125 42.84375 
Q 14.984375 37.3125 14.984375 27.296875 
Q 14.984375 17.28125 19.8125 11.734375 
Q 24.65625 6.203125 33.40625 6.203125 
Q 37.3125 6.203125 41.140625 7.25 
Q 44.96875 8.296875 48.78125 10.40625 
L 48.78125 2.09375 
Q 45.015625 0.34375 40.984375 -0.53125 
Q 36.96875 -1.421875 32.421875 -1.421875 
Q 20.0625 -1.421875 12.78125 6.34375 
Q 5.515625 14.109375 5.515625 27.296875 
Q 5.515625 40.671875 12.859375 48.328125 
Q 20.21875 56 33.015625 56 
Q 37.15625 56 41.109375 55.140625 
Q 45.0625 54.296875 48.78125 52.59375 
z
" id="DejaVuSans-99"/>
      <path d="M 30.609375 48.390625 
Q 23.390625 48.390625 19.1875 42.75 
Q 14.984375 37.109375 14.984375 27.296875 
Q 14.984375 17.484375 19.15625 11.84375 
Q 23.34375 6.203125 30.609375 6.203125 
Q 37.796875 6.203125 41.984375 11.859375 
Q 46.1875 17.53125 46.1875 27.296875 
Q 46.1875 37.015625 41.984375 42.703125 
Q 37.796875 48.390625 30.609375 48.390625 
z
M 30.609375 56 
Q 42.328125 56 49.015625 48.375 
Q 55.71875 40.765625 55.71875 27.296875 
Q 55.71875 13.875 49.015625 6.21875 
Q 42.328125 -1.421875 30.609375 -1.421875 
Q 18.84375 -1.421875 12.171875 6.21875 
Q 5.515625 13.875 5.515625 27.296875 
Q 5.515625 40.765625 12.171875 48.375 
Q 18.84375 56 30.609375 56 
z
" id="DejaVuSans-111"/>
      <path d="M 56.203125 29.59375 
L 56.203125 25.203125 
L 14.890625 25.203125 
Q 15.484375 15.921875 20.484375 11.0625 
Q 25.484375 6.203125 34.421875 6.203125 
Q 39.59375 6.203125 44.453125 7.46875 
Q 49.3125 8.734375 54.109375 11.28125 
L 54.109375 2.78125 
Q 49.265625 0.734375 44.1875 -0.34375 
Q 39.109375 -1.421875 33.890625 -1.421875 
Q 20.796875 -1.421875 13.15625 6.1875 
Q 5.515625 13.8125 5.515625 26.8125 
Q 5.515625 40.234375 12.765625 48.109375 
Q 20.015625 56 32.328125 56 
Q 43.359375 56 49.78125 48.890625 
Q 56.203125 41.796875 56.203125 29.59375 
z
M 47.21875 32.234375 
Q 47.125 39.59375 43.09375 43.984375 
Q 39.0625 48.390625 32.421875 48.390625 
Q 24.90625 48.390625 20.390625 44.140625 
Q 15.875 39.890625 15.1875 32.171875 
z
" id="DejaVuSans-101"/>
      <path d="M 18.3125 70.21875 
L 18.3125 54.6875 
L 36.8125 54.6875 
L 36.8125 47.703125 
L 18.3125 47.703125 
L 18.3125 18.015625 
Q 18.3125 11.328125 20.140625 9.421875 
Q 21.96875 7.515625 27.59375 7.515625 
L 36.8125 7.515625 
L 36.8125 0 
L 27.59375 0 
Q 17.1875 0 13.234375 3.875 
Q 9.28125 7.765625 9.28125 18.015625 
L 9.28125 47.703125 
L 2.6875 47.703125 
L 2.6875 54.6875 
L 9.28125 54.6875 
L 9.28125 70.21875 
z
" id="DejaVuSans-116"/>
      <path d="M 41.109375 46.296875 
Q 39.59375 47.171875 37.8125 47.578125 
Q 36.03125 48 33.890625 48 
Q 26.265625 48 22.1875 43.046875 
Q 18.109375 38.09375 18.109375 28.8125 
L 18.109375 0 
L 9.078125 0 
L 9.078125 54.6875 
L 18.109375 54.6875 
L 18.109375 46.1875 
Q 20.953125 51.171875 25.484375 53.578125 
Q 30.03125 56 36.53125 56 
Q 37.453125 56 38.578125 55.875 
Q 39.703125 55.765625 41.0625 55.515625 
z
" id="DejaVuSans-114"/>
      <path d="M 34.28125 27.484375 
Q 23.390625 27.484375 19.1875 25 
Q 14.984375 22.515625 14.984375 16.5 
Q 14.984375 11.71875 18.140625 8.90625 
Q 21.296875 6.109375 26.703125 6.109375 
Q 34.1875 6.109375 38.703125 11.40625 
Q 43.21875 16.703125 43.21875 25.484375 
L 43.21875 27.484375 
z
M 52.203125 31.203125 
L 52.203125 0 
L 43.21875 0 
L 43.21875 8.296875 
Q 40.140625 3.328125 35.546875 0.953125 
Q 30.953125 -1.421875 24.3125 -1.421875 
Q 15.921875 -1.421875 10.953125 3.296875 
Q 6 8.015625 6 15.921875 
Q 6 25.140625 12.171875 29.828125 
Q 18.359375 34.515625 30.609375 34.515625 
L 43.21875 34.515625 
L 43.21875 35.40625 
Q 43.21875 41.609375 39.140625 45 
Q 35.0625 48.390625 27.6875 48.390625 
Q 23 48.390625 18.546875 47.265625 
Q 14.109375 46.140625 10.015625 43.890625 
L 10.015625 52.203125 
Q 14.9375 54.109375 19.578125 55.046875 
Q 24.21875 56 28.609375 56 
Q 40.484375 56 46.34375 49.84375 
Q 52.203125 43.703125 52.203125 31.203125 
z
" id="DejaVuSans-97"/>
     </defs>
     <g transform="translate(18.597656 256.982578)rotate(-90)scale(0.15 -0.15)">
      <use xlink:href="#DejaVuSans-99"/>
      <use x="54.980469" xlink:href="#DejaVuSans-111"/>
      <use x="116.162109" xlink:href="#DejaVuSans-110"/>
      <use x="179.541016" xlink:href="#DejaVuSans-99"/>
      <use x="234.521484" xlink:href="#DejaVuSans-101"/>
      <use x="296.044922" xlink:href="#DejaVuSans-110"/>
      <use x="359.423828" xlink:href="#DejaVuSans-116"/>
      <use x="398.632812" xlink:href="#DejaVuSans-114"/>
      <use x="439.746094" xlink:href="#DejaVuSans-97"/>
      <use x="501.025391" xlink:href="#DejaVuSans-116"/>
      <use x="540.234375" xlink:href="#DejaVuSans-105"/>
      <use x="568.017578" xlink:href="#DejaVuSans-111"/>
      <use x="629.199219" xlink:href="#DejaVuSans-110"/>
     </g>
    </g>
   </g>
   <g id="line2d_12">
    <path clip-path="url(#p5f1cdf15d2)" d="M 48.620313 399.079219 
L 53.687921 399.079219 
L 58.755529 399.079219 
L 63.823138 399.079219 
L 68.890746 399.079219 
L 73.958355 399.079219 
L 79.025963 399.079219 
L 84.093572 399.079219 
L 89.16118 399.079219 
L 94.228789 399.079219 
L 99.296397 399.079219 
L 104.364006 399.079219 
L 109.431614 399.079219 
L 114.499223 399.079219 
L 119.566831 399.079219 
L 124.63444 399.079219 
L 129.702048 399.079219 
L 134.769657 399.079219 
L 139.837265 399.079219 
L 144.904874 399.079219 
L 149.972482 399.079219 
L 155.040091 399.079219 
L 160.107699 399.079219 
L 165.175307 399.079219 
L 170.242916 399.079219 
L 175.310524 399.079219 
L 180.378133 399.079219 
L 185.445741 399.079219 
L 190.51335 399.079219 
L 195.580958 399.079219 
L 200.648567 127.423219 
L 205.716175 127.423219 
L 210.783784 127.423219 
L 215.851392 127.423219 
L 220.919001 127.423219 
L 225.986609 399.079219 
L 231.054218 399.079219 
L 236.121826 399.079219 
L 241.189435 399.079219 
L 246.257043 399.079219 
L 251.324652 399.079219 
L 256.39226 399.079219 
L 261.459869 399.079219 
L 266.527477 399.079219 
L 271.595085 399.079219 
L 276.662694 399.079219 
L 281.730302 399.079219 
L 286.797911 399.079219 
L 291.865519 399.079219 
L 296.933128 399.079219 
L 302.000736 399.079219 
L 307.068345 399.079219 
L 312.135953 399.079219 
L 317.203562 399.079219 
L 322.27117 399.079219 
L 327.338779 399.079219 
L 332.406387 399.079219 
L 337.473996 399.079219 
L 342.541604 399.079219 
L 347.609213 399.079219 
L 352.676821 399.079219 
L 357.74443 399.079219 
L 362.812038 399.079219 
L 367.879647 399.079219 
L 372.947255 399.079219 
L 378.014863 399.079219 
L 383.082472 399.079219 
L 388.15008 399.079219 
L 393.217689 399.079219 
L 398.285297 399.079219 
L 403.352906 399.079219 
L 408.420514 399.079219 
L 413.488123 399.079219 
L 418.555731 399.079219 
L 423.62334 399.079219 
L 428.690948 399.079219 
L 433.758557 399.079219 
L 438.826165 399.079219 
L 443.893774 399.079219 
L 448.961382 399.079219 
L 454.028991 399.079219 
L 459.096599 399.079219 
L 464.164208 399.079219 
L 469.231816 399.079219 
L 474.299425 399.079219 
L 479.367033 399.079219 
L 484.434641 399.079219 
L 489.50225 399.079219 
L 494.569858 399.079219 
L 499.637467 399.079219 
L 504.705075 399.079219 
L 509.772684 399.079219 
L 514.840292 399.079219 
L 519.907901 399.079219 
L 524.975509 399.079219 
L 530.043118 399.079219 
L 535.110726 399.079219 
L 540.178335 399.079219 
L 545.245943 399.079219 
L 550.313552 399.079219 
" style="fill:none;stroke:#000080;stroke-linecap:square;stroke-width:1.5;"/>
   </g>
   <g id="line2d_13">
    <path clip-path="url(#p5f1cdf15d2)" d="M 48.620313 399.079219 
L 53.687921 399.079219 
L 58.755529 399.079219 
L 63.823138 399.079219 
L 68.890746 399.079219 
L 73.958355 399.079217 
L 79.025963 399.067645 
L 84.093572 398.413842 
L 89.16118 395.661778 
L 94.228789 392.583677 
L 99.296397 389.641861 
L 104.364006 386.828793 
L 109.431614 384.141276 
L 114.499223 381.578019 
L 119.566831 379.138185 
L 124.63444 376.821013 
L 129.702048 374.625725 
L 134.769657 372.551499 
L 139.837265 370.597463 
L 144.904874 368.76268 
L 149.972482 367.046133 
L 155.040091 365.446714 
L 160.107699 363.96319 
L 165.175307 362.594182 
L 170.242916 361.338119 
L 175.310524 360.193198 
L 180.378133 359.157332 
L 185.445741 358.228116 
L 190.51335 357.402802 
L 195.580958 356.678333 
L 200.648567 356.051455 
L 205.716175 355.518958 
L 210.783784 355.078101 
L 215.851392 354.727273 
L 220.919001 354.46695 
L 225.986609 354.300971 
L 231.054218 354.238158 
L 236.121826 354.29426 
L 241.189435 354.49419 
L 246.257043 354.874482 
L 251.324652 355.485917 
L 256.39226 356.396222 
L 261.459869 357.692746 
L 266.527477 359.484993 
L 271.595085 361.906835 
L 276.662694 365.118269 
L 281.730302 369.306798 
L 286.797911 374.690091 
L 291.865519 381.530974 
L 296.933128 390.259628 
L 302.000736 397.914894 
L 307.068345 399.070322 
L 312.135953 399.079218 
L 317.203562 399.079219 
L 322.27117 399.079219 
L 327.338779 399.079219 
L 332.406387 399.079219 
L 337.473996 399.079219 
L 342.541604 399.079219 
L 347.609213 399.079219 
L 352.676821 399.079219 
L 357.74443 399.079219 
L 362.812038 399.079219 
L 367.879647 399.079219 
L 372.947255 399.079219 
L 378.014863 399.079219 
L 383.082472 399.079219 
L 388.15008 399.079219 
L 393.217689 399.079219 
L 398.285297 399.079219 
L 403.352906 399.079219 
L 408.420514 399.079219 
L 413.488123 399.079219 
L 418.555731 399.079219 
L 423.62334 399.079219 
L 428.690948 399.079219 
L 433.758557 399.079219 
L 438.826165 399.079219 
L 443.893774 399.079219 
L 448.961382 399.079219 
L 454.028991 399.079219 
L 459.096599 399.079219 
L 464.164208 399.079219 
L 469.231816 399.079219 
L 474.299425 399.079219 
L 479.367033 399.079219 
L 484.434641 399.079219 
L 489.50225 399.079219 
L 494.569858 399.079219 
L 499.637467 399.079219 
L 504.705075 399.079219 
L 509.772684 399.079219 
L 514.840292 399.079219 
L 519.907901 399.079219 
L 524.975509 399.079219 
L 530.043118 399.079219 
L 535.110726 399.079219 
L 540.178335 399.079219 
L 545.245943 399.079219 
L 550.313552 399.079219 
" style="fill:none;stroke:#0000f1;stroke-linecap:square;stroke-width:1.5;"/>
   </g>
   <g id="line2d_14">
    <path clip-path="url(#p5f1cdf15d2)" d="M 48.620313 398.950645 
L 53.687921 397.684861 
L 58.755529 395.643769 
L 63.823138 393.684127 
L 68.890746 391.785467 
L 73.958355 389.94781 
L 79.025963 388.17127 
L 84.093572 386.455739 
L 89.16118 384.801048 
L 94.228789 383.207016 
L 99.296397 381.673457 
L 104.364006 380.200162 
L 109.431614 378.786893 
L 114.499223 377.433357 
L 119.566831 376.139191 
L 124.63444 374.903941 
L 129.702048 373.727033 
L 134.769657 372.607748 
L 139.837265 371.545194 
L 144.904874 370.538278 
L 149.972482 369.585678 
L 155.040091 368.685832 
L 160.107699 367.83693 
L 165.175307 367.036926 
L 170.242916 366.283579 
L 175.310524 365.574518 
L 180.378133 364.907347 
L 185.445741 364.279799 
L 190.51335 363.689935 
L 195.580958 363.136386 
L 200.648567 362.618666 
L 205.716175 362.13752 
L 210.783784 361.695327 
L 215.851392 361.29655 
L 220.919001 360.948221 
L 225.986609 360.660457 
L 231.054218 360.447007 
L 236.121826 360.325814 
L 241.189435 360.319588 
L 246.257043 360.456371 
L 251.324652 360.770082 
L 256.39226 361.30102 
L 261.459869 362.096296 
L 266.527477 363.210165 
L 271.595085 364.704245 
L 276.662694 366.64763 
L 281.730302 369.11697 
L 286.797911 372.196843 
L 291.865519 375.981494 
L 296.933128 380.582276 
L 302.000736 386.163278 
L 307.068345 392.482575 
L 312.135953 397.875902 
L 317.203562 399.059584 
L 322.27117 399.079216 
L 327.338779 399.079219 
L 332.406387 399.079219 
L 337.473996 399.079219 
L 342.541604 399.079219 
L 347.609213 399.079219 
L 352.676821 399.079219 
L 357.74443 399.079219 
L 362.812038 399.079219 
L 367.879647 399.079219 
L 372.947255 399.079219 
L 378.014863 399.079219 
L 383.082472 399.079219 
L 388.15008 399.079219 
L 393.217689 399.079219 
L 398.285297 399.079219 
L 403.352906 399.079219 
L 408.420514 399.079219 
L 413.488123 399.079219 
L 418.555731 399.079219 
L 423.62334 399.079219 
L 428.690948 399.079219 
L 433.758557 399.079219 
L 438.826165 399.079219 
L 443.893774 399.079219 
L 448.961382 399.079219 
L 454.028991 399.079219 
L 459.096599 399.079219 
L 464.164208 399.079219 
L 469.231816 399.079219 
L 474.299425 399.079219 
L 479.367033 399.079219 
L 484.434641 399.079219 
L 489.50225 399.079219 
L 494.569858 399.079219 
L 499.637467 399.079219 
L 504.705075 399.079219 
L 509.772684 399.079219 
L 514.840292 399.079219 
L 519.907901 399.079219 
L 524.975509 399.079219 
L 530.043118 399.079219 
L 535.110726 399.079219 
L 540.178335 399.079219 
L 545.245943 399.079219 
L 550.313552 399.079219 
" style="fill:none;stroke:#004cff;stroke-linecap:square;stroke-width:1.5;"/>
   </g>
   <g id="line2d_15">
    <path clip-path="url(#p5f1cdf15d2)" d="M 48.620313 388.66126 
L 53.687921 388.359195 
L 58.755529 387.795253 
L 63.823138 387.031599 
L 68.890746 386.131606 
L 73.958355 385.148016 
L 79.025963 384.12009 
L 84.093572 383.075317 
L 89.16118 382.032309 
L 94.228789 381.00342 
L 99.296397 379.996726 
L 104.364006 379.01739 
L 109.431614 378.068591 
L 114.499223 377.152129 
L 119.566831 376.268823 
L 124.63444 375.418778 
L 129.702048 374.601562 
L 134.769657 373.816324 
L 139.837265 373.061894 
L 144.904874 372.336849 
L 149.972482 371.639585 
L 155.040091 370.968387 
L 160.107699 370.321505 
L 165.175307 369.697237 
L 170.242916 369.094031 
L 175.310524 368.510595 
L 180.378133 367.946028 
L 185.445741 367.399954 
L 190.51335 366.872686 
L 195.580958 366.365389 
L 200.648567 365.880266 
L 205.716175 365.420748 
L 210.783784 364.9917 
L 215.851392 364.599634 
L 220.919001 364.252931 
L 225.986609 363.962067 
L 231.054218 363.739841 
L 236.121826 363.601609 
L 241.189435 363.565497 
L 246.257043 363.652621 
L 251.324652 363.88727 
L 256.39226 364.297074 
L 261.459869 364.913141 
L 266.527477 365.770167 
L 271.595085 366.906538 
L 276.662694 368.364471 
L 281.730302 370.190288 
L 286.797911 372.435088 
L 291.865519 375.156412 
L 296.933128 378.422566 
L 302.000736 382.325014 
L 307.068345 386.703656 
L 312.135953 391.283932 
L 317.203562 396.030685 
L 322.27117 398.812283 
L 327.338779 399.078223 
L 332.406387 399.079219 
L 337.473996 399.079219 
L 342.541604 399.079219 
L 347.609213 399.079219 
L 352.676821 399.079219 
L 357.74443 399.079219 
L 362.812038 399.079219 
L 367.879647 399.079219 
L 372.947255 399.079219 
L 378.014863 399.079219 
L 383.082472 399.079219 
L 388.15008 399.079219 
L 393.217689 399.079219 
L 398.285297 399.079219 
L 403.352906 399.079219 
L 408.420514 399.079219 
L 413.488123 399.079219 
L 418.555731 399.079219 
L 423.62334 399.079219 
L 428.690948 399.079219 
L 433.758557 399.079219 
L 438.826165 399.079219 
L 443.893774 399.079219 
L 448.961382 399.079219 
L 454.028991 399.079219 
L 459.096599 399.079219 
L 464.164208 399.079219 
L 469.231816 399.079219 
L 474.299425 399.079219 
L 479.367033 399.079219 
L 484.434641 399.079219 
L 489.50225 399.079219 
L 494.569858 399.079219 
L 499.637467 399.079219 
L 504.705075 399.079219 
L 509.772684 399.079219 
L 514.840292 399.079219 
L 519.907901 399.079219 
L 524.975509 399.079219 
L 530.043118 399.079219 
L 535.110726 399.079219 
L 540.178335 399.079219 
L 545.245943 399.079219 
L 550.313552 399.079219 
" style="fill:none;stroke:#00b0ff;stroke-linecap:square;stroke-width:1.5;"/>
   </g>
   <g id="line2d_16">
    <path clip-path="url(#p5f1cdf15d2)" d="M 48.620313 382.895107 
L 53.687921 382.800238 
L 58.755529 382.614052 
L 63.823138 382.34321 
L 68.890746 381.996705 
L 73.958355 381.584939 
L 79.025963 381.118832 
L 84.093572 380.609086 
L 89.16118 380.065656 
L 94.228789 379.497431 
L 99.296397 378.912079 
L 104.364006 378.316025 
L 109.431614 377.714501 
L 114.499223 377.111649 
L 119.566831 376.510648 
L 124.63444 375.913841 
L 129.702048 375.322872 
L 134.769657 374.738807 
L 139.837265 374.16226 
L 144.904874 373.593504 
L 149.972482 373.032586 
L 155.040091 372.479427 
L 160.107699 371.933934 
L 165.175307 371.3961 
L 170.242916 370.866107 
L 175.310524 370.344433 
L 180.378133 369.831958 
L 185.445741 369.330069 
L 190.51335 368.840773 
L 195.580958 368.366808 
L 200.648567 367.911757 
L 205.716175 367.48017 
L 210.783784 367.077681 
L 215.851392 366.711131 
L 220.919001 366.388693 
L 225.986609 366.119997 
L 231.054218 365.916249 
L 236.121826 365.790348 
L 241.189435 365.757 
L 246.257043 365.832816 
L 251.324652 366.036404 
L 256.39226 366.388448 
L 261.459869 366.911782 
L 266.527477 367.631454 
L 271.595085 368.574819 
L 276.662694 369.77168 
L 281.730302 371.254554 
L 286.797911 373.059214 
L 291.865519 375.225813 
L 296.933128 377.801374 
L 302.000736 380.845671 
L 307.068345 384.246272 
L 312.135953 387.82007 
L 317.203562 391.533964 
L 322.27117 395.367866 
L 327.338779 398.465523 
L 332.406387 399.071082 
L 337.473996 399.079218 
L 342.541604 399.079219 
L 347.609213 399.079219 
L 352.676821 399.079219 
L 357.74443 399.079219 
L 362.812038 399.079219 
L 367.879647 399.079219 
L 372.947255 399.079219 
L 378.014863 399.079219 
L 383.082472 399.079219 
L 388.15008 399.079219 
L 393.217689 399.079219 
L 398.285297 399.079219 
L 403.352906 399.079219 
L 408.420514 399.079219 
L 413.488123 399.079219 
L 418.555731 399.079219 
L 423.62334 399.079219 
L 428.690948 399.079219 
L 433.758557 399.079219 
L 438.826165 399.079219 
L 443.893774 399.079219 
L 448.961382 399.079219 
L 454.028991 399.079219 
L 459.096599 399.079219 
L 464.164208 399.079219 
L 469.231816 399.079219 
L 474.299425 399.079219 
L 479.367033 399.079219 
L 484.434641 399.079219 
L 489.50225 399.079219 
L 494.569858 399.079219 
L 499.637467 399.079219 
L 504.705075 399.079219 
L 509.772684 399.079219 
L 514.840292 399.079219 
L 519.907901 399.079219 
L 524.975509 399.079219 
L 530.043118 399.079219 
L 535.110726 399.079219 
L 540.178335 399.079219 
L 545.245943 399.079219 
L 550.313552 399.079219 
" style="fill:none;stroke:#29ffce;stroke-linecap:square;stroke-width:1.5;"/>
   </g>
   <g id="line2d_17">
    <path clip-path="url(#p5f1cdf15d2)" d="M 48.620313 380.001646 
L 53.687921 379.957984 
L 58.755529 379.871404 
L 63.823138 379.743344 
L 68.890746 379.575851 
L 73.958355 379.371463 
L 79.025963 379.13307 
L 84.093572 378.863776 
L 89.16118 378.56676 
L 94.228789 378.245161 
L 99.296397 377.901979 
L 104.364006 377.540002 
L 109.431614 377.161759 
L 114.499223 376.76949 
L 119.566831 376.365144 
L 124.63444 375.950392 
L 129.702048 375.52665 
L 134.769657 375.095123 
L 139.837265 374.656845 
L 144.904874 374.212744 
L 149.972482 373.763694 
L 155.040091 373.310586 
L 160.107699 372.854391 
L 165.175307 372.396238 
L 170.242916 371.937477 
L 175.310524 371.479759 
L 180.378133 371.02511 
L 185.445741 370.576002 
L 190.51335 370.135433 
L 195.580958 369.707001 
L 200.648567 369.294984 
L 205.716175 368.90441 
L 210.783784 368.541143 
L 215.851392 368.21195 
L 220.919001 367.924582 
L 225.986609 367.687846 
L 231.054218 367.511673 
L 236.121826 367.40719 
L 241.189435 367.386772 
L 246.257043 367.464109 
L 251.324652 367.654249 
L 256.39226 367.973649 
L 261.459869 368.440223 
L 266.527477 369.073392 
L 271.595085 369.894165 
L 276.662694 370.925259 
L 281.730302 372.191317 
L 286.797911 373.719305 
L 291.865519 375.53928 
L 296.933128 377.685907 
L 302.000736 380.201685 
L 307.068345 383.000924 
L 312.135953 385.948314 
L 317.203562 389.019567 
L 322.27117 392.191503 
L 327.338779 395.441053 
L 332.406387 398.320885 
L 337.473996 399.063082 
L 342.541604 399.079215 
L 347.609213 399.079219 
L 352.676821 399.079219 
L 357.74443 399.079219 
L 362.812038 399.079219 
L 367.879647 399.079219 
L 372.947255 399.079219 
L 378.014863 399.079219 
L 383.082472 399.079219 
L 388.15008 399.079219 
L 393.217689 399.079219 
L 398.285297 399.079219 
L 403.352906 399.079219 
L 408.420514 399.079219 
L 413.488123 399.079219 
L 418.555731 399.079219 
L 423.62334 399.079219 
L 428.690948 399.079219 
L 433.758557 399.079219 
L 438.826165 399.079219 
L 443.893774 399.079219 
L 448.961382 399.079219 
L 454.028991 399.079219 
L 459.096599 399.079219 
L 464.164208 399.079219 
L 469.231816 399.079219 
L 474.299425 399.079219 
L 479.367033 399.079219 
L 484.434641 399.079219 
L 489.50225 399.079219 
L 494.569858 399.079219 
L 499.637467 399.079219 
L 504.705075 399.079219 
L 509.772684 399.079219 
L 514.840292 399.079219 
L 519.907901 399.079219 
L 524.975509 399.079219 
L 530.043118 399.079219 
L 535.110726 399.079219 
L 540.178335 399.079219 
L 545.245943 399.079219 
L 550.313552 399.079219 
" style="fill:none;stroke:#7dff7a;stroke-linecap:square;stroke-width:1.5;"/>
   </g>
   <g id="line2d_18">
    <path clip-path="url(#p5f1cdf15d2)" d="M 48.620313 378.399544 
L 53.687921 378.375047 
L 58.755529 378.326234 
L 63.823138 378.25346 
L 68.890746 378.157236 
L 73.958355 378.03821 
L 79.025963 377.897138 
L 84.093572 377.73486 
L 89.16118 377.552264 
L 94.228789 377.350264 
L 99.296397 377.129776 
L 104.364006 376.891692 
L 109.431614 376.636876 
L 114.499223 376.36615 
L 119.566831 376.080295 
L 124.63444 375.780064 
L 129.702048 375.466188 
L 134.769657 375.139405 
L 139.837265 374.800477 
L 144.904874 374.450232 
L 149.972482 374.089592 
L 155.040091 373.719618 
L 160.107699 373.341553 
L 165.175307 372.956864 
L 170.242916 372.567297 
L 175.310524 372.174919 
L 180.378133 371.782174 
L 185.445741 371.391928 
L 190.51335 371.007527 
L 195.580958 370.632841 
L 200.648567 370.272319 
L 205.716175 369.931037 
L 210.783784 369.614747 
L 215.851392 369.329921 
L 220.919001 369.083803 
L 225.986609 368.884446 
L 231.054218 368.740756 
L 236.121826 368.662526 
L 241.189435 368.660476 
L 246.257043 368.746278 
L 251.324652 368.932592 
L 256.39226 369.233091 
L 261.459869 369.662494 
L 266.527477 370.236613 
L 271.595085 370.972406 
L 276.662694 371.888087 
L 281.730302 373.003287 
L 286.797911 374.339356 
L 291.865519 375.919893 
L 296.933128 377.771741 
L 302.000736 379.926944 
L 307.068345 382.316972 
L 312.135953 384.83619 
L 317.203562 387.466205 
L 322.27117 390.188828 
L 327.338779 392.986854 
L 332.406387 395.842415 
L 337.473996 398.389988 
L 342.541604 399.063921 
L 347.609213 399.079215 
L 352.676821 399.079219 
L 357.74443 399.079219 
L 362.812038 399.079219 
L 367.879647 399.079219 
L 372.947255 399.079219 
L 378.014863 399.079219 
L 383.082472 399.079219 
L 388.15008 399.079219 
L 393.217689 399.079219 
L 398.285297 399.079219 
L 403.352906 399.079219 
L 408.420514 399.079219 
L 413.488123 399.079219 
L 418.555731 399.079219 
L 423.62334 399.079219 
L 428.690948 399.079219 
L 433.758557 399.079219 
L 438.826165 399.079219 
L 443.893774 399.079219 
L 448.961382 399.079219 
L 454.028991 399.079219 
L 459.096599 399.079219 
L 464.164208 399.079219 
L 469.231816 399.079219 
L 474.299425 399.079219 
L 479.367033 399.079219 
L 484.434641 399.079219 
L 489.50225 399.079219 
L 494.569858 399.079219 
L 499.637467 399.079219 
L 504.705075 399.079219 
L 509.772684 399.079219 
L 514.840292 399.079219 
L 519.907901 399.079219 
L 524.975509 399.079219 
L 530.043118 399.079219 
L 535.110726 399.079219 
L 540.178335 399.079219 
L 545.245943 399.079219 
L 550.313552 399.079219 
" style="fill:none;stroke:#ceff29;stroke-linecap:square;stroke-width:1.5;"/>
   </g>
   <g id="line2d_19">
    <path clip-path="url(#p5f1cdf15d2)" d="M 48.620313 377.425786 
L 53.687921 377.409937 
L 58.755529 377.378262 
L 63.823138 377.330805 
L 68.890746 377.267631 
L 73.958355 377.188817 
L 79.025963 377.094458 
L 84.093572 376.984654 
L 89.16118 376.859513 
L 94.228789 376.719147 
L 99.296397 376.563671 
L 104.364006 376.39321 
L 109.431614 376.207896 
L 114.499223 376.007882 
L 119.566831 375.793352 
L 124.63444 375.564531 
L 129.702048 375.321709 
L 134.769657 375.065257 
L 139.837265 374.795654 
L 144.904874 374.513512 
L 149.972482 374.219608 
L 155.040091 373.914915 
L 160.107699 373.600634 
L 165.175307 373.278232 
L 170.242916 372.949473 
L 175.310524 372.61646 
L 180.378133 372.281667 
L 185.445741 371.94798 
L 190.51335 371.618726 
L 195.580958 371.297713 
L 200.648567 370.989262 
L 205.716175 370.698239 
L 210.783784 370.430086 
L 215.851392 370.19085 
L 220.919001 369.987209 
L 225.986609 369.826499 
L 231.054218 369.716733 
L 236.121826 369.666624 
L 241.189435 369.685602 
L 246.257043 369.783833 
L 251.324652 369.972233 
L 256.39226 370.262488 
L 261.459869 370.667075 
L 266.527477 371.199295 
L 271.595085 371.873321 
L 276.662694 372.704279 
L 281.730302 373.708377 
L 286.797911 374.903128 
L 291.865519 376.307737 
L 296.933128 377.943785 
L 302.000736 379.836507 
L 307.068345 381.929266 
L 312.135953 384.136437 
L 317.203562 386.443594 
L 322.27117 388.836254 
L 327.338779 391.300157 
L 332.406387 393.822307 
L 337.473996 396.393479 
L 342.541604 398.576672 
L 347.609213 399.070707 
L 352.676821 399.079218 
L 357.74443 399.079219 
L 362.812038 399.079219 
L 367.879647 399.079219 
L 372.947255 399.079219 
L 378.014863 399.079219 
L 383.082472 399.079219 
L 388.15008 399.079219 
L 393.217689 399.079219 
L 398.285297 399.079219 
L 403.352906 399.079219 
L 408.420514 399.079219 
L 413.488123 399.079219 
L 418.555731 399.079219 
L 423.62334 399.079219 
L 428.690948 399.079219 
L 433.758557 399.079219 
L 438.826165 399.079219 
L 443.893774 399.079219 
L 448.961382 399.079219 
L 454.028991 399.079219 
L 459.096599 399.079219 
L 464.164208 399.079219 
L 469.231816 399.079219 
L 474.299425 399.079219 
L 479.367033 399.079219 
L 484.434641 399.079219 
L 489.50225 399.079219 
L 494.569858 399.079219 
L 499.637467 399.079219 
L 504.705075 399.079219 
L 509.772684 399.079219 
L 514.840292 399.079219 
L 519.907901 399.079219 
L 524.975509 399.079219 
L 530.043118 399.079219 
L 535.110726 399.079219 
L 540.178335 399.079219 
L 545.245943 399.079219 
L 550.313552 399.079219 
" style="fill:none;stroke:#ffc400;stroke-linecap:square;stroke-width:1.5;"/>
   </g>
   <g id="line2d_20">
    <path clip-path="url(#p5f1cdf15d2)" d="M 48.620313 376.78358 
L 53.687921 376.772183 
L 58.755529 376.74936 
L 63.823138 376.715059 
L 68.890746 376.669198 
L 73.958355 376.611674 
L 79.025963 376.542359 
L 84.093572 376.461107 
L 89.16118 376.367756 
L 94.228789 376.262135 
L 99.296397 376.144069 
L 104.364006 376.013392 
L 109.431614 375.869953 
L 114.499223 375.713633 
L 119.566831 375.544356 
L 124.63444 375.362112 
L 129.702048 375.166973 
L 134.769657 374.959117 
L 139.837265 374.738849 
L 144.904874 374.506632 
L 149.972482 374.263111 
L 155.040091 374.009141 
L 160.107699 373.745819 
L 165.175307 373.474512 
L 170.242916 373.196886 
L 175.310524 372.91494 
L 180.378133 372.631029 
L 185.445741 372.347899 
L 190.51335 372.068705 
L 195.580958 371.797044 
L 200.648567 371.536976 
L 205.716175 371.293044 
L 210.783784 371.070294 
L 215.851392 370.874298 
L 220.919001 370.711161 
L 225.986609 370.587541 
L 231.054218 370.510659 
L 236.121826 370.488309 
L 241.189435 370.528867 
L 246.257043 370.641297 
L 251.324652 370.835164 
L 256.39226 371.12064 
L 261.459869 371.508523 
L 266.527477 372.010257 
L 271.595085 372.637975 
L 276.662694 373.404556 
L 281.730302 374.32373 
L 286.797911 375.410251 
L 291.865519 376.680177 
L 296.933128 378.151367 
L 302.000736 379.844364 
L 307.068345 381.711205 
L 312.135953 383.680538 
L 317.203562 385.740764 
L 322.27117 387.880173 
L 327.338779 390.086993 
L 332.406387 392.349492 
L 337.473996 394.657106 
L 342.541604 397.012256 
L 347.609213 398.785404 
L 352.676821 399.076381 
L 357.74443 399.079219 
L 362.812038 399.079219 
L 367.879647 399.079219 
L 372.947255 399.079219 
L 378.014863 399.079219 
L 383.082472 399.079219 
L 388.15008 399.079219 
L 393.217689 399.079219 
L 398.285297 399.079219 
L 403.352906 399.079219 
L 408.420514 399.079219 
L 413.488123 399.079219 
L 418.555731 399.079219 
L 423.62334 399.079219 
L 428.690948 399.079219 
L 433.758557 399.079219 
L 438.826165 399.079219 
L 443.893774 399.079219 
L 448.961382 399.079219 
L 454.028991 399.079219 
L 459.096599 399.079219 
L 464.164208 399.079219 
L 469.231816 399.079219 
L 474.299425 399.079219 
L 479.367033 399.079219 
L 484.434641 399.079219 
L 489.50225 399.079219 
L 494.569858 399.079219 
L 499.637467 399.079219 
L 504.705075 399.079219 
L 509.772684 399.079219 
L 514.840292 399.079219 
L 519.907901 399.079219 
L 524.975509 399.079219 
L 530.043118 399.079219 
L 535.110726 399.079219 
L 540.178335 399.079219 
L 545.245943 399.079219 
L 550.313552 399.079219 
" style="fill:none;stroke:#ff6800;stroke-linecap:square;stroke-width:1.5;"/>
   </g>
   <g id="line2d_21">
    <path clip-path="url(#p5f1cdf15d2)" d="M 48.620313 376.331442 
L 53.687921 376.322597 
L 58.755529 376.304865 
L 63.823138 376.278164 
L 68.890746 376.242371 
L 73.958355 376.197329 
L 79.025963 376.142846 
L 84.093572 376.078703 
L 89.16118 376.004657 
L 94.228789 375.920452 
L 99.296397 375.825826 
L 104.364006 375.720519 
L 109.431614 375.604292 
L 114.499223 375.476935 
L 119.566831 375.338285 
L 124.63444 375.188246 
L 129.702048 375.026805 
L 134.769657 374.854059 
L 139.837265 374.670234 
L 144.904874 374.47571 
L 149.972482 374.271047 
L 155.040091 374.057014 
L 160.107699 373.834612 
L 165.175307 373.605103 
L 170.242916 373.370033 
L 175.310524 373.131263 
L 180.378133 372.890989 
L 185.445741 372.651767 
L 190.51335 372.416534 
L 195.580958 372.188628 
L 200.648567 371.971806 
L 205.716175 371.770256 
L 210.783784 371.588616 
L 215.851392 371.431981 
L 220.919001 371.305912 
L 225.986609 371.216447 
L 231.054218 371.170101 
L 236.121826 371.173874 
L 241.189435 371.235253 
L 246.257043 371.362216 
L 251.324652 371.563232 
L 256.39226 371.84727 
L 261.459869 372.223811 
L 266.527477 372.702859 
L 271.595085 373.294978 
L 276.662694 374.011338 
L 281.730302 374.863794 
L 286.797911 375.865022 
L 291.865519 377.028736 
L 296.933128 378.370052 
L 302.000736 379.906124 
L 307.068345 381.595551 
L 312.135953 383.377585 
L 317.203562 385.2427 
L 322.27117 387.181269 
L 327.338779 389.183626 
L 332.406387 391.240036 
L 337.473996 393.340412 
L 342.541604 395.473852 
L 347.609213 397.644581 
L 352.676821 398.948246 
L 357.74443 399.078698 
L 362.812038 399.079219 
L 367.879647 399.079219 
L 372.947255 399.079219 
L 378.014863 399.079219 
L 383.082472 399.079219 
L 388.15008 399.079219 
L 393.217689 399.079219 
L 398.285297 399.079219 
L 403.352906 399.079219 
L 408.420514 399.079219 
L 413.488123 399.079219 
L 418.555731 399.079219 
L 423.62334 399.079219 
L 428.690948 399.079219 
L 433.758557 399.079219 
L 438.826165 399.079219 
L 443.893774 399.079219 
L 448.961382 399.079219 
L 454.028991 399.079219 
L 459.096599 399.079219 
L 464.164208 399.079219 
L 469.231816 399.079219 
L 474.299425 399.079219 
L 479.367033 399.079219 
L 484.434641 399.079219 
L 489.50225 399.079219 
L 494.569858 399.079219 
L 499.637467 399.079219 
L 504.705075 399.079219 
L 509.772684 399.079219 
L 514.840292 399.079219 
L 519.907901 399.079219 
L 524.975509 399.079219 
L 530.043118 399.079219 
L 535.110726 399.079219 
L 540.178335 399.079219 
L 545.245943 399.079219 
L 550.313552 399.079219 
" style="fill:none;stroke:#f10800;stroke-linecap:square;stroke-width:1.5;"/>
   </g>
   <g id="line2d_22">
    <path clip-path="url(#p5f1cdf15d2)" d="M 48.620313 375.996851 
L 53.687921 375.989612 
L 58.755529 375.975089 
L 63.823138 375.953198 
L 68.890746 375.923814 
L 73.958355 375.886772 
L 79.025963 375.841876 
L 84.093572 375.7889 
L 89.16118 375.727595 
L 94.228789 375.657699 
L 99.296397 375.578941 
L 104.364006 375.491058 
L 109.431614 375.393801 
L 114.499223 375.286953 
L 119.566831 375.170341 
L 124.63444 375.043858 
L 129.702048 374.907477 
L 134.769657 374.761273 
L 139.837265 374.605447 
L 144.904874 374.440344 
L 149.972482 374.26648 
L 155.040091 374.084567 
L 160.107699 373.895533 
L 165.175307 373.70055 
L 170.242916 373.501056 
L 175.310524 373.298776 
L 180.378133 373.095749 
L 185.445741 372.894341 
L 190.51335 372.697265 
L 195.580958 372.5076 
L 200.648567 372.328803 
L 205.716175 372.164718 
L 210.783784 372.019591 
L 215.851392 371.898072 
L 220.919001 371.805223 
L 225.986609 371.746521 
L 231.054218 371.72786 
L 236.121826 371.755551 
L 241.189435 371.836323 
L 246.257043 371.97732 
L 251.324652 372.186106 
L 256.39226 372.470666 
L 261.459869 372.839411 
L 266.527477 373.301192 
L 271.595085 373.865325 
L 276.662694 374.541631 
L 281.730302 375.340495 
L 286.797911 376.272978 
L 291.865519 377.350983 
L 296.933128 378.587534 
L 302.000736 379.99725 
L 307.068345 381.543831 
L 312.135953 383.174667 
L 317.203562 384.881798 
L 322.27117 386.657146 
L 327.338779 388.492597 
L 332.406387 390.380069 
L 337.473996 392.311561 
L 342.541604 394.278779 
L 347.609213 396.269471 
L 352.676821 398.226629 
L 357.74443 399.038688 
L 362.812038 399.079175 
L 367.879647 399.079219 
L 372.947255 399.079219 
L 378.014863 399.079219 
L 383.082472 399.079219 
L 388.15008 399.079219 
L 393.217689 399.079219 
L 398.285297 399.079219 
L 403.352906 399.079219 
L 408.420514 399.079219 
L 413.488123 399.079219 
L 418.555731 399.079219 
L 423.62334 399.079219 
L 428.690948 399.079219 
L 433.758557 399.079219 
L 438.826165 399.079219 
L 443.893774 399.079219 
L 448.961382 399.079219 
L 454.028991 399.079219 
L 459.096599 399.079219 
L 464.164208 399.079219 
L 469.231816 399.079219 
L 474.299425 399.079219 
L 479.367033 399.079219 
L 484.434641 399.079219 
L 489.50225 399.079219 
L 494.569858 399.079219 
L 499.637467 399.079219 
L 504.705075 399.079219 
L 509.772684 399.079219 
L 514.840292 399.079219 
L 519.907901 399.079219 
L 524.975509 399.079219 
L 530.043118 399.079219 
L 535.110726 399.079219 
L 540.178335 399.079219 
L 545.245943 399.079219 
L 550.313552 399.079219 
" style="fill:none;stroke:#800000;stroke-linecap:square;stroke-width:1.5;"/>
   </g>
   <g id="patch_3">
    <path d="M 48.620313 399.079219 
L 48.620313 10.999219 
" style="fill:none;stroke:#000000;stroke-linecap:square;stroke-linejoin:miter;stroke-width:0.8;"/>
   </g>
   <g id="patch_4">
    <path d="M 550.820312 399.079219 
L 550.820312 10.999219 
" style="fill:none;stroke:#000000;stroke-linecap:square;stroke-linejoin:miter;stroke-width:0.8;"/>
   </g>
   <g id="patch_5">
    <path d="M 48.620313 399.079219 
L 550.820312 399.079219 
" style="fill:none;stroke:#000000;stroke-linecap:square;stroke-linejoin:miter;stroke-width:0.8;"/>
   </g>
   <g id="patch_6">
    <path d="M 48.620313 10.999219 
L 550.820312 10.999219 
" style="fill:none;stroke:#000000;stroke-linecap:square;stroke-linejoin:miter;stroke-width:0.8;"/>
   </g>
   <g id="legend_1">
    <g id="patch_7">
     <path d="M 499.095312 180.458594 
L 543.820312 180.458594 
Q 545.820312 180.458594 545.820312 178.458594 
L 545.820312 17.999219 
Q 545.820312 15.999219 543.820312 15.999219 
L 499.095312 15.999219 
Q 497.095312 15.999219 497.095312 17.999219 
L 497.095312 178.458594 
Q 497.095312 180.458594 499.095312 180.458594 
z
" style="fill:#ffffff;opacity:0.8;stroke:#cccccc;stroke-linejoin:miter;"/>
    </g>
    <g id="line2d_23">
     <path d="M 501.095312 24.097656 
L 521.095312 24.097656 
" style="fill:none;stroke:#000080;stroke-linecap:square;stroke-width:1.5;"/>
    </g>
    <g id="line2d_24"/>
    <g id="text_14">
     <!-- 0 -->
     <g transform="translate(529.095312 27.597656)scale(0.1 -0.1)">
      <use xlink:href="#DejaVuSans-48"/>
     </g>
    </g>
    <g id="line2d_25">
     <path d="M 501.095312 38.775781 
L 521.095312 38.775781 
" style="fill:none;stroke:#0000f1;stroke-linecap:square;stroke-width:1.5;"/>
    </g>
    <g id="line2d_26"/>
    <g id="text_15">
     <!-- 5 -->
     <defs>
      <path d="M 10.796875 72.90625 
L 49.515625 72.90625 
L 49.515625 64.59375 
L 19.828125 64.59375 
L 19.828125 46.734375 
Q 21.96875 47.46875 24.109375 47.828125 
Q 26.265625 48.1875 28.421875 48.1875 
Q 40.625 48.1875 47.75 41.5 
Q 54.890625 34.8125 54.890625 23.390625 
Q 54.890625 11.625 47.5625 5.09375 
Q 40.234375 -1.421875 26.90625 -1.421875 
Q 22.3125 -1.421875 17.546875 -0.640625 
Q 12.796875 0.140625 7.71875 1.703125 
L 7.71875 11.625 
Q 12.109375 9.234375 16.796875 8.0625 
Q 21.484375 6.890625 26.703125 6.890625 
Q 35.15625 6.890625 40.078125 11.328125 
Q 45.015625 15.765625 45.015625 23.390625 
Q 45.015625 31 40.078125 35.4375 
Q 35.15625 39.890625 26.703125 39.890625 
Q 22.75 39.890625 18.8125 39.015625 
Q 14.890625 38.140625 10.796875 36.28125 
z
" id="DejaVuSans-53"/>
     </defs>
     <g transform="translate(529.095312 42.275781)scale(0.1 -0.1)">
      <use xlink:href="#DejaVuSans-53"/>
     </g>
    </g>
    <g id="line2d_27">
     <path d="M 501.095312 53.453906 
L 521.095312 53.453906 
" style="fill:none;stroke:#004cff;stroke-linecap:square;stroke-width:1.5;"/>
    </g>
    <g id="line2d_28"/>
    <g id="text_16">
     <!-- 10 -->
     <g transform="translate(529.095312 56.953906)scale(0.1 -0.1)">
      <use xlink:href="#DejaVuSans-49"/>
      <use x="63.623047" xlink:href="#DejaVuSans-48"/>
     </g>
    </g>
    <g id="line2d_29">
     <path d="M 501.095312 68.132031 
L 521.095312 68.132031 
" style="fill:none;stroke:#00b0ff;stroke-linecap:square;stroke-width:1.5;"/>
    </g>
    <g id="line2d_30"/>
    <g id="text_17">
     <!-- 15 -->
     <g transform="translate(529.095312 71.632031)scale(0.1 -0.1)">
      <use xlink:href="#DejaVuSans-49"/>
      <use x="63.623047" xlink:href="#DejaVuSans-53"/>
     </g>
    </g>
    <g id="line2d_31">
     <path d="M 501.095312 82.810156 
L 521.095312 82.810156 
" style="fill:none;stroke:#29ffce;stroke-linecap:square;stroke-width:1.5;"/>
    </g>
    <g id="line2d_32"/>
    <g id="text_18">
     <!-- 20 -->
     <g transform="translate(529.095312 86.310156)scale(0.1 -0.1)">
      <use xlink:href="#DejaVuSans-50"/>
      <use x="63.623047" xlink:href="#DejaVuSans-48"/>
     </g>
    </g>
    <g id="line2d_33">
     <path d="M 501.095312 97.488281 
L 521.095312 97.488281 
" style="fill:none;stroke:#7dff7a;stroke-linecap:square;stroke-width:1.5;"/>
    </g>
    <g id="line2d_34"/>
    <g id="text_19">
     <!-- 25 -->
     <g transform="translate(529.095312 100.988281)scale(0.1 -0.1)">
      <use xlink:href="#DejaVuSans-50"/>
      <use x="63.623047" xlink:href="#DejaVuSans-53"/>
     </g>
    </g>
    <g id="line2d_35">
     <path d="M 501.095312 112.166406 
L 521.095312 112.166406 
" style="fill:none;stroke:#ceff29;stroke-linecap:square;stroke-width:1.5;"/>
    </g>
    <g id="line2d_36"/>
    <g id="text_20">
     <!-- 30 -->
     <defs>
      <path d="M 40.578125 39.3125 
Q 47.65625 37.796875 51.625 33 
Q 55.609375 28.21875 55.609375 21.1875 
Q 55.609375 10.40625 48.1875 4.484375 
Q 40.765625 -1.421875 27.09375 -1.421875 
Q 22.515625 -1.421875 17.65625 -0.515625 
Q 12.796875 0.390625 7.625 2.203125 
L 7.625 11.71875 
Q 11.71875 9.328125 16.59375 8.109375 
Q 21.484375 6.890625 26.8125 6.890625 
Q 36.078125 6.890625 40.9375 10.546875 
Q 45.796875 14.203125 45.796875 21.1875 
Q 45.796875 27.640625 41.28125 31.265625 
Q 36.765625 34.90625 28.71875 34.90625 
L 20.21875 34.90625 
L 20.21875 43.015625 
L 29.109375 43.015625 
Q 36.375 43.015625 40.234375 45.921875 
Q 44.09375 48.828125 44.09375 54.296875 
Q 44.09375 59.90625 40.109375 62.90625 
Q 36.140625 65.921875 28.71875 65.921875 
Q 24.65625 65.921875 20.015625 65.03125 
Q 15.375 64.15625 9.8125 62.3125 
L 9.8125 71.09375 
Q 15.4375 72.65625 20.34375 73.4375 
Q 25.25 74.21875 29.59375 74.21875 
Q 40.828125 74.21875 47.359375 69.109375 
Q 53.90625 64.015625 53.90625 55.328125 
Q 53.90625 49.265625 50.4375 45.09375 
Q 46.96875 40.921875 40.578125 39.3125 
z
" id="DejaVuSans-51"/>
     </defs>
     <g transform="translate(529.095312 115.666406)scale(0.1 -0.1)">
      <use xlink:href="#DejaVuSans-51"/>
      <use x="63.623047" xlink:href="#DejaVuSans-48"/>
     </g>
    </g>
    <g id="line2d_37">
     <path d="M 501.095312 126.844531 
L 521.095312 126.844531 
" style="fill:none;stroke:#ffc400;stroke-linecap:square;stroke-width:1.5;"/>
    </g>
    <g id="line2d_38"/>
    <g id="text_21">
     <!-- 35 -->
     <g transform="translate(529.095312 130.344531)scale(0.1 -0.1)">
      <use xlink:href="#DejaVuSans-51"/>
      <use x="63.623047" xlink:href="#DejaVuSans-53"/>
     </g>
    </g>
    <g id="line2d_39">
     <path d="M 501.095312 141.522656 
L 521.095312 141.522656 
" style="fill:none;stroke:#ff6800;stroke-linecap:square;stroke-width:1.5;"/>
    </g>
    <g id="line2d_40"/>
    <g id="text_22">
     <!-- 40 -->
     <g transform="translate(529.095312 145.022656)scale(0.1 -0.1)">
      <use xlink:href="#DejaVuSans-52"/>
      <use x="63.623047" xlink:href="#DejaVuSans-48"/>
     </g>
    </g>
    <g id="line2d_41">
     <path d="M 501.095312 156.200781 
L 521.095312 156.200781 
" style="fill:none;stroke:#f10800;stroke-linecap:square;stroke-width:1.5;"/>
    </g>
    <g id="line2d_42"/>
    <g id="text_23">
     <!-- 45 -->
     <g transform="translate(529.095312 159.700781)scale(0.1 -0.1)">
      <use xlink:href="#DejaVuSans-52"/>
      <use x="63.623047" xlink:href="#DejaVuSans-53"/>
     </g>
    </g>
    <g id="line2d_43">
     <path d="M 501.095312 170.878906 
L 521.095312 170.878906 
" style="fill:none;stroke:#800000;stroke-linecap:square;stroke-width:1.5;"/>
    </g>
    <g id="line2d_44"/>
    <g id="text_24">
     <!-- 50 -->
     <g transform="translate(529.095312 174.378906)scale(0.1 -0.1)">
      <use xlink:href="#DejaVuSans-53"/>
      <use x="63.623047" xlink:href="#DejaVuSans-48"/>
     </g>
    </g>
   </g>
  </g>
 </g>
 <defs>
  <clipPath id="p5f1cdf15d2">
   <rect height="388.08" width="502.2" x="48.620313" y="10.999219"/>
  </clipPath>
 </defs>
</svg>
