<?xml version="1.0" encoding="utf-8" standalone="no"?>
<!DOCTYPE svg PUBLIC "-//W3C//DTD SVG 1.1//EN"
  "http://www.w3.org/Graphics/SVG/1.1/DTD/svg11.dtd">
<!-- Created with matplotlib (https://matplotlib.org/) -->
<svg height="441.474531pt" version="1.1" viewBox="0 0 558.020312 441.474531" width="558.020312pt" xmlns="http://www.w3.org/2000/svg" xmlns:xlink="http://www.w3.org/1999/xlink">
 <defs>
  <style type="text/css">
*{stroke-linecap:butt;stroke-linejoin:round;}
  </style>
 </defs>
 <g id="figure_1">
  <g id="patch_1">
   <path d="M 0 441.474531 
L 558.020312 441.474531 
L 558.020312 0 
L 0 0 
z
" style="fill:#ffffff;"/>
  </g>
  <g id="axes_1">
   <g id="patch_2">
    <path d="M 48.620313 399.079219 
L 550.820312 399.079219 
L 550.820312 10.999219 
L 48.620313 10.999219 
z
" style="fill:#ffffff;"/>
   </g>
   <g id="matplotlib.axis_1">
    <g id="xtick_1">
     <g id="line2d_1">
      <defs>
       <path d="M 0 0 
L 0 3.5 
" id="m50e582d247" style="stroke:#000000;stroke-width:0.8;"/>
      </defs>
      <g>
       <use style="stroke:#000000;stroke-width:0.8;" x="48.620313" xlink:href="#m50e582d247" y="399.079219"/>
      </g>
     </g>
     <g id="text_1">
      <!-- 0 -->
      <defs>
       <path d="M 31.78125 66.40625 
Q 24.171875 66.40625 20.328125 58.90625 
Q 16.5 51.421875 16.5 36.375 
Q 16.5 21.390625 20.328125 13.890625 
Q 24.171875 6.390625 31.78125 6.390625 
Q 39.453125 6.390625 43.28125 13.890625 
Q 47.125 21.390625 47.125 36.375 
Q 47.125 51.421875 43.28125 58.90625 
Q 39.453125 66.40625 31.78125 66.40625 
z
M 31.78125 74.21875 
Q 44.046875 74.21875 50.515625 64.515625 
Q 56.984375 54.828125 56.984375 36.375 
Q 56.984375 17.96875 50.515625 8.265625 
Q 44.046875 -1.421875 31.78125 -1.421875 
Q 19.53125 -1.421875 13.0625 8.265625 
Q 6.59375 17.96875 6.59375 36.375 
Q 6.59375 54.828125 13.0625 64.515625 
Q 19.53125 74.21875 31.78125 74.21875 
z
" id="DejaVuSans-48"/>
      </defs>
      <g transform="translate(45.439063 413.677656)scale(0.1 -0.1)">
       <use xlink:href="#DejaVuSans-48"/>
      </g>
     </g>
    </g>
    <g id="xtick_2">
     <g id="line2d_2">
      <g>
       <use style="stroke:#000000;stroke-width:0.8;" x="149.972482" xlink:href="#m50e582d247" y="399.079219"/>
      </g>
     </g>
     <g id="text_2">
      <!-- 20 -->
      <defs>
       <path d="M 19.1875 8.296875 
L 53.609375 8.296875 
L 53.609375 0 
L 7.328125 0 
L 7.328125 8.296875 
Q 12.9375 14.109375 22.625 23.890625 
Q 32.328125 33.6875 34.8125 36.53125 
Q 39.546875 41.84375 41.421875 45.53125 
Q 43.3125 49.21875 43.3125 52.78125 
Q 43.3125 58.59375 39.234375 62.25 
Q 35.15625 65.921875 28.609375 65.921875 
Q 23.96875 65.921875 18.8125 64.3125 
Q 13.671875 62.703125 7.8125 59.421875 
L 7.8125 69.390625 
Q 13.765625 71.78125 18.9375 73 
Q 24.125 74.21875 28.421875 74.21875 
Q 39.75 74.21875 46.484375 68.546875 
Q 53.21875 62.890625 53.21875 53.421875 
Q 53.21875 48.921875 51.53125 44.890625 
Q 49.859375 40.875 45.40625 35.40625 
Q 44.1875 33.984375 37.640625 27.21875 
Q 31.109375 20.453125 19.1875 8.296875 
z
" id="DejaVuSans-50"/>
      </defs>
      <g transform="translate(143.609982 413.677656)scale(0.1 -0.1)">
       <use xlink:href="#DejaVuSans-50"/>
       <use x="63.623047" xlink:href="#DejaVuSans-48"/>
      </g>
     </g>
    </g>
    <g id="xtick_3">
     <g id="line2d_3">
      <g>
       <use style="stroke:#000000;stroke-width:0.8;" x="251.324652" xlink:href="#m50e582d247" y="399.079219"/>
      </g>
     </g>
     <g id="text_3">
      <!-- 40 -->
      <defs>
       <path d="M 37.796875 64.3125 
L 12.890625 25.390625 
L 37.796875 25.390625 
z
M 35.203125 72.90625 
L 47.609375 72.90625 
L 47.609375 25.390625 
L 58.015625 25.390625 
L 58.015625 17.1875 
L 47.609375 17.1875 
L 47.609375 0 
L 37.796875 0 
L 37.796875 17.1875 
L 4.890625 17.1875 
L 4.890625 26.703125 
z
" id="DejaVuSans-52"/>
      </defs>
      <g transform="translate(244.962152 413.677656)scale(0.1 -0.1)">
       <use xlink:href="#DejaVuSans-52"/>
       <use x="63.623047" xlink:href="#DejaVuSans-48"/>
      </g>
     </g>
    </g>
    <g id="xtick_4">
     <g id="line2d_4">
      <g>
       <use style="stroke:#000000;stroke-width:0.8;" x="352.676821" xlink:href="#m50e582d247" y="399.079219"/>
      </g>
     </g>
     <g id="text_4">
      <!-- 60 -->
      <defs>
       <path d="M 33.015625 40.375 
Q 26.375 40.375 22.484375 35.828125 
Q 18.609375 31.296875 18.609375 23.390625 
Q 18.609375 15.53125 22.484375 10.953125 
Q 26.375 6.390625 33.015625 6.390625 
Q 39.65625 6.390625 43.53125 10.953125 
Q 47.40625 15.53125 47.40625 23.390625 
Q 47.40625 31.296875 43.53125 35.828125 
Q 39.65625 40.375 33.015625 40.375 
z
M 52.59375 71.296875 
L 52.59375 62.3125 
Q 48.875 64.0625 45.09375 64.984375 
Q 41.3125 65.921875 37.59375 65.921875 
Q 27.828125 65.921875 22.671875 59.328125 
Q 17.53125 52.734375 16.796875 39.40625 
Q 19.671875 43.65625 24.015625 45.921875 
Q 28.375 48.1875 33.59375 48.1875 
Q 44.578125 48.1875 50.953125 41.515625 
Q 57.328125 34.859375 57.328125 23.390625 
Q 57.328125 12.15625 50.6875 5.359375 
Q 44.046875 -1.421875 33.015625 -1.421875 
Q 20.359375 -1.421875 13.671875 8.265625 
Q 6.984375 17.96875 6.984375 36.375 
Q 6.984375 53.65625 15.1875 63.9375 
Q 23.390625 74.21875 37.203125 74.21875 
Q 40.921875 74.21875 44.703125 73.484375 
Q 48.484375 72.75 52.59375 71.296875 
z
" id="DejaVuSans-54"/>
      </defs>
      <g transform="translate(346.314321 413.677656)scale(0.1 -0.1)">
       <use xlink:href="#DejaVuSans-54"/>
       <use x="63.623047" xlink:href="#DejaVuSans-48"/>
      </g>
     </g>
    </g>
    <g id="xtick_5">
     <g id="line2d_5">
      <g>
       <use style="stroke:#000000;stroke-width:0.8;" x="454.028991" xlink:href="#m50e582d247" y="399.079219"/>
      </g>
     </g>
     <g id="text_5">
      <!-- 80 -->
      <defs>
       <path d="M 31.78125 34.625 
Q 24.75 34.625 20.71875 30.859375 
Q 16.703125 27.09375 16.703125 20.515625 
Q 16.703125 13.921875 20.71875 10.15625 
Q 24.75 6.390625 31.78125 6.390625 
Q 38.8125 6.390625 42.859375 10.171875 
Q 46.921875 13.96875 46.921875 20.515625 
Q 46.921875 27.09375 42.890625 30.859375 
Q 38.875 34.625 31.78125 34.625 
z
M 21.921875 38.8125 
Q 15.578125 40.375 12.03125 44.71875 
Q 8.5 49.078125 8.5 55.328125 
Q 8.5 64.0625 14.71875 69.140625 
Q 20.953125 74.21875 31.78125 74.21875 
Q 42.671875 74.21875 48.875 69.140625 
Q 55.078125 64.0625 55.078125 55.328125 
Q 55.078125 49.078125 51.53125 44.71875 
Q 48 40.375 41.703125 38.8125 
Q 48.828125 37.15625 52.796875 32.3125 
Q 56.78125 27.484375 56.78125 20.515625 
Q 56.78125 9.90625 50.3125 4.234375 
Q 43.84375 -1.421875 31.78125 -1.421875 
Q 19.734375 -1.421875 13.25 4.234375 
Q 6.78125 9.90625 6.78125 20.515625 
Q 6.78125 27.484375 10.78125 32.3125 
Q 14.796875 37.15625 21.921875 38.8125 
z
M 18.3125 54.390625 
Q 18.3125 48.734375 21.84375 45.5625 
Q 25.390625 42.390625 31.78125 42.390625 
Q 38.140625 42.390625 41.71875 45.5625 
Q 45.3125 48.734375 45.3125 54.390625 
Q 45.3125 60.0625 41.71875 63.234375 
Q 38.140625 66.40625 31.78125 66.40625 
Q 25.390625 66.40625 21.84375 63.234375 
Q 18.3125 60.0625 18.3125 54.390625 
z
" id="DejaVuSans-56"/>
      </defs>
      <g transform="translate(447.666491 413.677656)scale(0.1 -0.1)">
       <use xlink:href="#DejaVuSans-56"/>
       <use x="63.623047" xlink:href="#DejaVuSans-48"/>
      </g>
     </g>
    </g>
    <g id="text_6">
     <!-- x(in mm) -->
     <defs>
      <path d="M 54.890625 54.6875 
L 35.109375 28.078125 
L 55.90625 0 
L 45.3125 0 
L 29.390625 21.484375 
L 13.484375 0 
L 2.875 0 
L 24.125 28.609375 
L 4.6875 54.6875 
L 15.28125 54.6875 
L 29.78125 35.203125 
L 44.28125 54.6875 
z
" id="DejaVuSans-120"/>
      <path d="M 31 75.875 
Q 24.46875 64.65625 21.28125 53.65625 
Q 18.109375 42.671875 18.109375 31.390625 
Q 18.109375 20.125 21.3125 9.0625 
Q 24.515625 -2 31 -13.1875 
L 23.1875 -13.1875 
Q 15.875 -1.703125 12.234375 9.375 
Q 8.59375 20.453125 8.59375 31.390625 
Q 8.59375 42.28125 12.203125 53.3125 
Q 15.828125 64.359375 23.1875 75.875 
z
" id="DejaVuSans-40"/>
      <path d="M 9.421875 54.6875 
L 18.40625 54.6875 
L 18.40625 0 
L 9.421875 0 
z
M 9.421875 75.984375 
L 18.40625 75.984375 
L 18.40625 64.59375 
L 9.421875 64.59375 
z
" id="DejaVuSans-105"/>
      <path d="M 54.890625 33.015625 
L 54.890625 0 
L 45.90625 0 
L 45.90625 32.71875 
Q 45.90625 40.484375 42.875 44.328125 
Q 39.84375 48.1875 33.796875 48.1875 
Q 26.515625 48.1875 22.3125 43.546875 
Q 18.109375 38.921875 18.109375 30.90625 
L 18.109375 0 
L 9.078125 0 
L 9.078125 54.6875 
L 18.109375 54.6875 
L 18.109375 46.1875 
Q 21.34375 51.125 25.703125 53.5625 
Q 30.078125 56 35.796875 56 
Q 45.21875 56 50.046875 50.171875 
Q 54.890625 44.34375 54.890625 33.015625 
z
" id="DejaVuSans-110"/>
      <path id="DejaVuSans-32"/>
      <path d="M 52 44.1875 
Q 55.375 50.25 60.0625 53.125 
Q 64.75 56 71.09375 56 
Q 79.640625 56 84.28125 50.015625 
Q 88.921875 44.046875 88.921875 33.015625 
L 88.921875 0 
L 79.890625 0 
L 79.890625 32.71875 
Q 79.890625 40.578125 77.09375 44.375 
Q 74.3125 48.1875 68.609375 48.1875 
Q 61.625 48.1875 57.5625 43.546875 
Q 53.515625 38.921875 53.515625 30.90625 
L 53.515625 0 
L 44.484375 0 
L 44.484375 32.71875 
Q 44.484375 40.625 41.703125 44.40625 
Q 38.921875 48.1875 33.109375 48.1875 
Q 26.21875 48.1875 22.15625 43.53125 
Q 18.109375 38.875 18.109375 30.90625 
L 18.109375 0 
L 9.078125 0 
L 9.078125 54.6875 
L 18.109375 54.6875 
L 18.109375 46.1875 
Q 21.1875 51.21875 25.484375 53.609375 
Q 29.78125 56 35.6875 56 
Q 41.65625 56 45.828125 52.96875 
Q 50 49.953125 52 44.1875 
z
" id="DejaVuSans-109"/>
      <path d="M 8.015625 75.875 
L 15.828125 75.875 
Q 23.140625 64.359375 26.78125 53.3125 
Q 30.421875 42.28125 30.421875 31.390625 
Q 30.421875 20.453125 26.78125 9.375 
Q 23.140625 -1.703125 15.828125 -13.1875 
L 8.015625 -13.1875 
Q 14.5 -2 17.703125 9.0625 
Q 20.90625 20.125 20.90625 31.390625 
Q 20.90625 42.671875 17.703125 53.65625 
Q 14.5 64.65625 8.015625 75.875 
z
" id="DejaVuSans-41"/>
     </defs>
     <g transform="translate(265.597656 431.155)scale(0.15 -0.15)">
      <use xlink:href="#DejaVuSans-120"/>
      <use x="59.179688" xlink:href="#DejaVuSans-40"/>
      <use x="98.193359" xlink:href="#DejaVuSans-105"/>
      <use x="125.976562" xlink:href="#DejaVuSans-110"/>
      <use x="189.355469" xlink:href="#DejaVuSans-32"/>
      <use x="221.142578" xlink:href="#DejaVuSans-109"/>
      <use x="318.554688" xlink:href="#DejaVuSans-109"/>
      <use x="415.966797" xlink:href="#DejaVuSans-41"/>
     </g>
    </g>
   </g>
   <g id="matplotlib.axis_2">
    <g id="ytick_1">
     <g id="line2d_6">
      <defs>
       <path d="M 0 0 
L -3.5 0 
" id="mb44df24f16" style="stroke:#000000;stroke-width:0.8;"/>
      </defs>
      <g>
       <use style="stroke:#000000;stroke-width:0.8;" x="48.620313" xlink:href="#mb44df24f16" y="399.079219"/>
      </g>
     </g>
     <g id="text_7">
      <!-- 0.0 -->
      <defs>
       <path d="M 10.6875 12.40625 
L 21 12.40625 
L 21 0 
L 10.6875 0 
z
" id="DejaVuSans-46"/>
      </defs>
      <g transform="translate(25.717188 402.878437)scale(0.1 -0.1)">
       <use xlink:href="#DejaVuSans-48"/>
       <use x="63.623047" xlink:href="#DejaVuSans-46"/>
       <use x="95.410156" xlink:href="#DejaVuSans-48"/>
      </g>
     </g>
    </g>
    <g id="ytick_2">
     <g id="line2d_7">
      <g>
       <use style="stroke:#000000;stroke-width:0.8;" x="48.620313" xlink:href="#mb44df24f16" y="321.463219"/>
      </g>
     </g>
     <g id="text_8">
      <!-- 0.2 -->
      <g transform="translate(25.717188 325.262437)scale(0.1 -0.1)">
       <use xlink:href="#DejaVuSans-48"/>
       <use x="63.623047" xlink:href="#DejaVuSans-46"/>
       <use x="95.410156" xlink:href="#DejaVuSans-50"/>
      </g>
     </g>
    </g>
    <g id="ytick_3">
     <g id="line2d_8">
      <g>
       <use style="stroke:#000000;stroke-width:0.8;" x="48.620313" xlink:href="#mb44df24f16" y="243.847219"/>
      </g>
     </g>
     <g id="text_9">
      <!-- 0.4 -->
      <g transform="translate(25.717188 247.646437)scale(0.1 -0.1)">
       <use xlink:href="#DejaVuSans-48"/>
       <use x="63.623047" xlink:href="#DejaVuSans-46"/>
       <use x="95.410156" xlink:href="#DejaVuSans-52"/>
      </g>
     </g>
    </g>
    <g id="ytick_4">
     <g id="line2d_9">
      <g>
       <use style="stroke:#000000;stroke-width:0.8;" x="48.620313" xlink:href="#mb44df24f16" y="166.231219"/>
      </g>
     </g>
     <g id="text_10">
      <!-- 0.6 -->
      <g transform="translate(25.717188 170.030438)scale(0.1 -0.1)">
       <use xlink:href="#DejaVuSans-48"/>
       <use x="63.623047" xlink:href="#DejaVuSans-46"/>
       <use x="95.410156" xlink:href="#DejaVuSans-54"/>
      </g>
     </g>
    </g>
    <g id="ytick_5">
     <g id="line2d_10">
      <g>
       <use style="stroke:#000000;stroke-width:0.8;" x="48.620313" xlink:href="#mb44df24f16" y="88.615219"/>
      </g>
     </g>
     <g id="text_11">
      <!-- 0.8 -->
      <g transform="translate(25.717188 92.414438)scale(0.1 -0.1)">
       <use xlink:href="#DejaVuSans-48"/>
       <use x="63.623047" xlink:href="#DejaVuSans-46"/>
       <use x="95.410156" xlink:href="#DejaVuSans-56"/>
      </g>
     </g>
    </g>
    <g id="ytick_6">
     <g id="line2d_11">
      <g>
       <use style="stroke:#000000;stroke-width:0.8;" x="48.620313" xlink:href="#mb44df24f16" y="10.999219"/>
      </g>
     </g>
     <g id="text_12">
      <!-- 1.0 -->
      <defs>
       <path d="M 12.40625 8.296875 
L 28.515625 8.296875 
L 28.515625 63.921875 
L 10.984375 60.40625 
L 10.984375 69.390625 
L 28.421875 72.90625 
L 38.28125 72.90625 
L 38.28125 8.296875 
L 54.390625 8.296875 
L 54.390625 0 
L 12.40625 0 
z
" id="DejaVuSans-49"/>
      </defs>
      <g transform="translate(25.717188 14.798438)scale(0.1 -0.1)">
       <use xlink:href="#DejaVuSans-49"/>
       <use x="63.623047" xlink:href="#DejaVuSans-46"/>
       <use x="95.410156" xlink:href="#DejaVuSans-48"/>
      </g>
     </g>
    </g>
    <g id="text_13">
     <!-- concentration -->
     <defs>
      <path d="M 48.78125 52.59375 
L 48.78125 44.1875 
Q 44.96875 46.296875 41.140625 47.34375 
Q 37.3125 48.390625 33.40625 48.390625 
Q 24.65625 48.390625 19.8125 42.84375 
Q 14.984375 37.3125 14.984375 27.296875 
Q 14.984375 17.28125 19.8125 11.734375 
Q 24.65625 6.203125 33.40625 6.203125 
Q 37.3125 6.203125 41.140625 7.25 
Q 44.96875 8.296875 48.78125 10.40625 
L 48.78125 2.09375 
Q 45.015625 0.34375 40.984375 -0.53125 
Q 36.96875 -1.421875 32.421875 -1.421875 
Q 20.0625 -1.421875 12.78125 6.34375 
Q 5.515625 14.109375 5.515625 27.296875 
Q 5.515625 40.671875 12.859375 48.328125 
Q 20.21875 56 33.015625 56 
Q 37.15625 56 41.109375 55.140625 
Q 45.0625 54.296875 48.78125 52.59375 
z
" id="DejaVuSans-99"/>
      <path d="M 30.609375 48.390625 
Q 23.390625 48.390625 19.1875 42.75 
Q 14.984375 37.109375 14.984375 27.296875 
Q 14.984375 17.484375 19.15625 11.84375 
Q 23.34375 6.203125 30.609375 6.203125 
Q 37.796875 6.203125 41.984375 11.859375 
Q 46.1875 17.53125 46.1875 27.296875 
Q 46.1875 37.015625 41.984375 42.703125 
Q 37.796875 48.390625 30.609375 48.390625 
z
M 30.609375 56 
Q 42.328125 56 49.015625 48.375 
Q 55.71875 40.765625 55.71875 27.296875 
Q 55.71875 13.875 49.015625 6.21875 
Q 42.328125 -1.421875 30.609375 -1.421875 
Q 18.84375 -1.421875 12.171875 6.21875 
Q 5.515625 13.875 5.515625 27.296875 
Q 5.515625 40.765625 12.171875 48.375 
Q 18.84375 56 30.609375 56 
z
" id="DejaVuSans-111"/>
      <path d="M 56.203125 29.59375 
L 56.203125 25.203125 
L 14.890625 25.203125 
Q 15.484375 15.921875 20.484375 11.0625 
Q 25.484375 6.203125 34.421875 6.203125 
Q 39.59375 6.203125 44.453125 7.46875 
Q 49.3125 8.734375 54.109375 11.28125 
L 54.109375 2.78125 
Q 49.265625 0.734375 44.1875 -0.34375 
Q 39.109375 -1.421875 33.890625 -1.421875 
Q 20.796875 -1.421875 13.15625 6.1875 
Q 5.515625 13.8125 5.515625 26.8125 
Q 5.515625 40.234375 12.765625 48.109375 
Q 20.015625 56 32.328125 56 
Q 43.359375 56 49.78125 48.890625 
Q 56.203125 41.796875 56.203125 29.59375 
z
M 47.21875 32.234375 
Q 47.125 39.59375 43.09375 43.984375 
Q 39.0625 48.390625 32.421875 48.390625 
Q 24.90625 48.390625 20.390625 44.140625 
Q 15.875 39.890625 15.1875 32.171875 
z
" id="DejaVuSans-101"/>
      <path d="M 18.3125 70.21875 
L 18.3125 54.6875 
L 36.8125 54.6875 
L 36.8125 47.703125 
L 18.3125 47.703125 
L 18.3125 18.015625 
Q 18.3125 11.328125 20.140625 9.421875 
Q 21.96875 7.515625 27.59375 7.515625 
L 36.8125 7.515625 
L 36.8125 0 
L 27.59375 0 
Q 17.1875 0 13.234375 3.875 
Q 9.28125 7.765625 9.28125 18.015625 
L 9.28125 47.703125 
L 2.6875 47.703125 
L 2.6875 54.6875 
L 9.28125 54.6875 
L 9.28125 70.21875 
z
" id="DejaVuSans-116"/>
      <path d="M 41.109375 46.296875 
Q 39.59375 47.171875 37.8125 47.578125 
Q 36.03125 48 33.890625 48 
Q 26.265625 48 22.1875 43.046875 
Q 18.109375 38.09375 18.109375 28.8125 
L 18.109375 0 
L 9.078125 0 
L 9.078125 54.6875 
L 18.109375 54.6875 
L 18.109375 46.1875 
Q 20.953125 51.171875 25.484375 53.578125 
Q 30.03125 56 36.53125 56 
Q 37.453125 56 38.578125 55.875 
Q 39.703125 55.765625 41.0625 55.515625 
z
" id="DejaVuSans-114"/>
      <path d="M 34.28125 27.484375 
Q 23.390625 27.484375 19.1875 25 
Q 14.984375 22.515625 14.984375 16.5 
Q 14.984375 11.71875 18.140625 8.90625 
Q 21.296875 6.109375 26.703125 6.109375 
Q 34.1875 6.109375 38.703125 11.40625 
Q 43.21875 16.703125 43.21875 25.484375 
L 43.21875 27.484375 
z
M 52.203125 31.203125 
L 52.203125 0 
L 43.21875 0 
L 43.21875 8.296875 
Q 40.140625 3.328125 35.546875 0.953125 
Q 30.953125 -1.421875 24.3125 -1.421875 
Q 15.921875 -1.421875 10.953125 3.296875 
Q 6 8.015625 6 15.921875 
Q 6 25.140625 12.171875 29.828125 
Q 18.359375 34.515625 30.609375 34.515625 
L 43.21875 34.515625 
L 43.21875 35.40625 
Q 43.21875 41.609375 39.140625 45 
Q 35.0625 48.390625 27.6875 48.390625 
Q 23 48.390625 18.546875 47.265625 
Q 14.109375 46.140625 10.015625 43.890625 
L 10.015625 52.203125 
Q 14.9375 54.109375 19.578125 55.046875 
Q 24.21875 56 28.609375 56 
Q 40.484375 56 46.34375 49.84375 
Q 52.203125 43.703125 52.203125 31.203125 
z
" id="DejaVuSans-97"/>
     </defs>
     <g transform="translate(18.597656 256.982578)rotate(-90)scale(0.15 -0.15)">
      <use xlink:href="#DejaVuSans-99"/>
      <use x="54.980469" xlink:href="#DejaVuSans-111"/>
      <use x="116.162109" xlink:href="#DejaVuSans-110"/>
      <use x="179.541016" xlink:href="#DejaVuSans-99"/>
      <use x="234.521484" xlink:href="#DejaVuSans-101"/>
      <use x="296.044922" xlink:href="#DejaVuSans-110"/>
      <use x="359.423828" xlink:href="#DejaVuSans-116"/>
      <use x="398.632812" xlink:href="#DejaVuSans-114"/>
      <use x="439.746094" xlink:href="#DejaVuSans-97"/>
      <use x="501.025391" xlink:href="#DejaVuSans-116"/>
      <use x="540.234375" xlink:href="#DejaVuSans-105"/>
      <use x="568.017578" xlink:href="#DejaVuSans-111"/>
      <use x="629.199219" xlink:href="#DejaVuSans-110"/>
     </g>
    </g>
   </g>
   <g id="line2d_12">
    <path clip-path="url(#p857b280664)" d="M 48.620313 399.079219 
L 53.687921 399.079219 
L 58.755529 399.079219 
L 63.823138 399.079219 
L 68.890746 399.079219 
L 73.958355 399.079219 
L 79.025963 399.079219 
L 84.093572 399.079219 
L 89.16118 399.079219 
L 94.228789 399.079219 
L 99.296397 399.079219 
L 104.364006 399.079219 
L 109.431614 399.079219 
L 114.499223 399.079219 
L 119.566831 399.079219 
L 124.63444 399.079219 
L 129.702048 399.079219 
L 134.769657 399.079219 
L 139.837265 399.079219 
L 144.904874 399.079219 
L 149.972482 399.079219 
L 155.040091 399.079219 
L 160.107699 399.079219 
L 165.175307 399.079219 
L 170.242916 399.079219 
L 175.310524 399.079219 
L 180.378133 399.079219 
L 185.445741 399.079219 
L 190.51335 399.079219 
L 195.580958 399.079219 
L 200.648567 399.079219 
L 205.716175 399.079219 
L 210.783784 399.079219 
L 215.851392 399.079219 
L 220.919001 399.079219 
L 225.986609 399.079219 
L 231.054218 399.079219 
L 236.121826 399.079219 
L 241.189435 399.079219 
L 246.257043 399.079219 
L 251.324652 399.079219 
L 256.39226 399.079219 
L 261.459869 399.079219 
L 266.527477 399.079219 
L 271.595085 399.079219 
L 276.662694 399.079219 
L 281.730302 399.079219 
L 286.797911 399.079219 
L 291.865519 399.079219 
L 296.933128 399.079219 
L 302.000736 399.079219 
L 307.068345 399.079219 
L 312.135953 399.079219 
L 317.203562 399.079219 
L 322.27117 399.079219 
L 327.338779 399.079219 
L 332.406387 399.079219 
L 337.473996 399.079219 
L 342.541604 399.079219 
L 347.609213 399.079219 
L 352.676821 399.079219 
L 357.74443 399.079219 
L 362.812038 399.079219 
L 367.879647 399.079219 
L 372.947255 399.079219 
L 378.014863 399.079219 
L 383.082472 399.079219 
L 388.15008 399.079219 
L 393.217689 399.079219 
L 398.285297 399.079219 
L 403.352906 399.079219 
L 408.420514 399.079219 
L 413.488123 399.079219 
L 418.555731 399.079219 
L 423.62334 399.079219 
L 428.690948 399.079219 
L 433.758557 399.079219 
L 438.826165 399.079219 
L 443.893774 399.079219 
L 448.961382 399.079219 
L 454.028991 399.079219 
L 459.096599 399.079219 
L 464.164208 399.079219 
L 469.231816 399.079219 
L 474.299425 399.079219 
L 479.367033 399.079219 
L 484.434641 399.079219 
L 489.50225 399.079219 
L 494.569858 399.079219 
L 499.637467 399.079219 
L 504.705075 399.079219 
L 509.772684 399.079219 
L 514.840292 399.079219 
L 519.907901 399.079219 
L 524.975509 399.079219 
L 530.043118 399.079219 
L 535.110726 399.079219 
L 540.178335 399.079219 
L 545.245943 399.079219 
L 550.313552 399.079219 
" style="fill:none;stroke:#000080;stroke-linecap:square;stroke-width:1.5;"/>
   </g>
   <g id="line2d_13">
    <path clip-path="url(#p857b280664)" d="M 48.620313 399.079219 
L 53.687921 399.079219 
L 58.755529 399.079219 
L 63.823138 399.079219 
L 68.890746 399.079219 
L 73.958355 399.079219 
L 79.025963 399.079218 
L 84.093572 399.079218 
L 89.16118 399.079217 
L 94.228789 399.079214 
L 99.296397 399.079209 
L 104.364006 399.079198 
L 109.431614 399.079174 
L 114.499223 399.079127 
L 119.566831 399.079032 
L 124.63444 399.078844 
L 129.702048 399.078479 
L 134.769657 399.077781 
L 139.837265 399.076471 
L 144.904874 399.07405 
L 149.972482 399.069655 
L 155.040091 399.061813 
L 160.107699 399.048062 
L 165.175307 399.02437 
L 170.242916 398.984272 
L 175.310524 398.917613 
L 180.378133 398.808785 
L 185.445741 398.634326 
L 190.51335 398.359751 
L 195.580958 397.93554 
L 200.648567 397.292278 
L 205.716175 396.335033 
L 210.783784 394.937288 
L 215.851392 392.934916 
L 220.919001 390.12095 
L 225.986609 386.242153 
L 231.054218 380.998565 
L 236.121826 374.047293 
L 241.189435 365.011662 
L 246.257043 353.496574 
L 251.324652 339.110249 
L 256.39226 321.491776 
L 261.459869 300.342888 
L 266.527477 275.461434 
L 271.595085 246.773168 
L 276.662694 214.358029 
L 281.730302 178.467103 
L 286.797911 139.527072 
L 291.865519 98.130154 
L 296.933128 55.009169 
L 302.000736 10.999219 
L 307.068345 55.009169 
L 312.135953 98.130154 
L 317.203562 139.527072 
L 322.27117 178.467103 
L 327.338779 214.358029 
L 332.406387 246.773168 
L 337.473996 275.461434 
L 342.541604 300.342888 
L 347.609213 321.491776 
L 352.676821 339.110249 
L 357.74443 353.496574 
L 362.812038 365.011662 
L 367.879647 374.047293 
L 372.947255 380.998565 
L 378.014863 386.242153 
L 383.082472 390.12095 
L 388.15008 392.934916 
L 393.217689 394.937288 
L 398.285297 396.335033 
L 403.352906 397.292278 
L 408.420514 397.93554 
L 413.488123 398.359751 
L 418.555731 398.634326 
L 423.62334 398.808785 
L 428.690948 398.917613 
L 433.758557 398.984272 
L 438.826165 399.02437 
L 443.893774 399.048062 
L 448.961382 399.061813 
L 454.028991 399.069655 
L 459.096599 399.07405 
L 464.164208 399.076471 
L 469.231816 399.077781 
L 474.299425 399.078479 
L 479.367033 399.078844 
L 484.434641 399.079032 
L 489.50225 399.079127 
L 494.569858 399.079174 
L 499.637467 399.079198 
L 504.705075 399.079209 
L 509.772684 399.079214 
L 514.840292 399.079217 
L 519.907901 399.079218 
L 524.975509 399.079218 
L 530.043118 399.079219 
L 535.110726 399.079219 
L 540.178335 399.079219 
L 545.245943 399.079219 
L 550.313552 399.079219 
" style="fill:none;stroke:#0000f1;stroke-linecap:square;stroke-width:1.5;"/>
   </g>
   <g id="line2d_14">
    <path clip-path="url(#p857b280664)" d="M 48.620313 399.078807 
L 53.687921 399.078702 
L 58.755529 399.078472 
L 63.823138 399.078066 
L 68.890746 399.077401 
L 73.958355 399.076347 
L 79.025963 399.074701 
L 84.093572 399.072164 
L 89.16118 399.068293 
L 94.228789 399.062443 
L 99.296397 399.053688 
L 104.364006 399.040706 
L 109.431614 399.021637 
L 114.499223 398.99389 
L 119.566831 398.953895 
L 124.63444 398.896792 
L 129.702048 398.816033 
L 134.769657 398.702904 
L 139.837265 398.545939 
L 144.904874 398.330233 
L 149.972482 398.036647 
L 155.040091 397.6409 
L 160.107699 397.112585 
L 165.175307 396.41411 
L 170.242916 395.499616 
L 175.310524 394.313925 
L 180.378133 392.791579 
L 185.445741 390.856069 
L 190.51335 388.419333 
L 195.580958 385.381647 
L 200.648567 381.632007 
L 205.716175 377.04911 
L 210.783784 371.503035 
L 215.851392 364.85767 
L 220.919001 356.973942 
L 225.986609 347.713814 
L 231.054218 336.944993 
L 236.121826 324.546224 
L 241.189435 310.412964 
L 246.257043 294.463219 
L 251.324652 276.643219 
L 256.39226 256.932642 
L 261.459869 235.349019 
L 266.527477 211.951018 
L 271.595085 186.840303 
L 276.662694 160.161752 
L 281.730302 132.101886 
L 286.797911 102.885472 
L 291.865519 72.770362 
L 296.933128 42.040764 
L 302.000736 10.999219 
L 307.068345 42.040764 
L 312.135953 72.770362 
L 317.203562 102.885472 
L 322.27117 132.101886 
L 327.338779 160.161752 
L 332.406387 186.840303 
L 337.473996 211.951018 
L 342.541604 235.349019 
L 347.609213 256.932642 
L 352.676821 276.643219 
L 357.74443 294.463219 
L 362.812038 310.412964 
L 367.879647 324.546224 
L 372.947255 336.944993 
L 378.014863 347.713814 
L 383.082472 356.973942 
L 388.15008 364.85767 
L 393.217689 371.503035 
L 398.285297 377.04911 
L 403.352906 381.632007 
L 408.420514 385.381647 
L 413.488123 388.419333 
L 418.555731 390.856069 
L 423.62334 392.791579 
L 428.690948 394.313925 
L 433.758557 395.499616 
L 438.826165 396.41411 
L 443.893774 397.112585 
L 448.961382 397.6409 
L 454.028991 398.036647 
L 459.096599 398.330233 
L 464.164208 398.545939 
L 469.231816 398.702904 
L 474.299425 398.816033 
L 479.367033 398.896792 
L 484.434641 398.953895 
L 489.50225 398.99389 
L 494.569858 399.021636 
L 499.637467 399.040705 
L 504.705075 399.053686 
L 509.772684 399.062441 
L 514.840292 399.068288 
L 519.907901 399.072157 
L 524.975509 399.074688 
L 530.043118 399.076325 
L 535.110726 399.077365 
L 540.178335 399.078005 
L 545.245943 399.078372 
L 550.313552 399.078537 
" style="fill:none;stroke:#004cff;stroke-linecap:square;stroke-width:1.5;"/>
   </g>
   <g id="line2d_15">
    <path clip-path="url(#p857b280664)" d="M 48.620313 399.04886 
L 53.687921 399.045303 
L 58.755529 399.037861 
L 63.823138 399.025863 
L 68.890746 399.008247 
L 73.958355 398.983501 
L 79.025963 398.949572 
L 84.093572 398.903758 
L 89.16118 398.842567 
L 94.228789 398.761548 
L 99.296397 398.655088 
L 104.364006 398.516187 
L 109.431614 398.336186 
L 114.499223 398.104472 
L 119.566831 397.808146 
L 124.63444 397.431672 
L 129.702048 396.956496 
L 134.769657 396.360657 
L 139.837265 395.618398 
L 144.904874 394.699786 
L 149.972482 393.570364 
L 155.040091 392.190861 
L 160.107699 390.51696 
L 165.175307 388.499185 
L 170.242916 386.082896 
L 175.310524 383.208446 
L 180.378133 379.811514 
L 185.445741 375.82363 
L 190.51335 371.172927 
L 195.580958 365.785118 
L 200.648567 359.584705 
L 205.716175 352.496419 
L 210.783784 344.446871 
L 215.851392 335.366386 
L 220.919001 325.190985 
L 225.986609 313.864453 
L 231.054218 301.340451 
L 236.121826 287.584575 
L 241.189435 272.576311 
L 246.257043 256.310782 
L 251.324652 238.80023 
L 256.39226 220.075136 
L 261.459869 200.184923 
L 266.527477 179.198186 
L 271.595085 157.202398 
L 276.662694 134.303096 
L 281.730302 110.622514 
L 286.797911 86.297715 
L 291.865519 61.478253 
L 296.933128 36.323426 
L 302.000736 10.999219 
L 307.068345 36.323426 
L 312.135953 61.478253 
L 317.203562 86.297715 
L 322.27117 110.622514 
L 327.338779 134.303096 
L 332.406387 157.202398 
L 337.473996 179.198186 
L 342.541604 200.184923 
L 347.609213 220.075136 
L 352.676821 238.80023 
L 357.74443 256.310782 
L 362.812038 272.576311 
L 367.879647 287.584575 
L 372.947255 301.340451 
L 378.014863 313.864453 
L 383.082472 325.190985 
L 388.15008 335.366386 
L 393.217689 344.446871 
L 398.285297 352.496419 
L 403.352906 359.584705 
L 408.420514 365.785118 
L 413.488123 371.172927 
L 418.555731 375.82363 
L 423.62334 379.811514 
L 428.690948 383.208446 
L 433.758557 386.082895 
L 438.826165 388.499183 
L 443.893774 390.516958 
L 448.961382 392.190857 
L 454.028991 393.570359 
L 459.096599 394.699778 
L 464.164208 395.618386 
L 469.231816 396.360639 
L 474.299425 396.956467 
L 479.367033 397.431627 
L 484.434641 397.808078 
L 489.50225 398.104369 
L 494.569858 398.336032 
L 499.637467 398.515957 
L 504.705075 398.654747 
L 509.772684 398.761044 
L 514.840292 398.841829 
L 519.907901 398.902682 
L 524.975509 398.948013 
L 530.043118 398.981258 
L 535.110726 399.005041 
L 540.178335 399.021308 
L 545.245943 399.031429 
L 550.313552 399.036278 
" style="fill:none;stroke:#00b0ff;stroke-linecap:square;stroke-width:1.5;"/>
   </g>
   <g id="line2d_16">
    <path clip-path="url(#p857b280664)" d="M 48.620313 398.79886 
L 53.687921 398.779923 
L 58.755529 398.741133 
L 63.823138 398.680636 
L 68.890746 398.59559 
L 73.958355 398.4821 
L 79.025963 398.335126 
L 84.093572 398.148368 
L 89.16118 397.914141 
L 94.228789 397.623225 
L 99.296397 397.264702 
L 104.364006 396.825789 
L 109.431614 396.291657 
L 114.499223 395.645253 
L 119.566831 394.867124 
L 124.63444 393.935262 
L 129.702048 392.824954 
L 134.769657 391.508677 
L 139.837265 389.956014 
L 144.904874 388.133633 
L 149.972482 386.005312 
L 155.040091 383.532035 
L 160.107699 380.672166 
L 165.175307 377.381703 
L 170.242916 373.614624 
L 175.310524 369.323331 
L 180.378133 364.45919 
L 185.445741 358.973164 
L 190.51335 352.816553 
L 195.580958 345.941804 
L 200.648567 338.303412 
L 205.716175 329.858871 
L 210.783784 320.569679 
L 215.851392 310.402352 
L 220.919001 299.329447 
L 225.986609 287.330549 
L 231.054218 274.3932 
L 236.121826 260.513737 
L 241.189435 245.698023 
L 246.257043 229.962018 
L 251.324652 213.332195 
L 256.39226 195.845752 
L 261.459869 177.550623 
L 266.527477 158.505265 
L 271.595085 138.77822 
L 276.662694 118.447451 
L 281.730302 97.599466 
L 286.797911 76.328234 
L 291.865519 54.733928 
L 296.933128 32.921514 
L 302.000736 10.999219 
L 307.068345 32.921514 
L 312.135953 54.733928 
L 317.203562 76.328234 
L 322.27117 97.599466 
L 327.338779 118.447451 
L 332.406387 138.77822 
L 337.473996 158.505265 
L 342.541604 177.550622 
L 347.609213 195.845751 
L 352.676821 213.332195 
L 357.74443 229.962018 
L 362.812038 245.698023 
L 367.879647 260.513737 
L 372.947255 274.393199 
L 378.014863 287.330549 
L 383.082472 299.329446 
L 388.15008 310.40235 
L 393.217689 320.569676 
L 398.285297 329.858867 
L 403.352906 338.303406 
L 408.420514 345.941795 
L 413.488123 352.81654 
L 418.555731 358.973146 
L 423.62334 364.459163 
L 428.690948 369.323293 
L 433.758557 373.614569 
L 438.826165 377.381624 
L 443.893774 380.672054 
L 448.961382 383.531875 
L 454.028991 386.005086 
L 459.096599 388.133315 
L 464.164208 389.955569 
L 469.231816 391.508055 
L 474.299425 392.824092 
L 479.367033 393.93407 
L 484.434641 394.865485 
L 489.50225 395.643009 
L 494.569858 396.288603 
L 499.637467 396.821649 
L 504.705075 397.259118 
L 509.772684 397.615728 
L 514.840292 397.904126 
L 519.907901 398.135054 
L 524.975509 398.31751 
L 530.043118 398.458906 
L 535.110726 398.565197 
L 540.178335 398.641004 
L 545.245943 398.689704 
L 550.313552 398.713507 
" style="fill:none;stroke:#29ffce;stroke-linecap:square;stroke-width:1.5;"/>
   </g>
   <g id="line2d_17">
    <path clip-path="url(#p857b280664)" d="M 48.620313 397.983882 
L 53.687921 397.935655 
L 58.755529 397.837818 
L 63.823138 397.687589 
L 68.890746 397.480765 
L 73.958355 397.211683 
L 79.025963 396.873172 
L 84.093572 396.456496 
L 89.16118 395.951295 
L 94.228789 395.345519 
L 99.296397 394.62536 
L 104.364006 393.775195 
L 109.431614 392.777533 
L 114.499223 391.61297 
L 119.566831 390.260171 
L 124.63444 388.695865 
L 129.702048 386.894867 
L 134.769657 384.830141 
L 139.837265 382.472883 
L 144.904874 379.792658 
L 149.972482 376.757573 
L 155.040091 373.334499 
L 160.107699 369.48934 
L 165.175307 365.187352 
L 170.242916 360.393512 
L 175.310524 355.072935 
L 180.378133 349.191331 
L 185.445741 342.715509 
L 190.51335 335.613912 
L 195.580958 327.857173 
L 200.648567 319.418699 
L 205.716175 310.275253 
L 210.783784 300.407535 
L 215.851392 289.800744 
L 220.919001 278.445113 
L 225.986609 266.336398 
L 231.054218 253.476307 
L 236.121826 239.872867 
L 241.189435 225.540699 
L 246.257043 210.501212 
L 251.324652 194.782683 
L 256.39226 178.420237 
L 261.459869 161.455713 
L 266.527477 143.937411 
L 271.595085 125.919723 
L 276.662694 107.46266 
L 281.730302 88.631267 
L 286.797911 69.494944 
L 291.865519 50.126682 
L 296.933128 30.602233 
L 302.000736 10.999219 
L 307.068345 30.602233 
L 312.135953 50.126682 
L 317.203562 69.494943 
L 322.27117 88.631267 
L 327.338779 107.46266 
L 332.406387 125.919722 
L 337.473996 143.93741 
L 342.541604 161.455712 
L 347.609213 178.420234 
L 352.676821 194.782678 
L 357.74443 210.501206 
L 362.812038 225.540691 
L 367.879647 239.872855 
L 372.947255 253.476291 
L 378.014863 266.336375 
L 383.082472 278.445081 
L 388.15008 289.8007 
L 393.217689 300.407473 
L 398.285297 310.275169 
L 403.352906 319.418583 
L 408.420514 327.857014 
L 413.488123 335.613696 
L 418.555731 342.715216 
L 423.62334 349.190934 
L 428.690948 355.0724 
L 433.758557 360.392794 
L 438.826165 365.186391 
L 443.893774 369.48806 
L 448.961382 373.3328 
L 454.028991 376.755327 
L 459.096599 379.7897 
L 464.164208 382.469002 
L 469.231816 384.825069 
L 474.299425 386.888264 
L 479.367033 388.687301 
L 484.434641 390.249109 
L 489.50225 391.598736 
L 494.569858 392.759288 
L 499.637467 393.7519 
L 504.705075 394.595733 
L 509.772684 395.307985 
L 514.840292 395.903931 
L 519.907901 396.396958 
L 524.975509 396.798625 
L 530.043118 397.118708 
L 535.110726 397.36526 
L 540.178335 397.544657 
L 545.245943 397.661639 
L 550.313552 397.719348 
" style="fill:none;stroke:#7dff7a;stroke-linecap:square;stroke-width:1.5;"/>
   </g>
   <g id="line2d_18">
    <path clip-path="url(#p857b280664)" d="M 48.620313 396.319362 
L 53.687921 396.233653 
L 58.755529 396.060666 
L 63.823138 395.79726 
L 68.890746 395.43872 
L 73.958355 394.97875 
L 79.025963 394.409467 
L 84.093572 393.721401 
L 89.16118 392.90349 
L 94.228789 391.943085 
L 99.296397 390.825964 
L 104.364006 389.536351 
L 109.431614 388.056947 
L 114.499223 386.368981 
L 119.566831 384.452272 
L 124.63444 382.285312 
L 129.702048 379.845374 
L 134.769657 377.108637 
L 139.837265 374.050343 
L 144.904874 370.644975 
L 149.972482 366.866465 
L 155.040091 362.688428 
L 160.107699 358.084424 
L 165.175307 353.028243 
L 170.242916 347.494216 
L 175.310524 341.457545 
L 180.378133 334.894654 
L 185.445741 327.783545 
L 190.51335 320.104174 
L 195.580958 311.83882 
L 200.648567 302.972455 
L 205.716175 293.493105 
L 210.783784 283.392193 
L 215.851392 272.66486 
L 220.919001 261.310249 
L 225.986609 249.331766 
L 231.054218 236.737277 
L 236.121826 223.539276 
L 241.189435 209.75498 
L 246.257043 195.406375 
L 251.324652 180.520194 
L 256.39226 165.127834 
L 261.459869 149.265196 
L 266.527477 132.972473 
L 271.595085 116.29386 
L 276.662694 99.27721 
L 281.730302 81.973631 
L 286.797911 64.437023 
L 291.865519 46.723586 
L 296.933128 28.891271 
L 302.000736 10.999219 
L 307.068345 28.89127 
L 312.135953 46.723583 
L 317.203562 64.437018 
L 322.27117 81.973623 
L 327.338779 99.277199 
L 332.406387 116.293844 
L 337.473996 132.972452 
L 342.541604 149.265167 
L 347.609213 165.127795 
L 352.676821 180.520142 
L 357.74443 195.406305 
L 362.812038 209.754886 
L 367.879647 223.539151 
L 372.947255 236.73711 
L 378.014863 249.331544 
L 383.082472 261.309957 
L 388.15008 272.664474 
L 393.217689 283.391688 
L 398.285297 293.492443 
L 403.352906 302.971591 
L 408.420514 311.837697 
L 413.488123 320.102719 
L 418.555731 327.781665 
L 423.62334 334.892232 
L 428.690948 341.454437 
L 433.758557 347.490238 
L 438.826165 353.023169 
L 443.893774 358.077974 
L 448.961382 362.680256 
L 454.028991 366.856143 
L 459.096599 370.631981 
L 464.164208 374.034038 
L 469.231816 377.088244 
L 474.299425 379.81995 
L 479.367033 382.253721 
L 484.434641 384.413144 
L 489.50225 386.320678 
L 494.569858 387.997512 
L 499.637467 389.463457 
L 504.705075 390.736856 
L 509.772684 391.834512 
L 514.840292 392.771634 
L 519.907901 393.561794 
L 524.975509 394.216902 
L 530.043118 394.747182 
L 535.110726 395.161165 
L 540.178335 395.465677 
L 545.245943 395.66584 
L 550.313552 395.765068 
" style="fill:none;stroke:#ceff29;stroke-linecap:square;stroke-width:1.5;"/>
   </g>
   <g id="line2d_19">
    <path clip-path="url(#p857b280664)" d="M 48.620313 393.686043 
L 53.687921 393.561258 
L 58.755529 393.310159 
L 63.823138 392.929697 
L 68.890746 392.415306 
L 73.958355 391.760924 
L 79.025963 390.959013 
L 84.093572 390.000584 
L 89.16118 388.875235 
L 94.228789 387.571194 
L 99.296397 386.075374 
L 104.364006 384.373435 
L 109.431614 382.449861 
L 114.499223 380.288052 
L 119.566831 377.87042 
L 124.63444 375.178516 
L 129.702048 372.193152 
L 134.769657 368.894562 
L 139.837265 365.262556 
L 144.904874 361.276706 
L 149.972482 356.916543 
L 155.040091 352.161763 
L 160.107699 346.992456 
L 165.175307 341.389338 
L 170.242916 335.333997 
L 175.310524 328.809146 
L 180.378133 321.798882 
L 185.445741 314.288938 
L 190.51335 306.266946 
L 195.580958 297.722685 
L 200.648567 288.648319 
L 205.716175 279.03863 
L 210.783784 268.891222 
L 215.851392 258.206708 
L 220.919001 246.98888 
L 225.986609 235.244832 
L 231.054218 222.985066 
L 236.121826 210.223556 
L 241.189435 196.977772 
L 246.257043 183.268669 
L 251.324652 169.12063 
L 256.39226 154.561372 
L 261.459869 139.621802 
L 266.527477 124.335842 
L 271.595085 108.740204 
L 276.662694 92.874138 
L 281.730302 76.779134 
L 286.797911 60.498601 
L 291.865519 44.077519 
L 296.933128 27.562064 
L 302.000736 10.999219 
L 307.068345 27.562051 
L 312.135953 44.077493 
L 317.203562 60.498559 
L 322.27117 76.779074 
L 327.338779 92.874056 
L 332.406387 108.740094 
L 337.473996 124.335696 
L 342.541604 139.621611 
L 347.609213 154.561123 
L 352.676821 169.120307 
L 357.74443 183.268252 
L 362.812038 196.977236 
L 367.879647 210.222868 
L 372.947255 222.984187 
L 378.014863 235.243712 
L 383.082472 246.987456 
L 388.15008 258.204904 
L 393.217689 268.888941 
L 398.285297 279.035756 
L 403.352906 288.644707 
L 408.420514 297.718158 
L 413.488123 306.261288 
L 418.555731 314.281887 
L 423.62334 321.790119 
L 428.690948 328.798286 
L 433.758557 335.320575 
L 438.826165 341.372797 
L 443.893774 346.972129 
L 448.961382 352.136852 
L 454.028991 356.8861 
L 459.096599 361.239607 
L 464.164208 365.217472 
L 469.231816 368.839929 
L 474.299425 372.127134 
L 479.367033 375.098963 
L 484.434641 377.774829 
L 489.50225 380.173511 
L 494.569858 382.313001 
L 499.637467 384.210365 
L 504.705075 385.881625 
L 509.772684 387.341642 
L 514.840292 388.60403 
L 519.907901 389.681073 
L 524.975509 390.583654 
L 530.043118 391.321201 
L 535.110726 391.901636 
L 540.178335 392.331342 
L 545.245943 392.61513 
L 550.313552 392.756217 
" style="fill:none;stroke:#ffc400;stroke-linecap:square;stroke-width:1.5;"/>
   </g>
   <g id="line2d_20">
    <path clip-path="url(#p857b280664)" d="M 48.620313 390.10431 
L 53.687921 389.943254 
L 58.755529 389.619782 
L 63.823138 389.131182 
L 68.890746 388.473406 
L 73.958355 387.641096 
L 79.025963 386.627616 
L 84.093572 385.425094 
L 89.16118 384.024474 
L 94.228789 382.415574 
L 99.296397 380.587163 
L 104.364006 378.527032 
L 109.431614 376.222095 
L 114.499223 373.658481 
L 119.566831 370.821655 
L 124.63444 367.696534 
L 129.702048 364.267625 
L 134.769657 360.519166 
L 139.837265 356.435283 
L 144.904874 352.000149 
L 149.972482 347.198157 
L 155.040091 342.014098 
L 160.107699 336.433345 
L 165.175307 330.442041 
L 170.242916 324.027291 
L 175.310524 317.177352 
L 180.378133 309.881827 
L 185.445741 302.131845 
L 190.51335 293.920248 
L 195.580958 285.241761 
L 200.648567 276.093151 
L 205.716175 266.473378 
L 210.783784 256.383726 
L 215.851392 245.827913 
L 220.919001 234.812191 
L 225.986609 223.34541 
L 231.054218 211.439066 
L 236.121826 199.107326 
L 241.189435 186.367013 
L 246.257043 173.23758 
L 251.324652 159.741042 
L 256.39226 145.901888 
L 261.459869 131.746959 
L 266.527477 117.305304 
L 271.595085 102.608008 
L 276.662694 87.687996 
L 281.730302 72.579814 
L 286.797911 57.319388 
L 291.865519 41.943775 
L 296.933128 26.490888 
L 302.000736 10.999219 
L 307.068345 26.490828 
L 312.135953 41.943652 
L 317.203562 57.319195 
L 322.27117 72.57954 
L 327.338779 87.687627 
L 332.406387 102.607525 
L 337.473996 117.304681 
L 342.541604 131.746166 
L 347.609213 145.900886 
L 352.676821 159.739782 
L 357.74443 173.236001 
L 362.812038 186.365042 
L 367.879647 199.104874 
L 372.947255 211.436024 
L 378.014863 223.341646 
L 383.082472 234.807546 
L 388.15008 245.822195 
L 393.217689 256.376704 
L 398.285297 266.464778 
L 403.352906 276.082643 
L 408.420514 285.228953 
L 413.488123 293.904676 
L 418.555731 302.112959 
L 423.62334 309.858978 
L 428.690948 317.149777 
L 433.758557 323.994093 
L 438.826165 330.402173 
L 443.893774 336.385585 
L 448.961382 341.957024 
L 454.028991 347.130121 
L 459.096599 351.919245 
L 464.164208 356.339314 
L 469.231816 360.405608 
L 474.299425 364.133586 
L 479.367033 367.53871 
L 484.434641 370.636286 
L 489.50225 373.441297 
L 494.569858 375.968263 
L 499.637467 378.231104 
L 504.705075 380.243009 
L 509.772684 382.016327 
L 514.840292 383.562459 
L 519.907901 384.891769 
L 524.975509 386.013498 
L 530.043118 386.935698 
L 535.110726 387.665169 
L 540.178335 388.20741 
L 545.245943 388.566578 
L 550.313552 388.745463 
" style="fill:none;stroke:#ff6800;stroke-linecap:square;stroke-width:1.5;"/>
   </g>
   <g id="line2d_21">
    <path clip-path="url(#p857b280664)" d="M 48.620313 385.675078 
L 53.687921 385.482702 
L 58.755529 385.096808 
L 63.823138 384.515122 
L 68.890746 383.734254 
L 73.958355 382.74973 
L 79.025963 381.55602 
L 84.093572 380.146593 
L 89.16118 378.513964 
L 94.228789 376.649759 
L 99.296397 374.544792 
L 104.364006 372.18914 
L 109.431614 369.572238 
L 114.499223 366.682973 
L 119.566831 363.509794 
L 124.63444 360.040826 
L 129.702048 356.26399 
L 134.769657 352.167134 
L 139.837265 347.738165 
L 144.904874 342.965188 
L 149.972482 337.836653 
L 155.040091 332.341499 
L 160.107699 326.469305 
L 165.175307 320.210435 
L 170.242916 313.556192 
L 175.310524 306.49896 
L 180.378133 299.032352 
L 185.445741 291.151339 
L 190.51335 282.852388 
L 195.580958 274.133578 
L 200.648567 264.994714 
L 205.716175 255.437424 
L 210.783784 245.465247 
L 215.851392 235.0837 
L 220.919001 224.300336 
L 225.986609 213.12478 
L 231.054218 201.568745 
L 236.121826 189.646035 
L 241.189435 177.372523 
L 246.257043 164.766112 
L 251.324652 151.846672 
L 256.39226 138.635962 
L 261.459869 125.157532 
L 266.527477 111.436601 
L 271.595085 97.49992 
L 276.662694 83.375627 
L 281.730302 69.093068 
L 286.797911 54.682627 
L 291.865519 40.175526 
L 296.933128 25.603626 
L 302.000736 10.999219 
L 307.068345 25.603427 
L 312.135953 40.175119 
L 317.203562 54.681995 
L 322.27117 69.092185 
L 327.338779 83.374456 
L 332.406387 97.498414 
L 337.473996 111.434698 
L 342.541604 125.155159 
L 347.609213 138.633025 
L 352.676821 151.84306 
L 357.74443 164.76169 
L 362.812038 177.36713 
L 367.879647 189.639478 
L 372.947255 201.560796 
L 378.014863 213.115168 
L 383.082472 224.288742 
L 388.15008 235.069747 
L 393.217689 245.448494 
L 398.285297 255.417356 
L 403.352906 264.970728 
L 408.420514 274.104973 
L 413.488123 282.81835 
L 418.555731 291.110925 
L 423.62334 298.984472 
L 428.690948 306.442361 
L 433.758557 313.489432 
L 438.826165 320.131864 
L 443.893774 326.377036 
L 448.961382 332.233383 
L 454.028991 337.710246 
L 459.096599 342.817719 
L 464.164208 347.566504 
L 469.231816 351.967752 
L 474.299425 356.03292 
L 479.367033 359.77362 
L 484.434641 363.201482 
L 489.50225 366.328014 
L 494.569858 369.164475 
L 499.637467 371.72175 
L 504.705075 374.010236 
L 509.772684 376.039733 
L 514.840292 377.819347 
L 519.907901 379.3574 
L 524.975509 380.661353 
L 530.043118 381.737729 
L 535.110726 382.592059 
L 540.178335 383.228829 
L 545.245943 383.651437 
L 550.313552 383.862168 
" style="fill:none;stroke:#f10800;stroke-linecap:square;stroke-width:1.5;"/>
   </g>
   <g id="line2d_22">
    <path clip-path="url(#p857b280664)" d="M 48.620313 380.532474 
L 53.687921 380.314371 
L 58.755529 379.877246 
L 63.823138 379.219273 
L 68.890746 378.337732 
L 73.958355 377.229039 
L 79.025963 375.888778 
L 84.093572 374.311744 
L 89.16118 372.491995 
L 94.228789 370.422911 
L 99.296397 368.097263 
L 104.364006 365.507281 
L 109.431614 362.644745 
L 114.499223 359.501065 
L 119.566831 356.06738 
L 124.63444 352.334657 
L 129.702048 348.293798 
L 134.769657 343.935747 
L 139.837265 339.251605 
L 144.904874 334.232747 
L 149.972482 328.870938 
L 155.040091 323.158455 
L 160.107699 317.088204 
L 165.175307 310.65384 
L 170.242916 303.849882 
L 175.310524 296.671823 
L 180.378133 289.116244 
L 185.445741 281.18091 
L 190.51335 272.864869 
L 195.580958 264.16854 
L 200.648567 255.093789 
L 205.716175 245.643997 
L 210.783784 235.824121 
L 215.851392 225.640733 
L 220.919001 215.102057 
L 225.986609 204.217986 
L 231.054218 193.000083 
L 236.121826 181.461578 
L 241.189435 169.617334 
L 246.257043 157.483816 
L 251.324652 145.079031 
L 256.39226 132.422461 
L 261.459869 119.53498 
L 266.527477 106.438757 
L 271.595085 93.157147 
L 276.662694 79.71457 
L 281.730302 66.136383 
L 286.797911 52.448732 
L 291.865519 38.678412 
L 296.933128 24.852704 
L 302.000736 10.999219 
L 307.068345 24.852191 
L 312.135953 38.67737 
L 317.203562 52.447125 
L 322.27117 66.134158 
L 327.338779 79.711654 
L 332.406387 93.153443 
L 337.473996 106.434147 
L 342.541604 119.529318 
L 347.609213 132.415571 
L 352.676821 145.070702 
L 357.74443 157.473798 
L 362.812038 169.605334 
L 367.879647 181.447251 
L 372.947255 192.983029 
L 378.014863 204.197736 
L 383.082472 215.078072 
L 388.15008 225.612386 
L 393.217689 235.790692 
L 398.285297 245.604659 
L 403.352906 255.047591 
L 408.420514 264.114397 
L 413.488123 272.801542 
L 418.555731 281.106988 
L 423.62334 289.030129 
L 428.690948 296.571702 
L 433.758557 303.733709 
L 438.826165 310.519309 
L 443.893774 316.932722 
L 448.961382 322.979116 
L 454.028991 328.664493 
L 459.096599 333.99557 
L 464.164208 338.979661 
L 469.231816 343.624559 
L 474.299425 347.938408 
L 479.367033 351.929593 
L 484.434641 355.606614 
L 489.50225 358.977978 
L 494.569858 362.052087 
L 499.637467 364.837134 
L 504.705075 367.340999 
L 509.772684 369.571161 
L 514.840292 371.534608 
L 519.907901 373.237758 
L 524.975509 374.68639 
L 530.043118 375.885574 
L 535.110726 376.839623 
L 540.178335 377.552042 
L 545.245943 378.025495 
L 550.313552 378.261771 
" style="fill:none;stroke:#800000;stroke-linecap:square;stroke-width:1.5;"/>
   </g>
   <g id="patch_3">
    <path d="M 48.620313 399.079219 
L 48.620313 10.999219 
" style="fill:none;stroke:#000000;stroke-linecap:square;stroke-linejoin:miter;stroke-width:0.8;"/>
   </g>
   <g id="patch_4">
    <path d="M 550.820312 399.079219 
L 550.820312 10.999219 
" style="fill:none;stroke:#000000;stroke-linecap:square;stroke-linejoin:miter;stroke-width:0.8;"/>
   </g>
   <g id="patch_5">
    <path d="M 48.620313 399.079219 
L 550.820312 399.079219 
" style="fill:none;stroke:#000000;stroke-linecap:square;stroke-linejoin:miter;stroke-width:0.8;"/>
   </g>
   <g id="patch_6">
    <path d="M 48.620313 10.999219 
L 550.820312 10.999219 
" style="fill:none;stroke:#000000;stroke-linecap:square;stroke-linejoin:miter;stroke-width:0.8;"/>
   </g>
   <g id="legend_1">
    <g id="patch_7">
     <path d="M 499.095312 180.458594 
L 543.820312 180.458594 
Q 545.820312 180.458594 545.820312 178.458594 
L 545.820312 17.999219 
Q 545.820312 15.999219 543.820312 15.999219 
L 499.095312 15.999219 
Q 497.095312 15.999219 497.095312 17.999219 
L 497.095312 178.458594 
Q 497.095312 180.458594 499.095312 180.458594 
z
" style="fill:#ffffff;opacity:0.8;stroke:#cccccc;stroke-linejoin:miter;"/>
    </g>
    <g id="line2d_23">
     <path d="M 501.095312 24.097656 
L 521.095312 24.097656 
" style="fill:none;stroke:#000080;stroke-linecap:square;stroke-width:1.5;"/>
    </g>
    <g id="line2d_24"/>
    <g id="text_14">
     <!-- 0 -->
     <g transform="translate(529.095312 27.597656)scale(0.1 -0.1)">
      <use xlink:href="#DejaVuSans-48"/>
     </g>
    </g>
    <g id="line2d_25">
     <path d="M 501.095312 38.775781 
L 521.095312 38.775781 
" style="fill:none;stroke:#0000f1;stroke-linecap:square;stroke-width:1.5;"/>
    </g>
    <g id="line2d_26"/>
    <g id="text_15">
     <!-- 5 -->
     <defs>
      <path d="M 10.796875 72.90625 
L 49.515625 72.90625 
L 49.515625 64.59375 
L 19.828125 64.59375 
L 19.828125 46.734375 
Q 21.96875 47.46875 24.109375 47.828125 
Q 26.265625 48.1875 28.421875 48.1875 
Q 40.625 48.1875 47.75 41.5 
Q 54.890625 34.8125 54.890625 23.390625 
Q 54.890625 11.625 47.5625 5.09375 
Q 40.234375 -1.421875 26.90625 -1.421875 
Q 22.3125 -1.421875 17.546875 -0.640625 
Q 12.796875 0.140625 7.71875 1.703125 
L 7.71875 11.625 
Q 12.109375 9.234375 16.796875 8.0625 
Q 21.484375 6.890625 26.703125 6.890625 
Q 35.15625 6.890625 40.078125 11.328125 
Q 45.015625 15.765625 45.015625 23.390625 
Q 45.015625 31 40.078125 35.4375 
Q 35.15625 39.890625 26.703125 39.890625 
Q 22.75 39.890625 18.8125 39.015625 
Q 14.890625 38.140625 10.796875 36.28125 
z
" id="DejaVuSans-53"/>
     </defs>
     <g transform="translate(529.095312 42.275781)scale(0.1 -0.1)">
      <use xlink:href="#DejaVuSans-53"/>
     </g>
    </g>
    <g id="line2d_27">
     <path d="M 501.095312 53.453906 
L 521.095312 53.453906 
" style="fill:none;stroke:#004cff;stroke-linecap:square;stroke-width:1.5;"/>
    </g>
    <g id="line2d_28"/>
    <g id="text_16">
     <!-- 10 -->
     <g transform="translate(529.095312 56.953906)scale(0.1 -0.1)">
      <use xlink:href="#DejaVuSans-49"/>
      <use x="63.623047" xlink:href="#DejaVuSans-48"/>
     </g>
    </g>
    <g id="line2d_29">
     <path d="M 501.095312 68.132031 
L 521.095312 68.132031 
" style="fill:none;stroke:#00b0ff;stroke-linecap:square;stroke-width:1.5;"/>
    </g>
    <g id="line2d_30"/>
    <g id="text_17">
     <!-- 15 -->
     <g transform="translate(529.095312 71.632031)scale(0.1 -0.1)">
      <use xlink:href="#DejaVuSans-49"/>
      <use x="63.623047" xlink:href="#DejaVuSans-53"/>
     </g>
    </g>
    <g id="line2d_31">
     <path d="M 501.095312 82.810156 
L 521.095312 82.810156 
" style="fill:none;stroke:#29ffce;stroke-linecap:square;stroke-width:1.5;"/>
    </g>
    <g id="line2d_32"/>
    <g id="text_18">
     <!-- 20 -->
     <g transform="translate(529.095312 86.310156)scale(0.1 -0.1)">
      <use xlink:href="#DejaVuSans-50"/>
      <use x="63.623047" xlink:href="#DejaVuSans-48"/>
     </g>
    </g>
    <g id="line2d_33">
     <path d="M 501.095312 97.488281 
L 521.095312 97.488281 
" style="fill:none;stroke:#7dff7a;stroke-linecap:square;stroke-width:1.5;"/>
    </g>
    <g id="line2d_34"/>
    <g id="text_19">
     <!-- 25 -->
     <g transform="translate(529.095312 100.988281)scale(0.1 -0.1)">
      <use xlink:href="#DejaVuSans-50"/>
      <use x="63.623047" xlink:href="#DejaVuSans-53"/>
     </g>
    </g>
    <g id="line2d_35">
     <path d="M 501.095312 112.166406 
L 521.095312 112.166406 
" style="fill:none;stroke:#ceff29;stroke-linecap:square;stroke-width:1.5;"/>
    </g>
    <g id="line2d_36"/>
    <g id="text_20">
     <!-- 30 -->
     <defs>
      <path d="M 40.578125 39.3125 
Q 47.65625 37.796875 51.625 33 
Q 55.609375 28.21875 55.609375 21.1875 
Q 55.609375 10.40625 48.1875 4.484375 
Q 40.765625 -1.421875 27.09375 -1.421875 
Q 22.515625 -1.421875 17.65625 -0.515625 
Q 12.796875 0.390625 7.625 2.203125 
L 7.625 11.71875 
Q 11.71875 9.328125 16.59375 8.109375 
Q 21.484375 6.890625 26.8125 6.890625 
Q 36.078125 6.890625 40.9375 10.546875 
Q 45.796875 14.203125 45.796875 21.1875 
Q 45.796875 27.640625 41.28125 31.265625 
Q 36.765625 34.90625 28.71875 34.90625 
L 20.21875 34.90625 
L 20.21875 43.015625 
L 29.109375 43.015625 
Q 36.375 43.015625 40.234375 45.921875 
Q 44.09375 48.828125 44.09375 54.296875 
Q 44.09375 59.90625 40.109375 62.90625 
Q 36.140625 65.921875 28.71875 65.921875 
Q 24.65625 65.921875 20.015625 65.03125 
Q 15.375 64.15625 9.8125 62.3125 
L 9.8125 71.09375 
Q 15.4375 72.65625 20.34375 73.4375 
Q 25.25 74.21875 29.59375 74.21875 
Q 40.828125 74.21875 47.359375 69.109375 
Q 53.90625 64.015625 53.90625 55.328125 
Q 53.90625 49.265625 50.4375 45.09375 
Q 46.96875 40.921875 40.578125 39.3125 
z
" id="DejaVuSans-51"/>
     </defs>
     <g transform="translate(529.095312 115.666406)scale(0.1 -0.1)">
      <use xlink:href="#DejaVuSans-51"/>
      <use x="63.623047" xlink:href="#DejaVuSans-48"/>
     </g>
    </g>
    <g id="line2d_37">
     <path d="M 501.095312 126.844531 
L 521.095312 126.844531 
" style="fill:none;stroke:#ffc400;stroke-linecap:square;stroke-width:1.5;"/>
    </g>
    <g id="line2d_38"/>
    <g id="text_21">
     <!-- 35 -->
     <g transform="translate(529.095312 130.344531)scale(0.1 -0.1)">
      <use xlink:href="#DejaVuSans-51"/>
      <use x="63.623047" xlink:href="#DejaVuSans-53"/>
     </g>
    </g>
    <g id="line2d_39">
     <path d="M 501.095312 141.522656 
L 521.095312 141.522656 
" style="fill:none;stroke:#ff6800;stroke-linecap:square;stroke-width:1.5;"/>
    </g>
    <g id="line2d_40"/>
    <g id="text_22">
     <!-- 40 -->
     <g transform="translate(529.095312 145.022656)scale(0.1 -0.1)">
      <use xlink:href="#DejaVuSans-52"/>
      <use x="63.623047" xlink:href="#DejaVuSans-48"/>
     </g>
    </g>
    <g id="line2d_41">
     <path d="M 501.095312 156.200781 
L 521.095312 156.200781 
" style="fill:none;stroke:#f10800;stroke-linecap:square;stroke-width:1.5;"/>
    </g>
    <g id="line2d_42"/>
    <g id="text_23">
     <!-- 45 -->
     <g transform="translate(529.095312 159.700781)scale(0.1 -0.1)">
      <use xlink:href="#DejaVuSans-52"/>
      <use x="63.623047" xlink:href="#DejaVuSans-53"/>
     </g>
    </g>
    <g id="line2d_43">
     <path d="M 501.095312 170.878906 
L 521.095312 170.878906 
" style="fill:none;stroke:#800000;stroke-linecap:square;stroke-width:1.5;"/>
    </g>
    <g id="line2d_44"/>
    <g id="text_24">
     <!-- 50 -->
     <g transform="translate(529.095312 174.378906)scale(0.1 -0.1)">
      <use xlink:href="#DejaVuSans-53"/>
      <use x="63.623047" xlink:href="#DejaVuSans-48"/>
     </g>
    </g>
   </g>
  </g>
 </g>
 <defs>
  <clipPath id="p857b280664">
   <rect height="388.08" width="502.2" x="48.620313" y="10.999219"/>
  </clipPath>
 </defs>
</svg>
