<?xml version="1.0" encoding="utf-8" standalone="no"?>
<!DOCTYPE svg PUBLIC "-//W3C//DTD SVG 1.1//EN"
  "http://www.w3.org/Graphics/SVG/1.1/DTD/svg11.dtd">
<!-- Created with matplotlib (https://matplotlib.org/) -->
<svg height="447.954375pt" version="1.1" viewBox="0 0 562.728125 447.954375" width="562.728125pt" xmlns="http://www.w3.org/2000/svg" xmlns:xlink="http://www.w3.org/1999/xlink">
 <defs>
  <style type="text/css">
*{stroke-linecap:butt;stroke-linejoin:round;}
  </style>
 </defs>
 <g id="figure_1">
  <g id="patch_1">
   <path d="M 0 447.954375 
L 562.728125 447.954375 
L 562.728125 0 
L 0 0 
z
" style="fill:#ffffff;"/>
  </g>
  <g id="axes_1">
   <g id="patch_2">
    <path d="M 53.328125 410.398125 
L 555.528125 410.398125 
L 555.528125 22.318125 
L 53.328125 22.318125 
z
" style="fill:#ffffff;"/>
   </g>
   <g id="matplotlib.axis_1">
    <g id="xtick_1">
     <g id="line2d_1">
      <defs>
       <path d="M 0 0 
L 0 3.5 
" id="m3274ebb8a8" style="stroke:#000000;stroke-width:0.8;"/>
      </defs>
      <g>
       <use style="stroke:#000000;stroke-width:0.8;" x="76.155398" xlink:href="#m3274ebb8a8" y="410.398125"/>
      </g>
     </g>
     <g id="text_1">
      <!-- 0 -->
      <defs>
       <path d="M 31.78125 66.40625 
Q 24.171875 66.40625 20.328125 58.90625 
Q 16.5 51.421875 16.5 36.375 
Q 16.5 21.390625 20.328125 13.890625 
Q 24.171875 6.390625 31.78125 6.390625 
Q 39.453125 6.390625 43.28125 13.890625 
Q 47.125 21.390625 47.125 36.375 
Q 47.125 51.421875 43.28125 58.90625 
Q 39.453125 66.40625 31.78125 66.40625 
z
M 31.78125 74.21875 
Q 44.046875 74.21875 50.515625 64.515625 
Q 56.984375 54.828125 56.984375 36.375 
Q 56.984375 17.96875 50.515625 8.265625 
Q 44.046875 -1.421875 31.78125 -1.421875 
Q 19.53125 -1.421875 13.0625 8.265625 
Q 6.59375 17.96875 6.59375 36.375 
Q 6.59375 54.828125 13.0625 64.515625 
Q 19.53125 74.21875 31.78125 74.21875 
z
" id="DejaVuSans-48"/>
      </defs>
      <g transform="translate(72.974148 424.996562)scale(0.1 -0.1)">
       <use xlink:href="#DejaVuSans-48"/>
      </g>
     </g>
    </g>
    <g id="xtick_2">
     <g id="line2d_2">
      <g>
       <use style="stroke:#000000;stroke-width:0.8;" x="169.327939" xlink:href="#m3274ebb8a8" y="410.398125"/>
      </g>
     </g>
     <g id="text_2">
      <!-- 10 -->
      <defs>
       <path d="M 12.40625 8.296875 
L 28.515625 8.296875 
L 28.515625 63.921875 
L 10.984375 60.40625 
L 10.984375 69.390625 
L 28.421875 72.90625 
L 38.28125 72.90625 
L 38.28125 8.296875 
L 54.390625 8.296875 
L 54.390625 0 
L 12.40625 0 
z
" id="DejaVuSans-49"/>
      </defs>
      <g transform="translate(162.965439 424.996562)scale(0.1 -0.1)">
       <use xlink:href="#DejaVuSans-49"/>
       <use x="63.623047" xlink:href="#DejaVuSans-48"/>
      </g>
     </g>
    </g>
    <g id="xtick_3">
     <g id="line2d_3">
      <g>
       <use style="stroke:#000000;stroke-width:0.8;" x="262.500481" xlink:href="#m3274ebb8a8" y="410.398125"/>
      </g>
     </g>
     <g id="text_3">
      <!-- 20 -->
      <defs>
       <path d="M 19.1875 8.296875 
L 53.609375 8.296875 
L 53.609375 0 
L 7.328125 0 
L 7.328125 8.296875 
Q 12.9375 14.109375 22.625 23.890625 
Q 32.328125 33.6875 34.8125 36.53125 
Q 39.546875 41.84375 41.421875 45.53125 
Q 43.3125 49.21875 43.3125 52.78125 
Q 43.3125 58.59375 39.234375 62.25 
Q 35.15625 65.921875 28.609375 65.921875 
Q 23.96875 65.921875 18.8125 64.3125 
Q 13.671875 62.703125 7.8125 59.421875 
L 7.8125 69.390625 
Q 13.765625 71.78125 18.9375 73 
Q 24.125 74.21875 28.421875 74.21875 
Q 39.75 74.21875 46.484375 68.546875 
Q 53.21875 62.890625 53.21875 53.421875 
Q 53.21875 48.921875 51.53125 44.890625 
Q 49.859375 40.875 45.40625 35.40625 
Q 44.1875 33.984375 37.640625 27.21875 
Q 31.109375 20.453125 19.1875 8.296875 
z
" id="DejaVuSans-50"/>
      </defs>
      <g transform="translate(256.137981 424.996562)scale(0.1 -0.1)">
       <use xlink:href="#DejaVuSans-50"/>
       <use x="63.623047" xlink:href="#DejaVuSans-48"/>
      </g>
     </g>
    </g>
    <g id="xtick_4">
     <g id="line2d_4">
      <g>
       <use style="stroke:#000000;stroke-width:0.8;" x="355.673023" xlink:href="#m3274ebb8a8" y="410.398125"/>
      </g>
     </g>
     <g id="text_4">
      <!-- 30 -->
      <defs>
       <path d="M 40.578125 39.3125 
Q 47.65625 37.796875 51.625 33 
Q 55.609375 28.21875 55.609375 21.1875 
Q 55.609375 10.40625 48.1875 4.484375 
Q 40.765625 -1.421875 27.09375 -1.421875 
Q 22.515625 -1.421875 17.65625 -0.515625 
Q 12.796875 0.390625 7.625 2.203125 
L 7.625 11.71875 
Q 11.71875 9.328125 16.59375 8.109375 
Q 21.484375 6.890625 26.8125 6.890625 
Q 36.078125 6.890625 40.9375 10.546875 
Q 45.796875 14.203125 45.796875 21.1875 
Q 45.796875 27.640625 41.28125 31.265625 
Q 36.765625 34.90625 28.71875 34.90625 
L 20.21875 34.90625 
L 20.21875 43.015625 
L 29.109375 43.015625 
Q 36.375 43.015625 40.234375 45.921875 
Q 44.09375 48.828125 44.09375 54.296875 
Q 44.09375 59.90625 40.109375 62.90625 
Q 36.140625 65.921875 28.71875 65.921875 
Q 24.65625 65.921875 20.015625 65.03125 
Q 15.375 64.15625 9.8125 62.3125 
L 9.8125 71.09375 
Q 15.4375 72.65625 20.34375 73.4375 
Q 25.25 74.21875 29.59375 74.21875 
Q 40.828125 74.21875 47.359375 69.109375 
Q 53.90625 64.015625 53.90625 55.328125 
Q 53.90625 49.265625 50.4375 45.09375 
Q 46.96875 40.921875 40.578125 39.3125 
z
" id="DejaVuSans-51"/>
      </defs>
      <g transform="translate(349.310523 424.996562)scale(0.1 -0.1)">
       <use xlink:href="#DejaVuSans-51"/>
       <use x="63.623047" xlink:href="#DejaVuSans-48"/>
      </g>
     </g>
    </g>
    <g id="xtick_5">
     <g id="line2d_5">
      <g>
       <use style="stroke:#000000;stroke-width:0.8;" x="448.845565" xlink:href="#m3274ebb8a8" y="410.398125"/>
      </g>
     </g>
     <g id="text_5">
      <!-- 40 -->
      <defs>
       <path d="M 37.796875 64.3125 
L 12.890625 25.390625 
L 37.796875 25.390625 
z
M 35.203125 72.90625 
L 47.609375 72.90625 
L 47.609375 25.390625 
L 58.015625 25.390625 
L 58.015625 17.1875 
L 47.609375 17.1875 
L 47.609375 0 
L 37.796875 0 
L 37.796875 17.1875 
L 4.890625 17.1875 
L 4.890625 26.703125 
z
" id="DejaVuSans-52"/>
      </defs>
      <g transform="translate(442.483065 424.996562)scale(0.1 -0.1)">
       <use xlink:href="#DejaVuSans-52"/>
       <use x="63.623047" xlink:href="#DejaVuSans-48"/>
      </g>
     </g>
    </g>
    <g id="xtick_6">
     <g id="line2d_6">
      <g>
       <use style="stroke:#000000;stroke-width:0.8;" x="542.018106" xlink:href="#m3274ebb8a8" y="410.398125"/>
      </g>
     </g>
     <g id="text_6">
      <!-- 50 -->
      <defs>
       <path d="M 10.796875 72.90625 
L 49.515625 72.90625 
L 49.515625 64.59375 
L 19.828125 64.59375 
L 19.828125 46.734375 
Q 21.96875 47.46875 24.109375 47.828125 
Q 26.265625 48.1875 28.421875 48.1875 
Q 40.625 48.1875 47.75 41.5 
Q 54.890625 34.8125 54.890625 23.390625 
Q 54.890625 11.625 47.5625 5.09375 
Q 40.234375 -1.421875 26.90625 -1.421875 
Q 22.3125 -1.421875 17.546875 -0.640625 
Q 12.796875 0.140625 7.71875 1.703125 
L 7.71875 11.625 
Q 12.109375 9.234375 16.796875 8.0625 
Q 21.484375 6.890625 26.703125 6.890625 
Q 35.15625 6.890625 40.078125 11.328125 
Q 45.015625 15.765625 45.015625 23.390625 
Q 45.015625 31 40.078125 35.4375 
Q 35.15625 39.890625 26.703125 39.890625 
Q 22.75 39.890625 18.8125 39.015625 
Q 14.890625 38.140625 10.796875 36.28125 
z
" id="DejaVuSans-53"/>
      </defs>
      <g transform="translate(535.655606 424.996562)scale(0.1 -0.1)">
       <use xlink:href="#DejaVuSans-53"/>
       <use x="63.623047" xlink:href="#DejaVuSans-48"/>
      </g>
     </g>
    </g>
    <g id="text_7">
     <!-- x -->
     <defs>
      <path d="M 54.890625 54.6875 
L 35.109375 28.078125 
L 55.90625 0 
L 45.3125 0 
L 29.390625 21.484375 
L 13.484375 0 
L 2.875 0 
L 24.125 28.609375 
L 4.6875 54.6875 
L 15.28125 54.6875 
L 29.78125 35.203125 
L 44.28125 54.6875 
z
" id="DejaVuSans-120"/>
     </defs>
     <g transform="translate(301.46875 438.674687)scale(0.1 -0.1)">
      <use xlink:href="#DejaVuSans-120"/>
     </g>
    </g>
   </g>
   <g id="matplotlib.axis_2">
    <g id="ytick_1">
     <g id="line2d_7">
      <defs>
       <path d="M 0 0 
L -3.5 0 
" id="m05af21b79d" style="stroke:#000000;stroke-width:0.8;"/>
      </defs>
      <g>
       <use style="stroke:#000000;stroke-width:0.8;" x="53.328125" xlink:href="#m05af21b79d" y="392.758125"/>
      </g>
     </g>
     <g id="text_8">
      <!-- 0 -->
      <g transform="translate(39.965625 396.557344)scale(0.1 -0.1)">
       <use xlink:href="#DejaVuSans-48"/>
      </g>
     </g>
    </g>
    <g id="ytick_2">
     <g id="line2d_8">
      <g>
       <use style="stroke:#000000;stroke-width:0.8;" x="53.328125" xlink:href="#m05af21b79d" y="322.198125"/>
      </g>
     </g>
     <g id="text_9">
      <!-- 200 -->
      <g transform="translate(27.240625 325.997344)scale(0.1 -0.1)">
       <use xlink:href="#DejaVuSans-50"/>
       <use x="63.623047" xlink:href="#DejaVuSans-48"/>
       <use x="127.246094" xlink:href="#DejaVuSans-48"/>
      </g>
     </g>
    </g>
    <g id="ytick_3">
     <g id="line2d_9">
      <g>
       <use style="stroke:#000000;stroke-width:0.8;" x="53.328125" xlink:href="#m05af21b79d" y="251.638125"/>
      </g>
     </g>
     <g id="text_10">
      <!-- 400 -->
      <g transform="translate(27.240625 255.437344)scale(0.1 -0.1)">
       <use xlink:href="#DejaVuSans-52"/>
       <use x="63.623047" xlink:href="#DejaVuSans-48"/>
       <use x="127.246094" xlink:href="#DejaVuSans-48"/>
      </g>
     </g>
    </g>
    <g id="ytick_4">
     <g id="line2d_10">
      <g>
       <use style="stroke:#000000;stroke-width:0.8;" x="53.328125" xlink:href="#m05af21b79d" y="181.078125"/>
      </g>
     </g>
     <g id="text_11">
      <!-- 600 -->
      <defs>
       <path d="M 33.015625 40.375 
Q 26.375 40.375 22.484375 35.828125 
Q 18.609375 31.296875 18.609375 23.390625 
Q 18.609375 15.53125 22.484375 10.953125 
Q 26.375 6.390625 33.015625 6.390625 
Q 39.65625 6.390625 43.53125 10.953125 
Q 47.40625 15.53125 47.40625 23.390625 
Q 47.40625 31.296875 43.53125 35.828125 
Q 39.65625 40.375 33.015625 40.375 
z
M 52.59375 71.296875 
L 52.59375 62.3125 
Q 48.875 64.0625 45.09375 64.984375 
Q 41.3125 65.921875 37.59375 65.921875 
Q 27.828125 65.921875 22.671875 59.328125 
Q 17.53125 52.734375 16.796875 39.40625 
Q 19.671875 43.65625 24.015625 45.921875 
Q 28.375 48.1875 33.59375 48.1875 
Q 44.578125 48.1875 50.953125 41.515625 
Q 57.328125 34.859375 57.328125 23.390625 
Q 57.328125 12.15625 50.6875 5.359375 
Q 44.046875 -1.421875 33.015625 -1.421875 
Q 20.359375 -1.421875 13.671875 8.265625 
Q 6.984375 17.96875 6.984375 36.375 
Q 6.984375 53.65625 15.1875 63.9375 
Q 23.390625 74.21875 37.203125 74.21875 
Q 40.921875 74.21875 44.703125 73.484375 
Q 48.484375 72.75 52.59375 71.296875 
z
" id="DejaVuSans-54"/>
      </defs>
      <g transform="translate(27.240625 184.877344)scale(0.1 -0.1)">
       <use xlink:href="#DejaVuSans-54"/>
       <use x="63.623047" xlink:href="#DejaVuSans-48"/>
       <use x="127.246094" xlink:href="#DejaVuSans-48"/>
      </g>
     </g>
    </g>
    <g id="ytick_5">
     <g id="line2d_11">
      <g>
       <use style="stroke:#000000;stroke-width:0.8;" x="53.328125" xlink:href="#m05af21b79d" y="110.518125"/>
      </g>
     </g>
     <g id="text_12">
      <!-- 800 -->
      <defs>
       <path d="M 31.78125 34.625 
Q 24.75 34.625 20.71875 30.859375 
Q 16.703125 27.09375 16.703125 20.515625 
Q 16.703125 13.921875 20.71875 10.15625 
Q 24.75 6.390625 31.78125 6.390625 
Q 38.8125 6.390625 42.859375 10.171875 
Q 46.921875 13.96875 46.921875 20.515625 
Q 46.921875 27.09375 42.890625 30.859375 
Q 38.875 34.625 31.78125 34.625 
z
M 21.921875 38.8125 
Q 15.578125 40.375 12.03125 44.71875 
Q 8.5 49.078125 8.5 55.328125 
Q 8.5 64.0625 14.71875 69.140625 
Q 20.953125 74.21875 31.78125 74.21875 
Q 42.671875 74.21875 48.875 69.140625 
Q 55.078125 64.0625 55.078125 55.328125 
Q 55.078125 49.078125 51.53125 44.71875 
Q 48 40.375 41.703125 38.8125 
Q 48.828125 37.15625 52.796875 32.3125 
Q 56.78125 27.484375 56.78125 20.515625 
Q 56.78125 9.90625 50.3125 4.234375 
Q 43.84375 -1.421875 31.78125 -1.421875 
Q 19.734375 -1.421875 13.25 4.234375 
Q 6.78125 9.90625 6.78125 20.515625 
Q 6.78125 27.484375 10.78125 32.3125 
Q 14.796875 37.15625 21.921875 38.8125 
z
M 18.3125 54.390625 
Q 18.3125 48.734375 21.84375 45.5625 
Q 25.390625 42.390625 31.78125 42.390625 
Q 38.140625 42.390625 41.71875 45.5625 
Q 45.3125 48.734375 45.3125 54.390625 
Q 45.3125 60.0625 41.71875 63.234375 
Q 38.140625 66.40625 31.78125 66.40625 
Q 25.390625 66.40625 21.84375 63.234375 
Q 18.3125 60.0625 18.3125 54.390625 
z
" id="DejaVuSans-56"/>
      </defs>
      <g transform="translate(27.240625 114.317344)scale(0.1 -0.1)">
       <use xlink:href="#DejaVuSans-56"/>
       <use x="63.623047" xlink:href="#DejaVuSans-48"/>
       <use x="127.246094" xlink:href="#DejaVuSans-48"/>
      </g>
     </g>
    </g>
    <g id="ytick_6">
     <g id="line2d_12">
      <g>
       <use style="stroke:#000000;stroke-width:0.8;" x="53.328125" xlink:href="#m05af21b79d" y="39.958125"/>
      </g>
     </g>
     <g id="text_13">
      <!-- 1000 -->
      <g transform="translate(20.878125 43.757344)scale(0.1 -0.1)">
       <use xlink:href="#DejaVuSans-49"/>
       <use x="63.623047" xlink:href="#DejaVuSans-48"/>
       <use x="127.246094" xlink:href="#DejaVuSans-48"/>
       <use x="190.869141" xlink:href="#DejaVuSans-48"/>
      </g>
     </g>
    </g>
    <g id="text_14">
     <!-- u -->
     <defs>
      <path d="M 8.5 21.578125 
L 8.5 54.6875 
L 17.484375 54.6875 
L 17.484375 21.921875 
Q 17.484375 14.15625 20.5 10.265625 
Q 23.53125 6.390625 29.59375 6.390625 
Q 36.859375 6.390625 41.078125 11.03125 
Q 45.3125 15.671875 45.3125 23.6875 
L 45.3125 54.6875 
L 54.296875 54.6875 
L 54.296875 0 
L 45.3125 0 
L 45.3125 8.40625 
Q 42.046875 3.421875 37.71875 1 
Q 33.40625 -1.421875 27.6875 -1.421875 
Q 18.265625 -1.421875 13.375 4.4375 
Q 8.5 10.296875 8.5 21.578125 
z
M 31.109375 56 
z
" id="DejaVuSans-117"/>
     </defs>
     <g transform="translate(14.798438 219.526875)rotate(-90)scale(0.1 -0.1)">
      <use xlink:href="#DejaVuSans-117"/>
     </g>
    </g>
   </g>
   <g id="line2d_13">
    <path clip-path="url(#p4bb388ab5b)" d="M 76.155398 392.758125 
L 85.472652 392.758125 
L 94.789906 392.758125 
L 104.10716 392.758125 
L 113.424414 392.758125 
L 122.741669 392.758125 
L 132.058923 392.758125 
L 141.376177 392.758125 
L 150.693431 392.758125 
L 160.010685 392.758125 
L 169.327939 392.758125 
L 178.645194 392.758125 
L 187.962448 392.758125 
L 197.279702 392.758125 
L 206.596956 392.758125 
L 215.91421 392.758125 
L 225.231465 392.758125 
L 234.548719 392.758125 
L 243.865973 392.758125 
L 253.183227 392.758125 
L 262.500481 392.758125 
L 271.817735 392.758125 
L 281.13499 392.758125 
L 290.452244 392.758125 
L 299.769498 392.758125 
L 309.086752 39.958125 
L 318.404006 392.758125 
L 327.72126 392.758125 
L 337.038515 392.758125 
L 346.355769 392.758125 
L 355.673023 392.758125 
L 364.990277 392.758125 
L 374.307531 392.758125 
L 383.624785 392.758125 
L 392.94204 392.758125 
L 402.259294 392.758125 
L 411.576548 392.758125 
L 420.893802 392.758125 
L 430.211056 392.758125 
L 439.528311 392.758125 
L 448.845565 392.758125 
L 458.162819 392.758125 
L 467.480073 392.758125 
L 476.797327 392.758125 
L 486.114581 392.758125 
L 495.431836 392.758125 
L 504.74909 392.758125 
L 514.066344 392.758125 
L 523.383598 392.758125 
L 532.700852 392.758125 
" style="fill:none;stroke:#1f77b4;stroke-linecap:square;stroke-width:2;"/>
   </g>
   <g id="line2d_14">
    <path clip-path="url(#p4bb388ab5b)" d="M 76.155398 392.758125 
L 85.472652 392.758125 
L 94.789906 392.758125 
L 104.10716 392.758125 
L 113.424414 392.758125 
L 122.741669 392.758125 
L 132.058923 392.758125 
L 141.376177 392.758125 
L 150.693431 392.758125 
L 160.010685 392.758125 
L 169.327939 392.758125 
L 178.645194 392.758125 
L 187.962448 392.758125 
L 197.279702 392.758125 
L 206.596956 392.758125 
L 215.91421 392.758125 
L 225.231465 392.758122 
L 234.548719 392.758021 
L 243.865973 392.755854 
L 253.183227 392.725554 
L 262.500481 392.435238 
L 271.817735 390.507452 
L 281.13499 381.770387 
L 290.452244 356.109614 
L 299.769498 313.4387 
L 309.086752 290.776847 
L 318.404006 322.297905 
L 327.72126 359.413548 
L 337.038515 380.458527 
L 346.355769 388.957648 
L 355.673023 391.730012 
L 364.990277 392.507432 
L 374.307531 392.701897 
L 383.624785 392.746352 
L 392.94204 392.755798 
L 402.259294 392.757687 
L 411.576548 392.758046 
L 420.893802 392.758111 
L 430.211056 392.758123 
L 439.528311 392.758125 
L 448.845565 392.758125 
L 458.162819 392.758125 
L 467.480073 392.758125 
L 476.797327 392.758125 
L 486.114581 392.758125 
L 495.431836 392.758125 
L 504.74909 392.758125 
L 514.066344 392.758125 
L 523.383598 392.758125 
L 532.700852 392.758125 
" style="fill:none;stroke:#ff7f0e;stroke-linecap:square;stroke-width:2;"/>
   </g>
   <g id="line2d_15">
    <path clip-path="url(#p4bb388ab5b)" d="M 76.155398 392.758125 
L 85.472652 392.758125 
L 94.789906 392.758125 
L 104.10716 392.758125 
L 113.424414 392.758125 
L 122.741669 392.758125 
L 132.058923 392.758125 
L 141.376177 392.758125 
L 150.693431 392.758125 
L 160.010685 392.758125 
L 169.327939 392.758125 
L 178.645194 392.758125 
L 187.962448 392.758124 
L 197.279702 392.758116 
L 206.596956 392.758029 
L 215.91421 392.757249 
L 225.231465 392.751456 
L 234.548719 392.715805 
L 243.865973 392.53485 
L 253.183227 391.783378 
L 262.500481 389.263189 
L 271.817735 382.573945 
L 281.13499 368.964241 
L 290.452244 348.899898 
L 299.769498 330.021824 
L 309.086752 323.852102 
L 318.404006 334.224036 
L 327.72126 353.021151 
L 337.038515 370.389586 
L 346.355769 381.978521 
L 355.673023 388.195563 
L 364.990277 391.027453 
L 374.307531 392.160344 
L 383.624785 392.567703 
L 392.94204 392.701604 
L 402.259294 392.742361 
L 411.576548 392.753965 
L 420.893802 392.75708 
L 430.211056 392.757874 
L 439.528311 392.758067 
L 448.845565 392.758112 
L 458.162819 392.758122 
L 467.480073 392.758124 
L 476.797327 392.758125 
L 486.114581 392.758125 
L 495.431836 392.758125 
L 504.74909 392.758125 
L 514.066344 392.758125 
L 523.383598 392.758125 
L 532.700852 392.758125 
" style="fill:none;stroke:#2ca02c;stroke-linecap:square;stroke-width:2;"/>
   </g>
   <g id="line2d_16">
    <path clip-path="url(#p4bb388ab5b)" d="M 76.155398 392.758125 
L 85.472652 392.758125 
L 94.789906 392.758125 
L 104.10716 392.758125 
L 113.424414 392.758125 
L 122.741669 392.758125 
L 132.058923 392.758125 
L 141.376177 392.758125 
L 150.693431 392.758125 
L 160.010685 392.758125 
L 169.327939 392.758122 
L 178.645194 392.758104 
L 187.962448 392.757976 
L 197.279702 392.757212 
L 206.596956 392.753176 
L 215.91421 392.734479 
L 225.231465 392.658832 
L 234.548719 392.392952 
L 243.865973 391.586905 
L 253.183227 389.498841 
L 262.500481 384.934276 
L 271.817735 376.659533 
L 281.13499 364.543901 
L 290.452244 350.871941 
L 299.769498 340.256537 
L 309.086752 337.157372 
L 318.404006 342.705178 
L 327.72126 354.029454 
L 337.038515 366.643819 
L 346.355769 377.192514 
L 355.673023 384.445609 
L 364.990277 388.732699 
L 374.307531 390.971698 
L 383.624785 392.024931 
L 392.94204 392.477624 
L 402.259294 392.657412 
L 411.576548 392.723988 
L 420.893802 392.747146 
L 430.211056 392.754759 
L 439.528311 392.757138 
L 448.845565 392.757847 
L 458.162819 392.75805 
L 467.480073 392.758105 
L 476.797327 392.75812 
L 486.114581 392.758124 
L 495.431836 392.758125 
L 504.74909 392.758125 
L 514.066344 392.758125 
L 523.383598 392.758125 
L 532.700852 392.758125 
" style="fill:none;stroke:#d62728;stroke-linecap:square;stroke-width:2;"/>
   </g>
   <g id="line2d_17">
    <path clip-path="url(#p4bb388ab5b)" d="M 76.155398 392.758125 
L 85.472652 392.758125 
L 94.789906 392.758125 
L 104.10716 392.758125 
L 113.424414 392.758125 
L 122.741669 392.758125 
L 132.058923 392.758125 
L 141.376177 392.758124 
L 150.693431 392.758122 
L 160.010685 392.758104 
L 169.327939 392.75801 
L 178.645194 392.757552 
L 187.962448 392.755523 
L 197.279702 392.74741 
L 206.596956 392.718204 
L 215.91421 392.623842 
L 225.231465 392.351389 
L 234.548719 391.652012 
L 243.865973 390.065933 
L 253.183227 386.913059 
L 262.500481 381.475538 
L 271.817735 373.455106 
L 281.13499 363.560504 
L 290.452244 353.771506 
L 299.769498 346.806045 
L 309.086752 344.862342 
L 318.404006 348.444194 
L 327.72126 356.160591 
L 337.038515 365.594493 
L 346.355769 374.503395 
L 355.673023 381.566629 
L 364.990277 386.453029 
L 374.307531 389.471464 
L 383.624785 391.162949 
L 392.94204 392.03313 
L 402.259294 392.447973 
L 411.576548 392.632654 
L 420.893802 392.709925 
L 430.211056 392.740476 
L 439.528311 392.751944 
L 448.845565 392.756049 
L 458.162819 392.757454 
L 467.480073 392.757916 
L 476.797327 392.758062 
L 486.114581 392.758107 
L 495.431836 392.75812 
L 504.74909 392.758124 
L 514.066344 392.758125 
L 523.383598 392.758125 
L 532.700852 392.758125 
" style="fill:none;stroke:#9467bd;stroke-linecap:square;stroke-width:2;"/>
   </g>
   <g id="line2d_18">
    <path clip-path="url(#p4bb388ab5b)" d="M 76.155398 392.758125 
L 85.472652 392.758125 
L 94.789906 392.758125 
L 104.10716 392.758125 
L 113.424414 392.758125 
L 122.741669 392.758125 
L 132.058923 392.758122 
L 141.376177 392.758111 
L 150.693431 392.758058 
L 160.010685 392.757832 
L 169.327939 392.756931 
L 178.645194 392.753643 
L 187.962448 392.742612 
L 197.279702 392.708719 
L 206.596956 392.613588 
L 215.91421 392.370435 
L 225.231465 391.806565 
L 234.548719 390.625326 
L 243.865973 388.401565 
L 253.183227 384.663911 
L 262.500481 379.103158 
L 271.817735 371.87036 
L 281.13499 363.811107 
L 290.452244 356.420953 
L 299.769498 351.413086 
L 309.086752 350.049653 
L 318.404006 352.604983 
L 327.72126 358.283885 
L 337.038515 365.620434 
L 346.355769 373.085125 
L 355.673023 379.563556 
L 364.990277 384.532521 
L 374.307531 387.969995 
L 383.624785 390.14425 
L 392.94204 391.414387 
L 402.259294 392.105102 
L 411.576548 392.457046 
L 420.893802 392.625994 
L 430.211056 392.702761 
L 439.528311 392.735914 
L 448.845565 392.749572 
L 458.162819 392.754956 
L 467.480073 392.756993 
L 476.797327 392.757734 
L 486.114581 392.757994 
L 495.431836 392.758083 
L 504.74909 392.758112 
L 514.066344 392.758121 
L 523.383598 392.758124 
L 532.700852 392.758125 
" style="fill:none;stroke:#8c564b;stroke-linecap:square;stroke-width:2;"/>
   </g>
   <g id="line2d_19">
    <path clip-path="url(#p4bb388ab5b)" d="M 76.155398 392.758125 
L 85.472652 392.758125 
L 94.789906 392.758125 
L 104.10716 392.758125 
L 113.424414 392.758123 
L 122.741669 392.758117 
L 132.058923 392.758091 
L 141.376177 392.757989 
L 150.693431 392.757613 
L 160.010685 392.756318 
L 169.327939 392.752177 
L 178.645194 392.739868 
L 187.962448 392.705944 
L 197.279702 392.619437 
L 206.596956 392.415801 
L 215.91421 391.974497 
L 225.231465 391.096767 
L 234.548719 389.500356 
L 243.865973 386.85685 
L 253.183227 382.893699 
L 262.500481 377.555198 
L 271.817735 371.167162 
L 281.13499 364.50734 
L 290.452244 358.692122 
L 299.769498 354.872181 
L 309.086752 353.848245 
L 318.404006 355.788697 
L 327.72126 360.189594 
L 337.038515 366.08594 
L 346.355769 372.393522 
L 355.673023 378.217634 
L 364.990277 383.018668 
L 374.307531 386.61889 
L 383.624785 389.104972 
L 392.94204 390.699841 
L 402.259294 391.656883 
L 411.576548 392.197082 
L 420.893802 392.485243 
L 430.211056 392.631103 
L 439.528311 392.701408 
L 448.845565 392.733781 
L 458.162819 392.74806 
L 467.480073 392.754109 
L 476.797327 392.756576 
L 486.114581 392.757546 
L 495.431836 392.757915 
L 504.74909 392.758051 
L 514.066344 392.7581 
L 523.383598 392.758116 
L 532.700852 392.758122 
" style="fill:none;stroke:#e377c2;stroke-linecap:square;stroke-width:2;"/>
   </g>
   <g id="line2d_20">
    <path clip-path="url(#p4bb388ab5b)" d="M 76.155398 392.758125 
L 85.472652 392.758125 
L 94.789906 392.758124 
L 104.10716 392.758121 
L 113.424414 392.758109 
L 122.741669 392.758066 
L 132.058923 392.757913 
L 141.376177 392.757411 
L 150.693431 392.755857 
L 160.010685 392.751345 
L 169.327939 392.739069 
L 178.645194 392.707808 
L 187.962448 392.633424 
L 197.279702 392.468353 
L 206.596956 392.127386 
L 215.91421 391.473342 
L 225.231465 390.311311 
L 234.548719 388.405005 
L 243.865973 385.528516 
L 253.183227 381.556146 
L 262.500481 376.570835 
L 271.817735 370.94659 
L 281.13499 365.34999 
L 290.452244 360.626717 
L 299.769498 357.590125 
L 309.086752 356.784871 
L 318.404006 358.322925 
L 327.72126 361.861501 
L 337.038515 366.726544 
L 346.355769 372.121108 
L 355.673023 377.331021 
L 364.990277 381.859175 
L 374.307531 385.464601 
L 383.624785 388.12436 
L 392.94204 389.956861 
L 402.259294 391.143191 
L 411.576548 391.868383 
L 420.893802 392.288691 
L 430.211056 392.520474 
L 439.528311 392.642468 
L 448.845565 392.703919 
L 458.162819 392.733618 
L 467.480073 392.747419 
L 476.797327 392.7536 
L 486.114581 392.756271 
L 495.431836 392.757388 
L 504.74909 392.75784 
L 514.066344 392.758018 
L 523.383598 392.758085 
L 532.700852 392.758107 
" style="fill:none;stroke:#7f7f7f;stroke-linecap:square;stroke-width:2;"/>
   </g>
   <g id="line2d_21">
    <path clip-path="url(#p4bb388ab5b)" d="M 76.155398 392.758124 
L 85.472652 392.758123 
L 94.789906 392.758118 
L 104.10716 392.7581 
L 113.424414 392.758039 
L 122.741669 392.757846 
L 132.058923 392.757262 
L 141.376177 392.755596 
L 150.693431 392.751106 
L 160.010685 392.73968 
L 169.327939 392.712274 
L 178.645194 392.650377 
L 187.962448 392.518944 
L 197.279702 392.256951 
L 206.596956 391.767543 
L 215.91421 390.912486 
L 225.231465 389.518465 
L 234.548719 387.403539 
L 243.865973 384.428044 
L 253.183227 380.564085 
L 262.500481 375.96374 
L 271.817735 370.995289 
L 281.13499 366.218202 
L 290.452244 362.286133 
L 299.769498 359.797763 
L 309.086752 359.143063 
L 318.404006 360.400892 
L 327.72126 363.325716 
L 337.038515 367.425171 
L 346.355769 372.095003 
L 355.673023 376.760908 
L 364.990277 380.98339 
L 374.307531 384.504285 
L 383.624785 387.238513 
L 392.94204 389.230692 
L 402.259294 390.600134 
L 411.576548 391.492193 
L 420.893802 392.044856 
L 430.211056 392.37152 
L 439.528311 392.556232 
L 448.845565 392.656395 
L 458.162819 392.708594 
L 467.480073 392.734792 
L 476.797327 392.747476 
L 486.114581 392.75341 
L 495.431836 392.756098 
L 504.74909 392.757277 
L 514.066344 392.757779 
L 523.383598 392.757983 
L 532.700852 392.758056 
" style="fill:none;stroke:#bcbd22;stroke-linecap:square;stroke-width:2;"/>
   </g>
   <g id="line2d_22">
    <path clip-path="url(#p4bb388ab5b)" d="M 76.155398 392.758121 
L 85.472652 392.758114 
L 94.789906 392.758091 
L 104.10716 392.758016 
L 113.424414 392.757797 
L 122.741669 392.757178 
L 132.058923 392.755522 
L 141.376177 392.75131 
L 150.693431 392.741144 
L 160.010685 392.717872 
L 169.327939 392.667402 
L 178.645194 392.563826 
L 187.962448 392.362927 
L 197.279702 391.995128 
L 206.596956 391.360526 
L 215.91421 390.330386 
L 225.231465 388.76036 
L 234.548719 386.519391 
L 243.865973 383.533542 
L 253.183227 379.836425 
L 262.500481 375.60999 
L 271.817735 371.195845 
L 281.13499 367.062007 
L 290.452244 363.723887 
L 299.769498 361.636698 
L 309.086752 361.090844 
L 318.404006 362.144315 
L 327.72126 364.614171 
L 337.038515 368.127995 
L 346.355769 372.215537 
L 355.673023 376.409678 
L 364.990277 380.327802 
L 374.307531 383.716574 
L 383.624785 386.458136 
L 392.94204 388.547369 
L 402.259294 390.054845 
L 411.576548 391.088899 
L 420.893802 391.765451 
L 430.211056 392.188842 
L 439.528311 392.442895 
L 448.845565 392.589377 
L 458.162819 392.670691 
L 467.480073 392.714227 
L 476.797327 392.736745 
L 486.114581 392.748013 
L 495.431836 392.753475 
L 504.74909 392.756043 
L 514.066344 392.757212 
L 523.383598 392.757721 
L 532.700852 392.757911 
" style="fill:none;stroke:#17becf;stroke-linecap:square;stroke-width:2;"/>
   </g>
   <g id="line2d_23">
    <path clip-path="url(#p4bb388ab5b)" d="M 76.155398 392.758108 
L 85.472652 392.758082 
L 94.789906 392.758 
L 104.10716 392.757769 
L 113.424414 392.757154 
L 122.741669 392.755591 
L 132.058923 392.7518 
L 141.376177 392.743027 
L 150.693431 392.723681 
L 160.010685 392.683064 
L 169.327939 392.601938 
L 178.645194 392.447939 
L 187.962448 392.170412 
L 197.279702 391.696157 
L 206.596956 390.928701 
L 215.91421 389.754481 
L 225.231465 388.05905 
L 234.548719 385.754341 
L 243.865973 382.813959 
L 253.183227 379.3084 
L 262.500481 375.428047 
L 271.817735 371.481469 
L 281.13499 367.861616 
L 290.452244 364.982363 
L 299.769498 363.199121 
L 309.086752 362.734966 
L 318.404006 363.634003 
L 327.72126 365.755629 
L 337.038515 368.810169 
L 346.355769 372.423546 
L 355.673023 376.211168 
L 364.990277 379.841414 
L 374.307531 383.075634 
L 383.624785 385.780855 
L 392.94204 387.919564 
L 402.259294 389.525528 
L 411.576548 390.675248 
L 420.893802 391.462374 
L 430.211056 391.979034 
L 439.528311 392.304893 
L 448.845565 392.502759 
L 458.162819 392.618632 
L 467.480073 392.684179 
L 476.797327 392.720049 
L 486.114581 392.739062 
L 495.431836 392.748836 
L 504.74909 392.753711 
L 514.066344 392.756067 
L 523.383598 392.757149 
L 532.700852 392.757571 
" style="fill:none;stroke:#1f77b4;stroke-linecap:square;stroke-width:2;"/>
   </g>
   <g id="line2d_24">
    <path clip-path="url(#p4bb388ab5b)" d="M 76.155398 392.758062 
L 85.472652 392.757985 
L 94.789906 392.757759 
L 104.10716 392.757178 
L 113.424414 392.755758 
L 122.741669 392.752442 
L 132.058923 392.745033 
L 141.376177 392.729187 
L 150.693431 392.696784 
L 160.010685 392.633471 
L 169.327939 392.515363 
L 178.645194 392.305186 
L 187.962448 391.948748 
L 197.279702 391.373278 
L 206.596956 390.489864 
L 215.91421 389.202269 
L 225.231465 387.423593 
L 234.548719 385.10015 
L 243.865973 382.238808 
L 253.183227 378.930875 
L 262.500481 375.363811 
L 271.817735 371.813054 
L 281.13499 368.610666 
L 290.452244 366.094413 
L 299.769498 364.547934 
L 309.086752 364.146949 
L 318.404006 364.925922 
L 327.72126 366.774039 
L 337.038515 369.460771 
L 346.355769 372.682962 
L 355.673023 376.120219 
L 364.990277 379.484922 
L 374.307531 382.55686 
L 383.624785 385.19837 
L 392.94204 387.3516 
L 402.259294 389.023288 
L 411.576548 390.263782 
L 420.893802 391.146145 
L 430.211056 391.74918 
L 439.528311 392.145969 
L 448.845565 392.397779 
L 458.162819 392.552153 
L 467.480073 392.643707 
L 476.797327 392.696304 
L 486.114581 392.72561 
L 495.431836 392.74146 
L 504.74909 392.749784 
L 514.066344 392.754015 
L 523.383598 392.756053 
L 532.700852 392.756876 
" style="fill:none;stroke:#ff7f0e;stroke-linecap:square;stroke-width:2;"/>
   </g>
   <g id="patch_3">
    <path d="M 53.328125 410.398125 
L 53.328125 22.318125 
" style="fill:none;stroke:#000000;stroke-linecap:square;stroke-linejoin:miter;stroke-width:0.8;"/>
   </g>
   <g id="patch_4">
    <path d="M 555.528125 410.398125 
L 555.528125 22.318125 
" style="fill:none;stroke:#000000;stroke-linecap:square;stroke-linejoin:miter;stroke-width:0.8;"/>
   </g>
   <g id="patch_5">
    <path d="M 53.328125 410.398125 
L 555.528125 410.398125 
" style="fill:none;stroke:#000000;stroke-linecap:square;stroke-linejoin:miter;stroke-width:0.8;"/>
   </g>
   <g id="patch_6">
    <path d="M 53.328125 22.318125 
L 555.528125 22.318125 
" style="fill:none;stroke:#000000;stroke-linecap:square;stroke-linejoin:miter;stroke-width:0.8;"/>
   </g>
   <g id="text_15">
    <!-- Difusao -->
    <defs>
     <path d="M 19.671875 64.796875 
L 19.671875 8.109375 
L 31.59375 8.109375 
Q 46.6875 8.109375 53.6875 14.9375 
Q 60.6875 21.78125 60.6875 36.53125 
Q 60.6875 51.171875 53.6875 57.984375 
Q 46.6875 64.796875 31.59375 64.796875 
z
M 9.8125 72.90625 
L 30.078125 72.90625 
Q 51.265625 72.90625 61.171875 64.09375 
Q 71.09375 55.28125 71.09375 36.53125 
Q 71.09375 17.671875 61.125 8.828125 
Q 51.171875 0 30.078125 0 
L 9.8125 0 
z
" id="DejaVuSans-68"/>
     <path d="M 9.421875 54.6875 
L 18.40625 54.6875 
L 18.40625 0 
L 9.421875 0 
z
M 9.421875 75.984375 
L 18.40625 75.984375 
L 18.40625 64.59375 
L 9.421875 64.59375 
z
" id="DejaVuSans-105"/>
     <path d="M 37.109375 75.984375 
L 37.109375 68.5 
L 28.515625 68.5 
Q 23.6875 68.5 21.796875 66.546875 
Q 19.921875 64.59375 19.921875 59.515625 
L 19.921875 54.6875 
L 34.71875 54.6875 
L 34.71875 47.703125 
L 19.921875 47.703125 
L 19.921875 0 
L 10.890625 0 
L 10.890625 47.703125 
L 2.296875 47.703125 
L 2.296875 54.6875 
L 10.890625 54.6875 
L 10.890625 58.5 
Q 10.890625 67.625 15.140625 71.796875 
Q 19.390625 75.984375 28.609375 75.984375 
z
" id="DejaVuSans-102"/>
     <path d="M 44.28125 53.078125 
L 44.28125 44.578125 
Q 40.484375 46.53125 36.375 47.5 
Q 32.28125 48.484375 27.875 48.484375 
Q 21.1875 48.484375 17.84375 46.4375 
Q 14.5 44.390625 14.5 40.28125 
Q 14.5 37.15625 16.890625 35.375 
Q 19.28125 33.59375 26.515625 31.984375 
L 29.59375 31.296875 
Q 39.15625 29.25 43.1875 25.515625 
Q 47.21875 21.78125 47.21875 15.09375 
Q 47.21875 7.46875 41.1875 3.015625 
Q 35.15625 -1.421875 24.609375 -1.421875 
Q 20.21875 -1.421875 15.453125 -0.5625 
Q 10.6875 0.296875 5.421875 2 
L 5.421875 11.28125 
Q 10.40625 8.6875 15.234375 7.390625 
Q 20.0625 6.109375 24.8125 6.109375 
Q 31.15625 6.109375 34.5625 8.28125 
Q 37.984375 10.453125 37.984375 14.40625 
Q 37.984375 18.0625 35.515625 20.015625 
Q 33.0625 21.96875 24.703125 23.78125 
L 21.578125 24.515625 
Q 13.234375 26.265625 9.515625 29.90625 
Q 5.8125 33.546875 5.8125 39.890625 
Q 5.8125 47.609375 11.28125 51.796875 
Q 16.75 56 26.8125 56 
Q 31.78125 56 36.171875 55.265625 
Q 40.578125 54.546875 44.28125 53.078125 
z
" id="DejaVuSans-115"/>
     <path d="M 34.28125 27.484375 
Q 23.390625 27.484375 19.1875 25 
Q 14.984375 22.515625 14.984375 16.5 
Q 14.984375 11.71875 18.140625 8.90625 
Q 21.296875 6.109375 26.703125 6.109375 
Q 34.1875 6.109375 38.703125 11.40625 
Q 43.21875 16.703125 43.21875 25.484375 
L 43.21875 27.484375 
z
M 52.203125 31.203125 
L 52.203125 0 
L 43.21875 0 
L 43.21875 8.296875 
Q 40.140625 3.328125 35.546875 0.953125 
Q 30.953125 -1.421875 24.3125 -1.421875 
Q 15.921875 -1.421875 10.953125 3.296875 
Q 6 8.015625 6 15.921875 
Q 6 25.140625 12.171875 29.828125 
Q 18.359375 34.515625 30.609375 34.515625 
L 43.21875 34.515625 
L 43.21875 35.40625 
Q 43.21875 41.609375 39.140625 45 
Q 35.0625 48.390625 27.6875 48.390625 
Q 23 48.390625 18.546875 47.265625 
Q 14.109375 46.140625 10.015625 43.890625 
L 10.015625 52.203125 
Q 14.9375 54.109375 19.578125 55.046875 
Q 24.21875 56 28.609375 56 
Q 40.484375 56 46.34375 49.84375 
Q 52.203125 43.703125 52.203125 31.203125 
z
" id="DejaVuSans-97"/>
     <path d="M 30.609375 48.390625 
Q 23.390625 48.390625 19.1875 42.75 
Q 14.984375 37.109375 14.984375 27.296875 
Q 14.984375 17.484375 19.15625 11.84375 
Q 23.34375 6.203125 30.609375 6.203125 
Q 37.796875 6.203125 41.984375 11.859375 
Q 46.1875 17.53125 46.1875 27.296875 
Q 46.1875 37.015625 41.984375 42.703125 
Q 37.796875 48.390625 30.609375 48.390625 
z
M 30.609375 56 
Q 42.328125 56 49.015625 48.375 
Q 55.71875 40.765625 55.71875 27.296875 
Q 55.71875 13.875 49.015625 6.21875 
Q 42.328125 -1.421875 30.609375 -1.421875 
Q 18.84375 -1.421875 12.171875 6.21875 
Q 5.515625 13.875 5.515625 27.296875 
Q 5.515625 40.765625 12.171875 48.375 
Q 18.84375 56 30.609375 56 
z
" id="DejaVuSans-111"/>
    </defs>
    <g transform="translate(281.752813 16.318125)scale(0.12 -0.12)">
     <use xlink:href="#DejaVuSans-68"/>
     <use x="77.001953" xlink:href="#DejaVuSans-105"/>
     <use x="104.785156" xlink:href="#DejaVuSans-102"/>
     <use x="139.990234" xlink:href="#DejaVuSans-117"/>
     <use x="203.369141" xlink:href="#DejaVuSans-115"/>
     <use x="255.46875" xlink:href="#DejaVuSans-97"/>
     <use x="316.748047" xlink:href="#DejaVuSans-111"/>
    </g>
   </g>
  </g>
 </g>
 <defs>
  <clipPath id="p4bb388ab5b">
   <rect height="388.08" width="502.2" x="53.328125" y="22.318125"/>
  </clipPath>
 </defs>
</svg>
