<?xml version="1.0" encoding="utf-8" standalone="no"?>
<!DOCTYPE svg PUBLIC "-//W3C//DTD SVG 1.1//EN"
  "http://www.w3.org/Graphics/SVG/1.1/DTD/svg11.dtd">
<!-- Created with matplotlib (https://matplotlib.org/) -->
<svg height="447.954375pt" version="1.1" viewBox="0 0 562.728125 447.954375" width="562.728125pt" xmlns="http://www.w3.org/2000/svg" xmlns:xlink="http://www.w3.org/1999/xlink">
 <defs>
  <style type="text/css">
*{stroke-linecap:butt;stroke-linejoin:round;}
  </style>
 </defs>
 <g id="figure_1">
  <g id="patch_1">
   <path d="M 0 447.954375 
L 562.728125 447.954375 
L 562.728125 0 
L 0 0 
z
" style="fill:#ffffff;"/>
  </g>
  <g id="axes_1">
   <g id="patch_2">
    <path d="M 53.328125 410.398125 
L 555.528125 410.398125 
L 555.528125 22.318125 
L 53.328125 22.318125 
z
" style="fill:#ffffff;"/>
   </g>
   <g id="matplotlib.axis_1">
    <g id="xtick_1">
     <g id="line2d_1">
      <defs>
       <path d="M 0 0 
L 0 3.5 
" id="m27fde386ef" style="stroke:#000000;stroke-width:0.8;"/>
      </defs>
      <g>
       <use style="stroke:#000000;stroke-width:0.8;" x="76.155398" xlink:href="#m27fde386ef" y="410.398125"/>
      </g>
     </g>
     <g id="text_1">
      <!-- 0 -->
      <defs>
       <path d="M 31.78125 66.40625 
Q 24.171875 66.40625 20.328125 58.90625 
Q 16.5 51.421875 16.5 36.375 
Q 16.5 21.390625 20.328125 13.890625 
Q 24.171875 6.390625 31.78125 6.390625 
Q 39.453125 6.390625 43.28125 13.890625 
Q 47.125 21.390625 47.125 36.375 
Q 47.125 51.421875 43.28125 58.90625 
Q 39.453125 66.40625 31.78125 66.40625 
z
M 31.78125 74.21875 
Q 44.046875 74.21875 50.515625 64.515625 
Q 56.984375 54.828125 56.984375 36.375 
Q 56.984375 17.96875 50.515625 8.265625 
Q 44.046875 -1.421875 31.78125 -1.421875 
Q 19.53125 -1.421875 13.0625 8.265625 
Q 6.59375 17.96875 6.59375 36.375 
Q 6.59375 54.828125 13.0625 64.515625 
Q 19.53125 74.21875 31.78125 74.21875 
z
" id="DejaVuSans-48"/>
      </defs>
      <g transform="translate(72.974148 424.996562)scale(0.1 -0.1)">
       <use xlink:href="#DejaVuSans-48"/>
      </g>
     </g>
    </g>
    <g id="xtick_2">
     <g id="line2d_2">
      <g>
       <use style="stroke:#000000;stroke-width:0.8;" x="169.327939" xlink:href="#m27fde386ef" y="410.398125"/>
      </g>
     </g>
     <g id="text_2">
      <!-- 10 -->
      <defs>
       <path d="M 12.40625 8.296875 
L 28.515625 8.296875 
L 28.515625 63.921875 
L 10.984375 60.40625 
L 10.984375 69.390625 
L 28.421875 72.90625 
L 38.28125 72.90625 
L 38.28125 8.296875 
L 54.390625 8.296875 
L 54.390625 0 
L 12.40625 0 
z
" id="DejaVuSans-49"/>
      </defs>
      <g transform="translate(162.965439 424.996562)scale(0.1 -0.1)">
       <use xlink:href="#DejaVuSans-49"/>
       <use x="63.623047" xlink:href="#DejaVuSans-48"/>
      </g>
     </g>
    </g>
    <g id="xtick_3">
     <g id="line2d_3">
      <g>
       <use style="stroke:#000000;stroke-width:0.8;" x="262.500481" xlink:href="#m27fde386ef" y="410.398125"/>
      </g>
     </g>
     <g id="text_3">
      <!-- 20 -->
      <defs>
       <path d="M 19.1875 8.296875 
L 53.609375 8.296875 
L 53.609375 0 
L 7.328125 0 
L 7.328125 8.296875 
Q 12.9375 14.109375 22.625 23.890625 
Q 32.328125 33.6875 34.8125 36.53125 
Q 39.546875 41.84375 41.421875 45.53125 
Q 43.3125 49.21875 43.3125 52.78125 
Q 43.3125 58.59375 39.234375 62.25 
Q 35.15625 65.921875 28.609375 65.921875 
Q 23.96875 65.921875 18.8125 64.3125 
Q 13.671875 62.703125 7.8125 59.421875 
L 7.8125 69.390625 
Q 13.765625 71.78125 18.9375 73 
Q 24.125 74.21875 28.421875 74.21875 
Q 39.75 74.21875 46.484375 68.546875 
Q 53.21875 62.890625 53.21875 53.421875 
Q 53.21875 48.921875 51.53125 44.890625 
Q 49.859375 40.875 45.40625 35.40625 
Q 44.1875 33.984375 37.640625 27.21875 
Q 31.109375 20.453125 19.1875 8.296875 
z
" id="DejaVuSans-50"/>
      </defs>
      <g transform="translate(256.137981 424.996562)scale(0.1 -0.1)">
       <use xlink:href="#DejaVuSans-50"/>
       <use x="63.623047" xlink:href="#DejaVuSans-48"/>
      </g>
     </g>
    </g>
    <g id="xtick_4">
     <g id="line2d_4">
      <g>
       <use style="stroke:#000000;stroke-width:0.8;" x="355.673023" xlink:href="#m27fde386ef" y="410.398125"/>
      </g>
     </g>
     <g id="text_4">
      <!-- 30 -->
      <defs>
       <path d="M 40.578125 39.3125 
Q 47.65625 37.796875 51.625 33 
Q 55.609375 28.21875 55.609375 21.1875 
Q 55.609375 10.40625 48.1875 4.484375 
Q 40.765625 -1.421875 27.09375 -1.421875 
Q 22.515625 -1.421875 17.65625 -0.515625 
Q 12.796875 0.390625 7.625 2.203125 
L 7.625 11.71875 
Q 11.71875 9.328125 16.59375 8.109375 
Q 21.484375 6.890625 26.8125 6.890625 
Q 36.078125 6.890625 40.9375 10.546875 
Q 45.796875 14.203125 45.796875 21.1875 
Q 45.796875 27.640625 41.28125 31.265625 
Q 36.765625 34.90625 28.71875 34.90625 
L 20.21875 34.90625 
L 20.21875 43.015625 
L 29.109375 43.015625 
Q 36.375 43.015625 40.234375 45.921875 
Q 44.09375 48.828125 44.09375 54.296875 
Q 44.09375 59.90625 40.109375 62.90625 
Q 36.140625 65.921875 28.71875 65.921875 
Q 24.65625 65.921875 20.015625 65.03125 
Q 15.375 64.15625 9.8125 62.3125 
L 9.8125 71.09375 
Q 15.4375 72.65625 20.34375 73.4375 
Q 25.25 74.21875 29.59375 74.21875 
Q 40.828125 74.21875 47.359375 69.109375 
Q 53.90625 64.015625 53.90625 55.328125 
Q 53.90625 49.265625 50.4375 45.09375 
Q 46.96875 40.921875 40.578125 39.3125 
z
" id="DejaVuSans-51"/>
      </defs>
      <g transform="translate(349.310523 424.996562)scale(0.1 -0.1)">
       <use xlink:href="#DejaVuSans-51"/>
       <use x="63.623047" xlink:href="#DejaVuSans-48"/>
      </g>
     </g>
    </g>
    <g id="xtick_5">
     <g id="line2d_5">
      <g>
       <use style="stroke:#000000;stroke-width:0.8;" x="448.845565" xlink:href="#m27fde386ef" y="410.398125"/>
      </g>
     </g>
     <g id="text_5">
      <!-- 40 -->
      <defs>
       <path d="M 37.796875 64.3125 
L 12.890625 25.390625 
L 37.796875 25.390625 
z
M 35.203125 72.90625 
L 47.609375 72.90625 
L 47.609375 25.390625 
L 58.015625 25.390625 
L 58.015625 17.1875 
L 47.609375 17.1875 
L 47.609375 0 
L 37.796875 0 
L 37.796875 17.1875 
L 4.890625 17.1875 
L 4.890625 26.703125 
z
" id="DejaVuSans-52"/>
      </defs>
      <g transform="translate(442.483065 424.996562)scale(0.1 -0.1)">
       <use xlink:href="#DejaVuSans-52"/>
       <use x="63.623047" xlink:href="#DejaVuSans-48"/>
      </g>
     </g>
    </g>
    <g id="xtick_6">
     <g id="line2d_6">
      <g>
       <use style="stroke:#000000;stroke-width:0.8;" x="542.018106" xlink:href="#m27fde386ef" y="410.398125"/>
      </g>
     </g>
     <g id="text_6">
      <!-- 50 -->
      <defs>
       <path d="M 10.796875 72.90625 
L 49.515625 72.90625 
L 49.515625 64.59375 
L 19.828125 64.59375 
L 19.828125 46.734375 
Q 21.96875 47.46875 24.109375 47.828125 
Q 26.265625 48.1875 28.421875 48.1875 
Q 40.625 48.1875 47.75 41.5 
Q 54.890625 34.8125 54.890625 23.390625 
Q 54.890625 11.625 47.5625 5.09375 
Q 40.234375 -1.421875 26.90625 -1.421875 
Q 22.3125 -1.421875 17.546875 -0.640625 
Q 12.796875 0.140625 7.71875 1.703125 
L 7.71875 11.625 
Q 12.109375 9.234375 16.796875 8.0625 
Q 21.484375 6.890625 26.703125 6.890625 
Q 35.15625 6.890625 40.078125 11.328125 
Q 45.015625 15.765625 45.015625 23.390625 
Q 45.015625 31 40.078125 35.4375 
Q 35.15625 39.890625 26.703125 39.890625 
Q 22.75 39.890625 18.8125 39.015625 
Q 14.890625 38.140625 10.796875 36.28125 
z
" id="DejaVuSans-53"/>
      </defs>
      <g transform="translate(535.655606 424.996562)scale(0.1 -0.1)">
       <use xlink:href="#DejaVuSans-53"/>
       <use x="63.623047" xlink:href="#DejaVuSans-48"/>
      </g>
     </g>
    </g>
    <g id="text_7">
     <!-- x -->
     <defs>
      <path d="M 54.890625 54.6875 
L 35.109375 28.078125 
L 55.90625 0 
L 45.3125 0 
L 29.390625 21.484375 
L 13.484375 0 
L 2.875 0 
L 24.125 28.609375 
L 4.6875 54.6875 
L 15.28125 54.6875 
L 29.78125 35.203125 
L 44.28125 54.6875 
z
" id="DejaVuSans-120"/>
     </defs>
     <g transform="translate(301.46875 438.674687)scale(0.1 -0.1)">
      <use xlink:href="#DejaVuSans-120"/>
     </g>
    </g>
   </g>
   <g id="matplotlib.axis_2">
    <g id="ytick_1">
     <g id="line2d_7">
      <defs>
       <path d="M 0 0 
L -3.5 0 
" id="m81a9968768" style="stroke:#000000;stroke-width:0.8;"/>
      </defs>
      <g>
       <use style="stroke:#000000;stroke-width:0.8;" x="53.328125" xlink:href="#m81a9968768" y="392.758125"/>
      </g>
     </g>
     <g id="text_8">
      <!-- 0 -->
      <g transform="translate(39.965625 396.557344)scale(0.1 -0.1)">
       <use xlink:href="#DejaVuSans-48"/>
      </g>
     </g>
    </g>
    <g id="ytick_2">
     <g id="line2d_8">
      <g>
       <use style="stroke:#000000;stroke-width:0.8;" x="53.328125" xlink:href="#m81a9968768" y="322.198125"/>
      </g>
     </g>
     <g id="text_9">
      <!-- 200 -->
      <g transform="translate(27.240625 325.997344)scale(0.1 -0.1)">
       <use xlink:href="#DejaVuSans-50"/>
       <use x="63.623047" xlink:href="#DejaVuSans-48"/>
       <use x="127.246094" xlink:href="#DejaVuSans-48"/>
      </g>
     </g>
    </g>
    <g id="ytick_3">
     <g id="line2d_9">
      <g>
       <use style="stroke:#000000;stroke-width:0.8;" x="53.328125" xlink:href="#m81a9968768" y="251.638125"/>
      </g>
     </g>
     <g id="text_10">
      <!-- 400 -->
      <g transform="translate(27.240625 255.437344)scale(0.1 -0.1)">
       <use xlink:href="#DejaVuSans-52"/>
       <use x="63.623047" xlink:href="#DejaVuSans-48"/>
       <use x="127.246094" xlink:href="#DejaVuSans-48"/>
      </g>
     </g>
    </g>
    <g id="ytick_4">
     <g id="line2d_10">
      <g>
       <use style="stroke:#000000;stroke-width:0.8;" x="53.328125" xlink:href="#m81a9968768" y="181.078125"/>
      </g>
     </g>
     <g id="text_11">
      <!-- 600 -->
      <defs>
       <path d="M 33.015625 40.375 
Q 26.375 40.375 22.484375 35.828125 
Q 18.609375 31.296875 18.609375 23.390625 
Q 18.609375 15.53125 22.484375 10.953125 
Q 26.375 6.390625 33.015625 6.390625 
Q 39.65625 6.390625 43.53125 10.953125 
Q 47.40625 15.53125 47.40625 23.390625 
Q 47.40625 31.296875 43.53125 35.828125 
Q 39.65625 40.375 33.015625 40.375 
z
M 52.59375 71.296875 
L 52.59375 62.3125 
Q 48.875 64.0625 45.09375 64.984375 
Q 41.3125 65.921875 37.59375 65.921875 
Q 27.828125 65.921875 22.671875 59.328125 
Q 17.53125 52.734375 16.796875 39.40625 
Q 19.671875 43.65625 24.015625 45.921875 
Q 28.375 48.1875 33.59375 48.1875 
Q 44.578125 48.1875 50.953125 41.515625 
Q 57.328125 34.859375 57.328125 23.390625 
Q 57.328125 12.15625 50.6875 5.359375 
Q 44.046875 -1.421875 33.015625 -1.421875 
Q 20.359375 -1.421875 13.671875 8.265625 
Q 6.984375 17.96875 6.984375 36.375 
Q 6.984375 53.65625 15.1875 63.9375 
Q 23.390625 74.21875 37.203125 74.21875 
Q 40.921875 74.21875 44.703125 73.484375 
Q 48.484375 72.75 52.59375 71.296875 
z
" id="DejaVuSans-54"/>
      </defs>
      <g transform="translate(27.240625 184.877344)scale(0.1 -0.1)">
       <use xlink:href="#DejaVuSans-54"/>
       <use x="63.623047" xlink:href="#DejaVuSans-48"/>
       <use x="127.246094" xlink:href="#DejaVuSans-48"/>
      </g>
     </g>
    </g>
    <g id="ytick_5">
     <g id="line2d_11">
      <g>
       <use style="stroke:#000000;stroke-width:0.8;" x="53.328125" xlink:href="#m81a9968768" y="110.518125"/>
      </g>
     </g>
     <g id="text_12">
      <!-- 800 -->
      <defs>
       <path d="M 31.78125 34.625 
Q 24.75 34.625 20.71875 30.859375 
Q 16.703125 27.09375 16.703125 20.515625 
Q 16.703125 13.921875 20.71875 10.15625 
Q 24.75 6.390625 31.78125 6.390625 
Q 38.8125 6.390625 42.859375 10.171875 
Q 46.921875 13.96875 46.921875 20.515625 
Q 46.921875 27.09375 42.890625 30.859375 
Q 38.875 34.625 31.78125 34.625 
z
M 21.921875 38.8125 
Q 15.578125 40.375 12.03125 44.71875 
Q 8.5 49.078125 8.5 55.328125 
Q 8.5 64.0625 14.71875 69.140625 
Q 20.953125 74.21875 31.78125 74.21875 
Q 42.671875 74.21875 48.875 69.140625 
Q 55.078125 64.0625 55.078125 55.328125 
Q 55.078125 49.078125 51.53125 44.71875 
Q 48 40.375 41.703125 38.8125 
Q 48.828125 37.15625 52.796875 32.3125 
Q 56.78125 27.484375 56.78125 20.515625 
Q 56.78125 9.90625 50.3125 4.234375 
Q 43.84375 -1.421875 31.78125 -1.421875 
Q 19.734375 -1.421875 13.25 4.234375 
Q 6.78125 9.90625 6.78125 20.515625 
Q 6.78125 27.484375 10.78125 32.3125 
Q 14.796875 37.15625 21.921875 38.8125 
z
M 18.3125 54.390625 
Q 18.3125 48.734375 21.84375 45.5625 
Q 25.390625 42.390625 31.78125 42.390625 
Q 38.140625 42.390625 41.71875 45.5625 
Q 45.3125 48.734375 45.3125 54.390625 
Q 45.3125 60.0625 41.71875 63.234375 
Q 38.140625 66.40625 31.78125 66.40625 
Q 25.390625 66.40625 21.84375 63.234375 
Q 18.3125 60.0625 18.3125 54.390625 
z
" id="DejaVuSans-56"/>
      </defs>
      <g transform="translate(27.240625 114.317344)scale(0.1 -0.1)">
       <use xlink:href="#DejaVuSans-56"/>
       <use x="63.623047" xlink:href="#DejaVuSans-48"/>
       <use x="127.246094" xlink:href="#DejaVuSans-48"/>
      </g>
     </g>
    </g>
    <g id="ytick_6">
     <g id="line2d_12">
      <g>
       <use style="stroke:#000000;stroke-width:0.8;" x="53.328125" xlink:href="#m81a9968768" y="39.958125"/>
      </g>
     </g>
     <g id="text_13">
      <!-- 1000 -->
      <g transform="translate(20.878125 43.757344)scale(0.1 -0.1)">
       <use xlink:href="#DejaVuSans-49"/>
       <use x="63.623047" xlink:href="#DejaVuSans-48"/>
       <use x="127.246094" xlink:href="#DejaVuSans-48"/>
       <use x="190.869141" xlink:href="#DejaVuSans-48"/>
      </g>
     </g>
    </g>
    <g id="text_14">
     <!-- u -->
     <defs>
      <path d="M 8.5 21.578125 
L 8.5 54.6875 
L 17.484375 54.6875 
L 17.484375 21.921875 
Q 17.484375 14.15625 20.5 10.265625 
Q 23.53125 6.390625 29.59375 6.390625 
Q 36.859375 6.390625 41.078125 11.03125 
Q 45.3125 15.671875 45.3125 23.6875 
L 45.3125 54.6875 
L 54.296875 54.6875 
L 54.296875 0 
L 45.3125 0 
L 45.3125 8.40625 
Q 42.046875 3.421875 37.71875 1 
Q 33.40625 -1.421875 27.6875 -1.421875 
Q 18.265625 -1.421875 13.375 4.4375 
Q 8.5 10.296875 8.5 21.578125 
z
M 31.109375 56 
z
" id="DejaVuSans-117"/>
     </defs>
     <g transform="translate(14.798438 219.526875)rotate(-90)scale(0.1 -0.1)">
      <use xlink:href="#DejaVuSans-117"/>
     </g>
    </g>
   </g>
   <g id="line2d_13">
    <path clip-path="url(#p199f349171)" d="M 76.155398 392.758125 
L 85.472652 392.758125 
L 94.789906 392.758125 
L 104.10716 392.758125 
L 113.424414 392.758125 
L 122.741669 392.758125 
L 132.058923 392.758125 
L 141.376177 392.758125 
L 150.693431 392.758125 
L 160.010685 392.758125 
L 169.327939 392.758125 
L 178.645194 392.758125 
L 187.962448 392.758125 
L 197.279702 392.758125 
L 206.596956 392.758125 
L 215.91421 392.758125 
L 225.231465 392.758125 
L 234.548719 392.758125 
L 243.865973 392.758125 
L 253.183227 392.758125 
L 262.500481 392.758125 
L 271.817735 392.758125 
L 281.13499 392.758125 
L 290.452244 392.758125 
L 299.769498 392.758125 
L 309.086752 39.958125 
L 318.404006 392.758125 
L 327.72126 392.758125 
L 337.038515 392.758125 
L 346.355769 392.758125 
L 355.673023 392.758125 
L 364.990277 392.758125 
L 374.307531 392.758125 
L 383.624785 392.758125 
L 392.94204 392.758125 
L 402.259294 392.758125 
L 411.576548 392.758125 
L 420.893802 392.758125 
L 430.211056 392.758125 
L 439.528311 392.758125 
L 448.845565 392.758125 
L 458.162819 392.758125 
L 467.480073 392.758125 
L 476.797327 392.758125 
L 486.114581 392.758125 
L 495.431836 392.758125 
L 504.74909 392.758125 
L 514.066344 392.758125 
L 523.383598 392.758125 
L 532.700852 392.758125 
" style="fill:none;stroke:#1f77b4;stroke-linecap:square;stroke-width:2;"/>
   </g>
   <g id="line2d_14">
    <path clip-path="url(#p199f349171)" d="M 76.155398 392.758125 
L 85.472652 392.758125 
L 94.789906 392.758125 
L 104.10716 392.758125 
L 113.424414 392.758125 
L 122.741669 392.758125 
L 132.058923 392.758125 
L 141.376177 392.758125 
L 150.693431 392.758125 
L 160.010685 392.758125 
L 169.327939 392.758125 
L 178.645194 392.758125 
L 187.962448 392.758125 
L 197.279702 392.758125 
L 206.596956 392.758125 
L 215.91421 392.758125 
L 225.231465 392.758122 
L 234.548719 392.758021 
L 243.865973 392.755854 
L 253.183227 392.725554 
L 262.500481 392.435238 
L 271.817735 390.507452 
L 281.13499 381.770387 
L 290.452244 356.109614 
L 299.769498 313.4387 
L 309.086752 290.776847 
L 318.404006 322.297905 
L 327.72126 359.413548 
L 337.038515 380.458527 
L 346.355769 388.957648 
L 355.673023 391.730012 
L 364.990277 392.507432 
L 374.307531 392.701897 
L 383.624785 392.746352 
L 392.94204 392.755798 
L 402.259294 392.757687 
L 411.576548 392.758046 
L 420.893802 392.758111 
L 430.211056 392.758123 
L 439.528311 392.758125 
L 448.845565 392.758125 
L 458.162819 392.758125 
L 467.480073 392.758125 
L 476.797327 392.758125 
L 486.114581 392.758125 
L 495.431836 392.758125 
L 504.74909 392.758125 
L 514.066344 392.758125 
L 523.383598 392.758125 
L 532.700852 392.758125 
" style="fill:none;stroke:#ff7f0e;stroke-linecap:square;stroke-width:2;"/>
   </g>
   <g id="line2d_15">
    <path clip-path="url(#p199f349171)" d="M 76.155398 392.758125 
L 85.472652 392.758125 
L 94.789906 392.758125 
L 104.10716 392.758125 
L 113.424414 392.758125 
L 122.741669 392.758125 
L 132.058923 392.758125 
L 141.376177 392.758125 
L 150.693431 392.758125 
L 160.010685 392.758125 
L 169.327939 392.758125 
L 178.645194 392.758125 
L 187.962448 392.758124 
L 197.279702 392.758116 
L 206.596956 392.758029 
L 215.91421 392.757249 
L 225.231465 392.751456 
L 234.548719 392.715805 
L 243.865973 392.53485 
L 253.183227 391.783378 
L 262.500481 389.263189 
L 271.817735 382.573945 
L 281.13499 368.964241 
L 290.452244 348.899898 
L 299.769498 330.021824 
L 309.086752 323.852102 
L 318.404006 334.224036 
L 327.72126 353.021151 
L 337.038515 370.389586 
L 346.355769 381.978521 
L 355.673023 388.195563 
L 364.990277 391.027453 
L 374.307531 392.160344 
L 383.624785 392.567703 
L 392.94204 392.701604 
L 402.259294 392.742361 
L 411.576548 392.753965 
L 420.893802 392.75708 
L 430.211056 392.757874 
L 439.528311 392.758067 
L 448.845565 392.758112 
L 458.162819 392.758122 
L 467.480073 392.758124 
L 476.797327 392.758125 
L 486.114581 392.758125 
L 495.431836 392.758125 
L 504.74909 392.758125 
L 514.066344 392.758125 
L 523.383598 392.758125 
L 532.700852 392.758125 
" style="fill:none;stroke:#2ca02c;stroke-linecap:square;stroke-width:2;"/>
   </g>
   <g id="line2d_16">
    <path clip-path="url(#p199f349171)" d="M 76.155398 392.758125 
L 85.472652 392.758125 
L 94.789906 392.758125 
L 104.10716 392.758125 
L 113.424414 392.758125 
L 122.741669 392.758125 
L 132.058923 392.758125 
L 141.376177 392.758125 
L 150.693431 392.758125 
L 160.010685 392.758125 
L 169.327939 392.758122 
L 178.645194 392.758104 
L 187.962448 392.757976 
L 197.279702 392.757212 
L 206.596956 392.753176 
L 215.91421 392.734479 
L 225.231465 392.658832 
L 234.548719 392.392952 
L 243.865973 391.586905 
L 253.183227 389.498841 
L 262.500481 384.934276 
L 271.817735 376.659533 
L 281.13499 364.543901 
L 290.452244 350.871941 
L 299.769498 340.256537 
L 309.086752 337.157372 
L 318.404006 342.705178 
L 327.72126 354.029454 
L 337.038515 366.643819 
L 346.355769 377.192514 
L 355.673023 384.445609 
L 364.990277 388.732699 
L 374.307531 390.971698 
L 383.624785 392.024931 
L 392.94204 392.477624 
L 402.259294 392.657412 
L 411.576548 392.723988 
L 420.893802 392.747146 
L 430.211056 392.754759 
L 439.528311 392.757138 
L 448.845565 392.757847 
L 458.162819 392.75805 
L 467.480073 392.758105 
L 476.797327 392.75812 
L 486.114581 392.758124 
L 495.431836 392.758125 
L 504.74909 392.758125 
L 514.066344 392.758125 
L 523.383598 392.758125 
L 532.700852 392.758125 
" style="fill:none;stroke:#d62728;stroke-linecap:square;stroke-width:2;"/>
   </g>
   <g id="line2d_17">
    <path clip-path="url(#p199f349171)" d="M 76.155398 392.758125 
L 85.472652 392.758125 
L 94.789906 392.758125 
L 104.10716 392.758125 
L 113.424414 392.758125 
L 122.741669 392.758125 
L 132.058923 392.758125 
L 141.376177 392.758124 
L 150.693431 392.758122 
L 160.010685 392.758104 
L 169.327939 392.75801 
L 178.645194 392.757552 
L 187.962448 392.755523 
L 197.279702 392.74741 
L 206.596956 392.718204 
L 215.91421 392.623842 
L 225.231465 392.351389 
L 234.548719 391.652012 
L 243.865973 390.065933 
L 253.183227 386.913059 
L 262.500481 381.475538 
L 271.817735 373.455106 
L 281.13499 363.560504 
L 290.452244 353.771506 
L 299.769498 346.806045 
L 309.086752 344.862342 
L 318.404006 348.444194 
L 327.72126 356.160591 
L 337.038515 365.594493 
L 346.355769 374.503395 
L 355.673023 381.566629 
L 364.990277 386.453029 
L 374.307531 389.471464 
L 383.624785 391.162949 
L 392.94204 392.03313 
L 402.259294 392.447973 
L 411.576548 392.632654 
L 420.893802 392.709925 
L 430.211056 392.740476 
L 439.528311 392.751944 
L 448.845565 392.756049 
L 458.162819 392.757454 
L 467.480073 392.757916 
L 476.797327 392.758062 
L 486.114581 392.758107 
L 495.431836 392.75812 
L 504.74909 392.758124 
L 514.066344 392.758125 
L 523.383598 392.758125 
L 532.700852 392.758125 
" style="fill:none;stroke:#9467bd;stroke-linecap:square;stroke-width:2;"/>
   </g>
   <g id="line2d_18">
    <path clip-path="url(#p199f349171)" d="M 76.155398 392.758125 
L 85.472652 392.758125 
L 94.789906 392.758125 
L 104.10716 392.758125 
L 113.424414 392.758125 
L 122.741669 392.758125 
L 132.058923 392.758122 
L 141.376177 392.758111 
L 150.693431 392.758058 
L 160.010685 392.757832 
L 169.327939 392.756931 
L 178.645194 392.753643 
L 187.962448 392.742612 
L 197.279702 392.708719 
L 206.596956 392.613588 
L 215.91421 392.370435 
L 225.231465 391.806565 
L 234.548719 390.625326 
L 243.865973 388.401565 
L 253.183227 384.663911 
L 262.500481 379.103158 
L 271.817735 371.87036 
L 281.13499 363.811107 
L 290.452244 356.420953 
L 299.769498 351.413086 
L 309.086752 350.049653 
L 318.404006 352.604983 
L 327.72126 358.283885 
L 337.038515 365.620434 
L 346.355769 373.085125 
L 355.673023 379.563556 
L 364.990277 384.532521 
L 374.307531 387.969995 
L 383.624785 390.14425 
L 392.94204 391.414387 
L 402.259294 392.105102 
L 411.576548 392.457046 
L 420.893802 392.625994 
L 430.211056 392.702761 
L 439.528311 392.735914 
L 448.845565 392.749572 
L 458.162819 392.754956 
L 467.480073 392.756993 
L 476.797327 392.757734 
L 486.114581 392.757994 
L 495.431836 392.758083 
L 504.74909 392.758112 
L 514.066344 392.758121 
L 523.383598 392.758124 
L 532.700852 392.758125 
" style="fill:none;stroke:#8c564b;stroke-linecap:square;stroke-width:2;"/>
   </g>
   <g id="line2d_19">
    <path clip-path="url(#p199f349171)" d="M 76.155398 392.758125 
L 85.472652 392.758125 
L 94.789906 392.758125 
L 104.10716 392.758125 
L 113.424414 392.758123 
L 122.741669 392.758117 
L 132.058923 392.758091 
L 141.376177 392.757989 
L 150.693431 392.757613 
L 160.010685 392.756318 
L 169.327939 392.752177 
L 178.645194 392.739868 
L 187.962448 392.705944 
L 197.279702 392.619437 
L 206.596956 392.415801 
L 215.91421 391.974497 
L 225.231465 391.096767 
L 234.548719 389.500356 
L 243.865973 386.85685 
L 253.183227 382.893699 
L 262.500481 377.555198 
L 271.817735 371.167162 
L 281.13499 364.50734 
L 290.452244 358.692122 
L 299.769498 354.872181 
L 309.086752 353.848245 
L 318.404006 355.788697 
L 327.72126 360.189594 
L 337.038515 366.08594 
L 346.355769 372.393522 
L 355.673023 378.217634 
L 364.990277 383.018668 
L 374.307531 386.61889 
L 383.624785 389.104972 
L 392.94204 390.699841 
L 402.259294 391.656883 
L 411.576548 392.197082 
L 420.893802 392.485243 
L 430.211056 392.631103 
L 439.528311 392.701408 
L 448.845565 392.733781 
L 458.162819 392.74806 
L 467.480073 392.754109 
L 476.797327 392.756576 
L 486.114581 392.757546 
L 495.431836 392.757915 
L 504.74909 392.758051 
L 514.066344 392.7581 
L 523.383598 392.758116 
L 532.700852 392.758122 
" style="fill:none;stroke:#e377c2;stroke-linecap:square;stroke-width:2;"/>
   </g>
   <g id="line2d_20">
    <path clip-path="url(#p199f349171)" d="M 76.155398 392.758125 
L 85.472652 392.758125 
L 94.789906 392.758124 
L 104.10716 392.758121 
L 113.424414 392.758109 
L 122.741669 392.758066 
L 132.058923 392.757913 
L 141.376177 392.757411 
L 150.693431 392.755857 
L 160.010685 392.751345 
L 169.327939 392.739069 
L 178.645194 392.707808 
L 187.962448 392.633424 
L 197.279702 392.468353 
L 206.596956 392.127386 
L 215.91421 391.473342 
L 225.231465 390.311311 
L 234.548719 388.405005 
L 243.865973 385.528516 
L 253.183227 381.556146 
L 262.500481 376.570835 
L 271.817735 370.94659 
L 281.13499 365.34999 
L 290.452244 360.626717 
L 299.769498 357.590125 
L 309.086752 356.784871 
L 318.404006 358.322925 
L 327.72126 361.861501 
L 337.038515 366.726544 
L 346.355769 372.121108 
L 355.673023 377.331021 
L 364.990277 381.859175 
L 374.307531 385.464601 
L 383.624785 388.12436 
L 392.94204 389.956861 
L 402.259294 391.143191 
L 411.576548 391.868383 
L 420.893802 392.288691 
L 430.211056 392.520474 
L 439.528311 392.642468 
L 448.845565 392.703919 
L 458.162819 392.733618 
L 467.480073 392.747419 
L 476.797327 392.7536 
L 486.114581 392.756271 
L 495.431836 392.757388 
L 504.74909 392.75784 
L 514.066344 392.758018 
L 523.383598 392.758085 
L 532.700852 392.758107 
" style="fill:none;stroke:#7f7f7f;stroke-linecap:square;stroke-width:2;"/>
   </g>
   <g id="line2d_21">
    <path clip-path="url(#p199f349171)" d="M 76.155398 392.758124 
L 85.472652 392.758123 
L 94.789906 392.758118 
L 104.10716 392.7581 
L 113.424414 392.758039 
L 122.741669 392.757846 
L 132.058923 392.757262 
L 141.376177 392.755596 
L 150.693431 392.751106 
L 160.010685 392.73968 
L 169.327939 392.712274 
L 178.645194 392.650377 
L 187.962448 392.518944 
L 197.279702 392.256951 
L 206.596956 391.767543 
L 215.91421 390.912486 
L 225.231465 389.518465 
L 234.548719 387.403539 
L 243.865973 384.428044 
L 253.183227 380.564085 
L 262.500481 375.96374 
L 271.817735 370.995289 
L 281.13499 366.218202 
L 290.452244 362.286133 
L 299.769498 359.797763 
L 309.086752 359.143063 
L 318.404006 360.400892 
L 327.72126 363.325716 
L 337.038515 367.425171 
L 346.355769 372.095003 
L 355.673023 376.760908 
L 364.990277 380.98339 
L 374.307531 384.504285 
L 383.624785 387.238513 
L 392.94204 389.230692 
L 402.259294 390.600134 
L 411.576548 391.492193 
L 420.893802 392.044856 
L 430.211056 392.37152 
L 439.528311 392.556232 
L 448.845565 392.656395 
L 458.162819 392.708594 
L 467.480073 392.734792 
L 476.797327 392.747476 
L 486.114581 392.75341 
L 495.431836 392.756098 
L 504.74909 392.757277 
L 514.066344 392.757779 
L 523.383598 392.757983 
L 532.700852 392.758056 
" style="fill:none;stroke:#bcbd22;stroke-linecap:square;stroke-width:2;"/>
   </g>
   <g id="line2d_22">
    <path clip-path="url(#p199f349171)" d="M 76.155398 392.758121 
L 85.472652 392.758114 
L 94.789906 392.758091 
L 104.10716 392.758016 
L 113.424414 392.757797 
L 122.741669 392.757178 
L 132.058923 392.755522 
L 141.376177 392.75131 
L 150.693431 392.741144 
L 160.010685 392.717872 
L 169.327939 392.667402 
L 178.645194 392.563826 
L 187.962448 392.362927 
L 197.279702 391.995128 
L 206.596956 391.360526 
L 215.91421 390.330386 
L 225.231465 388.76036 
L 234.548719 386.519391 
L 243.865973 383.533542 
L 253.183227 379.836425 
L 262.500481 375.60999 
L 271.817735 371.195845 
L 281.13499 367.062007 
L 290.452244 363.723887 
L 299.769498 361.636698 
L 309.086752 361.090844 
L 318.404006 362.144315 
L 327.72126 364.614171 
L 337.038515 368.127995 
L 346.355769 372.215537 
L 355.673023 376.409678 
L 364.990277 380.327802 
L 374.307531 383.716574 
L 383.624785 386.458136 
L 392.94204 388.547369 
L 402.259294 390.054845 
L 411.576548 391.088899 
L 420.893802 391.765451 
L 430.211056 392.188842 
L 439.528311 392.442895 
L 448.845565 392.589377 
L 458.162819 392.670691 
L 467.480073 392.714227 
L 476.797327 392.736745 
L 486.114581 392.748013 
L 495.431836 392.753475 
L 504.74909 392.756043 
L 514.066344 392.757212 
L 523.383598 392.757721 
L 532.700852 392.757911 
" style="fill:none;stroke:#17becf;stroke-linecap:square;stroke-width:2;"/>
   </g>
   <g id="line2d_23">
    <path clip-path="url(#p199f349171)" d="M 76.155398 392.758108 
L 85.472652 392.758082 
L 94.789906 392.758 
L 104.10716 392.757769 
L 113.424414 392.757154 
L 122.741669 392.755591 
L 132.058923 392.7518 
L 141.376177 392.743027 
L 150.693431 392.723681 
L 160.010685 392.683064 
L 169.327939 392.601938 
L 178.645194 392.447939 
L 187.962448 392.170412 
L 197.279702 391.696157 
L 206.596956 390.928701 
L 215.91421 389.754481 
L 225.231465 388.05905 
L 234.548719 385.754341 
L 243.865973 382.813959 
L 253.183227 379.3084 
L 262.500481 375.428047 
L 271.817735 371.481469 
L 281.13499 367.861616 
L 290.452244 364.982363 
L 299.769498 363.199121 
L 309.086752 362.734966 
L 318.404006 363.634003 
L 327.72126 365.755629 
L 337.038515 368.810169 
L 346.355769 372.423546 
L 355.673023 376.211168 
L 364.990277 379.841414 
L 374.307531 383.075634 
L 383.624785 385.780855 
L 392.94204 387.919564 
L 402.259294 389.525528 
L 411.576548 390.675248 
L 420.893802 391.462374 
L 430.211056 391.979034 
L 439.528311 392.304893 
L 448.845565 392.502759 
L 458.162819 392.618632 
L 467.480073 392.684179 
L 476.797327 392.720049 
L 486.114581 392.739062 
L 495.431836 392.748836 
L 504.74909 392.753711 
L 514.066344 392.756067 
L 523.383598 392.757149 
L 532.700852 392.757571 
" style="fill:none;stroke:#1f77b4;stroke-linecap:square;stroke-width:2;"/>
   </g>
   <g id="line2d_24">
    <path clip-path="url(#p199f349171)" d="M 76.155398 392.758062 
L 85.472652 392.757985 
L 94.789906 392.757759 
L 104.10716 392.757178 
L 113.424414 392.755758 
L 122.741669 392.752442 
L 132.058923 392.745033 
L 141.376177 392.729187 
L 150.693431 392.696784 
L 160.010685 392.633471 
L 169.327939 392.515363 
L 178.645194 392.305186 
L 187.962448 391.948748 
L 197.279702 391.373278 
L 206.596956 390.489864 
L 215.91421 389.202269 
L 225.231465 387.423593 
L 234.548719 385.10015 
L 243.865973 382.238808 
L 253.183227 378.930875 
L 262.500481 375.363811 
L 271.817735 371.813054 
L 281.13499 368.610666 
L 290.452244 366.094413 
L 299.769498 364.547934 
L 309.086752 364.146949 
L 318.404006 364.925922 
L 327.72126 366.774039 
L 337.038515 369.460771 
L 346.355769 372.682962 
L 355.673023 376.120219 
L 364.990277 379.484922 
L 374.307531 382.55686 
L 383.624785 385.19837 
L 392.94204 387.3516 
L 402.259294 389.023288 
L 411.576548 390.263782 
L 420.893802 391.146145 
L 430.211056 391.74918 
L 439.528311 392.145969 
L 448.845565 392.397779 
L 458.162819 392.552153 
L 467.480073 392.643707 
L 476.797327 392.696304 
L 486.114581 392.72561 
L 495.431836 392.74146 
L 504.74909 392.749784 
L 514.066344 392.754015 
L 523.383598 392.756053 
L 532.700852 392.756876 
" style="fill:none;stroke:#ff7f0e;stroke-linecap:square;stroke-width:2;"/>
   </g>
   <g id="line2d_25">
    <path clip-path="url(#p199f349171)" d="M 76.155398 392.757941 
L 85.472652 392.757751 
L 94.789906 392.757228 
L 104.10716 392.755977 
L 113.424414 392.753141 
L 122.741669 392.746981 
L 132.058923 392.734136 
L 141.376177 392.70844 
L 150.693431 392.659135 
L 160.010685 392.568467 
L 169.327939 392.408779 
L 178.645194 392.139623 
L 187.962448 391.705831 
L 197.279702 391.037989 
L 206.596956 390.056946 
L 215.91421 388.683757 
L 225.231465 386.855398 
L 234.548719 384.544788 
L 243.865973 381.781443 
L 253.183227 378.667196 
L 262.500481 375.380869 
L 271.817735 372.16719 
L 281.13499 369.308864 
L 290.452244 367.085511 
L 299.769498 365.727698 
L 309.086752 365.376747 
L 318.404006 366.060193 
L 327.72126 367.688871 
L 337.038515 370.075786 
L 346.355769 372.971319 
L 355.673023 376.105626 
L 364.990277 379.228463 
L 374.307531 382.138788 
L 383.624785 384.700276 
L 392.94204 386.842954 
L 402.259294 388.554131 
L 411.576548 389.86327 
L 420.893802 390.82533 
L 430.211056 391.505953 
L 439.528311 391.970384 
L 448.845565 392.276549 
L 458.162819 392.471824 
L 467.480073 392.592482 
L 476.797327 392.664794 
L 486.114581 392.706872 
L 495.431836 392.730665 
L 504.74909 392.743734 
L 514.066344 392.750676 
L 523.383598 392.754158 
L 532.700852 392.755604 
" style="fill:none;stroke:#2ca02c;stroke-linecap:square;stroke-width:2;"/>
   </g>
   <g id="line2d_26">
    <path clip-path="url(#p199f349171)" d="M 76.155398 392.757665 
L 85.472652 392.75726 
L 94.789906 392.756204 
L 104.10716 392.753827 
L 113.424414 392.748768 
L 122.741669 392.738438 
L 132.058923 392.718144 
L 141.376177 392.679795 
L 150.693431 392.610114 
L 160.010685 392.488436 
L 169.327939 392.284379 
L 178.645194 391.955953 
L 187.962448 391.449053 
L 197.279702 390.699488 
L 206.596956 389.638693 
L 215.91421 388.203798 
L 225.231465 386.351726 
L 234.548719 384.075529 
L 243.865973 381.419695 
L 253.183227 378.490095 
L 262.500481 375.454326 
L 271.817735 372.529653 
L 281.13499 369.958598 
L 290.452244 367.975575 
L 299.769498 366.770974 
L 309.086752 366.460451 
L 318.404006 367.066419 
L 327.72126 368.515868 
L 337.038515 370.654652 
L 346.355769 373.274391 
L 355.673023 376.145528 
L 364.990277 379.049403 
L 374.307531 381.803426 
L 383.624785 384.275978 
L 392.94204 386.390505 
L 402.259294 388.12063 
L 411.576548 389.479458 
L 420.893802 390.506515 
L 430.211056 391.255168 
L 439.528311 391.782388 
L 448.845565 392.141635 
L 458.162819 392.378811 
L 467.480073 392.530708 
L 476.797327 392.625179 
L 486.114581 392.682289 
L 495.431836 392.715866 
L 504.74909 392.735051 
L 514.066344 392.745642 
L 523.383598 392.75114 
L 532.700852 392.753478 
" style="fill:none;stroke:#d62728;stroke-linecap:square;stroke-width:2;"/>
   </g>
   <g id="line2d_27">
    <path clip-path="url(#p199f349171)" d="M 76.155398 392.757112 
L 85.472652 392.756345 
L 94.789906 392.754429 
L 104.10716 392.750335 
L 113.424414 392.742084 
L 122.741669 392.726109 
L 132.058923 392.696301 
L 141.376177 392.642685 
L 150.693431 392.549733 
L 160.010685 392.394505 
L 169.327939 392.144935 
L 178.645194 391.758892 
L 187.962448 391.184797 
L 197.279702 390.364713 
L 206.596956 389.240597 
L 215.91421 387.763899 
L 225.231465 385.907811 
L 234.548719 383.680356 
L 243.865973 381.135528 
L 253.183227 378.379209 
L 262.500481 375.566905 
L 271.817735 372.891749 
L 281.13499 370.563324 
L 290.452244 368.78035 
L 299.769498 367.702177 
L 309.086752 367.424876 
L 318.404006 367.966973 
L 327.72126 369.267801 
L 337.038515 371.198518 
L 346.355769 373.583075 
L 355.673023 376.224408 
L 364.990277 378.930536 
L 374.307531 381.535976 
L 383.624785 383.915573 
L 392.94204 385.989891 
L 402.259294 387.723143 
L 411.576548 389.115811 
L 420.893802 390.194536 
L 430.211056 391.001629 
L 439.528311 391.585902 
L 448.845565 391.99574 
L 458.162819 392.274647 
L 467.480073 392.458998 
L 476.797327 392.577465 
L 486.114581 392.651537 
L 495.431836 392.696614 
L 504.74909 392.72328 
L 514.066344 392.738504 
L 523.383598 392.746643 
L 532.700852 392.750178 
" style="fill:none;stroke:#9467bd;stroke-linecap:square;stroke-width:2;"/>
   </g>
   <g id="line2d_28">
    <path clip-path="url(#p199f349171)" d="M 76.155398 392.756113 
L 85.472652 392.754792 
L 94.789906 392.751604 
L 104.10716 392.745091 
L 113.424414 392.732564 
L 122.741669 392.709413 
L 132.058923 392.668112 
L 141.376177 392.596945 
L 150.693431 392.478517 
L 160.010685 392.288275 
L 169.327939 391.993423 
L 178.645194 391.552785 
L 187.962448 390.918282 
L 197.279702 390.038646 
L 206.596956 388.865766 
L 215.91421 387.363502 
L 225.231465 385.518095 
L 234.548719 383.348513 
L 243.865973 380.91441 
L 253.183227 378.319231 
L 262.500481 375.70646 
L 271.817735 373.248184 
L 281.13499 371.126795 
L 290.452244 369.512426 
L 299.769498 368.540021 
L 309.086752 368.290412 
L 318.404006 368.779123 
L 327.72126 369.955089 
L 337.038515 371.709324 
L 346.355769 373.891523 
L 355.673023 376.331114 
L 364.990277 378.85871 
L 374.307531 381.32437 
L 383.624785 383.610195 
L 392.94204 385.636311 
L 402.259294 387.360676 
L 411.576548 388.774152 
L 420.893802 389.892783 
L 430.211056 390.749158 
L 439.528311 391.384365 
L 448.845565 391.84149 
L 458.162819 392.161038 
L 467.480073 392.378245 
L 476.797327 392.521937 
L 486.114581 392.614514 
L 495.431836 392.672604 
L 504.74909 392.708039 
L 514.066344 392.728875 
L 523.383598 392.740304 
L 532.700852 392.745354 
" style="fill:none;stroke:#8c564b;stroke-linecap:square;stroke-width:2;"/>
   </g>
   <g id="line2d_29">
    <path clip-path="url(#p199f349171)" d="M 76.155398 392.754458 
L 85.472652 392.752348 
L 94.789906 392.747407 
L 104.10716 392.737692 
L 113.424414 392.719755 
L 122.741669 392.687926 
L 132.058923 392.633338 
L 141.376177 392.542761 
L 150.693431 392.397352 
L 160.010685 392.171589 
L 169.327939 391.83275 
L 178.645194 391.341428 
L 187.962448 390.653605 
L 197.279702 389.724685 
L 206.596956 388.51563 
L 215.91421 387.000846 
L 225.231465 385.176911 
L 234.548719 383.070647 
L 243.865973 380.744671 
L 253.183227 378.298567 
L 262.500481 375.864346 
L 271.817735 373.5958 
L 281.13499 371.652696 
L 290.452244 370.181982 
L 299.769498 369.299122 
L 309.086752 369.072883 
L 318.404006 369.516429 
L 327.72126 370.586299 
L 337.038515 372.189328 
L 346.355769 374.195993 
L 355.673023 376.457543 
L 364.990277 378.823804 
L 374.307531 381.158794 
L 383.624785 383.352092 
L 392.94204 385.324975 
L 402.259294 387.031451 
L 411.576548 388.455153 
L 420.893802 389.603505 
L 430.211056 390.500687 
L 439.528311 391.18068 
L 448.845565 391.681305 
L 458.162819 392.039725 
L 467.480073 392.289509 
L 476.797327 392.459092 
L 486.114581 392.571311 
L 495.431836 392.643676 
L 504.74909 392.689038 
L 514.066344 392.716413 
L 523.383598 392.731765 
L 532.700852 392.73865 
" style="fill:none;stroke:#e377c2;stroke-linecap:square;stroke-width:2;"/>
   </g>
   <g id="line2d_30">
    <path clip-path="url(#p199f349171)" d="M 76.155398 392.751896 
L 85.472652 392.748731 
L 94.789906 392.74151 
L 104.10716 392.727772 
L 113.424414 392.703297 
L 122.741669 392.661391 
L 132.058923 392.59198 
L 141.376177 392.480586 
L 150.693431 392.307352 
L 160.010685 392.04636 
L 169.327939 391.665603 
L 178.645194 391.128005 
L 187.962448 390.39387 
L 197.279702 389.425007 
L 206.596956 388.190478 
L 215.91421 386.673534 
L 225.231465 384.878848 
L 234.548719 382.838744 
L 243.865973 380.616931 
L 253.183227 378.308367 
L 262.500481 376.034355 
L 271.817735 373.932791 
L 281.13499 372.144475 
L 290.452244 370.79734 
L 299.769498 369.991079 
L 309.086752 369.784779 
L 318.404006 370.189714 
L 327.72126 371.168529 
L 337.038515 372.640846 
L 346.355769 374.494123 
L 355.673023 376.597753 
L 364.990277 378.817971 
L 374.307531 381.031266 
L 383.624785 383.134577 
L 392.94204 385.051334 
L 402.259294 386.733284 
L 411.576548 388.158707 
L 420.893802 389.328081 
L 430.211056 390.258401 
L 439.528311 390.977231 
L 448.845565 391.517336 
L 458.162819 391.912387 
L 467.480073 392.193928 
L 476.797327 392.389568 
L 486.114581 392.522174 
L 495.431836 392.6098 
L 504.74909 392.666078 
L 514.066344 392.700826 
L 523.383598 392.720693 
L 532.700852 392.729719 
" style="fill:none;stroke:#7f7f7f;stroke-linecap:square;stroke-width:2;"/>
   </g>
   <g id="line2d_31">
    <path clip-path="url(#p199f349171)" d="M 76.155398 392.748153 
L 85.472652 392.743651 
L 94.789906 392.7336 
L 104.10716 392.715017 
L 113.424414 392.682932 
L 122.741669 392.629708 
L 132.058923 392.544232 
L 141.376177 392.411067 
L 150.693431 392.209745 
L 160.010685 391.914445 
L 169.327939 391.494365 
L 178.645194 390.915108 
L 187.962448 390.141346 
L 197.279702 389.140865 
L 206.596956 387.889845 
L 215.91421 386.378882 
L 225.231465 384.618918 
L 234.548719 382.645997 
L 243.865973 380.523636 
L 253.183227 378.341816 
L 262.500481 376.211991 
L 271.817735 374.25822 
L 281.13499 372.605287 
L 290.452244 371.365366 
L 299.769498 370.625238 
L 309.086752 370.436111 
L 318.404006 370.807728 
L 327.72126 371.707706 
L 337.038515 373.066125 
L 346.355769 374.78447 
L 355.673023 376.747353 
L 364.990277 378.835091 
L 374.307531 380.935282 
L 383.624785 382.951919 
L 392.94204 384.811201 
L 402.259294 386.463828 
L 411.576548 387.884197 
L 420.893802 389.067237 
L 430.211056 390.02386 
L 439.528311 390.775922 
L 448.845565 391.351439 
L 458.162819 391.78058 
L 467.480073 392.092643 
L 476.797327 392.314085 
L 486.114581 392.467458 
L 495.431836 392.571055 
L 504.74909 392.639047 
L 514.066344 392.681885 
L 523.383598 392.706795 
L 532.700852 392.718237 
" style="fill:none;stroke:#bcbd22;stroke-linecap:square;stroke-width:2;"/>
   </g>
   <g id="line2d_32">
    <path clip-path="url(#p199f349171)" d="M 76.155398 392.742943 
L 85.472652 392.736815 
L 94.789906 392.723389 
L 104.10716 392.699177 
L 113.424414 392.658509 
L 122.741669 392.592916 
L 132.058923 392.49044 
L 141.376177 392.334968 
L 150.693431 392.105789 
L 160.010685 391.777578 
L 169.327939 391.32109 
L 178.645194 390.704794 
L 187.962448 389.897622 
L 197.279702 388.872836 
L 206.596956 387.612799 
L 215.91421 386.114146 
L 225.231465 384.392621 
L 234.548719 382.486644 
L 243.865973 380.458678 
L 253.183227 378.393635 
L 262.500481 376.393982 
L 271.817735 374.571706 
L 281.13499 373.037975 
L 290.452244 371.891782 
L 299.769498 371.209217 
L 309.086752 371.035005 
L 318.404006 371.377636 
L 327.72126 372.208818 
L 337.038515 373.467278 
L 346.355769 375.066204 
L 355.673023 376.903074 
L 364.990277 378.870352 
L 374.307531 380.865521 
L 383.624785 382.799232 
L 392.94204 384.600787 
L 402.259294 386.22072 
L 411.576548 387.630687 
L 420.893802 388.821224 
L 430.211056 389.798134 
L 439.528311 390.57824 
L 448.845565 391.185181 
L 458.162819 391.645707 
L 467.480073 391.986757 
L 476.797327 392.233401 
L 486.114581 392.407596 
L 495.431836 392.527604 
L 504.74909 392.607909 
L 514.066344 392.65942 
L 523.383598 392.689821 
L 532.700852 392.70392 
" style="fill:none;stroke:#17becf;stroke-linecap:square;stroke-width:2;"/>
   </g>
   <g id="line2d_33">
    <path clip-path="url(#p199f349171)" d="M 76.155398 392.735979 
L 85.472652 392.727945 
L 94.789906 392.710626 
L 104.10716 392.680066 
L 113.424414 392.629969 
L 122.741669 392.551166 
L 132.058923 392.431054 
L 141.376177 392.253115 
L 150.693431 391.996707 
L 160.010685 391.63732 
L 169.327939 391.147501 
L 178.645194 390.498649 
L 187.962448 389.663752 
L 197.279702 388.621017 
L 206.596956 387.358125 
L 215.91421 385.876647 
L 225.231465 384.195948 
L 234.548719 382.355821 
L 243.865973 380.417097 
L 253.183227 378.459703 
L 262.500481 376.577936 
L 271.817735 374.873226 
L 281.13499 373.445088 
L 290.452244 372.381395 
L 299.769498 371.7493 
L 309.086752 371.588141 
L 318.404006 371.905368 
L 327.72126 372.676091 
L 337.038515 373.84626 
L 346.355769 375.338909 
L 355.673023 377.062475 
L 364.990277 378.919951 
L 374.307531 380.817622 
L 383.624785 382.672349 
L 392.94204 384.416702 
L 402.259294 386.001671 
L 411.576548 387.397058 
L 420.893802 388.589955 
L 430.211056 389.581897 
L 439.528311 390.385315 
L 448.845565 391.019855 
L 458.162819 391.509002 
L 467.480073 391.877299 
L 476.797327 392.148273 
L 486.114581 392.343065 
L 495.431836 392.479678 
L 504.74909 392.572697 
L 514.066344 392.633323 
L 523.383598 392.669573 
L 532.700852 392.686526 
" style="fill:none;stroke:#1f77b4;stroke-linecap:square;stroke-width:2;"/>
   </g>
   <g id="line2d_34">
    <path clip-path="url(#p199f349171)" d="M 76.155398 392.72699 
L 85.472652 392.716788 
L 94.789906 392.695104 
L 104.10716 392.657563 
L 113.424414 392.597337 
L 122.741669 392.504698 
L 132.058923 392.366594 
L 141.376177 392.166347 
L 150.693431 391.883652 
L 160.010685 391.495047 
L 169.327939 390.975017 
L 178.645194 390.297863 
L 187.962448 389.440372 
L 197.279702 388.385165 
L 206.596956 387.124467 
L 215.91421 385.66385 
L 225.231465 384.025362 
L 234.548719 382.249415 
L 243.865973 380.394851 
L 253.183227 378.536781 
L 262.500481 376.762106 
L 271.817735 375.162985 
L 281.13499 373.828901 
L 290.452244 372.838274 
L 299.769498 372.250724 
L 309.086752 372.101065 
L 318.404006 372.395878 
L 327.72126 373.113131 
L 337.038515 374.204857 
L 346.355769 375.602444 
L 355.673023 377.223725 
L 364.990277 378.980863 
L 374.307531 380.787989 
L 383.624785 382.56772 
L 392.94204 384.255936 
L 402.259294 385.804518 
L 411.576548 387.182099 
L 420.893802 388.373103 
L 430.211056 389.375525 
L 439.528311 390.197982 
L 448.845565 390.856512 
L 458.162819 391.37153 
L 467.480073 391.765208 
L 476.797327 392.059432 
L 486.114581 392.274363 
L 495.431836 392.427552 
L 504.74909 392.533501 
L 514.066344 392.603543 
L 523.383598 392.645907 
L 532.700852 392.665865 
" style="fill:none;stroke:#ff7f0e;stroke-linecap:square;stroke-width:2;"/>
   </g>
   <g id="line2d_35">
    <path clip-path="url(#p199f349171)" d="M 76.155398 392.715726 
L 85.472652 392.703123 
L 94.789906 392.67666 
L 104.10716 392.631608 
L 113.424414 392.560706 
L 122.741669 392.453814 
L 132.058923 392.297615 
L 141.376177 392.075487 
L 150.693431 391.767679 
L 160.010685 391.351947 
L 169.327939 390.804782 
L 178.645194 390.103303 
L 187.962448 389.227801 
L 197.279702 388.164808 
L 206.596956 386.91041 
L 215.91421 385.473396 
L 225.231465 383.87775 
L 234.548719 382.163949 
L 243.865973 380.388628 
L 253.183227 378.622315 
L 262.500481 376.945216 
L 271.817735 375.441326 
L 281.13499 374.191441 
L 290.452244 373.265889 
L 299.769498 372.717888 
L 309.086752 372.578424 
L 318.404006 372.853345 
L 327.72126 373.523035 
L 337.038515 374.544696 
L 346.355769 375.856855 
L 355.673023 377.385452 
L 364.990277 379.05067 
L 374.307531 380.773649 
L 383.624785 382.48232 
L 392.94204 384.115828 
L 402.259294 385.627247 
L 411.576548 386.98457 
L 420.893802 388.170183 
L 430.211056 389.17916 
L 439.528311 390.016827 
L 448.845565 390.695987 
L 458.162819 391.234197 
L 467.480073 391.651323 
L 476.797327 391.967567 
L 486.114581 392.201988 
L 495.431836 392.371531 
L 504.74909 392.490454 
L 514.066344 392.570076 
L 523.383598 392.618728 
L 532.700852 392.641796 
" style="fill:none;stroke:#2ca02c;stroke-linecap:square;stroke-width:2;"/>
   </g>
   <g id="line2d_36">
    <path clip-path="url(#p199f349171)" d="M 76.155398 392.701967 
L 85.472652 392.686762 
L 94.789906 392.655176 
L 104.10716 392.602194 
L 113.424414 392.520225 
L 122.741669 392.398856 
L 132.058923 392.22468 
L 141.376177 391.981316 
L 150.693431 391.649734 
L 160.010685 391.209026 
L 169.327939 390.637702 
L 178.645194 389.915566 
L 187.962448 389.026117 
L 197.279702 387.959328 
L 206.596956 386.714544 
L 215.91421 385.303121 
L 225.231465 383.750386 
L 234.548719 382.096474 
L 243.865973 380.395702 
L 253.183227 378.714274 
L 262.500481 377.126339 
L 271.817735 375.708675 
L 281.13499 374.534518 
L 290.452244 373.667222 
L 299.769498 373.154523 
L 309.086752 373.024147 
L 318.404006 373.281316 
L 327.72126 373.908477 
L 337.038515 374.867251 
L 346.355769 376.102308 
L 355.673023 377.546624 
L 364.990277 379.127431 
L 374.307531 380.772136 
L 383.624785 382.413562 
L 392.94204 383.994032 
L 402.259294 385.468006 
L 411.576548 386.803245 
L 420.893802 387.980607 
L 430.211056 388.992775 
L 439.528311 389.842241 
L 448.845565 390.53893 
L 458.162819 391.097758 
L 467.480073 391.536383 
L 476.797327 391.873312 
L 486.114581 392.126425 
L 495.431836 392.311935 
L 504.74909 392.443722 
L 514.066344 392.532966 
L 523.383598 392.587992 
L 532.700852 392.614231 
" style="fill:none;stroke:#d62728;stroke-linecap:square;stroke-width:2;"/>
   </g>
   <g id="line2d_37">
    <path clip-path="url(#p199f349171)" d="M 76.155398 392.68553 
L 85.472652 392.667561 
L 94.789906 392.630581 
L 104.10716 392.569359 
L 113.424414 392.476079 
L 122.741669 392.340189 
L 132.058923 392.148345 
L 141.376177 391.884559 
L 150.693431 391.530654 
L 160.010685 391.067125 
L 169.327939 390.474475 
L 178.645194 389.735038 
L 187.962448 388.835222 
L 197.279702 387.768013 
L 206.596956 386.535496 
L 215.91421 385.151054 
L 225.231465 383.640885 
L 234.548719 382.044488 
L 243.865973 380.413825 
L 253.183227 378.811044 
L 262.500481 377.30481 
L 271.817735 375.965503 
L 281.13499 374.859746 
L 290.452244 374.044845 
L 299.769498 373.563815 
L 309.086752 373.441581 
L 318.404006 373.68283 
L 327.72126 374.271779 
L 337.038515 375.173856 
L 346.355769 376.33905 
L 355.673023 377.706473 
L 364.990277 379.209577 
L 374.307531 380.781391 
L 383.624785 382.359234 
L 392.94204 383.888479 
L 402.259294 385.325102 
L 411.576548 386.636935 
L 420.893802 387.803727 
L 430.211056 388.81621 
L 439.528311 389.674455 
L 448.845565 390.385831 
L 458.162819 390.962834 
L 467.480073 391.421027 
L 476.797327 391.777243 
L 486.114581 392.048134 
L 495.431836 392.249089 
L 504.74909 392.393497 
L 514.066344 392.492292 
L 523.383598 392.553699 
L 532.700852 392.583127 
" style="fill:none;stroke:#9467bd;stroke-linecap:square;stroke-width:2;"/>
   </g>
   <g id="line2d_38">
    <path clip-path="url(#p199f349171)" d="M 76.155398 392.66627 
L 85.472652 392.645413 
L 94.789906 392.602841 
L 104.10716 392.53318 
L 113.424414 392.428486 
L 122.741669 392.278189 
L 132.058923 392.069141 
L 141.376177 391.785877 
L 150.693431 391.411164 
L 160.010685 390.926934 
L 169.327939 390.315625 
L 178.645194 389.561933 
L 187.962448 388.65489 
L 197.279702 387.590107 
L 206.596956 386.37196 
L 215.91421 385.015408 
L 225.231465 383.547159 
L 234.548719 382.005859 
L 243.865973 380.441128 
L 253.183227 378.911329 
L 262.500481 377.480158 
L 271.817735 376.212302 
L 281.13499 375.168567 
L 290.452244 374.400994 
L 299.769498 373.948503 
L 309.086752 373.833598 
L 318.404006 374.060503 
L 327.72126 374.614969 
L 337.038515 375.46572 
L 346.355769 376.567374 
L 355.673023 377.864428 
L 364.990277 379.295841 
L 374.307531 380.799693 
L 383.624785 382.317435 
L 392.94204 383.797352 
L 402.259294 385.196996 
L 411.576548 386.484508 
L 420.893802 387.638862 
L 430.211056 388.649216 
L 439.528311 389.513576 
L 448.845565 390.23705 
L 458.162819 390.829929 
L 467.480073 391.305804 
L 476.797327 391.679877 
L 486.114581 391.967548 
L 495.431836 392.183315 
L 504.74909 392.339991 
L 514.066344 392.448165 
L 523.383598 392.515888 
L 532.700852 392.548487 
" style="fill:none;stroke:#8c564b;stroke-linecap:square;stroke-width:2;"/>
   </g>
   <g id="line2d_39">
    <path clip-path="url(#p199f349171)" d="M 76.155398 392.64408 
L 85.472652 392.620248 
L 94.789906 392.571962 
L 104.10716 392.493764 
L 113.424414 392.377678 
L 122.741669 392.213226 
L 132.058923 391.987569 
L 141.376177 391.685862 
L 150.693431 391.291885 
L 160.010685 390.78901 
L 169.327939 390.161531 
L 178.645194 389.396335 
L 187.962448 388.484806 
L 197.279702 387.424835 
L 206.596956 386.222702 
L 215.91421 384.894576 
L 225.231465 383.467379 
L 234.548719 381.978766 
L 243.865973 380.476058 
L 253.183227 379.014093 
L 262.500481 377.652059 
L 271.817735 376.449562 
L 281.13499 375.462276 
L 290.452244 374.737623 
L 299.769498 374.310957 
L 309.086752 374.202675 
L 318.404006 374.416605 
L 327.72126 374.939825 
L 337.038515 375.743935 
L 346.355769 376.787605 
L 355.673023 378.02007 
L 364.990277 379.385191 
L 374.307531 380.825599 
L 383.624785 382.286536 
L 392.94204 383.719047 
L 402.259294 385.082294 
L 411.576548 386.344896 
L 420.893802 387.485325 
L 430.211056 388.491479 
L 439.528311 389.35961 
L 448.845565 390.092835 
L 458.162819 390.69944 
L 467.480073 391.191176 
L 476.797327 391.581669 
L 486.114581 391.885065 
L 495.431836 392.114928 
L 504.74909 392.283423 
L 514.066344 392.400723 
L 523.383598 392.474633 
L 532.700852 392.510353 
" style="fill:none;stroke:#e377c2;stroke-linecap:square;stroke-width:2;"/>
   </g>
   <g id="line2d_40">
    <path clip-path="url(#p199f349171)" d="M 76.155398 392.618891 
L 85.472652 392.592037 
L 94.789906 392.537979 
L 104.10716 392.451243 
L 113.424414 392.323901 
L 122.741669 392.14566 
L 132.058923 391.904088 
L 141.376177 391.58504 
L 150.693431 391.173343 
L 160.010685 390.653794 
L 169.327939 390.012454 
L 178.645194 389.238224 
L 187.962448 388.324594 
L 197.279702 387.271425 
L 206.596956 386.086572 
L 215.91421 384.787108 
L 225.231465 383.399947 
L 234.548719 381.961651 
L 243.865973 380.517317 
L 253.183227 379.118503 
L 262.500481 377.820302 
L 271.817735 376.67777 
L 281.13499 375.742032 
L 290.452244 375.056446 
L 299.769498 374.653238 
L 309.086752 374.550968 
L 318.404006 374.753113 
L 327.72126 375.247915 
L 337.038515 376.009492 
L 346.355769 377.000076 
L 355.673023 378.173098 
L 364.990277 379.47679 
L 374.307531 380.85789 
L 383.624785 382.265127 
L 392.94204 383.652153 
L 402.259294 384.979735 
L 411.576548 386.217099 
L 420.893802 387.342434 
L 430.211056 388.342642 
L 439.528311 389.212488 
L 448.845565 389.953342 
L 458.162819 390.571677 
L 467.480073 391.077529 
L 476.797327 391.483019 
L 486.114581 391.801049 
L 495.431836 392.044228 
L 504.74909 392.22402 
L 514.066344 392.350122 
L 523.383598 392.430038 
L 532.700852 392.468798 
" style="fill:none;stroke:#7f7f7f;stroke-linecap:square;stroke-width:2;"/>
   </g>
   <g id="line2d_41">
    <path clip-path="url(#p199f349171)" d="M 76.155398 392.59067 
L 85.472652 392.56078 
L 94.789906 392.500957 
L 104.10716 392.405766 
L 113.424414 392.2674 
L 122.741669 392.075836 
L 132.058923 391.819122 
L 141.376177 391.483869 
L 150.693431 391.055976 
L 160.010685 390.521628 
L 169.327939 389.868554 
L 178.645194 389.087502 
L 187.962448 388.173837 
L 197.279702 387.129122 
L 206.596956 385.962501 
L 215.91421 384.691704 
L 225.231465 383.343458 
L 234.548719 381.953178 
L 243.865973 380.563816 
L 253.183227 379.223886 
L 262.500481 377.984755 
L 271.817735 376.897395 
L 281.13499 376.008879 
L 290.452244 375.358974 
L 299.769498 374.97715 
L 309.086752 374.880355 
L 318.404006 375.07176 
L 327.72126 375.540626 
L 337.038515 376.263289 
L 346.355769 377.205127 
L 355.673023 378.3233 
L 364.990277 379.569951 
L 374.307531 380.895538 
L 383.624785 382.251993 
L 392.94204 383.595424 
L 402.259294 384.88818 
L 411.576548 386.100188 
L 420.893802 387.209524 
L 430.211056 388.202317 
L 439.528311 389.072083 
L 448.845565 389.818654 
L 458.162819 390.446871 
L 467.480073 390.965181 
L 476.797327 391.384271 
L 486.114581 391.715833 
L 495.431836 391.971501 
L 504.74909 392.162009 
L 514.066344 392.296534 
L 523.383598 392.382231 
L 532.700852 392.423927 
" style="fill:none;stroke:#bcbd22;stroke-linecap:square;stroke-width:2;"/>
   </g>
   <g id="line2d_42">
    <path clip-path="url(#p199f349171)" d="M 76.155398 392.559419 
L 85.472652 392.52651 
L 94.789906 392.460985 
L 104.10716 392.357497 
L 113.424414 392.208423 
L 122.741669 392.004077 
L 132.058923 391.733051 
L 141.376177 391.382749 
L 150.693431 390.940145 
L 160.010685 390.392768 
L 169.327939 389.729911 
L 178.645194 388.944012 
L 187.962448 388.0321 
L 197.279702 386.997198 
L 206.596956 385.849503 
L 215.91421 384.607194 
L 225.231465 383.296681 
L 234.548719 381.952195 
L 243.865973 380.614639 
L 253.183227 379.329702 
L 262.500481 378.145354 
L 271.817735 377.108887 
L 281.13499 376.263759 
L 290.452244 375.646544 
L 299.769498 375.28428 
L 309.086752 375.192488 
L 318.404006 375.37407 
L 327.72126 375.81919 
L 337.038515 376.506141 
L 346.355769 377.403094 
L 355.673023 378.470533 
L 364.990277 379.664115 
L 374.307531 380.937672 
L 383.624785 382.246082 
L 392.94204 383.547759 
L 402.259294 384.806603 
L 411.576548 385.9933 
L 420.893802 387.085955 
L 430.211056 388.070107 
L 439.528311 388.938223 
L 448.845565 389.688794 
L 458.162819 390.325189 
L 467.480073 390.854388 
L 476.797327 391.285724 
L 486.114581 391.629711 
L 495.431836 391.897016 
L 504.74909 392.097618 
L 514.066344 392.24014 
L 523.383598 392.331359 
L 532.700852 392.375868 
" style="fill:none;stroke:#17becf;stroke-linecap:square;stroke-width:2;"/>
   </g>
   <g id="line2d_43">
    <path clip-path="url(#p199f349171)" d="M 76.155398 392.525167 
L 85.472652 392.489285 
L 94.789906 392.418171 
L 104.10716 392.306606 
L 113.424414 392.147209 
L 122.741669 391.930684 
L 132.058923 391.646213 
L 141.376177 391.282019 
L 150.693431 390.826141 
L 160.010685 390.267397 
L 169.327939 389.596543 
L 178.645194 388.807554 
L 187.962448 387.898934 
L 197.279702 386.874957 
L 206.596956 385.74667 
L 215.91421 384.532531 
L 225.231465 383.258531 
L 234.548719 381.95771 
L 243.865973 380.669015 
L 253.183227 379.435515 
L 262.500481 378.30208 
L 271.817735 377.312675 
L 281.13499 376.507521 
L 290.452244 375.920347 
L 299.769498 375.576028 
L 309.086752 375.488823 
L 318.404006 375.661395 
L 327.72126 376.084706 
L 337.038515 376.73879 
L 346.355769 377.594306 
L 355.673023 378.614709 
L 364.990277 379.758824 
L 374.307531 380.983551 
L 383.624785 382.246478 
L 392.94204 383.508187 
L 402.259294 384.734078 
L 411.576548 385.895639 
L 420.893802 386.971113 
L 430.211056 387.945605 
L 439.528311 388.810707 
L 448.845565 389.563738 
L 458.162819 390.206743 
L 467.480073 390.745355 
L 476.797327 391.187631 
L 486.114581 391.542949 
L 495.431836 391.821023 
L 504.74909 392.031067 
L 514.066344 392.18113 
L 523.383598 392.277583 
L 532.700852 392.324766 
" style="fill:none;stroke:#1f77b4;stroke-linecap:square;stroke-width:2;"/>
   </g>
   <g id="line2d_44">
    <path clip-path="url(#p199f349171)" d="M 76.155398 392.487972 
L 85.472652 392.449186 
L 94.789906 392.372636 
L 104.10716 392.25327 
L 113.424414 392.08399 
L 122.741669 391.855935 
L 132.058923 391.55891 
L 141.376177 391.181969 
L 150.693431 390.714195 
L 160.010685 390.145638 
L 169.327939 389.468416 
L 178.645194 388.677896 
L 187.962448 387.773891 
L 197.279702 386.76174 
L 206.596956 385.653168 
L 215.91421 384.466774 
L 225.231465 383.228054 
L 234.548719 381.968864 
L 243.865973 380.726292 
L 253.183227 379.540976 
L 262.500481 378.454948 
L 271.817735 377.509167 
L 281.13499 376.740937 
L 290.452244 376.181445 
L 299.769498 375.853637 
L 309.086752 375.770649 
L 318.404006 375.934931 
L 327.72126 376.338159 
L 337.038515 376.961914 
L 346.355769 377.779078 
L 355.673023 378.755781 
L 364.990277 379.853704 
L 374.307531 381.032543 
L 383.624785 382.252386 
L 392.94204 383.475844 
L 402.259294 384.669768 
L 411.576548 385.80647 
L 420.893802 386.864416 
L 430.211056 387.828408 
L 439.528311 388.689309 
L 448.845565 389.443421 
L 458.162819 390.0916 
L 467.480073 390.638242 
L 476.797327 391.090206 
L 486.114581 391.455784 
L 495.431836 391.743755 
L 504.74909 391.962572 
L 514.066344 392.119696 
L 523.383598 392.221075 
L 532.700852 392.270783 
" style="fill:none;stroke:#ff7f0e;stroke-linecap:square;stroke-width:2;"/>
   </g>
   <g id="line2d_45">
    <path clip-path="url(#p199f349171)" d="M 76.155398 392.447912 
L 85.472652 392.406312 
L 94.789906 392.324516 
L 104.10716 392.197667 
L 113.424414 392.018987 
L 122.741669 391.780085 
L 132.058923 391.471406 
L 141.376177 391.082841 
L 150.693431 390.604487 
L 160.010685 390.027565 
L 169.327939 389.345454 
L 178.645194 388.554787 
L 187.962448 387.656528 
L 197.279702 386.656925 
L 206.596956 385.56823 
L 215.91421 384.409076 
L 225.231465 383.204408 
L 234.548719 381.984912 
L 243.865973 380.785917 
L 253.183227 379.645803 
L 262.500481 378.604003 
L 271.817735 377.698745 
L 281.13499 376.964706 
L 290.452244 376.430787 
L 299.769498 376.118212 
L 309.086752 376.039111 
L 318.404006 376.195748 
L 327.72126 376.58043 
L 337.038515 377.176128 
L 346.355769 377.957718 
L 355.673023 378.893733 
L 364.990277 379.948449 
L 374.307531 381.084109 
L 383.624785 382.263111 
L 392.94204 383.449967 
L 402.259294 384.612919 
L 411.576548 385.725116 
L 420.893802 386.765315 
L 430.211056 387.718118 
L 439.528311 388.573791 
L 448.845565 389.32775 
L 458.162819 389.979789 
L 467.480073 390.533167 
L 476.797327 390.993626 
L 486.114581 391.368422 
L 495.431836 391.665428 
L 504.74909 391.892342 
L 514.066344 392.056032 
L 523.383598 392.162017 
L 532.700852 392.214091 
" style="fill:none;stroke:#2ca02c;stroke-linecap:square;stroke-width:2;"/>
   </g>
   <g id="line2d_46">
    <path clip-path="url(#p199f349171)" d="M 76.155398 392.405085 
L 85.472652 392.360778 
L 94.789906 392.273954 
L 104.10716 392.139976 
L 113.424414 391.952412 
L 122.741669 391.703363 
L 132.058923 391.383932 
L 141.376177 390.984834 
L 150.693431 390.497151 
L 160.010685 389.913208 
L 169.327939 389.227553 
L 178.645194 388.437962 
L 187.962448 387.546415 
L 197.279702 386.559928 
L 206.596956 385.491157 
L 215.91421 384.358678 
L 225.231465 383.186847 
L 234.548719 382.005207 
L 243.865973 380.84742 
L 253.183227 379.749771 
L 262.500481 378.749307 
L 271.817735 377.881771 
L 281.13499 377.179463 
L 290.452244 376.669229 
L 299.769498 376.370742 
L 309.086752 376.295235 
L 318.404006 376.4448 
L 327.72126 376.812316 
L 337.038515 377.381997 
L 346.355769 378.130514 
L 355.673023 379.028575 
L 364.990277 380.042807 
L 374.307531 381.137788 
L 383.624785 382.278046 
L 392.94204 383.429874 
L 402.259294 384.562849 
L 411.576548 385.650955 
L 420.893802 386.673291 
L 430.211056 387.614347 
L 439.528311 388.463905 
L 448.845565 389.216611 
L 458.162819 389.871309 
L 467.480073 390.430219 
L 476.797327 390.898041 
L 486.114581 391.281049 
L 495.431836 391.586241 
L 504.74909 391.820575 
L 514.066344 391.990331 
L 523.383598 392.10059 
L 532.700852 392.154869 
" style="fill:none;stroke:#d62728;stroke-linecap:square;stroke-width:2;"/>
   </g>
   <g id="line2d_47">
    <path clip-path="url(#p199f349171)" d="M 76.155398 392.359604 
L 85.472652 392.312711 
L 94.789906 392.2211 
L 104.10716 392.080373 
L 113.424414 391.884463 
L 122.741669 391.62598 
L 132.058923 391.296688 
L 141.376177 390.888113 
L 150.693431 390.392282 
L 160.010685 389.802564 
L 169.327939 389.114582 
L 178.645194 388.327149 
L 187.962448 387.443134 
L 197.279702 386.470201 
L 206.596956 385.421307 
L 215.91421 384.314897 
L 225.231465 383.174712 
L 234.548719 382.029184 
L 243.865973 380.910403 
L 253.183227 379.852702 
L 262.500481 378.890937 
L 271.817735 378.058585 
L 281.13499 377.38579 
L 290.452244 376.89754 
L 299.769498 376.612114 
L 309.086752 376.539936 
L 318.404006 376.682947 
L 327.72126 377.034536 
L 337.038515 377.580038 
L 346.355769 378.297746 
L 355.673023 379.160334 
L 364.990277 380.136574 
L 374.307531 381.193183 
L 383.624785 382.296658 
L 392.94204 383.414961 
L 402.259294 384.518942 
L 411.576548 385.583415 
L 420.893802 386.587857 
L 430.211056 387.516721 
L 439.528311 388.359399 
L 448.845565 389.109871 
L 458.162819 389.766132 
L 467.480073 390.329456 
L 476.797327 390.803572 
L 486.114581 391.193826 
L 495.431836 391.506376 
L 504.74909 391.747462 
L 514.066344 391.922781 
L 523.383598 392.036983 
L 532.700852 392.093299 
" style="fill:none;stroke:#9467bd;stroke-linecap:square;stroke-width:2;"/>
   </g>
   <g id="line2d_48">
    <path clip-path="url(#p199f349171)" d="M 76.155398 392.311595 
L 85.472652 392.262248 
L 94.789906 392.166107 
L 104.10716 392.019029 
L 113.424414 391.815326 
L 122.741669 391.548124 
L 132.058923 391.209845 
L 141.376177 390.792809 
L 150.693431 390.289946 
L 160.010685 389.695602 
L 169.327939 389.006397 
L 178.645194 388.222073 
L 187.962448 387.346283 
L 197.279702 386.387232 
L 206.596956 385.358091 
L 215.91421 384.277115 
L 225.231465 383.167418 
L 234.548719 382.056353 
L 243.865973 380.974525 
L 253.183227 379.954454 
L 262.500481 379.02898 
L 271.817735 378.229505 
L 281.13499 377.584216 
L 290.452244 377.116417 
L 299.769498 376.843126 
L 309.086752 376.774039 
L 318.404006 376.91096 
L 327.72126 377.247739 
L 337.038515 377.770725 
L 346.355769 378.459675 
L 355.673023 379.289053 
L 364.990277 380.229586 
L 374.307531 381.249954 
L 383.624785 382.318479 
L 392.94204 383.404688 
L 402.259294 384.480641 
L 411.576548 385.52197 
L 420.893802 386.508557 
L 430.211056 387.424881 
L 439.528311 388.260021 
L 448.845565 389.007386 
L 458.162819 389.664214 
L 467.480073 390.230914 
L 476.797327 390.710316 
L 486.114581 391.106892 
L 495.431836 391.425999 
L 504.74909 391.673181 
L 514.066344 391.853567 
L 523.383598 391.971379 
L 532.700852 392.029567 
" style="fill:none;stroke:#8c564b;stroke-linecap:square;stroke-width:2;"/>
   </g>
   <g id="line2d_49">
    <path clip-path="url(#p199f349171)" d="M 76.155398 392.261194 
L 85.472652 392.209529 
L 94.789906 392.10913 
L 104.10716 391.956112 
L 113.424414 391.745175 
L 122.741669 391.469965 
L 132.058923 391.123552 
L 141.376177 390.699025 
L 150.693431 390.190177 
L 160.010685 389.59227 
L 169.327939 388.902837 
L 178.645194 388.12246 
L 187.962448 387.255478 
L 197.279702 386.310546 
L 206.596956 385.300972 
L 215.91421 384.244779 
L 225.231465 383.164444 
L 234.548719 382.086282 
L 243.865973 381.039496 
L 253.183227 380.054919 
L 262.500481 379.163529 
L 271.817735 378.394831 
L 281.13499 377.775225 
L 290.452244 377.326489 
L 299.769498 377.064498 
L 309.086752 376.998288 
L 318.404006 377.129539 
L 327.72126 377.452519 
L 337.038515 377.954492 
L 346.355769 378.61655 
L 355.673023 379.414783 
L 364.990277 380.321707 
L 374.307531 381.307808 
L 383.624785 382.343099 
L 392.94204 383.398571 
L 402.259294 384.447441 
L 411.576548 385.466136 
L 420.893802 386.434966 
L 430.211056 387.338481 
L 439.528311 388.165521 
L 448.845565 388.909004 
L 458.162819 389.565493 
L 467.480073 390.134609 
L 476.797327 390.618352 
L 486.114581 391.020372 
L 495.431836 391.345264 
L 504.74909 391.597904 
L 514.066344 391.782869 
L 523.383598 391.903963 
L 532.700852 391.963856 
" style="fill:none;stroke:#e377c2;stroke-linecap:square;stroke-width:2;"/>
   </g>
   <g id="line2d_50">
    <path clip-path="url(#p199f349171)" d="M 76.155398 392.20854 
L 85.472652 392.154704 
L 94.789906 392.050323 
L 104.10716 391.891783 
L 113.424414 391.674172 
L 122.741669 391.391653 
L 132.058923 391.037933 
L 141.376177 390.606841 
L 150.693431 390.092989 
L 160.010685 389.492497 
L 169.327939 388.803735 
L 178.645194 388.028041 
L 187.962448 387.170354 
L 197.279702 386.239698 
L 206.596956 385.249458 
L 215.91421 384.217387 
L 225.231465 383.165327 
L 234.548719 382.118594 
L 243.865973 381.105068 
L 253.183227 380.15401 
L 262.500481 379.294681 
L 271.817735 378.554843 
L 281.13499 377.959264 
L 290.452244 377.528331 
L 299.769498 377.276882 
L 309.086752 377.213355 
L 318.404006 377.339316 
L 327.72126 377.649412 
L 337.038515 378.131742 
L 346.355769 378.768607 
L 355.673023 379.537585 
L 364.990277 380.41283 
L 374.307531 381.366492 
L 383.624785 382.370155 
L 392.94204 383.39618 
L 402.259294 384.418883 
L 411.576548 385.415469 
L 420.893802 386.366685 
L 430.211056 387.257194 
L 439.528311 388.075656 
L 448.845565 388.814568 
L 458.162819 389.469895 
L 467.480073 390.040542 
L 476.797327 390.527739 
L 486.114581 390.934371 
L 495.431836 391.26431 
L 504.74909 391.521791 
L 514.066344 391.710859 
L 523.383598 391.834912 
L 532.700852 391.896349 
" style="fill:none;stroke:#7f7f7f;stroke-linecap:square;stroke-width:2;"/>
   </g>
   <g id="line2d_51">
    <path clip-path="url(#p199f349171)" d="M 76.155398 392.15378 
L 85.472652 392.097919 
L 94.789906 391.989841 
L 104.10716 391.826197 
L 113.424414 391.602467 
L 122.741669 391.313324 
L 132.058923 390.953093 
L 141.376177 390.516315 
L 150.693431 389.998378 
L 160.010685 389.396199 
L 169.327939 388.708918 
L 178.645194 387.938552 
L 187.962448 387.090563 
L 197.279702 386.174275 
L 206.596956 385.203096 
L 215.91421 384.194487 
L 225.231465 383.169655 
L 234.548719 382.152957 
L 243.865973 381.171028 
L 253.183227 380.251665 
L 262.500481 379.422536 
L 271.817735 378.709803 
L 281.13499 378.136741 
L 290.452244 377.722465 
L 299.769498 377.48087 
L 309.086752 377.419848 
L 318.404006 377.540865 
L 327.72126 377.838911 
L 337.038515 378.302844 
L 346.355769 378.916069 
L 355.673023 379.657524 
L 364.990277 380.502869 
L 374.307531 381.425789 
L 383.624785 382.399325 
L 392.94204 383.397127 
L 402.259294 384.394553 
L 411.576548 385.369559 
L 420.893802 386.303342 
L 430.211056 387.180707 
L 439.528311 387.990186 
L 448.845565 388.723919 
L 458.162819 389.377337 
L 467.480073 389.948699 
L 476.797327 390.438525 
L 486.114581 390.848982 
L 495.431836 391.183262 
L 504.74909 391.444991 
L 514.066344 391.637703 
L 523.383598 391.764401 
L 532.700852 391.827224 
" style="fill:none;stroke:#bcbd22;stroke-linecap:square;stroke-width:2;"/>
   </g>
   <g id="line2d_52">
    <path clip-path="url(#p199f349171)" d="M 76.155398 392.097063 
L 85.472652 392.039326 
L 94.789906 391.927833 
L 104.10716 391.759502 
L 113.424414 391.5302 
L 122.741669 391.235098 
L 132.058923 390.86912 
L 141.376177 390.427488 
L 150.693431 389.906322 
L 160.010685 389.303282 
L 169.327939 388.618212 
L 178.645194 387.853738 
L 187.962448 387.015776 
L 197.279702 386.113893 
L 206.596956 385.161474 
L 215.91421 384.175668 
L 225.231465 383.177057 
L 234.548719 382.18908 
L 243.865973 381.237197 
L 253.183227 380.347836 
L 262.500481 379.547195 
L 271.817735 378.859959 
L 281.13499 378.308031 
L 290.452244 377.909368 
L 299.769498 377.677 
L 309.086752 377.618323 
L 318.404006 377.73471 
L 327.72126 378.021466 
L 337.038515 378.468138 
L 346.355769 379.059144 
L 355.673023 379.774669 
L 364.990277 380.591755 
L 374.307531 381.485508 
L 383.624785 382.430326 
L 392.94204 383.401065 
L 402.259294 384.374071 
L 411.576548 385.328033 
L 420.893802 386.244592 
L 430.211056 387.108725 
L 439.528311 387.90888 
L 448.845565 388.636895 
L 458.162819 389.287731 
L 467.480073 389.859057 
L 476.797327 390.350742 
L 486.114581 390.764285 
L 495.431836 391.102237 
L 504.74909 391.367646 
L 514.066344 391.563558 
L 523.383598 391.692599 
L 532.700852 391.756654 
" style="fill:none;stroke:#17becf;stroke-linecap:square;stroke-width:2;"/>
   </g>
   <g id="line2d_53">
    <path clip-path="url(#p199f349171)" d="M 76.155398 392.038537 
L 85.472652 391.979073 
L 94.789906 391.864446 
L 104.10716 391.691839 
L 113.424414 391.457499 
L 122.741669 391.157081 
L 132.058923 390.786087 
L 141.376177 390.340386 
L 150.693431 389.816789 
L 160.010685 389.213644 
L 169.327939 388.53144 
L 178.645194 387.77335 
L 187.962448 386.945683 
L 197.279702 386.058193 
L 206.596956 385.124213 
L 215.91421 384.160558 
L 225.231465 383.187203 
L 234.548719 382.226706 
L 243.865973 381.303418 
L 253.183227 380.442491 
L 262.500481 379.668757 
L 271.817735 379.00554 
L 281.13499 378.473483 
L 290.452244 378.089477 
L 299.769498 377.865764 
L 309.086752 377.809285 
L 318.404006 377.921329 
L 327.72126 378.197487 
L 337.038515 378.62794 
L 346.355769 379.198032 
L 355.673023 379.889091 
L 364.990277 380.679436 
L 374.307531 381.545488 
L 383.624785 382.462907 
L 392.94204 383.40768 
L 402.259294 384.357095 
L 411.576548 385.290542 
L 420.893802 386.190111 
L 430.211056 387.040969 
L 439.528311 387.831517 
L 448.845565 388.55334 
L 458.162819 389.200983 
L 467.480073 389.771584 
L 476.797327 390.264413 
L 486.114581 390.680347 
L 495.431836 391.021338 
L 504.74909 391.289886 
L 514.066344 391.488574 
L 523.383598 391.619667 
L 532.700852 391.684806 
" style="fill:none;stroke:#1f77b4;stroke-linecap:square;stroke-width:2;"/>
   </g>
   <g id="line2d_54">
    <path clip-path="url(#p199f349171)" d="M 76.155398 391.97835 
L 85.472652 391.917306 
L 94.789906 391.799822 
L 104.10716 391.623343 
L 113.424414 391.384483 
L 122.741669 391.079367 
L 132.058923 390.704052 
L 141.376177 390.255023 
L 150.693431 389.729735 
L 160.010685 389.127179 
L 169.327939 388.448431 
L 178.645194 387.697152 
L 187.962448 386.87999 
L 197.279702 386.006845 
L 206.596956 385.090964 
L 215.91421 384.148823 
L 225.231465 383.199797 
L 234.548719 382.265608 
L 243.865973 381.369559 
L 253.183227 380.53561 
L 262.500481 379.787323 
L 271.817735 379.146764 
L 281.13499 378.633416 
L 290.452244 378.263192 
L 299.769498 378.047609 
L 309.086752 377.993195 
L 318.404006 378.101158 
L 327.72126 378.367354 
L 337.038515 378.782543 
L 346.355769 379.332918 
L 355.673023 380.000862 
L 364.990277 380.765872 
L 374.307531 381.605587 
L 383.624785 382.496844 
L 392.94204 383.416693 
L 402.259294 384.343312 
L 411.576548 385.25677 
L 420.893802 386.139599 
L 430.211056 386.977174 
L 439.528311 387.757882 
L 448.845565 388.473097 
L 458.162819 389.116997 
L 467.480073 389.686242 
L 476.797327 390.179552 
L 486.114581 390.597228 
L 495.431836 390.94066 
L 504.74909 391.211835 
L 514.066344 391.412895 
L 523.383598 391.545761 
L 532.700852 391.611841 
" style="fill:none;stroke:#ff7f0e;stroke-linecap:square;stroke-width:2;"/>
   </g>
   <g id="line2d_55">
    <path clip-path="url(#p199f349171)" d="M 76.155398 391.916648 
L 85.472652 391.854169 
L 94.789906 391.7341 
L 104.10716 391.55414 
L 113.424414 391.311261 
L 122.741669 391.00204 
L 132.058923 390.623065 
L 141.376177 390.171401 
L 150.693431 389.64511 
L 160.010685 389.043776 
L 169.327939 388.369011 
L 178.645194 387.624913 
L 187.962448 386.818421 
L 197.279702 385.959541 
L 206.596956 385.061408 
L 215.91421 384.140154 
L 225.231465 383.214574 
L 234.548719 382.305585 
L 243.865973 381.435506 
L 253.183227 380.627179 
L 262.500481 379.902989 
L 271.817735 379.283834 
L 281.13499 378.788127 
L 290.452244 378.430882 
L 299.769498 378.222949 
L 309.086752 378.170476 
L 318.404006 378.274599 
L 327.72126 378.531414 
L 337.038515 378.932216 
L 346.355769 379.463978 
L 355.673023 380.110055 
L 364.990277 380.851033 
L 374.307531 381.665682 
L 383.624785 382.531938 
L 392.94204 383.427848 
L 402.259294 384.332437 
L 411.576548 385.226423 
L 420.893802 386.092777 
L 430.211056 386.917094 
L 439.528311 387.687771 
L 448.845565 388.396013 
L 458.162819 389.035677 
L 467.480073 389.602988 
L 476.797327 390.096164 
L 486.114581 390.514977 
L 495.431836 390.860289 
L 504.74909 391.133605 
L 514.066344 391.336652 
L 523.383598 391.471026 
L 532.700852 391.537913 
" style="fill:none;stroke:#2ca02c;stroke-linecap:square;stroke-width:2;"/>
   </g>
   <g id="line2d_56">
    <path clip-path="url(#p199f349171)" d="M 76.155398 391.853575 
L 85.472652 391.7898 
L 94.789906 391.667411 
L 104.10716 391.484348 
L 113.424414 391.237933 
L 122.741669 390.925174 
L 132.058923 390.543162 
L 141.376177 390.089513 
L 150.693431 389.562857 
L 160.010685 388.963324 
L 169.327939 388.293015 
L 178.645194 387.556416 
L 187.962448 386.760716 
L 197.279702 385.915993 
L 206.596956 385.035251 
L 215.91421 384.134275 
L 225.231465 383.231293 
L 234.548719 382.34646 
L 243.865973 381.501162 
L 253.183227 380.717197 
L 262.500481 380.01585 
L 271.817735 379.41694 
L 281.13499 378.937891 
L 290.452244 378.592884 
L 299.769498 378.392161 
L 309.086752 378.341516 
L 318.404006 378.442019 
L 327.72126 378.68999 
L 337.038515 379.077211 
L 346.355769 379.591378 
L 355.673023 380.216743 
L 364.990277 380.934899 
L 374.307531 381.725668 
L 383.624785 382.568012 
L 392.94204 383.440918 
L 402.259294 384.324209 
L 411.576548 385.199231 
L 420.893802 386.049385 
L 430.211056 386.860493 
L 439.528311 387.62099 
L 448.845565 388.321941 
L 458.162819 388.956923 
L 467.480073 389.521774 
L 476.797327 390.014251 
L 486.114581 390.433635 
L 495.431836 390.780302 
L 504.74909 391.055303 
L 514.066344 391.259974 
L 523.383598 391.395602 
L 532.700852 391.463168 
" style="fill:none;stroke:#d62728;stroke-linecap:square;stroke-width:2;"/>
   </g>
   <g id="line2d_57">
    <path clip-path="url(#p199f349171)" d="M 76.155398 391.789268 
L 85.472652 391.724336 
L 94.789906 391.599881 
L 104.10716 391.414082 
L 113.424414 391.164591 
L 122.741669 390.848831 
L 132.058923 390.464372 
L 141.376177 390.009348 
L 150.693431 389.482916 
L 160.010685 388.88571 
L 169.327939 388.220279 
L 178.645194 387.491453 
L 187.962448 386.706631 
L 197.279702 385.875935 
L 206.596956 385.012224 
L 215.91421 384.130932 
L 225.231465 383.249741 
L 234.548719 382.388075 
L 243.865973 381.566444 
L 253.183227 380.805665 
L 262.500481 380.125998 
L 271.817735 379.546262 
L 281.13499 379.082961 
L 290.452244 378.749513 
L 299.769498 378.555592 
L 309.086752 378.50667 
L 318.404006 378.603758 
L 327.72126 378.843376 
L 337.038515 379.217762 
L 346.355769 379.715275 
L 355.673023 380.320996 
L 364.990277 381.017455 
L 374.307531 381.785452 
L 383.624785 382.604909 
L 392.94204 383.455694 
L 402.259294 384.318391 
L 411.576548 385.174945 
L 420.893802 386.00918 
L 430.211056 386.807153 
L 439.528311 387.557352 
L 448.845565 388.250737 
L 458.162819 388.88064 
L 467.480073 389.44255 
L 476.797327 389.933806 
L 486.114581 390.353238 
L 495.431836 390.700768 
L 504.74909 390.977024 
L 514.066344 391.182976 
L 523.383598 391.319623 
L 532.700852 391.387744 
" style="fill:none;stroke:#9467bd;stroke-linecap:square;stroke-width:2;"/>
   </g>
   <g id="line2d_58">
    <path clip-path="url(#p199f349171)" d="M 76.155398 391.723864 
L 85.472652 391.657906 
L 94.789906 391.531631 
L 104.10716 391.343445 
L 113.424414 391.091319 
L 122.741669 390.77307 
L 132.058923 390.386718 
L 141.376177 389.930885 
L 150.693431 389.40522 
L 160.010685 388.810824 
L 169.327939 388.150646 
L 178.645194 387.429825 
L 187.962448 386.655937 
L 197.279702 385.839121 
L 206.596956 384.992077 
L 215.91421 384.129893 
L 225.231465 383.269722 
L 234.548719 382.430291 
L 243.865973 381.631281 
L 253.183227 380.89259 
L 262.500481 380.233524 
L 271.817735 379.671967 
L 281.13499 379.223576 
L 290.452244 378.901056 
L 299.769498 378.713563 
L 309.086752 378.666269 
L 318.404006 378.760127 
L 327.72126 378.991849 
L 337.038515 379.354086 
L 346.355769 379.835815 
L 355.673023 380.422884 
L 364.990277 381.098694 
L 374.307531 381.844955 
L 383.624785 382.642487 
L 392.94204 383.471989 
L 402.259294 384.314765 
L 411.576548 385.153336 
L 420.893802 385.971938 
L 430.211056 386.756867 
L 439.528311 387.496682 
L 448.845565 388.182264 
L 458.162819 388.806732 
L 467.480073 389.365264 
L 476.797327 389.854821 
L 486.114581 390.273815 
L 495.431836 390.62175 
L 504.74909 390.89886 
L 514.066344 391.105771 
L 523.383598 391.243211 
L 532.700852 391.311774 
" style="fill:none;stroke:#8c564b;stroke-linecap:square;stroke-width:2;"/>
   </g>
   <g id="line2d_59">
    <path clip-path="url(#p199f349171)" d="M 76.155398 391.657491 
L 85.472652 391.590634 
L 94.789906 391.462775 
L 104.10716 391.272538 
L 113.424414 391.018195 
L 122.741669 390.697938 
L 132.058923 390.310215 
L 141.376177 389.854102 
L 150.693431 389.329705 
L 160.010685 388.738554 
L 169.327939 388.083964 
L 178.645194 387.371345 
L 187.962448 386.608418 
L 197.279702 385.805321 
L 206.596956 384.974583 
L 215.91421 384.13095 
L 225.231465 383.291061 
L 234.548719 382.472983 
L 243.865973 381.695613 
L 253.183227 380.977986 
L 262.500481 380.338514 
L 271.817735 379.794214 
L 281.13499 379.359954 
L 290.452244 379.047782 
L 299.769498 378.86637 
L 309.086752 378.820614 
L 318.404006 378.911416 
L 327.72126 379.13566 
L 337.038515 379.486386 
L 346.355769 379.953138 
L 355.673023 380.522478 
L 364.990277 381.178614 
L 374.307531 381.904108 
L 383.624785 382.68062 
L 392.94204 383.489633 
L 402.259294 384.313133 
L 411.576548 385.134192 
L 420.893802 385.937449 
L 430.211056 386.70944 
L 439.528311 387.438813 
L 448.845565 388.116388 
L 458.162819 388.735105 
L 467.480073 389.289865 
L 476.797327 389.777283 
L 486.114581 390.19539 
L 495.431836 390.543303 
L 504.74909 390.820892 
L 514.066344 391.028461 
L 523.383598 391.166483 
L 532.700852 391.235379 
" style="fill:none;stroke:#e377c2;stroke-linecap:square;stroke-width:2;"/>
   </g>
   <g id="line2d_60">
    <path clip-path="url(#p199f349171)" d="M 76.155398 391.590275 
L 85.472652 391.52264 
L 94.789906 391.393422 
L 104.10716 391.201451 
L 113.424414 390.945288 
L 122.741669 390.623479 
L 132.058923 390.234872 
L 141.376177 389.77897 
L 150.693431 389.256303 
L 160.010685 388.668792 
L 169.327939 388.020086 
L 178.645194 387.315832 
L 187.962448 386.563872 
L 197.279702 385.774321 
L 206.596956 384.95953 
L 215.91421 384.133908 
L 225.231465 383.3136 
L 234.548719 382.516041 
L 243.865973 381.759388 
L 253.183227 381.061866 
L 262.500481 380.441051 
L 271.817735 379.913151 
L 281.13499 379.492301 
L 290.452244 379.189937 
L 299.769498 379.014286 
L 309.086752 378.969986 
L 318.404006 379.057891 
L 327.72126 379.275048 
L 337.038515 379.614851 
L 346.355769 380.067374 
L 355.673023 380.619842 
L 364.990277 381.257216 
L 374.307531 381.962851 
L 383.624785 382.719197 
L 392.94204 383.508473 
L 402.259294 384.313312 
L 411.576548 385.117319 
L 420.893802 385.905518 
L 430.211056 386.664693 
L 439.528311 387.383587 
L 448.845565 388.052983 
L 458.162819 388.665669 
L 467.480073 389.216298 
L 476.797327 389.701175 
L 486.114581 390.117982 
L 495.431836 390.465479 
L 504.74909 390.743196 
L 514.066344 390.951141 
L 523.383598 391.089549 
L 532.700852 391.158677 
" style="fill:none;stroke:#7f7f7f;stroke-linecap:square;stroke-width:2;"/>
   </g>
   <g id="patch_3">
    <path d="M 53.328125 410.398125 
L 53.328125 22.318125 
" style="fill:none;stroke:#000000;stroke-linecap:square;stroke-linejoin:miter;stroke-width:0.8;"/>
   </g>
   <g id="patch_4">
    <path d="M 555.528125 410.398125 
L 555.528125 22.318125 
" style="fill:none;stroke:#000000;stroke-linecap:square;stroke-linejoin:miter;stroke-width:0.8;"/>
   </g>
   <g id="patch_5">
    <path d="M 53.328125 410.398125 
L 555.528125 410.398125 
" style="fill:none;stroke:#000000;stroke-linecap:square;stroke-linejoin:miter;stroke-width:0.8;"/>
   </g>
   <g id="patch_6">
    <path d="M 53.328125 22.318125 
L 555.528125 22.318125 
" style="fill:none;stroke:#000000;stroke-linecap:square;stroke-linejoin:miter;stroke-width:0.8;"/>
   </g>
   <g id="text_15">
    <!-- Difusao -->
    <defs>
     <path d="M 19.671875 64.796875 
L 19.671875 8.109375 
L 31.59375 8.109375 
Q 46.6875 8.109375 53.6875 14.9375 
Q 60.6875 21.78125 60.6875 36.53125 
Q 60.6875 51.171875 53.6875 57.984375 
Q 46.6875 64.796875 31.59375 64.796875 
z
M 9.8125 72.90625 
L 30.078125 72.90625 
Q 51.265625 72.90625 61.171875 64.09375 
Q 71.09375 55.28125 71.09375 36.53125 
Q 71.09375 17.671875 61.125 8.828125 
Q 51.171875 0 30.078125 0 
L 9.8125 0 
z
" id="DejaVuSans-68"/>
     <path d="M 9.421875 54.6875 
L 18.40625 54.6875 
L 18.40625 0 
L 9.421875 0 
z
M 9.421875 75.984375 
L 18.40625 75.984375 
L 18.40625 64.59375 
L 9.421875 64.59375 
z
" id="DejaVuSans-105"/>
     <path d="M 37.109375 75.984375 
L 37.109375 68.5 
L 28.515625 68.5 
Q 23.6875 68.5 21.796875 66.546875 
Q 19.921875 64.59375 19.921875 59.515625 
L 19.921875 54.6875 
L 34.71875 54.6875 
L 34.71875 47.703125 
L 19.921875 47.703125 
L 19.921875 0 
L 10.890625 0 
L 10.890625 47.703125 
L 2.296875 47.703125 
L 2.296875 54.6875 
L 10.890625 54.6875 
L 10.890625 58.5 
Q 10.890625 67.625 15.140625 71.796875 
Q 19.390625 75.984375 28.609375 75.984375 
z
" id="DejaVuSans-102"/>
     <path d="M 44.28125 53.078125 
L 44.28125 44.578125 
Q 40.484375 46.53125 36.375 47.5 
Q 32.28125 48.484375 27.875 48.484375 
Q 21.1875 48.484375 17.84375 46.4375 
Q 14.5 44.390625 14.5 40.28125 
Q 14.5 37.15625 16.890625 35.375 
Q 19.28125 33.59375 26.515625 31.984375 
L 29.59375 31.296875 
Q 39.15625 29.25 43.1875 25.515625 
Q 47.21875 21.78125 47.21875 15.09375 
Q 47.21875 7.46875 41.1875 3.015625 
Q 35.15625 -1.421875 24.609375 -1.421875 
Q 20.21875 -1.421875 15.453125 -0.5625 
Q 10.6875 0.296875 5.421875 2 
L 5.421875 11.28125 
Q 10.40625 8.6875 15.234375 7.390625 
Q 20.0625 6.109375 24.8125 6.109375 
Q 31.15625 6.109375 34.5625 8.28125 
Q 37.984375 10.453125 37.984375 14.40625 
Q 37.984375 18.0625 35.515625 20.015625 
Q 33.0625 21.96875 24.703125 23.78125 
L 21.578125 24.515625 
Q 13.234375 26.265625 9.515625 29.90625 
Q 5.8125 33.546875 5.8125 39.890625 
Q 5.8125 47.609375 11.28125 51.796875 
Q 16.75 56 26.8125 56 
Q 31.78125 56 36.171875 55.265625 
Q 40.578125 54.546875 44.28125 53.078125 
z
" id="DejaVuSans-115"/>
     <path d="M 34.28125 27.484375 
Q 23.390625 27.484375 19.1875 25 
Q 14.984375 22.515625 14.984375 16.5 
Q 14.984375 11.71875 18.140625 8.90625 
Q 21.296875 6.109375 26.703125 6.109375 
Q 34.1875 6.109375 38.703125 11.40625 
Q 43.21875 16.703125 43.21875 25.484375 
L 43.21875 27.484375 
z
M 52.203125 31.203125 
L 52.203125 0 
L 43.21875 0 
L 43.21875 8.296875 
Q 40.140625 3.328125 35.546875 0.953125 
Q 30.953125 -1.421875 24.3125 -1.421875 
Q 15.921875 -1.421875 10.953125 3.296875 
Q 6 8.015625 6 15.921875 
Q 6 25.140625 12.171875 29.828125 
Q 18.359375 34.515625 30.609375 34.515625 
L 43.21875 34.515625 
L 43.21875 35.40625 
Q 43.21875 41.609375 39.140625 45 
Q 35.0625 48.390625 27.6875 48.390625 
Q 23 48.390625 18.546875 47.265625 
Q 14.109375 46.140625 10.015625 43.890625 
L 10.015625 52.203125 
Q 14.9375 54.109375 19.578125 55.046875 
Q 24.21875 56 28.609375 56 
Q 40.484375 56 46.34375 49.84375 
Q 52.203125 43.703125 52.203125 31.203125 
z
" id="DejaVuSans-97"/>
     <path d="M 30.609375 48.390625 
Q 23.390625 48.390625 19.1875 42.75 
Q 14.984375 37.109375 14.984375 27.296875 
Q 14.984375 17.484375 19.15625 11.84375 
Q 23.34375 6.203125 30.609375 6.203125 
Q 37.796875 6.203125 41.984375 11.859375 
Q 46.1875 17.53125 46.1875 27.296875 
Q 46.1875 37.015625 41.984375 42.703125 
Q 37.796875 48.390625 30.609375 48.390625 
z
M 30.609375 56 
Q 42.328125 56 49.015625 48.375 
Q 55.71875 40.765625 55.71875 27.296875 
Q 55.71875 13.875 49.015625 6.21875 
Q 42.328125 -1.421875 30.609375 -1.421875 
Q 18.84375 -1.421875 12.171875 6.21875 
Q 5.515625 13.875 5.515625 27.296875 
Q 5.515625 40.765625 12.171875 48.375 
Q 18.84375 56 30.609375 56 
z
" id="DejaVuSans-111"/>
    </defs>
    <g transform="translate(281.752813 16.318125)scale(0.12 -0.12)">
     <use xlink:href="#DejaVuSans-68"/>
     <use x="77.001953" xlink:href="#DejaVuSans-105"/>
     <use x="104.785156" xlink:href="#DejaVuSans-102"/>
     <use x="139.990234" xlink:href="#DejaVuSans-117"/>
     <use x="203.369141" xlink:href="#DejaVuSans-115"/>
     <use x="255.46875" xlink:href="#DejaVuSans-97"/>
     <use x="316.748047" xlink:href="#DejaVuSans-111"/>
    </g>
   </g>
  </g>
 </g>
 <defs>
  <clipPath id="p199f349171">
   <rect height="388.08" width="502.2" x="53.328125" y="22.318125"/>
  </clipPath>
 </defs>
</svg>
