<?xml version="1.0" encoding="utf-8" standalone="no"?>
<!DOCTYPE svg PUBLIC "-//W3C//DTD SVG 1.1//EN"
  "http://www.w3.org/Graphics/SVG/1.1/DTD/svg11.dtd">
<!-- Created with matplotlib (https://matplotlib.org/) -->
<svg height="447.954375pt" version="1.1" viewBox="0 0 556.365625 447.954375" width="556.365625pt" xmlns="http://www.w3.org/2000/svg" xmlns:xlink="http://www.w3.org/1999/xlink">
 <defs>
  <style type="text/css">
*{stroke-linecap:butt;stroke-linejoin:round;}
  </style>
 </defs>
 <g id="figure_1">
  <g id="patch_1">
   <path d="M 0 447.954375 
L 556.365625 447.954375 
L 556.365625 0 
L 0 0 
z
" style="fill:#ffffff;"/>
  </g>
  <g id="axes_1">
   <g id="patch_2">
    <path d="M 46.965625 410.398125 
L 549.165625 410.398125 
L 549.165625 22.318125 
L 46.965625 22.318125 
z
" style="fill:#ffffff;"/>
   </g>
   <g id="matplotlib.axis_1">
    <g id="xtick_1">
     <g id="line2d_1">
      <defs>
       <path d="M 0 0 
L 0 3.5 
" id="m9e6f022500" style="stroke:#000000;stroke-width:0.8;"/>
      </defs>
      <g>
       <use style="stroke:#000000;stroke-width:0.8;" x="69.792898" xlink:href="#m9e6f022500" y="410.398125"/>
      </g>
     </g>
     <g id="text_1">
      <!-- 0 -->
      <defs>
       <path d="M 31.78125 66.40625 
Q 24.171875 66.40625 20.328125 58.90625 
Q 16.5 51.421875 16.5 36.375 
Q 16.5 21.390625 20.328125 13.890625 
Q 24.171875 6.390625 31.78125 6.390625 
Q 39.453125 6.390625 43.28125 13.890625 
Q 47.125 21.390625 47.125 36.375 
Q 47.125 51.421875 43.28125 58.90625 
Q 39.453125 66.40625 31.78125 66.40625 
z
M 31.78125 74.21875 
Q 44.046875 74.21875 50.515625 64.515625 
Q 56.984375 54.828125 56.984375 36.375 
Q 56.984375 17.96875 50.515625 8.265625 
Q 44.046875 -1.421875 31.78125 -1.421875 
Q 19.53125 -1.421875 13.0625 8.265625 
Q 6.59375 17.96875 6.59375 36.375 
Q 6.59375 54.828125 13.0625 64.515625 
Q 19.53125 74.21875 31.78125 74.21875 
z
" id="DejaVuSans-48"/>
      </defs>
      <g transform="translate(66.611648 424.996562)scale(0.1 -0.1)">
       <use xlink:href="#DejaVuSans-48"/>
      </g>
     </g>
    </g>
    <g id="xtick_2">
     <g id="line2d_2">
      <g>
       <use style="stroke:#000000;stroke-width:0.8;" x="162.965439" xlink:href="#m9e6f022500" y="410.398125"/>
      </g>
     </g>
     <g id="text_2">
      <!-- 10 -->
      <defs>
       <path d="M 12.40625 8.296875 
L 28.515625 8.296875 
L 28.515625 63.921875 
L 10.984375 60.40625 
L 10.984375 69.390625 
L 28.421875 72.90625 
L 38.28125 72.90625 
L 38.28125 8.296875 
L 54.390625 8.296875 
L 54.390625 0 
L 12.40625 0 
z
" id="DejaVuSans-49"/>
      </defs>
      <g transform="translate(156.602939 424.996562)scale(0.1 -0.1)">
       <use xlink:href="#DejaVuSans-49"/>
       <use x="63.623047" xlink:href="#DejaVuSans-48"/>
      </g>
     </g>
    </g>
    <g id="xtick_3">
     <g id="line2d_3">
      <g>
       <use style="stroke:#000000;stroke-width:0.8;" x="256.137981" xlink:href="#m9e6f022500" y="410.398125"/>
      </g>
     </g>
     <g id="text_3">
      <!-- 20 -->
      <defs>
       <path d="M 19.1875 8.296875 
L 53.609375 8.296875 
L 53.609375 0 
L 7.328125 0 
L 7.328125 8.296875 
Q 12.9375 14.109375 22.625 23.890625 
Q 32.328125 33.6875 34.8125 36.53125 
Q 39.546875 41.84375 41.421875 45.53125 
Q 43.3125 49.21875 43.3125 52.78125 
Q 43.3125 58.59375 39.234375 62.25 
Q 35.15625 65.921875 28.609375 65.921875 
Q 23.96875 65.921875 18.8125 64.3125 
Q 13.671875 62.703125 7.8125 59.421875 
L 7.8125 69.390625 
Q 13.765625 71.78125 18.9375 73 
Q 24.125 74.21875 28.421875 74.21875 
Q 39.75 74.21875 46.484375 68.546875 
Q 53.21875 62.890625 53.21875 53.421875 
Q 53.21875 48.921875 51.53125 44.890625 
Q 49.859375 40.875 45.40625 35.40625 
Q 44.1875 33.984375 37.640625 27.21875 
Q 31.109375 20.453125 19.1875 8.296875 
z
" id="DejaVuSans-50"/>
      </defs>
      <g transform="translate(249.775481 424.996562)scale(0.1 -0.1)">
       <use xlink:href="#DejaVuSans-50"/>
       <use x="63.623047" xlink:href="#DejaVuSans-48"/>
      </g>
     </g>
    </g>
    <g id="xtick_4">
     <g id="line2d_4">
      <g>
       <use style="stroke:#000000;stroke-width:0.8;" x="349.310523" xlink:href="#m9e6f022500" y="410.398125"/>
      </g>
     </g>
     <g id="text_4">
      <!-- 30 -->
      <defs>
       <path d="M 40.578125 39.3125 
Q 47.65625 37.796875 51.625 33 
Q 55.609375 28.21875 55.609375 21.1875 
Q 55.609375 10.40625 48.1875 4.484375 
Q 40.765625 -1.421875 27.09375 -1.421875 
Q 22.515625 -1.421875 17.65625 -0.515625 
Q 12.796875 0.390625 7.625 2.203125 
L 7.625 11.71875 
Q 11.71875 9.328125 16.59375 8.109375 
Q 21.484375 6.890625 26.8125 6.890625 
Q 36.078125 6.890625 40.9375 10.546875 
Q 45.796875 14.203125 45.796875 21.1875 
Q 45.796875 27.640625 41.28125 31.265625 
Q 36.765625 34.90625 28.71875 34.90625 
L 20.21875 34.90625 
L 20.21875 43.015625 
L 29.109375 43.015625 
Q 36.375 43.015625 40.234375 45.921875 
Q 44.09375 48.828125 44.09375 54.296875 
Q 44.09375 59.90625 40.109375 62.90625 
Q 36.140625 65.921875 28.71875 65.921875 
Q 24.65625 65.921875 20.015625 65.03125 
Q 15.375 64.15625 9.8125 62.3125 
L 9.8125 71.09375 
Q 15.4375 72.65625 20.34375 73.4375 
Q 25.25 74.21875 29.59375 74.21875 
Q 40.828125 74.21875 47.359375 69.109375 
Q 53.90625 64.015625 53.90625 55.328125 
Q 53.90625 49.265625 50.4375 45.09375 
Q 46.96875 40.921875 40.578125 39.3125 
z
" id="DejaVuSans-51"/>
      </defs>
      <g transform="translate(342.948023 424.996562)scale(0.1 -0.1)">
       <use xlink:href="#DejaVuSans-51"/>
       <use x="63.623047" xlink:href="#DejaVuSans-48"/>
      </g>
     </g>
    </g>
    <g id="xtick_5">
     <g id="line2d_5">
      <g>
       <use style="stroke:#000000;stroke-width:0.8;" x="442.483065" xlink:href="#m9e6f022500" y="410.398125"/>
      </g>
     </g>
     <g id="text_5">
      <!-- 40 -->
      <defs>
       <path d="M 37.796875 64.3125 
L 12.890625 25.390625 
L 37.796875 25.390625 
z
M 35.203125 72.90625 
L 47.609375 72.90625 
L 47.609375 25.390625 
L 58.015625 25.390625 
L 58.015625 17.1875 
L 47.609375 17.1875 
L 47.609375 0 
L 37.796875 0 
L 37.796875 17.1875 
L 4.890625 17.1875 
L 4.890625 26.703125 
z
" id="DejaVuSans-52"/>
      </defs>
      <g transform="translate(436.120565 424.996562)scale(0.1 -0.1)">
       <use xlink:href="#DejaVuSans-52"/>
       <use x="63.623047" xlink:href="#DejaVuSans-48"/>
      </g>
     </g>
    </g>
    <g id="xtick_6">
     <g id="line2d_6">
      <g>
       <use style="stroke:#000000;stroke-width:0.8;" x="535.655606" xlink:href="#m9e6f022500" y="410.398125"/>
      </g>
     </g>
     <g id="text_6">
      <!-- 50 -->
      <defs>
       <path d="M 10.796875 72.90625 
L 49.515625 72.90625 
L 49.515625 64.59375 
L 19.828125 64.59375 
L 19.828125 46.734375 
Q 21.96875 47.46875 24.109375 47.828125 
Q 26.265625 48.1875 28.421875 48.1875 
Q 40.625 48.1875 47.75 41.5 
Q 54.890625 34.8125 54.890625 23.390625 
Q 54.890625 11.625 47.5625 5.09375 
Q 40.234375 -1.421875 26.90625 -1.421875 
Q 22.3125 -1.421875 17.546875 -0.640625 
Q 12.796875 0.140625 7.71875 1.703125 
L 7.71875 11.625 
Q 12.109375 9.234375 16.796875 8.0625 
Q 21.484375 6.890625 26.703125 6.890625 
Q 35.15625 6.890625 40.078125 11.328125 
Q 45.015625 15.765625 45.015625 23.390625 
Q 45.015625 31 40.078125 35.4375 
Q 35.15625 39.890625 26.703125 39.890625 
Q 22.75 39.890625 18.8125 39.015625 
Q 14.890625 38.140625 10.796875 36.28125 
z
" id="DejaVuSans-53"/>
      </defs>
      <g transform="translate(529.293106 424.996562)scale(0.1 -0.1)">
       <use xlink:href="#DejaVuSans-53"/>
       <use x="63.623047" xlink:href="#DejaVuSans-48"/>
      </g>
     </g>
    </g>
    <g id="text_7">
     <!-- x -->
     <defs>
      <path d="M 54.890625 54.6875 
L 35.109375 28.078125 
L 55.90625 0 
L 45.3125 0 
L 29.390625 21.484375 
L 13.484375 0 
L 2.875 0 
L 24.125 28.609375 
L 4.6875 54.6875 
L 15.28125 54.6875 
L 29.78125 35.203125 
L 44.28125 54.6875 
z
" id="DejaVuSans-120"/>
     </defs>
     <g transform="translate(295.10625 438.674687)scale(0.1 -0.1)">
      <use xlink:href="#DejaVuSans-120"/>
     </g>
    </g>
   </g>
   <g id="matplotlib.axis_2">
    <g id="ytick_1">
     <g id="line2d_7">
      <defs>
       <path d="M 0 0 
L -3.5 0 
" id="ma02d9dc268" style="stroke:#000000;stroke-width:0.8;"/>
      </defs>
      <g>
       <use style="stroke:#000000;stroke-width:0.8;" x="46.965625" xlink:href="#ma02d9dc268" y="392.758125"/>
      </g>
     </g>
     <g id="text_8">
      <!-- 0 -->
      <g transform="translate(33.603125 396.557344)scale(0.1 -0.1)">
       <use xlink:href="#DejaVuSans-48"/>
      </g>
     </g>
    </g>
    <g id="ytick_2">
     <g id="line2d_8">
      <g>
       <use style="stroke:#000000;stroke-width:0.8;" x="46.965625" xlink:href="#ma02d9dc268" y="322.198125"/>
      </g>
     </g>
     <g id="text_9">
      <!-- 20 -->
      <g transform="translate(27.240625 325.997344)scale(0.1 -0.1)">
       <use xlink:href="#DejaVuSans-50"/>
       <use x="63.623047" xlink:href="#DejaVuSans-48"/>
      </g>
     </g>
    </g>
    <g id="ytick_3">
     <g id="line2d_9">
      <g>
       <use style="stroke:#000000;stroke-width:0.8;" x="46.965625" xlink:href="#ma02d9dc268" y="251.638125"/>
      </g>
     </g>
     <g id="text_10">
      <!-- 40 -->
      <g transform="translate(27.240625 255.437344)scale(0.1 -0.1)">
       <use xlink:href="#DejaVuSans-52"/>
       <use x="63.623047" xlink:href="#DejaVuSans-48"/>
      </g>
     </g>
    </g>
    <g id="ytick_4">
     <g id="line2d_10">
      <g>
       <use style="stroke:#000000;stroke-width:0.8;" x="46.965625" xlink:href="#ma02d9dc268" y="181.078125"/>
      </g>
     </g>
     <g id="text_11">
      <!-- 60 -->
      <defs>
       <path d="M 33.015625 40.375 
Q 26.375 40.375 22.484375 35.828125 
Q 18.609375 31.296875 18.609375 23.390625 
Q 18.609375 15.53125 22.484375 10.953125 
Q 26.375 6.390625 33.015625 6.390625 
Q 39.65625 6.390625 43.53125 10.953125 
Q 47.40625 15.53125 47.40625 23.390625 
Q 47.40625 31.296875 43.53125 35.828125 
Q 39.65625 40.375 33.015625 40.375 
z
M 52.59375 71.296875 
L 52.59375 62.3125 
Q 48.875 64.0625 45.09375 64.984375 
Q 41.3125 65.921875 37.59375 65.921875 
Q 27.828125 65.921875 22.671875 59.328125 
Q 17.53125 52.734375 16.796875 39.40625 
Q 19.671875 43.65625 24.015625 45.921875 
Q 28.375 48.1875 33.59375 48.1875 
Q 44.578125 48.1875 50.953125 41.515625 
Q 57.328125 34.859375 57.328125 23.390625 
Q 57.328125 12.15625 50.6875 5.359375 
Q 44.046875 -1.421875 33.015625 -1.421875 
Q 20.359375 -1.421875 13.671875 8.265625 
Q 6.984375 17.96875 6.984375 36.375 
Q 6.984375 53.65625 15.1875 63.9375 
Q 23.390625 74.21875 37.203125 74.21875 
Q 40.921875 74.21875 44.703125 73.484375 
Q 48.484375 72.75 52.59375 71.296875 
z
" id="DejaVuSans-54"/>
      </defs>
      <g transform="translate(27.240625 184.877344)scale(0.1 -0.1)">
       <use xlink:href="#DejaVuSans-54"/>
       <use x="63.623047" xlink:href="#DejaVuSans-48"/>
      </g>
     </g>
    </g>
    <g id="ytick_5">
     <g id="line2d_11">
      <g>
       <use style="stroke:#000000;stroke-width:0.8;" x="46.965625" xlink:href="#ma02d9dc268" y="110.518125"/>
      </g>
     </g>
     <g id="text_12">
      <!-- 80 -->
      <defs>
       <path d="M 31.78125 34.625 
Q 24.75 34.625 20.71875 30.859375 
Q 16.703125 27.09375 16.703125 20.515625 
Q 16.703125 13.921875 20.71875 10.15625 
Q 24.75 6.390625 31.78125 6.390625 
Q 38.8125 6.390625 42.859375 10.171875 
Q 46.921875 13.96875 46.921875 20.515625 
Q 46.921875 27.09375 42.890625 30.859375 
Q 38.875 34.625 31.78125 34.625 
z
M 21.921875 38.8125 
Q 15.578125 40.375 12.03125 44.71875 
Q 8.5 49.078125 8.5 55.328125 
Q 8.5 64.0625 14.71875 69.140625 
Q 20.953125 74.21875 31.78125 74.21875 
Q 42.671875 74.21875 48.875 69.140625 
Q 55.078125 64.0625 55.078125 55.328125 
Q 55.078125 49.078125 51.53125 44.71875 
Q 48 40.375 41.703125 38.8125 
Q 48.828125 37.15625 52.796875 32.3125 
Q 56.78125 27.484375 56.78125 20.515625 
Q 56.78125 9.90625 50.3125 4.234375 
Q 43.84375 -1.421875 31.78125 -1.421875 
Q 19.734375 -1.421875 13.25 4.234375 
Q 6.78125 9.90625 6.78125 20.515625 
Q 6.78125 27.484375 10.78125 32.3125 
Q 14.796875 37.15625 21.921875 38.8125 
z
M 18.3125 54.390625 
Q 18.3125 48.734375 21.84375 45.5625 
Q 25.390625 42.390625 31.78125 42.390625 
Q 38.140625 42.390625 41.71875 45.5625 
Q 45.3125 48.734375 45.3125 54.390625 
Q 45.3125 60.0625 41.71875 63.234375 
Q 38.140625 66.40625 31.78125 66.40625 
Q 25.390625 66.40625 21.84375 63.234375 
Q 18.3125 60.0625 18.3125 54.390625 
z
" id="DejaVuSans-56"/>
      </defs>
      <g transform="translate(27.240625 114.317344)scale(0.1 -0.1)">
       <use xlink:href="#DejaVuSans-56"/>
       <use x="63.623047" xlink:href="#DejaVuSans-48"/>
      </g>
     </g>
    </g>
    <g id="ytick_6">
     <g id="line2d_12">
      <g>
       <use style="stroke:#000000;stroke-width:0.8;" x="46.965625" xlink:href="#ma02d9dc268" y="39.958125"/>
      </g>
     </g>
     <g id="text_13">
      <!-- 100 -->
      <g transform="translate(20.878125 43.757344)scale(0.1 -0.1)">
       <use xlink:href="#DejaVuSans-49"/>
       <use x="63.623047" xlink:href="#DejaVuSans-48"/>
       <use x="127.246094" xlink:href="#DejaVuSans-48"/>
      </g>
     </g>
    </g>
    <g id="text_14">
     <!-- u -->
     <defs>
      <path d="M 8.5 21.578125 
L 8.5 54.6875 
L 17.484375 54.6875 
L 17.484375 21.921875 
Q 17.484375 14.15625 20.5 10.265625 
Q 23.53125 6.390625 29.59375 6.390625 
Q 36.859375 6.390625 41.078125 11.03125 
Q 45.3125 15.671875 45.3125 23.6875 
L 45.3125 54.6875 
L 54.296875 54.6875 
L 54.296875 0 
L 45.3125 0 
L 45.3125 8.40625 
Q 42.046875 3.421875 37.71875 1 
Q 33.40625 -1.421875 27.6875 -1.421875 
Q 18.265625 -1.421875 13.375 4.4375 
Q 8.5 10.296875 8.5 21.578125 
z
M 31.109375 56 
z
" id="DejaVuSans-117"/>
     </defs>
     <g transform="translate(14.798438 219.526875)rotate(-90)scale(0.1 -0.1)">
      <use xlink:href="#DejaVuSans-117"/>
     </g>
    </g>
   </g>
   <g id="line2d_13">
    <path clip-path="url(#pb7419445c6)" d="M 69.792898 392.758125 
L 79.110152 392.758125 
L 88.427406 392.758125 
L 97.74466 392.758125 
L 107.061914 392.758125 
L 116.379169 392.758125 
L 125.696423 392.758125 
L 135.013677 392.758125 
L 144.330931 392.758125 
L 153.648185 392.758125 
L 162.965439 392.758125 
L 172.282694 392.758125 
L 181.599948 392.758125 
L 190.917202 392.758125 
L 200.234456 392.758125 
L 209.55171 39.958125 
L 218.868965 39.958125 
L 228.186219 39.958125 
L 237.503473 39.958125 
L 246.820727 39.958125 
L 256.137981 39.958125 
L 265.455235 39.958125 
L 274.77249 39.958125 
L 284.089744 39.958125 
L 293.406998 39.958125 
L 302.724252 39.958125 
L 312.041506 39.958125 
L 321.35876 39.958125 
L 330.676015 39.958125 
L 339.993269 39.958125 
L 349.310523 39.958125 
L 358.627777 39.958125 
L 367.945031 39.958125 
L 377.262285 39.958125 
L 386.57954 39.958125 
L 395.896794 39.958125 
L 405.214048 392.758125 
L 414.531302 392.758125 
L 423.848556 392.758125 
L 433.165811 392.758125 
L 442.483065 392.758125 
L 451.800319 392.758125 
L 461.117573 392.758125 
L 470.434827 392.758125 
L 479.752081 392.758125 
L 489.069336 392.758125 
L 498.38659 392.758125 
L 507.703844 392.758125 
L 517.021098 392.758125 
L 526.338352 392.758125 
" style="fill:none;stroke:#1f77b4;stroke-linecap:square;stroke-width:2;"/>
   </g>
   <g id="line2d_14">
    <path clip-path="url(#pb7419445c6)" d="M 69.792898 392.758125 
L 79.110152 392.758125 
L 88.427406 392.758125 
L 97.74466 392.758125 
L 107.061914 392.758125 
L 116.379169 392.758125 
L 125.696423 392.758122 
L 135.013677 392.757993 
L 144.330931 392.754907 
L 153.648185 392.706298 
L 162.965439 392.181319 
L 172.282694 388.243979 
L 181.599948 367.994801 
L 190.917202 299.653827 
L 200.234456 162.971879 
L 209.55171 39.958125 
L 218.868965 39.958125 
L 228.186219 39.958125 
L 237.503473 39.958125 
L 246.820727 39.958125 
L 256.137981 39.958125 
L 265.455235 39.958125 
L 274.77249 39.958125 
L 284.089744 39.958125 
L 293.406998 39.958125 
L 302.724252 39.958125 
L 312.041506 39.958125 
L 321.35876 39.958128 
L 330.676015 39.958257 
L 339.993269 39.961343 
L 349.310523 40.009952 
L 358.627777 40.534931 
L 367.945031 44.472271 
L 377.262285 64.721449 
L 386.57954 133.062423 
L 395.896794 269.744371 
L 405.214048 392.758125 
L 414.531302 392.758125 
L 423.848556 392.758125 
L 433.165811 392.758125 
L 442.483065 392.758125 
L 451.800319 392.758125 
L 461.117573 392.758125 
L 470.434827 392.758125 
L 479.752081 392.758125 
L 489.069336 392.758125 
L 498.38659 392.758125 
L 507.703844 392.758125 
L 517.021098 392.758125 
L 526.338352 392.758125 
" style="fill:none;stroke:#ff7f0e;stroke-linecap:square;stroke-width:2;"/>
   </g>
   <g id="line2d_15">
    <path clip-path="url(#pb7419445c6)" d="M 69.792898 392.758125 
L 79.110152 392.758125 
L 88.427406 392.758124 
L 97.74466 392.758104 
L 107.061914 392.757875 
L 116.379169 392.755602 
L 125.696423 392.737007 
L 135.013677 392.611489 
L 144.330931 391.916313 
L 153.648185 388.788019 
L 162.965439 377.526163 
L 172.282694 345.852192 
L 181.599948 278.777902 
L 190.917202 178.166466 
L 200.234456 82.850369 
L 209.55171 39.958125 
L 218.868965 39.958125 
L 228.186219 39.958125 
L 237.503473 39.958125 
L 246.820727 39.958125 
L 256.137981 39.958125 
L 265.455235 39.958125 
L 274.77249 39.958125 
L 284.089744 39.958126 
L 293.406998 39.958146 
L 302.724252 39.958375 
L 312.041506 39.960648 
L 321.35876 39.979243 
L 330.676015 40.104761 
L 339.993269 40.799937 
L 349.310523 43.928231 
L 358.627777 55.190087 
L 367.945031 86.864058 
L 377.262285 153.938348 
L 386.57954 254.549784 
L 395.896794 349.865881 
L 405.214048 392.758125 
L 414.531302 392.758125 
L 423.848556 392.758125 
L 433.165811 392.758125 
L 442.483065 392.758125 
L 451.800319 392.758125 
L 461.117573 392.758125 
L 470.434827 392.758125 
L 479.752081 392.758125 
L 489.069336 392.758125 
L 498.38659 392.758125 
L 507.703844 392.758125 
L 517.021098 392.758125 
L 526.338352 392.758125 
" style="fill:none;stroke:#2ca02c;stroke-linecap:square;stroke-width:2;"/>
   </g>
   <g id="line2d_16">
    <path clip-path="url(#pb7419445c6)" d="M 69.792898 392.758112 
L 79.110152 392.758017 
L 88.427406 392.757313 
L 97.74466 392.752733 
L 107.061914 392.726698 
L 116.379169 392.597829 
L 125.696423 392.045529 
L 135.013677 390.012064 
L 144.330931 383.646434 
L 153.648185 366.936655 
L 162.965439 330.843532 
L 172.282694 268.374665 
L 181.599948 185.082842 
L 190.917202 104.765728 
L 200.234456 54.913726 
L 209.55171 39.958125 
L 218.868965 39.958125 
L 228.186219 39.958125 
L 237.503473 39.958125 
L 246.820727 39.958125 
L 256.137981 39.958126 
L 265.455235 39.958138 
L 274.77249 39.958233 
L 284.089744 39.958937 
L 293.406998 39.963517 
L 302.724252 39.989552 
L 312.041506 40.118421 
L 321.35876 40.670721 
L 330.676015 42.704186 
L 339.993269 49.069816 
L 349.310523 65.779595 
L 358.627777 101.872718 
L 367.945031 164.341585 
L 377.262285 247.633408 
L 386.57954 327.950522 
L 395.896794 377.802524 
L 405.214048 392.758125 
L 414.531302 392.758125 
L 423.848556 392.758125 
L 433.165811 392.758125 
L 442.483065 392.758125 
L 451.800319 392.758125 
L 461.117573 392.758125 
L 470.434827 392.758125 
L 479.752081 392.758125 
L 489.069336 392.758125 
L 498.38659 392.758125 
L 507.703844 392.758125 
L 517.021098 392.758125 
L 526.338352 392.758125 
" style="fill:none;stroke:#d62728;stroke-linecap:square;stroke-width:2;"/>
   </g>
   <g id="line2d_17">
    <path clip-path="url(#pb7419445c6)" d="M 69.792898 392.756897 
L 79.110152 392.751607 
L 88.427406 392.726921 
L 97.74466 392.623767 
L 107.061914 392.239607 
L 116.379169 390.97188 
L 125.696423 387.291381 
L 135.013677 377.97512 
L 144.330931 357.648731 
L 153.648185 319.985127 
L 162.965439 261.875568 
L 172.282694 189.238619 
L 181.599948 118.564831 
L 190.917202 68.349245 
L 200.234456 45.172821 
L 209.55171 39.958125 
L 218.868965 39.958125 
L 228.186219 39.958126 
L 237.503473 39.95813 
L 246.820727 39.958157 
L 256.137981 39.958334 
L 265.455235 39.959353 
L 274.77249 39.964643 
L 284.089744 39.989329 
L 293.406998 40.092483 
L 302.724252 40.476643 
L 312.041506 41.74437 
L 321.35876 45.424869 
L 330.676015 54.74113 
L 339.993269 75.067519 
L 349.310523 112.731123 
L 358.627777 170.840682 
L 367.945031 243.477631 
L 377.262285 314.151419 
L 386.57954 364.367005 
L 395.896794 387.543429 
L 405.214048 392.758125 
L 414.531302 392.758125 
L 423.848556 392.758125 
L 433.165811 392.758125 
L 442.483065 392.758125 
L 451.800319 392.758125 
L 461.117573 392.758125 
L 470.434827 392.758125 
L 479.752081 392.758125 
L 489.069336 392.758125 
L 498.38659 392.758125 
L 507.703844 392.758125 
L 517.021098 392.758125 
L 526.338352 392.758125 
" style="fill:none;stroke:#9467bd;stroke-linecap:square;stroke-width:2;"/>
   </g>
   <g id="line2d_18">
    <path clip-path="url(#pb7419445c6)" d="M 69.792898 392.732075 
L 79.110152 392.657535 
L 88.427406 392.403695 
L 97.74466 391.622137 
L 107.061914 389.457822 
L 116.379169 384.101141 
L 125.696423 372.342575 
L 135.013677 349.66534 
L 144.330931 311.694155 
L 153.648185 257.326322 
L 162.965439 192.084923 
L 172.282694 128.261815 
L 181.599948 79.37603 
L 190.917202 51.877776 
L 200.234456 41.776377 
L 209.55171 39.958126 
L 218.868965 39.958133 
L 228.186219 39.958174 
L 237.503473 39.958393 
L 246.820727 39.959467 
L 256.137981 39.964298 
L 265.455235 39.984175 
L 274.77249 40.058715 
L 284.089744 40.312555 
L 293.406998 41.094113 
L 302.724252 43.258428 
L 312.041506 48.615109 
L 321.35876 60.373675 
L 330.676015 83.05091 
L 339.993269 121.022095 
L 349.310523 175.389928 
L 358.627777 240.631327 
L 367.945031 304.454435 
L 377.262285 353.34022 
L 386.57954 380.838474 
L 395.896794 390.939873 
L 405.214048 392.758125 
L 414.531302 392.758125 
L 423.848556 392.758125 
L 433.165811 392.758125 
L 442.483065 392.758125 
L 451.800319 392.758125 
L 461.117573 392.758125 
L 470.434827 392.758125 
L 479.752081 392.758125 
L 489.069336 392.758125 
L 498.38659 392.758125 
L 507.703844 392.758125 
L 517.021098 392.758125 
L 526.338352 392.758125 
" style="fill:none;stroke:#8c564b;stroke-linecap:square;stroke-width:2;"/>
   </g>
   <g id="line2d_19">
    <path clip-path="url(#pb7419445c6)" d="M 69.792898 392.523279 
L 79.110152 392.042571 
L 88.427406 390.753866 
L 97.74466 387.612648 
L 107.061914 380.689146 
L 116.379169 366.980613 
L 125.696423 342.789084 
L 135.013677 305.106124 
L 144.330931 253.91418 
L 153.648185 194.190244 
L 162.965439 135.552198 
L 172.282694 88.43234 
L 181.599948 58.67243 
L 190.917202 44.81868 
L 200.234456 40.592121 
L 209.55171 39.958182 
L 218.868965 39.958401 
L 228.186219 39.959361 
L 237.503473 39.963268 
L 246.820727 39.977988 
L 256.137981 40.029175 
L 265.455235 40.192971 
L 274.77249 40.673679 
L 284.089744 41.962384 
L 293.406998 45.103602 
L 302.724252 52.027104 
L 312.041506 65.735637 
L 321.35876 89.927166 
L 330.676015 127.610126 
L 339.993269 178.80207 
L 349.310523 238.526006 
L 358.627777 297.164052 
L 367.945031 344.28391 
L 377.262285 374.04382 
L 386.57954 387.897572 
L 395.896794 392.12414 
L 405.214048 392.758125 
L 414.531302 392.758125 
L 423.848556 392.758125 
L 433.165811 392.758125 
L 442.483065 392.758125 
L 451.800319 392.758125 
L 461.117573 392.758125 
L 470.434827 392.758125 
L 479.752081 392.758125 
L 489.069336 392.758125 
L 498.38659 392.758125 
L 507.703844 392.758125 
L 517.021098 392.758125 
L 526.338352 392.758125 
" style="fill:none;stroke:#e377c2;stroke-linecap:square;stroke-width:2;"/>
   </g>
   <g id="line2d_20">
    <path clip-path="url(#pb7419445c6)" d="M 69.792898 391.534691 
L 79.110152 389.667292 
L 88.427406 385.539358 
L 97.74466 377.212319 
L 107.061914 361.969603 
L 116.379169 336.819122 
L 125.696423 299.711855 
L 135.013677 251.233006 
L 144.330931 195.828607 
L 153.648185 141.289902 
L 162.965439 95.980825 
L 172.282694 65.088273 
L 181.599948 48.489299 
L 190.917202 41.898571 
L 200.234456 40.179432 
L 209.55171 39.959153 
L 218.868965 39.962097 
L 228.186219 39.972485 
L 237.503473 40.006648 
L 246.820727 40.111071 
L 256.137981 40.406934 
L 265.455235 41.181559 
L 274.77249 43.048958 
L 284.089744 47.176892 
L 293.406998 55.503931 
L 302.724252 70.746647 
L 312.041506 95.897128 
L 321.35876 133.004395 
L 330.676015 181.483244 
L 339.993269 236.887643 
L 349.310523 291.426348 
L 358.627777 336.735426 
L 367.945031 367.627979 
L 377.262285 384.226963 
L 386.57954 390.817736 
L 395.896794 392.537068 
L 405.214048 392.758125 
L 414.531302 392.758125 
L 423.848556 392.758125 
L 433.165811 392.758125 
L 442.483065 392.758125 
L 451.800319 392.758125 
L 461.117573 392.758125 
L 470.434827 392.758125 
L 479.752081 392.758125 
L 489.069336 392.758125 
L 498.38659 392.758125 
L 507.703844 392.758125 
L 517.021098 392.758125 
L 526.338352 392.758125 
" style="fill:none;stroke:#7f7f7f;stroke-linecap:square;stroke-width:2;"/>
   </g>
   <g id="line2d_21">
    <path clip-path="url(#pb7419445c6)" d="M 69.792898 388.402498 
L 79.110152 383.321145 
L 88.427406 373.765168 
L 97.74466 357.323265 
L 107.061914 331.588113 
L 116.379169 295.191255 
L 125.696423 249.054393 
L 135.013677 197.150424 
L 144.330931 145.957468 
L 153.648185 102.374277 
L 162.965439 70.994388 
L 172.282694 52.414224 
L 181.599948 43.727532 
L 190.917202 40.72114 
L 200.234456 40.038125 
L 209.55171 39.968162 
L 218.868965 39.990576 
L 228.186219 40.056713 
L 237.503473 40.239126 
L 246.820727 40.708186 
L 256.137981 41.829534 
L 265.455235 44.313752 
L 274.77249 49.395105 
L 284.089744 58.951082 
L 293.406998 75.392985 
L 302.724252 101.128137 
L 312.041506 137.524995 
L 321.35876 183.661857 
L 330.676015 235.565826 
L 339.993269 286.758783 
L 349.310523 330.341975 
L 358.627777 361.721874 
L 367.945031 380.302077 
L 377.262285 388.988925 
L 386.57954 391.995911 
L 395.896794 392.681047 
L 405.214048 392.758125 
L 414.531302 392.758125 
L 423.848556 392.758125 
L 433.165811 392.758125 
L 442.483065 392.758125 
L 451.800319 392.758125 
L 461.117573 392.758125 
L 470.434827 392.758125 
L 479.752081 392.758125 
L 489.069336 392.758125 
L 498.38659 392.758125 
L 507.703844 392.758125 
L 517.021098 392.758125 
L 526.338352 392.758125 
" style="fill:none;stroke:#bcbd22;stroke-linecap:square;stroke-width:2;"/>
   </g>
   <g id="line2d_22">
    <path clip-path="url(#pb7419445c6)" d="M 69.792898 381.020937 
L 79.110152 370.402479 
L 88.427406 353.026822 
L 97.74466 326.963337 
L 107.061914 291.332243 
L 116.379169 247.238764 
L 125.696423 198.24601 
L 135.013677 149.85073 
L 144.330931 107.869289 
L 153.648185 76.383233 
L 162.965439 56.380428 
L 172.282694 45.914216 
L 181.599948 41.584672 
L 190.917202 40.260612 
L 200.234456 40.006404 
L 209.55171 40.021268 
L 218.868965 40.133965 
L 228.186219 40.419674 
L 237.503473 41.098234 
L 246.820727 42.604079 
L 256.137981 45.717515 
L 265.455235 51.695313 
L 274.77249 62.313771 
L 284.089744 79.689428 
L 293.406998 105.752913 
L 302.724252 141.384007 
L 312.041506 185.477486 
L 321.35876 234.470241 
L 330.676015 282.865522 
L 339.993269 324.846972 
L 349.310523 356.333059 
L 358.627777 376.335985 
L 367.945031 386.802632 
L 377.262285 391.133658 
L 386.57954 392.462496 
L 395.896794 392.73125 
L 405.214048 392.758125 
L 414.531302 392.758125 
L 423.848556 392.758125 
L 433.165811 392.758125 
L 442.483065 392.758125 
L 451.800319 392.758125 
L 461.117573 392.758125 
L 470.434827 392.758125 
L 479.752081 392.758125 
L 489.069336 392.758125 
L 498.38659 392.758125 
L 507.703844 392.758125 
L 517.021098 392.758125 
L 526.338352 392.758125 
" style="fill:none;stroke:#17becf;stroke-linecap:square;stroke-width:2;"/>
   </g>
   <g id="line2d_23">
    <path clip-path="url(#pb7419445c6)" d="M 69.792898 367.154383 
L 79.110152 349.054393 
L 88.427406 322.840614 
L 97.74466 287.988203 
L 107.061914 245.69539 
L 116.379169 199.173298 
L 125.696423 153.162441 
L 135.013677 112.652902 
L 144.330931 81.290749 
L 153.648185 60.271682 
L 162.965439 48.324841 
L 172.282694 42.72745 
L 181.599948 40.658264 
L 190.917202 40.111891 
L 200.234456 40.077541 
L 209.55171 40.243037 
L 218.868965 40.656161 
L 228.186219 41.574215 
L 237.503473 43.488693 
L 246.820727 47.225385 
L 256.137981 54.031503 
L 265.455235 65.561867 
L 274.77249 83.661857 
L 284.089744 109.875636 
L 293.406998 144.728047 
L 302.724252 187.02086 
L 312.041506 233.542955 
L 321.35876 279.553817 
L 330.676015 320.063381 
L 339.993269 351.425624 
L 349.310523 372.444999 
L 358.627777 384.392855 
L 367.945031 389.993412 
L 377.262285 392.07197 
L 386.57954 392.644633 
L 395.896794 392.748754 
L 405.214048 392.758125 
L 414.531302 392.758125 
L 423.848556 392.758125 
L 433.165811 392.758125 
L 442.483065 392.758125 
L 451.800319 392.758125 
L 461.117573 392.758125 
L 470.434827 392.758125 
L 479.752081 392.758125 
L 489.069336 392.758125 
L 498.38659 392.758125 
L 507.703844 392.758125 
L 517.021098 392.758125 
L 526.338352 392.758125 
" style="fill:none;stroke:#1f77b4;stroke-linecap:square;stroke-width:2;"/>
   </g>
   <g id="line2d_24">
    <path clip-path="url(#pb7419445c6)" d="M 69.792898 345.376959 
L 79.110152 319.137908 
L 88.427406 285.054192 
L 97.74466 244.36241 
L 107.061914 199.971379 
L 116.379169 156.024272 
L 125.696423 116.863531 
L 135.013677 85.76546 
L 144.330931 64.027536 
L 153.648185 50.861033 
L 162.965439 44.09463 
L 172.282694 41.236092 
L 181.599948 40.312056 
L 190.917202 40.177682 
L 200.234456 40.390512 
L 209.55171 40.949576 
L 218.868965 42.130472 
L 228.186219 44.466311 
L 237.503473 48.807923 
L 246.820727 56.370732 
L 256.137981 68.68041 
L 265.455235 87.339291 
L 274.77249 113.578342 
L 284.089744 147.662058 
L 293.406998 188.353841 
L 302.724252 232.744878 
L 312.041506 276.692003 
L 321.35876 315.852809 
L 330.676015 346.951095 
L 339.993269 368.689703 
L 349.310523 381.858283 
L 358.627777 388.630696 
L 367.945031 391.505776 
L 377.262285 392.473093 
L 386.57954 392.714922 
L 395.896794 392.754858 
L 405.214048 392.758125 
L 414.531302 392.758125 
L 423.848556 392.758125 
L 433.165811 392.758125 
L 442.483065 392.758125 
L 451.800319 392.758125 
L 461.117573 392.758125 
L 470.434827 392.758125 
L 479.752081 392.758125 
L 489.069336 392.758125 
L 498.38659 392.758125 
L 507.703844 392.758125 
L 517.021098 392.758125 
L 526.338352 392.758125 
" style="fill:none;stroke:#ff7f0e;stroke-linecap:square;stroke-width:2;"/>
   </g>
   <g id="line2d_25">
    <path clip-path="url(#pb7419445c6)" d="M 69.792898 315.790093 
L 79.110152 282.452892 
L 88.427406 243.196004 
L 97.74466 200.667718 
L 107.061914 158.529632 
L 116.379169 120.605461 
L 125.696423 89.85647 
L 135.013677 67.619384 
L 144.330931 53.453598 
L 153.648185 45.633421 
L 162.965439 41.98335 
L 172.282694 40.623194 
L 181.599948 40.339583 
L 190.917202 40.584945 
L 200.234456 41.300142 
L 209.55171 42.759778 
L 218.868965 45.520642 
L 228.186219 50.440995 
L 237.503473 58.689821 
L 246.820727 71.663704 
L 256.137981 90.750281 
L 265.455235 116.926157 
L 274.77249 150.263359 
L 284.089744 189.520251 
L 293.406998 232.04855 
L 302.724252 274.186682 
L 312.041506 312.111 
L 321.35876 342.860448 
L 330.676015 365.098887 
L 339.993269 379.268513 
L 349.310523 387.099095 
L 358.627777 390.776064 
L 367.945031 392.202475 
L 377.262285 392.64137 
L 386.57954 392.741795 
L 395.896794 392.756986 
L 405.214048 392.758125 
L 414.531302 392.758125 
L 423.848556 392.758125 
L 433.165811 392.758125 
L 442.483065 392.758125 
L 451.800319 392.758125 
L 461.117573 392.758125 
L 470.434827 392.758125 
L 479.752081 392.758125 
L 489.069336 392.758125 
L 498.38659 392.758125 
L 507.703844 392.758125 
L 517.021098 392.758125 
L 526.338352 392.758125 
" style="fill:none;stroke:#2ca02c;stroke-linecap:square;stroke-width:2;"/>
   </g>
   <g id="line2d_26">
    <path clip-path="url(#pb7419445c6)" d="M 69.792898 280.125931 
L 79.110152 242.164149 
L 88.427406 201.28225 
L 97.74466 160.746877 
L 107.061914 123.958682 
L 116.379169 93.60905 
L 125.696423 71.036739 
L 135.013677 56.055124 
L 144.330931 47.298312 
L 153.648185 42.881748 
L 162.965439 41.051819 
L 172.282694 40.577417 
L 181.599948 40.835295 
L 190.917202 41.708288 
L 200.234456 43.454605 
L 209.55171 46.63684 
L 218.868965 52.10518 
L 228.186219 60.972758 
L 237.503473 74.51165 
L 246.820727 93.921389 
L 256.137981 119.971302 
L 265.455235 152.590323 
L 274.77249 190.552115 
L 284.089744 231.434045 
L 293.406998 271.969518 
L 302.724252 308.758014 
L 312.041506 339.108523 
L 321.35876 361.683282 
L 330.676015 376.671442 
L 339.993269 385.444999 
L 349.310523 389.902532 
L 358.627777 391.828186 
L 367.945031 392.51592 
L 377.262285 392.710868 
L 386.57954 392.75199 
L 395.896794 392.757728 
L 405.214048 392.758125 
L 414.531302 392.758125 
L 423.848556 392.758125 
L 433.165811 392.758125 
L 442.483065 392.758125 
L 451.800319 392.758125 
L 461.117573 392.758125 
L 470.434827 392.758125 
L 479.752081 392.758125 
L 489.069336 392.758125 
L 498.38659 392.758125 
L 507.703844 392.758125 
L 517.021098 392.758125 
L 526.338352 392.758125 
" style="fill:none;stroke:#d62728;stroke-linecap:square;stroke-width:2;"/>
   </g>
   <g id="line2d_27">
    <path clip-path="url(#pb7419445c6)" d="M 69.792898 241.242828 
L 79.110152 201.829848 
L 88.427406 162.727339 
L 97.74466 126.985588 
L 107.061914 97.063345 
L 116.379169 74.279336 
L 125.696423 58.633812 
L 135.013677 49.05214 
L 144.330931 43.910504 
L 153.648185 41.597327 
L 162.965439 40.900598 
L 172.282694 41.149429 
L 181.599948 42.174755 
L 190.917202 44.208024 
L 200.234456 47.801892 
L 209.55171 53.785052 
L 218.868965 63.208747 
L 228.186219 77.227468 
L 237.503473 96.876657 
L 246.820727 122.756078 
L 256.137981 154.687944 
L 265.455235 191.473454 
L 274.77249 230.8865 
L 284.089744 269.989207 
L 293.406998 305.731525 
L 302.724252 335.655326 
L 312.041506 358.443451 
L 321.35876 374.099415 
L 330.676015 383.706484 
L 339.993269 388.907304 
L 349.310523 391.352465 
L 358.627777 392.330529 
L 367.945031 392.654154 
L 377.262285 392.739194 
L 386.57954 392.755832 
L 395.896794 392.757986 
L 405.214048 392.758125 
L 414.531302 392.758125 
L 423.848556 392.758125 
L 433.165811 392.758125 
L 442.483065 392.758125 
L 451.800319 392.758125 
L 461.117573 392.758125 
L 470.434827 392.758125 
L 479.752081 392.758125 
L 489.069336 392.758125 
L 498.38659 392.758125 
L 507.703844 392.758125 
L 517.021098 392.758125 
L 526.338352 392.758125 
" style="fill:none;stroke:#9467bd;stroke-linecap:square;stroke-width:2;"/>
   </g>
   <g id="line2d_28">
    <path clip-path="url(#pb7419445c6)" d="M 69.792898 202.321868 
L 79.110152 164.510427 
L 88.427406 129.735596 
L 97.74466 100.254337 
L 107.061914 77.352543 
L 116.379169 61.16887 
L 125.696423 50.865478 
L 135.013677 45.049122 
L 144.330931 42.25451 
L 153.648185 41.31403 
L 162.965439 41.533255 
L 172.282694 42.700296 
L 181.599948 45.014088 
L 190.917202 49.004812 
L 200.234456 55.46853 
L 209.55171 65.390773 
L 218.868965 79.816259 
L 228.186219 99.637537 
L 237.503473 125.315101 
L 246.820727 156.591533 
L 256.137981 192.302684 
L 265.455235 230.394577 
L 274.77249 268.206383 
L 284.089744 302.982204 
L 293.406998 332.466053 
L 302.724252 355.374367 
L 312.041506 371.573818 
L 321.35876 381.913892 
L 330.676015 387.812104 
L 339.993269 390.781833 
L 349.310523 392.08109 
L 358.627777 392.564951 
L 367.945031 392.714086 
L 377.262285 392.750609 
L 386.57954 392.757272 
L 395.896794 392.758077 
L 405.214048 392.758125 
L 414.531302 392.758125 
L 423.848556 392.758125 
L 433.165811 392.758125 
L 442.483065 392.758125 
L 451.800319 392.758125 
L 461.117573 392.758125 
L 470.434827 392.758125 
L 479.752081 392.758125 
L 489.069336 392.758125 
L 498.38659 392.758125 
L 507.703844 392.758125 
L 517.021098 392.758125 
L 526.338352 392.758125 
" style="fill:none;stroke:#8c564b;stroke-linecap:square;stroke-width:2;"/>
   </g>
   <g id="line2d_29">
    <path clip-path="url(#pb7419445c6)" d="M 69.792898 166.126972 
L 79.110152 132.248399 
L 88.427406 103.212301 
L 97.74466 80.264686 
L 107.061914 63.647185 
L 116.379169 52.715469 
L 125.696423 46.278738 
L 135.013677 43.015489 
L 144.330931 41.8189 
L 153.648185 41.990433 
L 162.965439 43.285335 
L 172.282694 45.867868 
L 181.599948 50.23662 
L 190.917202 57.146331 
L 200.234456 67.514566 
L 209.55171 82.284117 
L 218.868965 102.223032 
L 228.186219 127.676967 
L 237.503473 158.32924 
L 246.820727 193.054194 
L 256.137981 229.949456 
L 265.455235 266.590269 
L 274.77249 300.470472 
L 284.089744 329.510647 
L 293.406998 352.468082 
L 302.724252 369.108371 
L 312.041506 380.090961 
L 321.35876 386.636876 
L 330.676015 390.125159 
L 339.993269 391.766705 
L 349.310523 392.438246 
L 358.627777 392.672202 
L 367.945031 392.73969 
L 377.262285 392.755164 
L 386.57954 392.757809 
L 395.896794 392.758108 
L 405.214048 392.758125 
L 414.531302 392.758125 
L 423.848556 392.758125 
L 433.165811 392.758125 
L 442.483065 392.758125 
L 451.800319 392.758125 
L 461.117573 392.758125 
L 470.434827 392.758125 
L 479.752081 392.758125 
L 489.069336 392.758125 
L 498.38659 392.758125 
L 507.703844 392.758125 
L 517.021098 392.758125 
L 526.338352 392.758125 
" style="fill:none;stroke:#e377c2;stroke-linecap:square;stroke-width:2;"/>
   </g>
   <g id="line2d_30">
    <path clip-path="url(#pb7419445c6)" d="M 69.792898 134.556285 
L 79.110152 105.963379 
L 88.427406 83.025474 
L 97.74466 66.060986 
L 107.061914 54.584598 
L 116.379169 47.582657 
L 125.696423 43.871072 
L 135.013677 42.413585 
L 144.330931 42.522481 
L 153.648185 43.929734 
L 162.965439 46.765295 
L 172.282694 51.490176 
L 181.599948 58.811511 
L 190.917202 69.57787 
L 200.234456 84.637569 
L 209.55171 104.649928 
L 218.868965 129.865508 
L 228.186219 159.923815 
L 237.503473 193.739411 
L 246.820727 229.544159 
L 256.137981 265.116408 
L 265.455235 298.164176 
L 274.77249 326.763206 
L 284.089744 349.715293 
L 293.406998 366.711459 
L 302.724252 378.256025 
L 312.041506 385.399225 
L 321.35876 389.392318 
L 330.676015 391.388864 
L 339.993269 392.270775 
L 349.310523 392.609557 
L 358.627777 392.720431 
L 367.945031 392.750488 
L 377.262285 392.756967 
L 386.57954 392.758008 
L 395.896794 392.758119 
L 405.214048 392.758125 
L 414.531302 392.758125 
L 423.848556 392.758125 
L 433.165811 392.758125 
L 442.483065 392.758125 
L 451.800319 392.758125 
L 461.117573 392.758125 
L 470.434827 392.758125 
L 479.752081 392.758125 
L 489.069336 392.758125 
L 498.38659 392.758125 
L 507.703844 392.758125 
L 517.021098 392.758125 
L 526.338352 392.758125 
" style="fill:none;stroke:#7f7f7f;stroke-linecap:square;stroke-width:2;"/>
   </g>
   <g id="line2d_31">
    <path clip-path="url(#pb7419445c6)" d="M 69.792898 108.530171 
L 79.110152 85.645071 
L 88.427406 68.406191 
L 97.74466 56.459592 
L 107.061914 48.946446 
L 116.379169 44.81164 
L 125.696423 43.094479 
L 135.013677 43.129069 
L 144.330931 44.632691 
L 153.648185 47.702948 
L 162.965439 52.759922 
L 172.282694 60.459051 
L 181.599948 71.579917 
L 190.917202 86.883247 
L 200.234456 106.93304 
L 209.55171 131.900755 
L 218.868965 161.39387 
L 228.186219 194.36754 
L 237.503473 229.17308 
L 246.820727 263.765089 
L 256.137981 296.036903 
L 265.455235 324.201395 
L 274.77249 347.106253 
L 284.089744 364.387762 
L 293.406998 376.423099 
L 302.724252 384.11432 
L 312.041506 388.593326 
L 321.35876 390.950697 
L 330.676015 392.060854 
L 339.993269 392.522885 
L 349.310523 392.690172 
L 358.627777 392.741792 
L 367.945031 392.75499 
L 377.262285 392.757675 
L 386.57954 392.758082 
L 395.896794 392.758123 
L 405.214048 392.758125 
L 414.531302 392.758125 
L 423.848556 392.758125 
L 433.165811 392.758125 
L 442.483065 392.758125 
L 451.800319 392.758125 
L 461.117573 392.758125 
L 470.434827 392.758125 
L 479.752081 392.758125 
L 489.069336 392.758125 
L 498.38659 392.758125 
L 507.703844 392.758125 
L 517.021098 392.758125 
L 526.338352 392.758125 
" style="fill:none;stroke:#bcbd22;stroke-linecap:square;stroke-width:2;"/>
   </g>
   <g id="line2d_32">
    <path clip-path="url(#pb7419445c6)" d="M 69.792898 88.133568 
L 79.110152 70.681249 
L 88.427406 58.330496 
L 97.74466 50.35781 
L 107.061914 45.827701 
L 116.379169 43.856676 
L 125.696423 43.808393 
L 135.013677 45.392742 
L 144.330931 48.677863 
L 153.648185 54.041594 
L 162.965439 62.085501 
L 172.282694 73.521049 
L 181.599948 89.027693 
L 190.917202 109.085459 
L 200.234456 133.799671 
L 209.55171 162.7548 
L 218.868965 194.946092 
L 228.186219 228.831662 
L 237.503473 262.520223 
L 246.820727 294.066737 
L 256.137981 321.805913 
L 265.455235 344.631292 
L 274.77249 362.139395 
L 284.089744 374.602791 
L 293.406998 382.795023 
L 302.724252 387.737822 
L 312.041506 390.456361 
L 321.35876 391.808121 
L 330.676015 392.409729 
L 339.993269 392.646427 
L 349.310523 392.72747 
L 358.627777 392.751126 
L 367.945031 392.756849 
L 377.262285 392.757951 
L 386.57954 392.758109 
L 395.896794 392.758124 
L 405.214048 392.758125 
L 414.531302 392.758125 
L 423.848556 392.758125 
L 433.165811 392.758125 
L 442.483065 392.758125 
L 451.800319 392.758125 
L 461.117573 392.758125 
L 470.434827 392.758125 
L 479.752081 392.758125 
L 489.069336 392.758125 
L 498.38659 392.758125 
L 507.703844 392.758125 
L 517.021098 392.758125 
L 526.338352 392.758125 
" style="fill:none;stroke:#17becf;stroke-linecap:square;stroke-width:2;"/>
   </g>
   <g id="patch_3">
    <path d="M 46.965625 410.398125 
L 46.965625 22.318125 
" style="fill:none;stroke:#000000;stroke-linecap:square;stroke-linejoin:miter;stroke-width:0.8;"/>
   </g>
   <g id="patch_4">
    <path d="M 549.165625 410.398125 
L 549.165625 22.318125 
" style="fill:none;stroke:#000000;stroke-linecap:square;stroke-linejoin:miter;stroke-width:0.8;"/>
   </g>
   <g id="patch_5">
    <path d="M 46.965625 410.398125 
L 549.165625 410.398125 
" style="fill:none;stroke:#000000;stroke-linecap:square;stroke-linejoin:miter;stroke-width:0.8;"/>
   </g>
   <g id="patch_6">
    <path d="M 46.965625 22.318125 
L 549.165625 22.318125 
" style="fill:none;stroke:#000000;stroke-linecap:square;stroke-linejoin:miter;stroke-width:0.8;"/>
   </g>
   <g id="text_15">
    <!-- Adveccao -->
    <defs>
     <path d="M 34.1875 63.1875 
L 20.796875 26.90625 
L 47.609375 26.90625 
z
M 28.609375 72.90625 
L 39.796875 72.90625 
L 67.578125 0 
L 57.328125 0 
L 50.6875 18.703125 
L 17.828125 18.703125 
L 11.1875 0 
L 0.78125 0 
z
" id="DejaVuSans-65"/>
     <path d="M 45.40625 46.390625 
L 45.40625 75.984375 
L 54.390625 75.984375 
L 54.390625 0 
L 45.40625 0 
L 45.40625 8.203125 
Q 42.578125 3.328125 38.25 0.953125 
Q 33.9375 -1.421875 27.875 -1.421875 
Q 17.96875 -1.421875 11.734375 6.484375 
Q 5.515625 14.40625 5.515625 27.296875 
Q 5.515625 40.1875 11.734375 48.09375 
Q 17.96875 56 27.875 56 
Q 33.9375 56 38.25 53.625 
Q 42.578125 51.265625 45.40625 46.390625 
z
M 14.796875 27.296875 
Q 14.796875 17.390625 18.875 11.75 
Q 22.953125 6.109375 30.078125 6.109375 
Q 37.203125 6.109375 41.296875 11.75 
Q 45.40625 17.390625 45.40625 27.296875 
Q 45.40625 37.203125 41.296875 42.84375 
Q 37.203125 48.484375 30.078125 48.484375 
Q 22.953125 48.484375 18.875 42.84375 
Q 14.796875 37.203125 14.796875 27.296875 
z
" id="DejaVuSans-100"/>
     <path d="M 2.984375 54.6875 
L 12.5 54.6875 
L 29.59375 8.796875 
L 46.6875 54.6875 
L 56.203125 54.6875 
L 35.6875 0 
L 23.484375 0 
z
" id="DejaVuSans-118"/>
     <path d="M 56.203125 29.59375 
L 56.203125 25.203125 
L 14.890625 25.203125 
Q 15.484375 15.921875 20.484375 11.0625 
Q 25.484375 6.203125 34.421875 6.203125 
Q 39.59375 6.203125 44.453125 7.46875 
Q 49.3125 8.734375 54.109375 11.28125 
L 54.109375 2.78125 
Q 49.265625 0.734375 44.1875 -0.34375 
Q 39.109375 -1.421875 33.890625 -1.421875 
Q 20.796875 -1.421875 13.15625 6.1875 
Q 5.515625 13.8125 5.515625 26.8125 
Q 5.515625 40.234375 12.765625 48.109375 
Q 20.015625 56 32.328125 56 
Q 43.359375 56 49.78125 48.890625 
Q 56.203125 41.796875 56.203125 29.59375 
z
M 47.21875 32.234375 
Q 47.125 39.59375 43.09375 43.984375 
Q 39.0625 48.390625 32.421875 48.390625 
Q 24.90625 48.390625 20.390625 44.140625 
Q 15.875 39.890625 15.1875 32.171875 
z
" id="DejaVuSans-101"/>
     <path d="M 48.78125 52.59375 
L 48.78125 44.1875 
Q 44.96875 46.296875 41.140625 47.34375 
Q 37.3125 48.390625 33.40625 48.390625 
Q 24.65625 48.390625 19.8125 42.84375 
Q 14.984375 37.3125 14.984375 27.296875 
Q 14.984375 17.28125 19.8125 11.734375 
Q 24.65625 6.203125 33.40625 6.203125 
Q 37.3125 6.203125 41.140625 7.25 
Q 44.96875 8.296875 48.78125 10.40625 
L 48.78125 2.09375 
Q 45.015625 0.34375 40.984375 -0.53125 
Q 36.96875 -1.421875 32.421875 -1.421875 
Q 20.0625 -1.421875 12.78125 6.34375 
Q 5.515625 14.109375 5.515625 27.296875 
Q 5.515625 40.671875 12.859375 48.328125 
Q 20.21875 56 33.015625 56 
Q 37.15625 56 41.109375 55.140625 
Q 45.0625 54.296875 48.78125 52.59375 
z
" id="DejaVuSans-99"/>
     <path d="M 34.28125 27.484375 
Q 23.390625 27.484375 19.1875 25 
Q 14.984375 22.515625 14.984375 16.5 
Q 14.984375 11.71875 18.140625 8.90625 
Q 21.296875 6.109375 26.703125 6.109375 
Q 34.1875 6.109375 38.703125 11.40625 
Q 43.21875 16.703125 43.21875 25.484375 
L 43.21875 27.484375 
z
M 52.203125 31.203125 
L 52.203125 0 
L 43.21875 0 
L 43.21875 8.296875 
Q 40.140625 3.328125 35.546875 0.953125 
Q 30.953125 -1.421875 24.3125 -1.421875 
Q 15.921875 -1.421875 10.953125 3.296875 
Q 6 8.015625 6 15.921875 
Q 6 25.140625 12.171875 29.828125 
Q 18.359375 34.515625 30.609375 34.515625 
L 43.21875 34.515625 
L 43.21875 35.40625 
Q 43.21875 41.609375 39.140625 45 
Q 35.0625 48.390625 27.6875 48.390625 
Q 23 48.390625 18.546875 47.265625 
Q 14.109375 46.140625 10.015625 43.890625 
L 10.015625 52.203125 
Q 14.9375 54.109375 19.578125 55.046875 
Q 24.21875 56 28.609375 56 
Q 40.484375 56 46.34375 49.84375 
Q 52.203125 43.703125 52.203125 31.203125 
z
" id="DejaVuSans-97"/>
     <path d="M 30.609375 48.390625 
Q 23.390625 48.390625 19.1875 42.75 
Q 14.984375 37.109375 14.984375 27.296875 
Q 14.984375 17.484375 19.15625 11.84375 
Q 23.34375 6.203125 30.609375 6.203125 
Q 37.796875 6.203125 41.984375 11.859375 
Q 46.1875 17.53125 46.1875 27.296875 
Q 46.1875 37.015625 41.984375 42.703125 
Q 37.796875 48.390625 30.609375 48.390625 
z
M 30.609375 56 
Q 42.328125 56 49.015625 48.375 
Q 55.71875 40.765625 55.71875 27.296875 
Q 55.71875 13.875 49.015625 6.21875 
Q 42.328125 -1.421875 30.609375 -1.421875 
Q 18.84375 -1.421875 12.171875 6.21875 
Q 5.515625 13.875 5.515625 27.296875 
Q 5.515625 40.765625 12.171875 48.375 
Q 18.84375 56 30.609375 56 
z
" id="DejaVuSans-111"/>
    </defs>
    <g transform="translate(268.96375 16.318125)scale(0.12 -0.12)">
     <use xlink:href="#DejaVuSans-65"/>
     <use x="68.392578" xlink:href="#DejaVuSans-100"/>
     <use x="131.869141" xlink:href="#DejaVuSans-118"/>
     <use x="191.048828" xlink:href="#DejaVuSans-101"/>
     <use x="252.572266" xlink:href="#DejaVuSans-99"/>
     <use x="307.552734" xlink:href="#DejaVuSans-99"/>
     <use x="362.533203" xlink:href="#DejaVuSans-97"/>
     <use x="423.8125" xlink:href="#DejaVuSans-111"/>
    </g>
   </g>
  </g>
 </g>
 <defs>
  <clipPath id="pb7419445c6">
   <rect height="388.08" width="502.2" x="46.965625" y="22.318125"/>
  </clipPath>
 </defs>
</svg>
